<svg id="Layer_1" data-name="Layer 1" xmlns="http://www.w3.org/2000/svg" viewBox="0 0 1155.89 684.63"><title>artwork</title><path d="M535.89,178.93c-37.87,8.66-81.66-21-70.53-47.79s53.7-39.87,83.74-36.34C597.2,100.44,573.77,170.28,535.89,178.93Z" fill="#fff9f0"/><path d="M1155.89,119.17V526.6s-55.64,21.83-108,33.4c-4.32,1-8.61,1.84-12.84,2.63-2,.38-4.06.75-6.07,1.09l-3.14.51-3.12.48-3.24.46q-3,.41-5.88.73c-5,.54-9.75.9-14.29,1-5.35.16-10.45.22-15.36.19l-2.25,0-2.59,0-2.61-.05-1.39,0-2.28-.08c-.72,0-1.43,0-2.14-.09l-2-.09c-1.84-.09-3.65-.19-5.45-.31l-2.81-.2-.27,0c-1.77-.14-3.51-.28-5.24-.44-1-.09-2-.19-3-.3l-3.29-.35-3-.35-2.42-.31-.72-.1-1.07-.14c-1.19-.16-2.37-.33-3.56-.51l-3.18-.48-.28-.05-3.63-.59-3.56-.62c-1.43-.25-2.87-.51-4.32-.79l-2-.38-.28,0-2.06-.4c-8.95-1.78-18.25-3.87-28.39-6.25a.07.07,0,0,1-.06,0l-9.26-2.2-3.88-.93-6-1.44-4.11-1-4.2-1c-6.57-1.59-13.52-3.25-20.94-5C773.09,526.36,710.5,526.94,660,533a4.1,4.1,0,0,0-.49.06l-.76.09-.69.09c-19.41,2.39-37,5.59-52.45,8.94-37.05,8-61.71,16.94-69.27,17.78l-.32,0-.46,0-6.18.51c-26.34,2.13-48.92,3.25-65,2.43-77.33-3.94-159.35-115.92-154-205.52,4.64-77.58,40.27-126.72,184.31-140.73C630.94,203.48,689.27,5.44,875.84,5.55,1085.05,5.68,1155.89,119.17,1155.89,119.17Z" fill="#fff9f0"/><path d="M866.19,127.53a2,2,0,0,1-.06.4c0,.27-.13.66-.21,1.18a35.65,35.65,0,0,0-.44,4.56,32,32,0,0,0,.61,7.2,29.42,29.42,0,0,0,3.38,8.92,97.34,97.34,0,0,0,6.7,9.52,48.44,48.44,0,0,1,6.73,11.6A44.76,44.76,0,0,1,886,185.39a40.74,40.74,0,0,1-10.66,29.28,38.66,38.66,0,0,1-11.86,8.85c-4.25,2.09-8.48,3.61-12.22,5.49a31.79,31.79,0,0,0-9.38,6.73,31.29,31.29,0,0,0-7.78,14.69c-.24,1-.34,1.85-.47,2.6s-.16,1.41-.19,1.93,0,.9-.06,1.19a1.65,1.65,0,0,1,0,.41s0-.14,0-.41,0-.69,0-1.2.08-1.17.14-1.94.2-1.65.43-2.62a30.11,30.11,0,0,1,2.31-6.9,30.7,30.7,0,0,1,5.41-8,32.19,32.19,0,0,1,9.44-6.85c3.76-1.91,8-3.45,12.21-5.53A38.56,38.56,0,0,0,875,214.36a40.37,40.37,0,0,0,10.54-29,44.53,44.53,0,0,0-3-14.34,48.43,48.43,0,0,0-6.63-11.52,96.8,96.8,0,0,1-6.68-9.59,29.66,29.66,0,0,1-3.35-9,31.59,31.59,0,0,1,0-11.83c.09-.52.2-.91.25-1.17A2.61,2.61,0,0,1,866.19,127.53Z" fill="#fbd5a7"/><path d="M904.46,133.94a52.45,52.45,0,0,1-1.87,6,48.41,48.41,0,0,1-3,6.76,28.28,28.28,0,0,1-6,7.76,19.3,19.3,0,0,1-2.24,1.69c-.83.5-1.68,1-2.56,1.42l-5.51,2.83c-3.8,1.94-7.89,4-12.07,6.32a43.82,43.82,0,0,0-11.57,9.43,38.76,38.76,0,0,0-7.81,13.93,35.38,35.38,0,0,0-1.13,15.9,31.71,31.71,0,0,0,5.62,13.73c2.81,3.87,6.12,7.05,8.77,10.43a32.46,32.46,0,0,1,3.45,5.16,29.66,29.66,0,0,1,2.14,5.31,30.77,30.77,0,0,1,1.16,9.75,28.65,28.65,0,0,1-1.26,7.3,27.76,27.76,0,0,1-1.75,4.35c-.25.45-.44.81-.58,1.07s-.22.35-.22.35,0-.13.17-.38.32-.62.55-1.08a30.66,30.66,0,0,0,1.65-4.36,28.44,28.44,0,0,0,1.17-7.26,30.45,30.45,0,0,0-1.21-9.64,29.25,29.25,0,0,0-2.15-5.24,32.7,32.7,0,0,0-3.43-5.09c-2.64-3.34-6-6.51-8.82-10.42a32,32,0,0,1-5.72-13.91A36,36,0,0,1,851.33,190a39.11,39.11,0,0,1,7.92-14.09,44.1,44.1,0,0,1,11.7-9.51c4.21-2.34,8.3-4.37,12.12-6.29l5.51-2.8c.89-.45,1.74-.91,2.54-1.4a17.64,17.64,0,0,0,2.21-1.65,27.82,27.82,0,0,0,6-7.63,50.61,50.61,0,0,0,3.1-6.7c.73-1.89,1.21-3.4,1.54-4.41.15-.5.27-.88.36-1.16S904.46,133.94,904.46,133.94Z" fill="#fbd5a7"/><path d="M890.07,156.71c0,.13-4.42-.66-9.81-1.77s-9.74-2.12-9.72-2.24,4.42.66,9.81,1.77S890.09,156.59,890.07,156.71Z" fill="#fbd5a7"/><path d="M896.73,150.42c0,.13-6.79-1.75-15.1-4.18s-15-4.51-15-4.63,6.8,1.74,15.11,4.18S896.77,150.3,896.73,150.42Z" fill="#fbd5a7"/><path d="M901.62,142.16c0,.13-8.14-2.2-18.1-5.19s-18-5.52-18-5.65,8.15,2.2,18.11,5.2S901.66,142,901.62,142.16Z" fill="#fbd5a7"/><path d="M870.6,218.75c-.05.12-4.4-1.44-9.72-3.48s-9.59-3.8-9.55-3.92,4.4,1.43,9.72,3.48S870.65,218.63,870.6,218.75Z" fill="#fbd5a7"/><path d="M879.14,209a5.9,5.9,0,0,1-1.16-.28c-.74-.21-1.81-.53-3.13-1-2.62-.83-6.23-2-10.17-3.52s-7.47-2.91-10-4c-1.26-.54-2.28-1-3-1.32a5.56,5.56,0,0,1-1.06-.55,5.38,5.38,0,0,1,1.13.38l3,1.18c2.56,1,6.1,2.4,10,3.86s7.51,2.74,10.11,3.65L878,208.5A5.24,5.24,0,0,1,879.14,209Z" fill="#fbd5a7"/><path d="M884.05,198.34a8,8,0,0,1-1.26-.46l-3.36-1.41c-2.84-1.18-6.78-2.77-11.18-4.41s-8.43-3-11.35-4L853.44,187a8.3,8.3,0,0,1-1.26-.47,6.06,6.06,0,0,1,1.31.29c.84.21,2,.55,3.51,1,3,.88,7,2.2,11.41,3.84s8.34,3.29,11.15,4.56c1.41.63,2.54,1.15,3.31,1.54A7.87,7.87,0,0,1,884.05,198.34Z" fill="#fbd5a7"/><path d="M884.11,185.1a4.88,4.88,0,0,1-1-.29l-2.66-.91c-2.25-.79-5.35-1.86-8.79-3s-6.59-2.08-8.86-2.76l-2.69-.83a4.47,4.47,0,0,1-1-.35,3.7,3.7,0,0,1,1,.18c.65.14,1.58.37,2.73.67,2.3.61,5.46,1.52,8.91,2.64s6.55,2.25,8.76,3.11c1.11.43,2,.8,2.61,1.06A4.65,4.65,0,0,1,884.11,185.1Z" fill="#fbd5a7"/><path d="M884.24,174.8a82.92,82.92,0,0,1-8.47-2.63,85.15,85.15,0,0,1-8.32-3.08,80.81,80.81,0,0,1,8.47,2.63A85.15,85.15,0,0,1,884.24,174.8Z" fill="#fbd5a7"/><path d="M870.08,238.73a3.82,3.82,0,0,1-.9-.24l-2.4-.82-7.9-2.72L851,232.28l-2.4-.82a3.12,3.12,0,0,1-.86-.36,3.73,3.73,0,0,1,.91.19c.59.14,1.42.38,2.45.68,2.06.59,4.88,1.48,8,2.53s5.87,2.08,7.87,2.86c1,.39,1.8.72,2.35.95A3.17,3.17,0,0,1,870.08,238.73Z" fill="#fbd5a7"/><path d="M871.69,250.74c0,.13-7.52-2.3-16.7-5.42s-16.6-5.74-16.56-5.86,7.52,2.3,16.71,5.41S871.73,250.62,871.69,250.74Z" fill="#fbd5a7"/><path d="M871.54,259.68c0,.13-8.39-2.33-18.65-5.48s-18.55-5.81-18.52-5.93,8.39,2.33,18.66,5.48S871.58,259.56,871.54,259.68Z" fill="#fbd5a7"/><path d="M609.27,442.79s-2.13,5.46,2.46,6.31,14.73-.75,16.77,4.88c2.12,5.83-2.12,11.33-10.72,16.16s-27,16.08-28.71,17.1-3.27,3.55-.23,4.63,25.8,3.47,24,14.21-27.94,20.24-30.78,21.33-3.52,2.3-3.29,3.85,8,1.65,14.41,2.59c6.11.9,13,2.95,12.38,8.34-31.12,6.74-53.5,14.11-64.34,16.79a42.2,42.2,0,0,1-4.91,1c-2.36.2-4.68.4-7,.58l-5.78-8.91c-18.47-33-16.79-53-12.66-57.78s10.14,0,14.59,4.73c.54.57,1.08,1.17,1.61,1.77,3.89,4.4,7.5,9.2,8.74,8.58,1.42-.7,2-1.94,1.29-4.9s-7.86-29.85-.06-37.45,22.76,9.74,25.39,11.62,3.77-.92,3.66-2.84-1.4-23.52-2.35-33.33,1.15-16.44,7.15-18c5.79-1.54,10.25,7.69,13.58,11s6.59-1.58,6.59-1.58,4.8-13.48,17.25-36.78c11.39-21.31,20.49-17.52,21.95-16.72h.05l0,0c1,.42,10.66,5.33-.76,27.68C617.6,431.15,609.27,442.79,609.27,442.79Z" fill="#fff3e2"/><path d="M619.32,400.88s-.07.17-.22.5l-.72,1.46c-.65,1.3-1.59,3.18-2.8,5.58-2.44,4.85-6,11.84-10.46,20.46-8.9,17.23-21.39,40.94-35.27,67.08L563.44,508l-.09.17c-7.3,13.77-14.11,26.61-20,37.88a1,1,0,0,0-.09.17c-2.59,4.9-5,9.5-7.23,13.74l-.46,0c2.08-4,4.34-8.36,6.75-13l0,0,.4-.77a.83.83,0,0,0,.07-.13c5.91-11.3,12.69-24.17,20-38a.3.3,0,0,0,.06-.11c2.14-4,4.32-8.15,6.54-12.32l14.49-27.3a.34.34,0,0,1,.06-.12c8-15.13,15.14-28.67,20.85-39.59l10.62-20.37,2.89-5.54c.33-.61.58-1.09.77-1.43S619.32,400.88,619.32,400.88Z" fill="#e0e0e0"/><path d="M576.65,437.17a5.12,5.12,0,0,1,.42,1.2c.24.78.56,1.92.93,3.33.74,2.82,1.66,6.74,2.6,11.09s1.74,8.17,2.37,11.13c.29,1.34.54,2.47.74,3.37a5.19,5.19,0,0,1,.22,1.25,5.79,5.79,0,0,1-.43-1.19c-.23-.79-.55-1.92-.91-3.34-.71-2.83-1.58-6.76-2.52-11.11s-1.79-8.15-2.45-11.11c-.3-1.33-.55-2.46-.75-3.37A6.75,6.75,0,0,1,576.65,437.17Z" fill="#e0e0e0"/><path d="M585.54,468.88c0-.14,8-2.4,17.87-5s18-4.67,18-4.52-8,2.4-17.87,5S585.58,469,585.54,468.88Z" fill="#e0e0e0"/><path d="M562.41,508.07a5.52,5.52,0,0,1,1.3,0l3.52.08c3,.06,7.08.13,11.61,0s8.63-.29,11.6-.47l3.52-.2a5.54,5.54,0,0,1,1.29,0,5.42,5.42,0,0,1-1.27.23c-.83.11-2,.24-3.51.38-3,.28-7.07.55-11.62.63s-8.66,0-11.64-.21c-1.48-.08-2.69-.17-3.51-.25A5.84,5.84,0,0,1,562.41,508.07Z" fill="#e0e0e0"/><path d="M548.06,481.16a4.44,4.44,0,0,1,.67,1l1.65,2.81c1.36,2.39,3.22,5.7,5.24,9.38s3.82,7,5.1,9.45l1.5,2.89a5.24,5.24,0,0,1,.48,1.1,4.79,4.79,0,0,1-.67-1L560.39,504c-1.37-2.39-3.23-5.7-5.25-9.38s-3.82-7-5.1-9.45c-.59-1.14-1.09-2.11-1.49-2.9A4.87,4.87,0,0,1,548.06,481.16Z" fill="#e0e0e0"/><path d="M523.25,513.16a7.66,7.66,0,0,1,.84,1.28c.56.94,1.27,2.15,2.12,3.6,1.77,3,4.19,7.27,6.82,12s5,8.94,6.68,12c.79,1.48,1.45,2.72,2,3.68a7.38,7.38,0,0,1,.65,1.38,8.53,8.53,0,0,1-.84-1.28l-2.12-3.59c-1.77-3.05-4.18-7.28-6.81-12s-5-8.94-6.68-12c-.8-1.48-1.46-2.72-2-3.68A9.1,9.1,0,0,1,523.25,513.16Z" fill="#e0e0e0"/><path d="M542.11,546.16a9.64,9.64,0,0,1,1.64-.08l4.46-.06c3.78-.06,9-.15,14.73-.42s10.95-.63,14.71-.92l4.46-.35a9.67,9.67,0,0,1,1.64-.06,9.64,9.64,0,0,1-1.62.27c-1,.15-2.57.33-4.44.52-3.76.4-9,.83-14.72,1.09s-11,.3-14.76.25c-1.88,0-3.41-.06-4.47-.11A9.35,9.35,0,0,1,542.11,546.16Z" fill="#e0e0e0"/><path d="M1096.62,337.12s-4,10.13,4.57,11.71,27.31-1.4,31.1,9c3.94,10.83-3.93,21-19.88,30s-50.18,29.83-53.27,31.73-6.07,6.58-.43,8.58,47.88,6.45,44.57,26.37-51.83,37.54-57.1,39.57-6.53,4.26-6.1,7.15,14.76,3.05,26.72,4.8,25.53,5.89,22.66,17.22c-1.87,7.38-14.71,20-42.69,29.84-15,5.26-34.37,9.7-58.72,12.07l-27.84,1c-1.77-.14-3.51-.28-5.24-.44l-17.34-26.69c-34.27-61.18-31.15-98.37-23.48-107.19s18.8-.05,27.07,8.77,16.58,20.5,19.2,19.2,3.73-3.61,2.39-9.09-14.58-55.39-.12-69.47,42.23,18.06,47.1,21.54,7-1.71,6.8-5.26-2.6-43.64-4.36-61.84,2.13-30.49,13.27-33.45a9.2,9.2,0,0,1,2.11-.31c9.71-.3,17.31,15,23.07,20.69,6.16,6.1,12.22-2.93,12.22-2.93s8.92-25,32-68.23c21.13-39.56,38-32.5,40.72-31,0,0,21,7.8-1.27,51.43S1096.62,337.12,1096.62,337.12Z" fill="#fff3e2"/><path d="M957.16,559.76c16.51-32,39.68-76,65.44-124.48s49-92.42,65.68-124.31L1108,273.18l5.37-10.27c.6-1.14,1.08-2,1.41-2.66s.52-.89.52-.89-.13.33-.42.94l-1.33,2.7-5.2,10.36c-4.52,9-11.15,22-19.41,37.94-16.51,32-39.68,76-65.42,124.46s-49,92.44-65.69,124.33" fill="#e0e0e0"/><path d="M1036.11,326.7a10.3,10.3,0,0,1,.78,2.22c.44,1.45,1,3.56,1.71,6.17,1.38,5.24,3.09,12.51,4.84,20.58l4.39,20.65c.54,2.48,1,4.57,1.37,6.25a10.23,10.23,0,0,1,.41,2.32,9.91,9.91,0,0,1-.79-2.22c-.44-1.45-1-3.56-1.69-6.18-1.32-5.25-2.94-12.55-4.68-20.61l-4.54-20.62c-.56-2.47-1-4.56-1.4-6.24A10.57,10.57,0,0,1,1036.11,326.7Z" fill="#e0e0e0"/><path d="M1052.59,385.53c-.07-.27,14.77-4.47,33.15-9.37s33.35-8.65,33.42-8.38-14.77,4.46-33.16,9.36S1052.66,385.79,1052.59,385.53Z" fill="#e0e0e0"/><path d="M1009.69,458.22a11.54,11.54,0,0,1,2.4-.06l6.53.15c5.52.12,13.13.25,21.54.08s16-.54,21.53-.87l6.52-.38a10.52,10.52,0,0,1,2.4,0,10.44,10.44,0,0,1-2.37.42c-1.53.2-3.75.46-6.5.71-5.5.51-13.12,1-21.56,1.17s-16.07-.08-21.58-.39c-2.76-.16-5-.31-6.53-.47A10.33,10.33,0,0,1,1009.69,458.22Z" fill="#e0e0e0"/><path d="M983.07,408.29a9.78,9.78,0,0,1,1.24,1.85l3.05,5.22c2.54,4.42,6,10.57,9.73,17.39s7.09,13,9.47,17.53l2.76,5.37a9.19,9.19,0,0,1,.9,2,9.78,9.78,0,0,1-1.24-1.85l-3.05-5.21c-2.54-4.43-6-10.58-9.73-17.4s-7.09-13-9.47-17.53q-1.63-3.18-2.77-5.37A9.39,9.39,0,0,1,983.07,408.29Z" fill="#e0e0e0"/><path d="M937,467.66A15.4,15.4,0,0,1,938.6,470l3.94,6.67c3.28,5.65,7.75,13.49,12.64,22.19s9.26,16.59,12.39,22.34l3.65,6.82a15.86,15.86,0,0,1,1.22,2.57,15,15,0,0,1-1.56-2.38c-1-1.73-2.35-4-3.94-6.66-3.28-5.66-7.75-13.5-12.64-22.2S945,482.8,941.91,477.06l-3.65-6.83A15.4,15.4,0,0,1,937,467.66Z" fill="#e0e0e0"/><path d="M972,528.89a17.88,17.88,0,0,1,3-.16l8.29-.11c7-.1,16.66-.27,27.32-.77s20.31-1.17,27.29-1.71l8.26-.64a18.88,18.88,0,0,1,3-.13,17.49,17.49,0,0,1-3,.52c-2,.26-4.76.6-8.25,1-7,.73-16.62,1.53-27.3,2s-20.37.56-27.37.48c-3.5-.05-6.34-.12-8.29-.22A17.31,17.31,0,0,1,972,528.89Z" fill="#e0e0e0"/><path d="M410.15,492.66c-2.57,24-11,49.95-33.52,61.37-.68.14-1.35.27-2,.38l-.61.11c-12.14,1.93-22.95-.93-34.18-6.7-12-6.18-22.05-16-29.33-27.51-2.09-3.29-4-6.8-4.63-10.66s.18-8.14,2.91-10.91c4.16-4.22,11.26-3.6,16.42-.77,2.76,1.51,5.26,3.56,8.23,4.56s6.76.62,8.58-2,.9-6.36-1.16-8.75-5-3.75-7.77-5.24a76.5,76.5,0,0,1-20.62-16.14c-2.95-3.26-5.74-8-3.54-11.81,1.59-2.76,5.13-3.65,8.28-3.58s6.31.84,9.41.27c2.73-.5,5.61-2.77,5.12-5.54-.27-1.54-1.49-2.69-2.61-3.75a89.4,89.4,0,0,1-15.95-20.19c-2.91-5-5.37-11.17-3.14-16.56s8.78-8,14.41-6.9,10.29,5.32,13.39,10.21,4.87,10.51,6.74,16,3.92,11.06,7.45,15.64c1,1.33,2.45,2.68,4.1,2.44s2.65-1.95,3-3.58.25-3.36.81-4.93c1.35-3.77,6.32-5.28,9.95-3.69s5.86,5.48,6.56,9.42.11,8-.48,11.95q-1.63,11.09-3.28,22.17c-.58,4-.85,8.78,2.32,11.16,2.31,1.74,5.57,1.38,8.3.42A23.56,23.56,0,0,0,393.91,482c2.06-2.62,3.84-5.88,7-6.85,3.81-1.18,7.9,1.84,9.3,5.61S410.58,488.65,410.15,492.66Z" fill="#fff3e2"/><path d="M374.61,554.41l-.61.11c-.37-4.56-1.08-9.44-2.09-16.24a368.07,368.07,0,0,0-8.73-40.19q-1.43-5.29-2.82-10.44c-.93-3.43-1.85-6.8-2.95-10A181.71,181.71,0,0,0,350,459.25c-2.64-5.73-5.34-11.08-7.91-16.07s-5-9.58-7.48-13.68A149.47,149.47,0,0,0,321.8,411c-1.67-2.08-3-3.65-3.92-4.71-.43-.52-.77-.92-1-1.22a4.7,4.7,0,0,1-.33-.43,3.07,3.07,0,0,1,.39.38c.27.29.63.67,1.08,1.17.95,1,2.33,2.57,4,4.62a141.15,141.15,0,0,1,13.07,18.42c2.47,4.09,5,8.68,7.58,13.66s5.31,10.33,8,16.07a180.83,180.83,0,0,1,7.46,18.4c1.11,3.27,2,6.67,3,10.09s1.87,6.92,2.82,10.44a358.72,358.72,0,0,1,8.69,40.28C373.57,545,374.26,549.84,374.61,554.41Z" fill="#e0e0e0"/><path d="M357.89,477.31a8.14,8.14,0,0,0,.63-1.64c.36-1.07.84-2.63,1.4-4.57,1.12-3.87,2.48-9.27,4-15.23s2.92-11.32,4.09-15.17c.59-1.92,1.07-3.47,1.42-4.54a7.63,7.63,0,0,0,.47-1.69,7.71,7.71,0,0,0-.74,1.59c-.43,1-1,2.57-1.64,4.48-1.31,3.82-2.83,9.19-4.32,15.15L359.41,471c-.46,1.83-.85,3.38-1.17,4.62A8,8,0,0,0,357.89,477.31Z" fill="#e0e0e0"/><path d="M308.23,460.54a11,11,0,0,0,2,.54c1.29.3,3.16.73,5.46,1.33,4.6,1.16,10.9,3,17.76,5.32s13,4.73,17.35,6.58c2.2.91,3.95,1.69,5.17,2.22a12.86,12.86,0,0,0,1.92.78,10.44,10.44,0,0,0-1.8-1c-1.18-.61-2.91-1.47-5.08-2.45-4.33-2-10.44-4.45-17.32-6.79a181.22,181.22,0,0,0-17.88-5.14c-2.32-.53-4.21-.88-5.53-1.1A10.89,10.89,0,0,0,308.23,460.54Z" fill="#e0e0e0"/><path d="M372.09,537.14s.17-.18.43-.57l1.14-1.72c1-1.5,2.33-3.71,4-6.46,3.29-5.49,7.59-13.23,12.22-21.83s8.87-16.36,12-21.92l3.77-6.57c.41-.72.74-1.31,1-1.79a2.91,2.91,0,0,0,.31-.66,3.19,3.19,0,0,0-.44.58l-1.13,1.72c-1,1.5-2.34,3.71-4,6.45-3.29,5.5-7.59,13.24-12.23,21.84s-8.86,16.36-12,21.92l-3.78,6.57-1,1.79C372.17,536.91,372.06,537.13,372.09,537.14Z" fill="#e0e0e0"/><path d="M307.39,505.69a2.74,2.74,0,0,0,.63.38l1.88.93c1.73.85,4.07,2,6.92,3.38,5.85,2.86,13.88,6.9,22.75,11.37s16.95,8.44,22.86,11.18c2.95,1.37,5.35,2.45,7,3.17l1.93.81a2.23,2.23,0,0,0,.7.23,3,3,0,0,0-.64-.37l-1.87-.94-6.93-3.38c-5.85-2.85-13.88-6.89-22.75-11.37s-16.95-8.44-22.85-11.17c-3-1.37-5.36-2.45-7-3.17l-1.93-.81A2.87,2.87,0,0,0,307.39,505.69Z" fill="#e0e0e0"/><path d="M541.24,559a42.2,42.2,0,0,1-4.91,1c-2.36.2-4.68.4-7,.58l-5.1.41h0l-.19.08a8.54,8.54,0,0,1-2.37.58,11.41,11.41,0,0,1-3.64-.2h0c-7.46.54-14.56,1-21.21,1.28-12.52.59-23.48.74-32.42.28a99,99,0,0,1-19.95-3.18,133.11,133.11,0,0,1-21-7.53q-2.9-1.31-5.79-2.76a1,1,0,0,0-.17-.1l-.44-.22-.28-.13a200.45,200.45,0,0,1-33.28-21.61,7.1,7.1,0,0,0-1.27-1q-4.08-3.27-8.06-6.77a139,139,0,0,1-.79-15.41c.62-17.94,5.57-31.71,11.24-41.75l0,0q1.19-2.08,2.39-4l.08-.12.27-.41c7.58-11.55,15.39-16.86,15.39-16.86l24.7-5.23,4.5-1,2.14-.45h0l10.2-2.17.45-.09.23,0,.81-.18h0l.52-.11.37-.08h0l2.24-.47.63-.14,2.84-.6.54-.12h0l8.37-1.77,20.55,4.7.43.1h0l.88.2.45.1,2.28.52.51.12.48.11.44.1L492,435.7h0l.46.1h0l.44.11h0l2,.45,5.82,1.33,3.2.73h0l1,.23,7.68,1.76,4.05,16.81,0,.16,0,.19,10.32,42.79Z" fill="#f1f2f2"/><path d="M464.4,563a99,99,0,0,1-19.95-3.18L465,473.92l.07.18v0l.13.33h0l31.58,88.23C484.3,563.29,473.34,563.44,464.4,563Z" fill="#939598"/><path d="M464.19,453.87a17.8,17.8,0,0,1,.3,3c.13,2,.29,4.54.46,7.32s.28,5.46.31,7.34a16.5,16.5,0,0,1-.06,3,19.19,19.19,0,0,1-.3-3c-.13-2-.28-4.54-.46-7.32s-.27-5.46-.31-7.34A19.08,19.08,0,0,1,464.19,453.87Z" fill="#263238"/><path d="M474.25,464.08s-.37.13-.94.47a4.7,4.7,0,0,0-1.85,2.06,4,4,0,0,0,.2,3.89,4.16,4.16,0,0,0,7.66-1.22,4,4,0,0,0-1-3.76,4.71,4.71,0,0,0-2.4-1.39c-.65-.14-1-.1-1-.15s.09,0,.28-.06a2.76,2.76,0,0,1,.8,0,4.59,4.59,0,0,1,2.61,1.33,4.52,4.52,0,0,1,1.12,1.74,4.19,4.19,0,0,1,.11,2.39,4.6,4.6,0,0,1-8.52,1.35,4.12,4.12,0,0,1-.64-2.3,4.48,4.48,0,0,1,.52-2,4.6,4.6,0,0,1,2.07-2.08,3.09,3.09,0,0,1,.76-.26C474.15,464.07,474.24,464.06,474.25,464.08Z" fill="#263238"/><path d="M492,514.66c0,.05-.36.13-.94.47a4.7,4.7,0,0,0-1.85,2.06,4,4,0,0,0,.2,3.89,4.16,4.16,0,0,0,7.66-1.22,4,4,0,0,0-1-3.76,4.74,4.74,0,0,0-2.4-1.39c-.65-.14-1-.1-1-.15s.1,0,.28-.06a3.18,3.18,0,0,1,.8,0,4.58,4.58,0,0,1,2.62,1.33,4.7,4.7,0,0,1,1.11,1.74,4.19,4.19,0,0,1,.11,2.39,4.6,4.6,0,0,1-8.52,1.35,4.18,4.18,0,0,1-.64-2.3A4.78,4.78,0,0,1,491,515a2.91,2.91,0,0,1,.75-.26C491.92,514.65,492,514.64,492,514.66Z" fill="#263238"/><path d="M434.38,477.92a2.91,2.91,0,0,1-.35.44c-.24.27-.59.68-1.07,1.18a43.3,43.3,0,0,1-4.39,3.9,45.14,45.14,0,0,1-17.44,8.2,34.61,34.61,0,0,1-10.64.87,16.18,16.18,0,0,1-8.17-3,11.89,11.89,0,0,1-3.75-4.52,9.65,9.65,0,0,1-.53-1.51,3.26,3.26,0,0,1-.1-.55c.06,0,.2.75.81,2a12.31,12.31,0,0,0,3.78,4.31,16.08,16.08,0,0,0,8,2.78,35.06,35.06,0,0,0,10.49-.9,46.57,46.57,0,0,0,17.33-8,51,51,0,0,0,4.47-3.76l1.14-1.1A2.14,2.14,0,0,1,434.38,477.92Z" fill="#263238"/><path d="M434.38,487.1a2.64,2.64,0,0,1-.35.43c-.24.27-.59.68-1.07,1.18a42,42,0,0,1-4.39,3.91,45.14,45.14,0,0,1-17.44,8.2,34.92,34.92,0,0,1-10.64.87,16.28,16.28,0,0,1-8.17-3,12,12,0,0,1-3.75-4.52,10,10,0,0,1-.53-1.51,3.26,3.26,0,0,1-.1-.55c.06,0,.2.74.81,2a12.29,12.29,0,0,0,3.78,4.3,16.08,16.08,0,0,0,8,2.79,35.06,35.06,0,0,0,10.49-.9,46.57,46.57,0,0,0,17.33-8,51,51,0,0,0,4.47-3.76l1.14-1.11C434.22,487.21,434.37,487.08,434.38,487.1Z" fill="#263238"/><path d="M382.82,526.84c.2.16.4.33.58.5-.18-.6-.33-1.2-.47-1.8a57.08,57.08,0,0,1-1.39-11.34,117.39,117.39,0,0,1,1-16.56l.56-4.48c.05-.5.1-.88.13-1.17a2,2,0,0,0,0-.4,3.06,3.06,0,0,0-.08.39c-.05.29-.11.67-.19,1.16-.15,1.05-.37,2.56-.64,4.48a110.15,110.15,0,0,0-1.18,16.59,55.77,55.77,0,0,0,1.34,11.43Q382.66,526.24,382.82,526.84Z" fill="#263238"/><path d="M437.82,518.44a49.69,49.69,0,0,1-3,12.87c-.33.87-.71,1.75-1.12,2.62a32.17,32.17,0,0,1-6.81,9.58,29.21,29.21,0,0,1-6.23,4.6,24.53,24.53,0,0,1-3,1.4,1,1,0,0,0-.17-.1l-.44-.22a24.77,24.77,0,0,0,3.4-1.52,29.1,29.1,0,0,0,6.13-4.52,32.74,32.74,0,0,0,7.83-12,49.45,49.45,0,0,0,3-12.74A78.81,78.81,0,0,0,437.7,507c-.31-7-1-12.65-1.39-16.56-.19-1.95-.32-3.47-.4-4.51,0-.49-.05-.88-.07-1.17a1.74,1.74,0,0,1,0-.4,2,2,0,0,1,.06.4c0,.28.07.67.13,1.17.11,1.05.28,2.56.49,4.49.41,3.9,1.19,9.54,1.55,16.56A79.13,79.13,0,0,1,437.82,518.44Z" fill="#263238"/><path d="M434.51,532.87c-1,5.26-3.16,13-9.14,18a22,22,0,0,1-1.91,1.42q-2.9-1.31-5.79-2.76a1,1,0,0,0-.17-.1,27.9,27.9,0,0,0,8.35-5.15c3-2.62,5.51-6.94,7.89-10.33Z" fill="#e6e7e8"/><g opacity="0.2"><path d="M389,494.85a16.81,16.81,0,0,0,12.33,9.67c5.31,1,12.18-.69,15.49-5.67-11.66,4.1-23.26,4.19-27.82-4Z"/></g><path d="M484.85,480.39s-.27,0-.75,0a13.3,13.3,0,0,1-2-.43,18.71,18.71,0,0,1-10.54-8,12.55,12.55,0,0,1-.95-1.8c-.19-.44-.28-.69-.24-.71s.53.92,1.49,2.32a20.9,20.9,0,0,0,10.35,7.85C483.82,480.12,484.87,480.3,484.85,480.39Z" fill="#263238"/><g opacity="0.2"><path d="M471.29,470.07c1.2,4.11,5.75,7.92,9.81,9.26a5.86,5.86,0,0,0,2.48.37,2.89,2.89,0,0,0,2.14-1.19c.85-1.3.11-3.15-1.14-4.08a11.37,11.37,0,0,0-4.37-1.55c-3.12-.73-5.95.85-8.54-1.78Z"/></g><g opacity="0.2"><path d="M384.62,462.5c7.3,6.39,17.63,6.66,26.94,3.93s17.41-7.91,25.31-13.55c-8.62,1.71-16,5.64-24.67,6.92-8.3,1.23-16.93,1.36-25.09-1.42Z"/></g><path d="M524.82,560.66l-.19.11c-.1,0-.22.11-.38.19h0l-.19.08a8.54,8.54,0,0,1-2.37.58,11.41,11.41,0,0,1-3.64-.2h0a14.43,14.43,0,0,1-4.92-2.09c-3.24-2.07-6.21-5.56-9.37-9.41a101.79,101.79,0,0,1-7.89-11.34,2.39,2.39,0,0,1-.13-.21l-1.11-1.92c-1.47-2.57-2.78-5.13-4-7.65a.14.14,0,0,0,0-.06,114.89,114.89,0,0,1-7.08-19.63c-.94-3.67-1.54-6.67-1.91-8.75-.16-1-.28-1.81-.38-2.41s-.1-.76-.1-.83a3.94,3.94,0,0,1,.2.82l.48,2.38c.42,2.07,1.08,5.05,2.06,8.7a119.48,119.48,0,0,0,5.82,16.5,106.29,106.29,0,0,0,5.34,10.68,104.47,104.47,0,0,0,9.05,13.42c3.13,3.87,6.05,7.35,9.2,9.4a14.09,14.09,0,0,0,5.79,2.32,9.69,9.69,0,0,0,1.47.12,9.74,9.74,0,0,0,3.31-.48h0A9.7,9.7,0,0,1,524.82,560.66Z" fill="#263238"/><path d="M489.58,524.5s14.46,18.18,25,22.65c3.57,1.51,7.51,2.75,9.95,5.77a6.34,6.34,0,0,1,1.53,5.12,4.37,4.37,0,0,1-.2.62c-1.52,3.87-8.8,3.33-12.16.88-1.46-1.06-.6-.38-1.77-1.27C508.56,555.73,490.46,534.78,489.58,524.5Z" fill="#e6e7e8"/><polygon points="425.72 279 434.95 277.17 480.61 277.7 503.81 282.8 512.65 412.34 410.1 417.13 425.72 279" fill="#939598"/><path d="M492.14,406.33l2.18-58.91-3.64-68.33c14.43,3.72,34.16,7.88,45.07,20.3,7.09,8.09,14,18.43,16.61,35.08,3,19.56,7,57.08,9.49,78.06Z" fill="#f1f2f2"/><path d="M506.64,396.72l-70.9,11.52-2.51-43.8-3.89-86.56c-20.56.84-44,17.85-51,31.09-4.89,9.2-9,19.88-10.3,30.22-2.45,19.64-6.62,53.19-9.1,74.17a43.15,43.15,0,0,0,11.89,35.17h0c10.29,10.62,26.41,14.29,40.89,11.29l108-30.42Z" fill="#f1f2f2"/><path d="M499.18,395.94a.8.8,0,0,1,.06-.25c.05-.18.12-.41.2-.71l.84-2.73,3.21-10.17,11.12-34.74.14.31-11.49-4.76-.45-.18.4-.27,2.66-1.74,8.67-5.67-.1.28c-4.41-15.31-8.29-28.82-11.08-38.53-1.37-4.82-2.47-8.7-3.23-11.41-.36-1.31-.65-2.34-.85-3.08-.08-.33-.15-.59-.21-.8a1.14,1.14,0,0,1-.05-.27,1.09,1.09,0,0,1,.1.26c.06.2.15.46.25.79.22.73.53,1.75.93,3.05.8,2.7,1.95,6.57,3.38,11.37,2.83,9.7,6.77,23.19,11.24,38.48l.05.18-.15.1-8.67,5.68-2.66,1.74,0-.45,11.49,4.77.22.09-.08.21c-4.52,13.91-8.47,26-11.29,34.68-1.42,4.3-2.55,7.73-3.35,10.13-.39,1.16-.7,2.06-.91,2.71-.11.29-.19.52-.25.7A1.17,1.17,0,0,1,499.18,395.94Z" fill="#263238"/><g opacity="0.2"><path d="M514.85,335.39a10.31,10.31,0,0,1-3.57,5.36c-1.35.77-.58,1.8.54,2.88,1.34,1.29,3.5,1.64,4.48,3.22s.44,3.36-.08,5a364.24,364.24,0,0,1-17.84,45.69l16.47-50.13-11.5-4.76Z" fill="#d1d3d4"/></g><path d="M429.83,397.15l-.11-.2c-.07-.16-.16-.36-.28-.61-.25-.58-.61-1.37-1.06-2.39-.92-2.12-2.23-5.17-3.88-9-3.3-7.7-7.91-18.5-13.25-31l-.08-.18.16-.12,9.07-6.48v.41l-6-4.76-2.66-2.11-1.31-1-.33-.26c-.06-.06-.09-.05-.18-.17a.63.63,0,0,1-.14-.27,3.68,3.68,0,0,1-.11-.9,49.49,49.49,0,0,1,.61-6.54c.6-4.25,1.3-8.32,2-12.2,1.4-7.75,2.77-14.71,3.95-20.55s2.17-10.55,2.87-13.81c.35-1.6.63-2.86.82-3.74l.23-1a1.89,1.89,0,0,1,.1-.33,1.82,1.82,0,0,1-.05.34l-.17,1c-.18.89-.42,2.15-.74,3.76-.64,3.3-1.57,8-2.71,13.84s-2.46,12.81-3.83,20.56c-.68,3.88-1.38,7.95-2,12.19a53.11,53.11,0,0,0-.6,6.46,3.42,3.42,0,0,0,.09.75c0,.12.29.29.49.47l1.32,1,2.65,2.1,6,4.76.27.21-.27.19-9.09,6.47.09-.29,13.08,31.06c1.59,3.83,2.87,6.89,3.75,9,.42,1,.75,1.84,1,2.42l.24.63C429.82,397.07,429.84,397.15,429.83,397.15Z" fill="#263238"/><rect x="433.24" y="348.52" width="77.01" height="105.79" rx="2.36" transform="translate(66.76 -67.27) rotate(8.77)" fill="#e7515b"/><g opacity="0.2"><rect x="433.24" y="348.52" width="77.01" height="105.79" rx="2.36" transform="translate(66.76 -67.27) rotate(8.77)"/></g><rect x="437.76" y="350.79" width="68.41" height="98.47" transform="translate(66.55 -67.31) rotate(8.77)" fill="#ebebeb"/><path d="M493,355a8.41,8.41,0,0,0-.72-1.62,8.27,8.27,0,0,0-2.41-2.65h0a8.28,8.28,0,0,0-3.56-1.44l.56-4.16a5.76,5.76,0,0,0-4.81-6.57,5.3,5.3,0,0,0-.88-.07,5.77,5.77,0,0,0-5.69,4.89l-.67,4.31-1.45-.2a8.42,8.42,0,0,0-3.25.19h0a8.43,8.43,0,0,0-4.72,3.28l-1.13,1.59,29.44,4.55Zm-14.75-11.14a3.1,3.1,0,1,1,2.59,3.54A3.11,3.11,0,0,1,478.25,343.82Z" fill="#263238"/><path d="M468.6,363.8a84.23,84.23,0,0,1-9.2-1.16,83.2,83.2,0,0,1-9.13-1.67,82.94,82.94,0,0,1,9.2,1.17A84.76,84.76,0,0,1,468.6,363.8Z" fill="#263238"/><path d="M458.63,365.43a19.55,19.55,0,0,1-4.46-.43,20.18,20.18,0,0,1-4.38-.93,39.62,39.62,0,0,1,8.84,1.36Z" fill="#263238"/><path d="M500.37,380.69c0,.14-11.46-1.51-25.55-3.68s-25.5-4.05-25.47-4.19,11.45,1.51,25.55,3.68S500.39,380.55,500.37,380.69Z" fill="#263238"/><path d="M499.62,385.56c0,.14-11.46-1.51-25.55-3.69s-25.5-4.05-25.48-4.19,11.46,1.51,25.56,3.69S499.64,385.42,499.62,385.56Z" fill="#263238"/><path d="M498.87,390.42c0,.14-11.47-1.51-25.55-3.68s-25.5-4.05-25.48-4.19,11.46,1.51,25.56,3.68S498.89,390.28,498.87,390.42Z" fill="#263238"/><path d="M498.12,395.29c0,.14-11.47-1.51-25.55-3.69s-25.5-4.05-25.48-4.19,11.46,1.51,25.55,3.69S498.14,395.15,498.12,395.29Z" fill="#263238"/><path d="M497.36,400.15c0,.14-11.46-1.51-25.54-3.68s-25.5-4.05-25.48-4.19,11.46,1.51,25.55,3.68S497.39,400,497.36,400.15Z" fill="#263238"/><path d="M496.61,405c0,.14-11.46-1.51-25.55-3.69s-25.49-4.05-25.47-4.19,11.46,1.51,25.55,3.69S496.63,404.88,496.61,405Z" fill="#263238"/><path d="M470.42,405.47a4.28,4.28,0,0,1-1-.06c-.65-.07-1.59-.18-2.75-.34-2.31-.31-5.51-.77-9-1.32s-6.71-1.06-9-1.46c-1.15-.21-2.08-.38-2.72-.51a3.91,3.91,0,0,1-1-.25,4.36,4.36,0,0,1,1,.06c.65.07,1.59.18,2.75.34,2.31.31,5.51.77,9,1.32s6.7,1.06,9,1.46c1.15.2,2.08.38,2.72.51A3.58,3.58,0,0,1,470.42,405.47Z" fill="#263238"/><path d="M504.45,368.88a17.1,17.1,0,0,1-4.12-.37,16.83,16.83,0,0,1-4.05-.89,16.92,16.92,0,0,1,4.13.38A17.73,17.73,0,0,1,504.45,368.88Z" fill="#263238"/><path d="M457.19,414.28a43.31,43.31,0,0,1-6.66-.77,45.5,45.5,0,0,1-6.59-1.27,43.5,43.5,0,0,1,6.67.77A44,44,0,0,1,457.19,414.28Z" fill="#263238"/><path d="M457,418.77a92.12,92.12,0,0,1-13.47-2.08A88.66,88.66,0,0,1,457,418.77Z" fill="#263238"/><path d="M495.73,419.55a10.54,10.54,0,0,1-3.24-.24,10.4,10.4,0,0,1-3.17-.75,10.54,10.54,0,0,1,3.24.24A10.75,10.75,0,0,1,495.73,419.55Z" fill="#263238"/><path d="M495.33,423.56a10.54,10.54,0,0,1-3.24-.24,10.28,10.28,0,0,1-3.16-.75,20.44,20.44,0,0,1,6.4,1Z" fill="#263238"/><path d="M450.05,422.45a9.81,9.81,0,0,1-3.13-.22,10,10,0,0,1-3.05-.73,9.81,9.81,0,0,1,3.13.22A9.62,9.62,0,0,1,450.05,422.45Z" fill="#263238"/><path d="M494.84,428.23a10.8,10.8,0,0,1-4.64-.71,10.8,10.8,0,0,1,4.64.71Z" fill="#263238"/><path d="M441.84,431.91a6,6,0,0,1,1.16,0l3.25.09,11.63.47h.26l-.06.25a5.52,5.52,0,0,1-2,3.17,4.58,4.58,0,0,1-7.14-1.9,4,4,0,0,1,1.19-4.24,3.54,3.54,0,0,1,1.56-.81,2.14,2.14,0,0,1,.43-.07,1.29,1.29,0,0,1,.48,0,.64.64,0,0,1,.5.37,1,1,0,0,1,.06.53,7.55,7.55,0,0,1-1.07,3.09,7.43,7.43,0,0,1-2.17,2.29,4.73,4.73,0,0,1-2.89,1,2.76,2.76,0,0,1-2.35-1.7,4.13,4.13,0,0,1-.2-2.74,9.89,9.89,0,0,1,2.75-3.94l.26-.27.05.37a6.62,6.62,0,0,1-.75,3.94,7,7,0,0,1-1.95,2.33,6.11,6.11,0,0,1-1.67.92,3,3,0,0,1-.65.16,8.36,8.36,0,0,0,2.2-1.24,6.89,6.89,0,0,0,1.81-2.3,6.36,6.36,0,0,0,.65-3.76l.31.1a9.62,9.62,0,0,0-2.6,3.81,3.75,3.75,0,0,0,.2,2.44,2.29,2.29,0,0,0,2,1.41,4.38,4.38,0,0,0,2.59-.9,7.23,7.23,0,0,0,3-5,.66.66,0,0,0,0-.27s0-.06-.13-.08a2,2,0,0,0-.71.06,3.25,3.25,0,0,0-1.33.71,3.45,3.45,0,0,0-1.05,3.68,4.1,4.1,0,0,0,6.38,1.69,5.1,5.1,0,0,0,1.89-2.88l.21.27-11.62-.65L443,432A9,9,0,0,1,441.84,431.91Z" fill="#263238"/><path d="M490.27,439.21s-.16.24-.56.59a3.22,3.22,0,0,1-.83.53,1.89,1.89,0,0,1-1.34.07,1.32,1.32,0,0,1-.68-.5,1.63,1.63,0,0,1-.28-.86,17.66,17.66,0,0,1,.13-1.88c.13-1.33.28-2.79.44-4.37l.42.17c-1.15,1.57-2.42,3.28-3.74,5.07l-.94,1.26-.6.81.15-1c.39-2.62.76-5.07,1.08-7.21l.36.2a22.79,22.79,0,0,0-4,4.41c-.82,1.19-1.21,1.92-1.26,1.9a1.78,1.78,0,0,1,.22-.56,15.69,15.69,0,0,1,.83-1.48,20.48,20.48,0,0,1,4-4.6l.44-.38L484,432c-.31,2.14-.65,4.59-1,7.21l-.45-.19.93-1.26,3.77-5,.53-.71-.1.88c-.18,1.57-.36,3-.51,4.36a16.25,16.25,0,0,0-.18,1.81,1.14,1.14,0,0,0,.7,1.11,2.17,2.17,0,0,0,2-.45A5,5,0,0,1,490.27,439.21Z" fill="#263238"/><path d="M492,436.54a89.46,89.46,0,0,1-9.61.21,91.24,91.24,0,0,1-9.61-.29,90.75,90.75,0,0,1,9.61-.22A92.73,92.73,0,0,1,492,436.54Z" fill="#263238"/><path d="M495.12,439.59a119.68,119.68,0,0,1-15.41,1.68,119.68,119.68,0,0,1,15.41-1.68Z" fill="#263238"/><g opacity="0.2"><path d="M409.9,338.69c-.12,3,.68,5.94,3.13,7.6-3.07,1.49-4.7,5-4.8,8.47s1.08,6.72,2.37,9.88c4,9.73,12.43,23.44,18.9,31.72,0,0-3.28-8.83-4.22-10.88-4.26-9.3-8-18.65-12.27-28-.47-1-1.31-3.84-1.31-3.84-.44.2.16,0,1.27-.88,2.39-1.9,7.58-5.39,7.58-5.39S409.9,339,409.9,338.69Z" fill="#d1d3d4"/></g><path d="M409.75,358.68c.14,0-.1,11.32-.55,25.27s-.93,25.25-1.07,25.25.11-11.32.56-25.27S409.61,358.68,409.75,358.68Z" fill="#263238"/><path d="M426.66,328.92l-1,0c0-.37,1.42-37.45,2.53-52.2a7.61,7.61,0,0,1,2.58-5.45c3.06-2.62,7.63-2.28,7.83-2.27l-.08,1c-.05,0-4.38-.32-7.12,2a6.72,6.72,0,0,0-2.24,4.78C428.08,291.49,426.68,328.54,426.66,328.92Z" fill="#263238"/><path d="M435.81,391h-1.73v-2h1.73a6.88,6.88,0,0,0,6.87-6.87V361.39h2v20.76A8.84,8.84,0,0,1,435.81,391Z" fill="#455b64"/><path d="M436.52,390.23a2.11,2.11,0,1,1-1.89-2.3A2.11,2.11,0,0,1,436.52,390.23Z" fill="#263238"/><path d="M418.86,390.93h-1.73a8.83,8.83,0,0,1-8.8-8.87l.08-20.75h2l-.08,20.76a6.86,6.86,0,0,0,6.84,6.9h1.74Z" fill="#455b64"/><path d="M416.43,390.17a2.1,2.1,0,1,0,1.89-2.3A2.1,2.1,0,0,0,416.43,390.17Z" fill="#263238"/><path d="M407.81,363.74l-.25-14.8c-.19-11.28,8.06-20.59,18.37-20.77A17.93,17.93,0,0,1,439.31,334,21.29,21.29,0,0,1,445,348.32l.25,14.8-2.94.05-.25-14.8A18.37,18.37,0,0,0,437.17,336a14.9,14.9,0,0,0-11.19-4.9c-8.7.15-15.64,8.12-15.48,17.78l.25,14.81Z" fill="#263238"/><path d="M491.52,329.51c0-.39-4.5-38.92-5.79-51.27l-.09-.9c-.41-4.19-.87-8.94-5.51-10.19l.26-.95c5.29,1.43,5.81,6.76,6.23,11.05l.09.89c1.28,12.34,5.74,50.87,5.78,51.26Z" fill="#263238"/><circle cx="492.01" cy="322.9" r="10.51" transform="translate(-84.22 442.48) rotate(-45)" fill="#263238"/><path d="M497.09,322.9a5.09,5.09,0,1,1-5.08-5.08A5.09,5.09,0,0,1,497.09,322.9Z" fill="#455b64"/><path d="M429.83,397.15l-13.2,32.47,105.31,29.2a33.76,33.76,0,0,0,28.48-4.95h0c11-7.76,13.71-21.36,12.37-34.81l-1.86-14.28Z" fill="#f1f2f2"/><path d="M541.41,432.4c-.12,0-.34-2.22-1.43-5.65a26.26,26.26,0,0,0-1-2.75c-.37-1-.89-2-1.41-3.05a37.86,37.86,0,0,0-9.69-11.85c-.94-.72-1.82-1.43-2.72-2a27.85,27.85,0,0,0-2.49-1.54c-3.14-1.74-5.29-2.4-5.25-2.51a9.58,9.58,0,0,1,1.5.46,14.71,14.71,0,0,1,1.72.68,22.61,22.61,0,0,1,2.2,1.06,26.7,26.7,0,0,1,2.56,1.5c.91.55,1.81,1.25,2.77,2a39.65,39.65,0,0,1,5.56,5.47,40.1,40.1,0,0,1,4.26,6.53c.51,1.09,1,2.11,1.38,3.11a26.26,26.26,0,0,1,1,2.81c.29.86.43,1.67.6,2.37a15.22,15.22,0,0,1,.32,1.81A9.44,9.44,0,0,1,541.41,432.4Z" fill="#263238"/><g opacity="0.2"><path d="M414.28,411c-8,.66-14.23,1.4-22.56,2.42-5.18.64-10.56.28-12.25-4.66s-.62-10.57,2.15-15,7.16-14.74,30.56-6.87Z"/></g><path d="M425.13,409.55a.73.73,0,0,1,.05-.22l.22-.65c.22-.6.51-1.42.89-2.46.81-2.18,1.95-5.28,3.38-9.13l.05-.12h.13l35.81,3.24,34.66,3.29,10.49,1.05,2.86.32.74.09a.79.79,0,0,1,.25,0h-.26l-.74,0-2.86-.22-10.52-.89-34.67-3.14-35.79-3.41.17-.11c-1.48,3.83-2.68,6.91-3.52,9.07-.41,1-.74,1.85-1,2.44l-.26.63C425.17,409.48,425.13,409.55,425.13,409.55Z" fill="#263238"/><g opacity="0.2"><path d="M468.45,443c14.95,4,24.05,1.68,37.63-5.75a73.05,73.05,0,0,0,8-5.43,28.76,28.76,0,0,0,5.12-5.43c-17.49,6.69-32,11.72-50.05,16.79Z"/></g><path d="M425.17,409.2l3.42-9.56-7.95-12.43a9.4,9.4,0,0,0-6.15-4.16l-29.24-5.52a4.72,4.72,0,0,0,2.46,5.75c3.83,2.19,21.07,6.2,21.07,6.2L382.23,389s-.82,3.83,2.19,5.2,21.93,2.07,21.93,2.07l-24.22,3.41s-.14,3.84,5.4,3.89a160.58,160.58,0,0,0,16.32-1,.87.87,0,0,1,1,.72h0a.87.87,0,0,1-.66,1l-16.1,3.81a2.16,2.16,0,0,0-.16,4.16,2.59,2.59,0,0,0,.89.06c2.74-.27,19.13-2.35,19.13-2.35l.85,1.91,16.39-2.66Z" fill="#fbbd9d"/><path d="M413.15,406.25a5.26,5.26,0,0,0-.91-1.46,3.93,3.93,0,0,0-1.54-1,5.77,5.77,0,0,0-2.24-.25c-1.62.12-3.09.58-4.2.73a4.09,4.09,0,0,1-1.8,0,15,15,0,0,1,1.74-.39,27.41,27.41,0,0,1,4.23-.88,5.86,5.86,0,0,1,2.43.32,4,4,0,0,1,1.65,1.15A2.1,2.1,0,0,1,413.15,406.25Z" fill="#aa6551"/><path d="M415.79,399c-.05,0-.07-.27-.29-.69a3.47,3.47,0,0,0-1.4-1.38c-1.48-.86-4-.57-6.6-.4s-5,.57-6.77.8a16.43,16.43,0,0,1-2.82.28,14.35,14.35,0,0,1,2.76-.64c1.72-.32,4.11-.72,6.79-.95,1.33-.1,2.6-.17,3.78-.15a6.2,6.2,0,0,1,3.05.75,3.33,3.33,0,0,1,1.39,1.61A1.22,1.22,0,0,1,415.79,399Z" fill="#aa6551"/><path d="M417.8,394.73a4.83,4.83,0,0,0-.61-2.22,5.11,5.11,0,0,0-1.77-1.71,7.68,7.68,0,0,0-2.93-.86c-2.2-.21-4.26.05-5.75-.12a5.06,5.06,0,0,1-2.34-.57c0-.07.9.19,2.36.21s3.49-.24,5.79,0a7.63,7.63,0,0,1,3.11,1,5.1,5.1,0,0,1,1.84,1.94,3.51,3.51,0,0,1,.44,1.74C417.92,394.51,417.83,394.73,417.8,394.73Z" fill="#aa6551"/><path d="M512.74,394.7a9.74,9.74,0,0,1,.16-1.59c.12-1,.37-2.48.71-4.29.68-3.6,1.87-8.53,3.13-14a122.3,122.3,0,0,0,2.56-14.06c.12-.91.17-1.73.24-2.46s.1-1.35.13-1.86a10.37,10.37,0,0,1,.13-1.59,8.38,8.38,0,0,1,.06,1.6c0,.51,0,1.14,0,1.87s-.06,1.56-.16,2.47A103.67,103.67,0,0,1,517.24,375c-1.27,5.45-2.51,10.36-3.28,13.94-.38,1.79-.68,3.24-.87,4.24A8.52,8.52,0,0,1,512.74,394.7Z" fill="#263238"/><path d="M522.91,459a2.09,2.09,0,0,1-.58-.09l-1.63-.37-6-1.47c-5-1.27-11.95-3.09-19.56-5.22s-14.5-4.14-19.45-5.65l-5.86-1.83-1.59-.53a2.57,2.57,0,0,1-.54-.22,3.68,3.68,0,0,1,.57.12l1.62.44,5.9,1.67,19.48,5.51,19.52,5.36,5.92,1.63,1.61.46A2.7,2.7,0,0,1,522.91,459Z" fill="#263238"/><path d="M422,174.73c2.15-6.65,13.2-12.66,19.25-16.15,9.06-5.21,17.47-4.16,22.64.47,9.35-7.85,21.67-15.39,33.48-12.3s21.4,15.19,19.25,27.21c-1.27,7.08-6.18,13.43-5.89,20.62.19,4.9,2.79,9.33,4.86,13.77s3.66,9.63,1.81,14.18c-1.71,4.23-6,6.86-8.3,10.8-1.88,3.21-2.31,7-3.51,10.55-4.45,13-19.85,20.35-33.43,18.06s-24.9-12.52-31.31-24.71-8.54-26.18-9.28-39.94Z" fill="#263238"/><path d="M432,183.87l2.72,108.69c1,12.46,12.45,21.55,25.79,20.41h0c13.46-1.16,23.74-12.3,23-24.9-.81-13.23-1.42-27.17-1.42-27.17S498.93,257,501,234.52c1.08-11.51-.79-30.36-2.74-45.35a22.3,22.3,0,0,0-25.88-19.09Z" fill="#fbbd9d"/><path d="M493.32,205.28a2.85,2.85,0,0,1-2.57,3.05,2.73,2.73,0,0,1-3.1-2.38,2.85,2.85,0,0,1,2.56-3A2.74,2.74,0,0,1,493.32,205.28Z" fill="#263238"/><path d="M496.1,202.37c-.33.4-2.59-1.06-5.66-.85s-5.21,1.88-5.57,1.53c-.17-.16.14-.85,1.08-1.63a7.82,7.82,0,0,1,4.43-1.68,7.47,7.47,0,0,1,4.53,1.14C495.9,201.55,496.27,202.2,496.1,202.37Z" fill="#263238"/><path d="M463.83,208.36a2.85,2.85,0,0,1-2.56,3,2.72,2.72,0,0,1-3.11-2.38,2.85,2.85,0,0,1,2.56-3.05A2.73,2.73,0,0,1,463.83,208.36Z" fill="#263238"/><path d="M466,204.89c-.33.4-2.6-1.06-5.66-.85s-5.22,1.88-5.57,1.53c-.18-.16.14-.85,1.07-1.63a7.89,7.89,0,0,1,4.43-1.69,7.55,7.55,0,0,1,4.54,1.15C465.79,204.06,466.15,204.72,466,204.89Z" fill="#263238"/><path d="M478.59,226.92c0-.17,1.86-.62,4.92-1.22.78-.13,1.51-.33,1.61-.88a3.94,3.94,0,0,0-.67-2.28l-2.7-5.82c-3.77-8.28-6.55-15.11-6.21-15.26s3.65,6.44,7.42,14.73l2.61,5.85a4.59,4.59,0,0,1,.6,3.05,2,2,0,0,1-1.21,1.23,5.84,5.84,0,0,1-1.32.27C480.54,227,478.61,227.1,478.59,226.92Z" fill="#263238"/><path d="M482.08,260.9a56.65,56.65,0,0,1-30.28-6s8.42,15,30.53,11.45Z" fill="#ec996f"/><path d="M466,192.82c-.24.85-3.33.66-6.9,1.32s-6.42,1.84-7,1.12c-.23-.34.22-1.16,1.34-2a12.23,12.23,0,0,1,10.56-1.86C465.4,191.8,466.11,192.42,466,192.82Z" fill="#263238"/><path d="M494.4,193.57c-.49.73-2.65.14-5.2.28s-4.66.77-5.2.07c-.24-.34.05-1.06.95-1.78a7.55,7.55,0,0,1,8.38-.28C494.28,192.52,494.62,193.22,494.4,193.57Z" fill="#263238"/><path d="M482,237.83c0,.23-.76.59-2.1.51a11.5,11.5,0,0,1-4.81-1.57,13.14,13.14,0,0,1-3.84-3.23c-.8-1-1.05-1.84-.84-2,.41-.26,2.42,1.85,5.59,3.6a24.27,24.27,0,0,0,4.14,1.89C481.2,237.44,481.94,237.56,482,237.83Z" fill="#263238"/><circle cx="466.83" cy="217.87" r="0.81" fill="#aa6551"/><path d="M490.67,213.88a.82.82,0,0,1-.81.82.82.82,0,1,1,0-1.63A.81.81,0,0,1,490.67,213.88Z" fill="#aa6551"/><path d="M495.17,216a.82.82,0,0,1-.81.82.82.82,0,1,1,0-1.63A.81.81,0,0,1,495.17,216Z" fill="#aa6551"/><path d="M496.54,212.6a.81.81,0,0,1-.81.81.81.81,0,1,1,0-1.62A.81.81,0,0,1,496.54,212.6Z" fill="#aa6551"/><path d="M463.92,221.47a.82.82,0,0,1-.82.81.81.81,0,0,1,0-1.62A.82.82,0,0,1,463.92,221.47Z" fill="#aa6551"/><path d="M460.86,218.19a.81.81,0,1,1-1.62,0,.81.81,0,0,1,1.62,0Z" fill="#aa6551"/><path d="M474.2,208.35a24.7,24.7,0,0,0-.54-3.43,14.14,14.14,0,0,0-5.16-7.67,14,14,0,0,0-13.19-2,13.29,13.29,0,0,0-3.51,1.89,13.11,13.11,0,0,0-2.94,3,13.85,13.85,0,0,0,0,16.43,13.93,13.93,0,0,0,6.45,4.85,14,14,0,0,0,7.31.62,13.87,13.87,0,0,0,5.88-2.59,14.11,14.11,0,0,0,5.16-7.67,24.47,24.47,0,0,0,.54-3.43.82.82,0,0,1,0,.23v.68a6.56,6.56,0,0,1-.08,1.09,11.22,11.22,0,0,1-.27,1.48,13.37,13.37,0,0,1-1.53,3.82,14.3,14.3,0,0,1-9.62,6.81,14.5,14.5,0,0,1-7.55-.6,14.3,14.3,0,0,1-6.69-5,14.29,14.29,0,0,1,0-17,13.58,13.58,0,0,1,3.05-3.05,13.2,13.2,0,0,1,3.64-1.94,14.3,14.3,0,0,1,7.55-.6,14.22,14.22,0,0,1,9.62,6.81,13.33,13.33,0,0,1,1.53,3.81,11.22,11.22,0,0,1,.27,1.48,6.67,6.67,0,0,1,.08,1.1v.67A.77.77,0,0,1,474.2,208.35Z" fill="#fff"/><path d="M480.34,204.07a7.7,7.7,0,0,0-6.55.69c-.05,0,.2-.37.74-.74a5.46,5.46,0,0,1,4.92-.52C480.06,203.75,480.37,204,480.34,204.07Z" fill="#fff"/><path d="M471.38,166.91c-2,17.71-15.14,33.66-32.13,39,5.49,7.9,2,22.92,2.17,35.47.14,11.67.13,15-7.43,20.94-6.24,1.51-9.84-15.6-14.48-20.38s-9.09-10.67-8.74-17.32c.16-3.11,1.38-6.09,1.55-9.2.18-3.45-.92-6.82-1.53-10.22-2.71-15,5.1-31.23,18.2-39.1s30.6-7.33,43.6.72Z" fill="#263238"/><path d="M433.88,239.72a43.13,43.13,0,0,0-8.2-15.63l.28.61a19.24,19.24,0,1,0-29.63,22.75c-2.21-.49-4.44,1.41-4.93,3.62a8.37,8.37,0,0,0,1.65,6.39c4.6,6.72,15,8.49,21.57,3.67,5.2,3.52,12.88,1.47,16.73-3.48S435.65,245.73,433.88,239.72Z" fill="#263238"/><path d="M412.84,213.78a4,4,0,0,1-.56-.63,6.44,6.44,0,0,1-1-2.17c-.6-2-.32-5.23,1.29-8.62a17,17,0,0,1,3.54-5,34.07,34.07,0,0,1,5.34-4.54,28.56,28.56,0,0,1,6.92-3.47c2.55-.87,5.24-1.54,8-2.23s5.42-1.37,7.93-2.25a49,49,0,0,0,7-3.05,52.26,52.26,0,0,0,10.6-7.45,54.15,54.15,0,0,0,6-6.42c.65-.81,1.12-1.47,1.44-1.91a5.58,5.58,0,0,1,.52-.65,4.27,4.27,0,0,1-.43.71c-.3.46-.74,1.14-1.37,2a48.67,48.67,0,0,1-5.88,6.56,50.87,50.87,0,0,1-10.62,7.61,48.62,48.62,0,0,1-7.08,3.1c-2.54.9-5.23,1.58-8,2.27S431,189,428.5,189.85a28.39,28.39,0,0,0-6.82,3.39,34.11,34.11,0,0,0-5.29,4.44,16.71,16.71,0,0,0-3.52,4.84c-1.63,3.3-1.95,6.43-1.43,8.41A7.55,7.55,0,0,0,412.84,213.78Z" fill="#455b64"/><path d="M469.81,165.42a5.3,5.3,0,0,1-.46.56c-.31.36-.79.87-1.41,1.52a62,62,0,0,1-5.66,5.16,39.23,39.23,0,0,1-9.71,5.86,37.2,37.2,0,0,1-6.49,1.76c-2.29.45-4.67.81-7.1,1.18a79.54,79.54,0,0,0-13.51,2.84,29.82,29.82,0,0,0-9.79,5.41,19.44,19.44,0,0,0-4.72,5.87,17.46,17.46,0,0,0-.81,1.9,6.12,6.12,0,0,1-.28.67,3,3,0,0,1,.18-.7,13.55,13.55,0,0,1,.73-2,18.9,18.9,0,0,1,4.67-6.05,29.36,29.36,0,0,1,9.86-5.58,76.65,76.65,0,0,1,13.6-2.9c2.43-.37,4.8-.73,7.07-1.17a37.76,37.76,0,0,0,6.41-1.71,40.14,40.14,0,0,0,9.67-5.71,71.31,71.31,0,0,0,5.74-5l1.48-1.45A2.79,2.79,0,0,1,469.81,165.42Z" fill="#455b64"/><path d="M494.7,146c0,.12-1.92.18-4.88,1a21.56,21.56,0,0,0-2.38.76,28.62,28.62,0,0,0-2.65,1.12,32.58,32.58,0,0,0-5.56,3.49,32.93,32.93,0,0,0-4.66,4.63,28.55,28.55,0,0,0-1.68,2.32,22.4,22.4,0,0,0-1.28,2.15c-1.44,2.71-1.94,4.57-2.05,4.53a7.3,7.3,0,0,1,.34-1.3,10.89,10.89,0,0,1,.53-1.48,16.86,16.86,0,0,1,.86-1.91,22.24,22.24,0,0,1,1.24-2.22,28.32,28.32,0,0,1,1.67-2.39,28.76,28.76,0,0,1,10.39-8.25,27.1,27.1,0,0,1,2.7-1.08,18.66,18.66,0,0,1,2.44-.72,20.88,20.88,0,0,1,2-.4,10.49,10.49,0,0,1,1.57-.18A7.29,7.29,0,0,1,494.7,146Z" fill="#455b64"/><path d="M510.48,230.66s0-.08.15-.2l.46-.55c.41-.47,1-1.17,1.73-2.14a12.1,12.1,0,0,0,2-3.81,6.74,6.74,0,0,0,.2-2.64,7.55,7.55,0,0,0-1-2.79c-1.05-1.83-2.79-3.43-4.38-5.41A31.46,31.46,0,0,1,503,197.64a64.41,64.41,0,0,1-.24-9.56,33.25,33.25,0,0,0-.87-9.39,18.79,18.79,0,0,0-4.24-7.59,19.1,19.1,0,0,0-6.38-4.63,18.1,18.1,0,0,0-6.71-1.55,19.74,19.74,0,0,0-9.72,2.14,21.93,21.93,0,0,0-2.35,1.41l-.59.42-.21.13a14,14,0,0,1,3.05-2.14,19.56,19.56,0,0,1,9.83-2.32,18.27,18.27,0,0,1,6.87,1.52,19.45,19.45,0,0,1,6.56,4.71,19.19,19.19,0,0,1,4.37,7.76,33.42,33.42,0,0,1,.9,9.53,66,66,0,0,0,.22,9.49,31.39,31.39,0,0,0,6.45,15.29c1.54,1.95,3.29,3.58,4.37,5.49a7.71,7.71,0,0,1,1,2.93,6.93,6.93,0,0,1-.25,2.76,11.92,11.92,0,0,1-2.08,3.85,25,25,0,0,1-1.81,2.09l-.51.51A1.33,1.33,0,0,1,510.48,230.66Z" fill="#455b64"/><path d="M508.21,204.9a24.7,24.7,0,0,0-.54-3.43,14.08,14.08,0,0,0-5.15-7.67,13.92,13.92,0,0,0-13.19-2,13.09,13.09,0,0,0-3.52,1.9,12.87,12.87,0,0,0-2.93,3,13.83,13.83,0,0,0,0,16.42,13.07,13.07,0,0,0,2.93,3,12.91,12.91,0,0,0,3.52,1.89,14,14,0,0,0,18.34-9.63,24.7,24.7,0,0,0,.54-3.43.6.6,0,0,1,0,.23c0,.18,0,.4,0,.67a6.82,6.82,0,0,1-.09,1.1,9.65,9.65,0,0,1-.26,1.48,13.33,13.33,0,0,1-1.53,3.81,14.28,14.28,0,0,1-17.17,6.22,14.39,14.39,0,0,1-6.7-5,14.33,14.33,0,0,1,0-17,14.39,14.39,0,0,1,6.7-5,14.39,14.39,0,0,1,7.55-.59,14.25,14.25,0,0,1,9.62,6.8,13.37,13.37,0,0,1,1.53,3.82,9.65,9.65,0,0,1,.26,1.48,6.79,6.79,0,0,1,.09,1.09c0,.27,0,.5,0,.68A.6.6,0,0,1,508.21,204.9Z" fill="#fff"/><path d="M433.86,262.72s-.18-.1-.48-.32-.74-.57-1.3-1a39,39,0,0,1-4.46-4.14,16.07,16.07,0,0,1-4.19-8,38.74,38.74,0,0,1-.24-5.33,9.15,9.15,0,0,0-1.53-5.26,32.88,32.88,0,0,0-3.83-4.15,15.7,15.7,0,0,1-3.16-4.34,19.07,19.07,0,0,1-1.52-4.6,18.06,18.06,0,0,1-.41-4.21c.06-1.3.31-2.44.43-3.44a12,12,0,0,0,.05-2.58c-.16-1.41-.44-2.16-.38-2.18a3.85,3.85,0,0,1,.2.54,9.81,9.81,0,0,1,.38,1.62,11.28,11.28,0,0,1,0,2.63c-.09,1-.32,2.16-.35,3.42a20.28,20.28,0,0,0,2,8.6,15.47,15.47,0,0,0,3.1,4.19,32.38,32.38,0,0,1,3.89,4.22,8.35,8.35,0,0,1,1.25,2.69,13.31,13.31,0,0,1,.36,2.84,40.71,40.71,0,0,0,.2,5.27,15.91,15.91,0,0,0,4,7.79,46.25,46.25,0,0,0,4.31,4.23l1.24,1.09A3.28,3.28,0,0,1,433.86,262.72Z" fill="#455b64"/><path d="M422.73,239.89a1.55,1.55,0,0,1,0,.4,8,8,0,0,1-.08,1.15,17.83,17.83,0,0,1-1,4.13,19.84,19.84,0,0,1-15.92,13.31,20.6,20.6,0,0,1-6.29,0,18.9,18.9,0,0,1-4.08-1.11c-.47-.18-.81-.37-1.05-.48a1.42,1.42,0,0,1-.35-.2,28.87,28.87,0,0,0,5.54,1.43,21.07,21.07,0,0,0,6.16-.1,19.57,19.57,0,0,0,12.66-7.58,21.36,21.36,0,0,0,3-5.38A29.7,29.7,0,0,0,422.73,239.89Z" fill="#455b64"/><path d="M418.94,235.29a5.72,5.72,0,0,1-.29,1.34,19.11,19.11,0,0,1-1.38,3.47,22.47,22.47,0,0,1-8.35,9,24.19,24.19,0,0,1-11.76,3.44,21.22,21.22,0,0,1-3.74-.19,6,6,0,0,1-1.34-.28,45.63,45.63,0,0,0,5.06.11,25.23,25.23,0,0,0,11.51-3.52,23.19,23.19,0,0,0,8.3-8.68A39.33,39.33,0,0,0,418.94,235.29Z" fill="#455b64"/><path d="M390.28,225.52a3.65,3.65,0,0,1,.88-.51,7.77,7.77,0,0,1,1.09-.48,12.64,12.64,0,0,1,1.49-.53,20.32,20.32,0,0,1,4.05-.79,23.32,23.32,0,0,1,5,.1,24.38,24.38,0,0,1,4.9,1.23,20.07,20.07,0,0,1,3.69,1.86,14.1,14.1,0,0,1,1.29.92,7.65,7.65,0,0,1,.9.78c.48.45.73.71.7.74s-1.1-1-3.08-2.13a21.68,21.68,0,0,0-3.66-1.73,23.78,23.78,0,0,0-9.75-1.3,22.17,22.17,0,0,0-4,.67C391.61,224.94,390.32,225.62,390.28,225.52Z" fill="#455b64"/><path d="M412.84,223.72c-.1.1-6.28-5.15-13.81-11.74s-13.56-12-13.47-12.13,6.27,5.15,13.81,11.74S412.93,223.61,412.84,223.72Z" fill="#e7515b"/><path d="M441.07,213a6,6,0,0,1,2-2.27,5.9,5.9,0,0,1,2.66-1.47,18,18,0,0,1-2.35,1.86A18.29,18.29,0,0,1,441.07,213Z" fill="#fff"/><path d="M413.54,218.5a1.13,1.13,0,0,1-.12-.2l-.33-.59a8.45,8.45,0,0,1-.76-2.51,12.52,12.52,0,0,1,2.58-9.12,15,15,0,0,1,2.18-2.36,17.19,17.19,0,0,1,2.89-1.95,25.19,25.19,0,0,1,7.23-2.49c5.3-1.11,11.27-.84,17.35-1.75a26.46,26.46,0,0,0,8.5-2.64,25.73,25.73,0,0,0,6.58-5A40.33,40.33,0,0,0,467.22,178c1.61-3.71,2.62-6.83,3.36-9,.35-1,.62-1.86.83-2.47l.22-.64c.06-.14.09-.22.1-.21a.73.73,0,0,1-.05.22c0,.18-.1.4-.17.66-.19.61-.43,1.45-.74,2.51a95.8,95.8,0,0,1-3.22,9.06A39.79,39.79,0,0,1,460,190.16a25.52,25.52,0,0,1-6.68,5.17,27,27,0,0,1-8.66,2.71c-6.16.91-12.1.63-17.34,1.7s-9.75,3.26-12.1,6.56a12.46,12.46,0,0,0-2.68,8.87A11.58,11.58,0,0,0,413.54,218.5Z" fill="#fafbfb"/><path d="M419.81,257.36a14.45,14.45,0,0,1-1.22,4A18.25,18.25,0,0,1,416,265.5a16.93,16.93,0,0,1-4.95,4.17,16.23,16.23,0,0,1-7.58,2,14.89,14.89,0,0,1-8.61-2.52,14.44,14.44,0,0,1-5.71-8.07,12.58,12.58,0,0,1-.29-5.3,12.91,12.91,0,0,1,2-5.07,12.32,12.32,0,0,1,7.29-5.16l0,.49a19.81,19.81,0,0,1-8.41-3.42,16.23,16.23,0,0,1-5.35-6.42,15.16,15.16,0,0,1-1.3-7.38,12.5,12.5,0,0,1,2.13-6.11,12.7,12.7,0,0,1,3.87-3.62,11.8,11.8,0,0,1,3.71-1.43,10.18,10.18,0,0,1,2.49-.19l.65.07.21,0a12.89,12.89,0,0,0-3.31.25,12.19,12.19,0,0,0-3.61,1.48,12.74,12.74,0,0,0-3.74,3.59,12.18,12.18,0,0,0-2,6,14.81,14.81,0,0,0,1.31,7.17,15.79,15.79,0,0,0,5.23,6.21,19.28,19.28,0,0,0,8.21,3.31l1.26.2-1.25.3a11.75,11.75,0,0,0-7,5,12.24,12.24,0,0,0-2,4.86,12.09,12.09,0,0,0,.28,5.09,13.91,13.91,0,0,0,5.49,7.81,14.46,14.46,0,0,0,8.33,2.49,16.1,16.1,0,0,0,7.42-1.87,16.92,16.92,0,0,0,4.9-4,18.72,18.72,0,0,0,2.6-4.06,19.92,19.92,0,0,0,1.09-2.87l.22-.77A1.1,1.1,0,0,1,419.81,257.36Z" fill="#263238"/><path d="M414,215a.92.92,0,0,1-.24-.11l-.68-.36a18.19,18.19,0,0,1-2.44-1.68,20.47,20.47,0,0,1-6.29-8.77,20.4,20.4,0,0,1,6.89-23.18,28.8,28.8,0,0,1,9.2-4.5,51.92,51.92,0,0,1,10.07-1.84c3.29-.31,6.47-.45,9.49-.66a81.92,81.92,0,0,0,8.53-1,38.38,38.38,0,0,0,7.18-1.95,25.43,25.43,0,0,0,9.07-5.7,23.25,23.25,0,0,0,1.9-2.25l.44-.62c.11-.14.16-.21.17-.2a15.24,15.24,0,0,1-2.37,3.2,25.08,25.08,0,0,1-9.08,5.91,38.51,38.51,0,0,1-7.24,2,79.87,79.87,0,0,1-8.56,1c-6,.48-12.77.53-19.46,2.53a28.19,28.19,0,0,0-9,4.41,19.62,19.62,0,0,0-5.92,7.17,19.92,19.92,0,0,0-.94,15.48,20.76,20.76,0,0,0,6.09,8.75,22.45,22.45,0,0,0,2.36,1.75l.65.4A1,1,0,0,1,414,215Z" fill="#263238"/><path d="M523.22,200.58a1.25,1.25,0,0,1-.92.45,2.53,2.53,0,0,1-2.39-1.55,2.31,2.31,0,0,1,.14-2.14,3.89,3.89,0,0,1,2-1.65,6.19,6.19,0,0,1,6,.93,6.46,6.46,0,0,1,2.23,2.88,6.74,6.74,0,0,1,.27,3.94,6.47,6.47,0,0,1-2.17,3.62,7.87,7.87,0,0,1-4.13,1.74,10.79,10.79,0,0,1-8.71-3.44,12.16,12.16,0,0,1-2.8-4.24,9.77,9.77,0,0,1-.49-5.2,23.16,23.16,0,0,1,1.58-5c.66-1.57,1.27-3.11,1.78-4.67a39.41,39.41,0,0,0,2-9.18,27.6,27.6,0,0,0-.51-8.46,21.84,21.84,0,0,0-2.8-6.81,19.2,19.2,0,0,0-7.8-7.16,16.6,16.6,0,0,0-2.74-1l-.74-.2a.76.76,0,0,1-.25-.08.86.86,0,0,1,.26,0l.75.15a14.43,14.43,0,0,1,2.8.93,19.12,19.12,0,0,1,8,7.15,21.9,21.9,0,0,1,2.9,6.91,27.76,27.76,0,0,1,.57,8.59,39.63,39.63,0,0,1-2,9.3c-.51,1.57-1.13,3.14-1.78,4.7a23,23,0,0,0-1.55,4.85,9.2,9.2,0,0,0,.47,4.94,11.66,11.66,0,0,0,2.67,4.07,10.34,10.34,0,0,0,8.3,3.32,7.34,7.34,0,0,0,3.9-1.62,6,6,0,0,0,2.05-3.37,6.44,6.44,0,0,0-.23-3.7,6.19,6.19,0,0,0-2.07-2.73,5.91,5.91,0,0,0-5.66-1,3.69,3.69,0,0,0-1.86,1.51,2.12,2.12,0,0,0-.17,1.94,2.44,2.44,0,0,0,2.2,1.53A1.79,1.79,0,0,0,523.22,200.58Z" fill="#263238"/><g opacity="0.2"><path d="M517,422.38c4.76-1.34,9.7,2.93,14.53,1.83,3-.69,5.16-3.31,6.49-6.07s2-5.79,3.46-8.51,3.77-5.23,6.81-5.65c2.78-.37,6.08.93,8.15-1,1.6-1.47,1.38-4.19.1-5.95s-3.29-2.78-5.24-3.74a29.88,29.88,0,0,0-6.77-2.69,10,10,0,0,0-7.08.83c-4.08,2.37-4.92,7.74-6.09,12.32a24.56,24.56,0,0,1-4,8.92,13.2,13.2,0,0,1-8.08,5.21,8.84,8.84,0,0,0-3.59.93c-1,.7-1.43,2.47-.37,3.12Z"/></g><path d="M492.14,404.76,510,398.58l16-25a10.66,10.66,0,0,1,7-4.72l28.7-5.42a4.72,4.72,0,0,1-2.46,5.75c-3.84,2.19-21.07,6.2-21.07,6.2l26.54-.45s.83,3.83-2.19,5.2-21.92,2.07-21.92,2.07l24.22,3.41s.14,3.84-5.4,3.89a160.58,160.58,0,0,1-16.32-1,.86.86,0,0,0-1,.72h0a.88.88,0,0,0,.66,1l16.1,3.8a2.16,2.16,0,0,1,.16,4.16,2.4,2.4,0,0,1-.9.06c-2.74-.27-19.13-2.35-19.13-2.35s-5.78,20.26-9.53,21.9-11.59,2.08-11.59,2.08l-16.66,6.61Z" fill="#fbbd9d"/><path d="M562.9,374.81a8,8,0,0,1-1.4.13l-3.8.19c-3.21.14-7.64.29-12.54.43l-6.9.17a14.87,14.87,0,0,0-5.48.78,5.9,5.9,0,0,0-2.82,2.32,10,10,0,0,0-.55,1.26s0-.13,0-.36a3.83,3.83,0,0,1,.35-1,5.78,5.78,0,0,1,2.85-2.56,14.81,14.81,0,0,1,5.6-.92l6.91-.22c4.9-.13,9.33-.23,12.54-.27l3.81,0A6.52,6.52,0,0,1,562.9,374.81Z" fill="#aa6551"/><path d="M563.26,385.67a6.85,6.85,0,0,1-1.29-.09l-3.47-.44c-2.93-.39-7-1-11.43-1.63-2.23-.31-4.36-.72-6.27-.88a8.38,8.38,0,0,0-4.92.88,7.59,7.59,0,0,0-2.53,2.27c-.47.67-.66,1.09-.7,1.07a1,1,0,0,1,.1-.32,6.13,6.13,0,0,1,.43-.86,7.34,7.34,0,0,1,2.53-2.47,8.53,8.53,0,0,1,5.12-1c2,.14,4.08.53,6.32.84,4.46.67,8.49,1.3,11.4,1.78l3.45.6A5.84,5.84,0,0,1,563.26,385.67Z" fill="#aa6551"/><path d="M549.78,391.82a17.28,17.28,0,0,1-2.8-.6c-1.72-.42-4.09-1.05-6.73-1.59a11.38,11.38,0,0,0-1.89-.28,3.56,3.56,0,0,0-1.64.48,5.86,5.86,0,0,0-2.14,2,7.78,7.78,0,0,0-.85,2.66,1.61,1.61,0,0,1-.06-.78,5.11,5.11,0,0,1,.59-2.06,6,6,0,0,1,2.23-2.27,3.91,3.91,0,0,1,1.86-.57,11.08,11.08,0,0,1,2,.28c2.67.55,5,1.23,6.72,1.74A15,15,0,0,1,549.78,391.82Z" fill="#aa6551"/><path d="M359.59,418.22l53.56-6.58,93.93-15.28,12.12,30.47c-35.31,12.24-71.48,23.27-107,33a39.6,39.6,0,0,1-8.85.75C391.53,460.6,362.28,455.83,359.59,418.22Z" fill="#f1f2f2"/><path d="M519.2,426.83s-.09-.18-.24-.53-.39-.92-.67-1.6c-.59-1.43-1.43-3.49-2.5-6.12l-8.9-22.14.22.13-45.64,7.62c-10.77,1.85-21.12,3.05-30.49,4.29-4.69.62-9.14,1.25-13.29,1.92-2.07.33-4.07.68-6,1a47.89,47.89,0,0,0-5.46,1.2,22.23,22.23,0,0,0-8.27,4.71,23.13,23.13,0,0,0-6.37,9.82c-.17.5-.28.89-.35,1.15a2.25,2.25,0,0,1-.13.38,12.44,12.44,0,0,1,.38-1.56,21.51,21.51,0,0,1,1.79-4.25,22.35,22.35,0,0,1,12.84-10.6,50.86,50.86,0,0,1,5.49-1.24c1.92-.36,3.93-.72,6-1.06,4.16-.69,8.61-1.33,13.3-2,9.38-1.27,19.71-2.48,30.46-4.34l45.67-7.52.16,0,.06.16L516,418.5c1,2.64,1.83,4.71,2.39,6.15.26.69.47,1.23.61,1.62S519.2,426.83,519.2,426.83Z" fill="#263238"/><path d="M388.4,458.93a2.16,2.16,0,0,1,.43.09l1.24.3c1.1.24,2.72.61,4.83.87a53.26,53.26,0,0,0,17.93-.86c1.86-.4,3.78-.93,5.79-1.5l6.25-1.76,13.78-4c9.69-2.82,20.33-6,31.45-9.45,18.66-5.78,35.73-11.44,49-16l-.12.27c-3.67-9.31-6.67-16.94-8.77-22.26l-2.38-6.12-.6-1.61c-.14-.37-.19-.56-.19-.56s.09.18.24.54l.66,1.58,2.49,6.09c2.13,5.3,5.19,12.9,8.92,22.19l.08.19-.2.07c-13.29,4.64-30.35,10.34-49,16.13-11.13,3.46-21.77,6.62-31.47,9.42L425,456.48l-6.26,1.73c-2,.56-4,1.08-5.82,1.47a52.33,52.33,0,0,1-18,.71A34.32,34.32,0,0,1,388.4,458.93Z" fill="#263238"/><path d="M409.17,411.64a8.21,8.21,0,0,1-1.34.2l-3.68.37L392,413.39l-12.11,1.3-3.67.38a8,8,0,0,1-1.35.08,6.62,6.62,0,0,1,1.33-.28c.86-.14,2.1-.33,3.65-.54,3.09-.43,7.37-1,12.1-1.44s9-.84,12.14-1c1.56-.11,2.82-.18,3.69-.21A6.8,6.8,0,0,1,409.17,411.64Z" fill="#263238"/><path d="M659.73,487.82c-2.76,3.95-8.13,2.64-10.62.23s-3.55-5.9-4.51-9.23c-2.19-7.61-4.39-15.59-2.76-23.34a12.9,12.9,0,0,1,3-6.35,6.78,6.78,0,0,1,6.42-2.14c2.71.72,4.39,3.37,5.61,5.9a55.57,55.57,0,0,1,5.49,23.87c0,3.85-.44,7.88-2.61,11.06" fill="#ffe4c0"/><path d="M649.38,507.81c-4.52-2.33-9.85-2.63-14.86-1.8-2.7.44-5.51,1.25-7.35,3.27s-2.18,5.59-.07,7.33a7,7,0,0,0,4.63,1.18c3.93,0,8.29-.74,11.42,1.62,1.79,1.35,3,3.59,5.13,4.26a5.07,5.07,0,0,0,5.57-2.48,8.68,8.68,0,0,0,.63-6.38A9.77,9.77,0,0,0,649.38,507.81Z" fill="#ffe4c0"/><path d="M667.32,493.48c-3-3.56-3.57-8.75-2.23-13.21s4.35-8.26,7.83-11.36a42.06,42.06,0,0,1,14-8.27,14.94,14.94,0,0,1,6.31-1.08,6.64,6.64,0,0,1,5.29,3.21c1.47,2.81.06,6.22-1.47,9a107.52,107.52,0,0,1-9.21,14c-2.76,3.56-5.92,7.07-10.13,8.68s-8.58,1.42-10.81-1.5" fill="#ffe4c0"/><path d="M656.17,524.75a51.35,51.35,0,0,1,2.55,8.41l-.69.09a55.55,55.55,0,0,0-2.55-8.22,31,31,0,0,0-4.32-7.67,16.13,16.13,0,0,0-5.48-4.55,15.38,15.38,0,0,0-4.6-1.44,8.48,8.48,0,0,1-1.79-.25,7.75,7.75,0,0,1,1.82,0,14,14,0,0,1,4.8,1.25,16.07,16.07,0,0,1,5.77,4.59A30.5,30.5,0,0,1,656.17,524.75Z" fill="#fbd5a7"/><path d="M660,533a4.1,4.1,0,0,0-.49.06c0-.46,0-.93,0-1.42-.19-7.39-.82-17.58-2.05-28.78s-2.88-21.29-4.37-28.52c-.35-1.81-.71-3.44-1-4.87s-.6-2.66-.86-3.66-.41-1.71-.56-2.32a3.52,3.52,0,0,1-.14-.82,4.81,4.81,0,0,1,.29.78l.69,2.28c.31,1,.62,2.22,1,3.64s.77,3.05,1.15,4.86a270.36,270.36,0,0,1,4.6,28.55c.7,6.39,1.18,12.45,1.47,17.85,0,.71.08,1.39.11,2.07v0c.15,3.27.24,6.26.25,8.89C660,532.11,660,532.56,660,533Z" fill="#fbd5a7"/><path d="M659.53,523.89a16.2,16.2,0,0,1,0-2.48c.09-1.6.31-3.91.76-6.74a91.84,91.84,0,0,1,2.19-9.82,87.56,87.56,0,0,1,4.11-11.61,61.82,61.82,0,0,1,12-18.77,31.13,31.13,0,0,1,2.84-2.63c.43-.37.82-.74,1.21-1l1.1-.76a17.58,17.58,0,0,1,2.09-1.34c.12.16-3,2-6.86,6.12a65.43,65.43,0,0,0-11.75,18.7A92.76,92.76,0,0,0,663.16,505a98.62,98.62,0,0,0-2.33,9.72c-.51,2.8-.81,5.09-1,6.67A14.43,14.43,0,0,1,659.53,523.89Z" fill="#fbd5a7"/><path d="M290.8,260.75h16.91a0,0,0,0,1,0,0v9.7a4.45,4.45,0,0,1-4.45,4.45h-8a4.45,4.45,0,0,1-4.45-4.45v-9.7a0,0,0,0,1,0,0Z" transform="translate(291.44 -133.7) rotate(47.06)" fill="#e7515b"/><path d="M290.8,260.75h16.91a0,0,0,0,1,0,0v9.71a4.43,4.43,0,0,1-4.43,4.43h-8a4.43,4.43,0,0,1-4.43-4.43v-9.71a0,0,0,0,1,0,0Z" transform="translate(291.45 -133.7) rotate(47.06)" opacity="0.3"/><path d="M303.24,275.88a70.7,70.7,0,0,1-6-6,71.87,71.87,0,0,1-5.58-6.38,68.22,68.22,0,0,1,6,6A67.32,67.32,0,0,1,303.24,275.88Z" fill="#263238"/><path d="M295.41,267.3h0a2,2,0,0,1,2.84,0l2.3,2.47a2,2,0,0,1-.16,2.84h0Z" fill="#263238"/><path d="M351.92,197l-53.36,54.91a6.32,6.32,0,0,0-.26,8.71l8.38,9a6.31,6.31,0,0,0,8.52.52L376,222.85Z" fill="#e7515b"/><path d="M371,226.76c-.11.09-5.44-5.47-11.92-12.43s-11.63-12.67-11.53-12.77S353,207,359.46,214,371.09,226.66,371,226.76Z" fill="#263238"/><path d="M349.35,203.61a19.57,19.57,0,0,1,4.67-4.35,9.91,9.91,0,0,1-2.15,2.37A10.32,10.32,0,0,1,349.35,203.61Z" fill="#263238"/><path d="M351.26,205.66a9.83,9.83,0,0,1,2.16-2.37,10.09,10.09,0,0,1,2.51-2,9.9,9.9,0,0,1-2.16,2.36A10.28,10.28,0,0,1,351.26,205.66Z" fill="#263238"/><path d="M353.17,207.71a19.57,19.57,0,0,1,4.67-4.35,10.17,10.17,0,0,1-2.16,2.36A10.28,10.28,0,0,1,353.17,207.71Z" fill="#263238"/><path d="M355.08,209.76a9.65,9.65,0,0,1,2.15-2.37,10.29,10.29,0,0,1,2.51-2,9.72,9.72,0,0,1-2.15,2.36A10.49,10.49,0,0,1,355.08,209.76Z" fill="#263238"/><path d="M357,211.81a19.57,19.57,0,0,1,4.67-4.35,9.9,9.9,0,0,1-2.16,2.36A10.08,10.08,0,0,1,357,211.81Z" fill="#263238"/><path d="M358.89,213.85a19.8,19.8,0,0,1,4.67-4.34,19.8,19.8,0,0,1-4.67,4.34Z" fill="#263238"/><path d="M360.8,215.9a10.2,10.2,0,0,1,2.15-2.36,9.75,9.75,0,0,1,2.52-2,10.17,10.17,0,0,1-2.16,2.36A9.8,9.8,0,0,1,360.8,215.9Z" fill="#263238"/><path d="M362.71,218a19.5,19.5,0,0,1,4.66-4.34,19.5,19.5,0,0,1-4.66,4.34Z" fill="#263238"/><path d="M364.61,220a10.39,10.39,0,0,1,2.16-2.36,9.8,9.8,0,0,1,2.51-2,10.11,10.11,0,0,1-2.16,2.36A9.62,9.62,0,0,1,364.61,220Z" fill="#263238"/><path d="M366.52,222.05a10.11,10.11,0,0,1,2.16-2.36,9.8,9.8,0,0,1,2.51-2,10.11,10.11,0,0,1-2.16,2.36A9.8,9.8,0,0,1,366.52,222.05Z" fill="#263238"/><path d="M368.43,224.1a10.2,10.2,0,0,1,2.15-2.36,9.75,9.75,0,0,1,2.52-2,10.39,10.39,0,0,1-2.16,2.36A9.8,9.8,0,0,1,368.43,224.1Z" fill="#263238"/><path d="M370.34,226.15a19.5,19.5,0,0,1,4.66-4.34,19.5,19.5,0,0,1-4.66,4.34Z" fill="#263238"/><polygon points="335.89 232.72 339.14 229.69 342.14 232.91 339.1 235.74 341.54 238.37 338.34 241.35 335.64 238.44 332.85 241.03 330.35 238.34 333.34 235.56 330.39 232.39 333.23 229.75 335.89 232.72" fill="#fff"/><path d="M342.21,242s.59-.58,1.4-1.81a9.53,9.53,0,0,0,1.5-5.88,8.69,8.69,0,0,0-1.3-4,8.57,8.57,0,0,0-3.56-3.18,8.87,8.87,0,0,0-5.21-.78,9.58,9.58,0,0,0-7.91,7.37,8.88,8.88,0,0,0,.4,5.25,8.64,8.64,0,0,0,2.92,3.78,8.81,8.81,0,0,0,3.88,1.58,9.5,9.5,0,0,0,6-1.08c1.29-.71,1.87-1.31,1.91-1.26a2.53,2.53,0,0,1-.42.42,7.66,7.66,0,0,1-1.38,1,9.53,9.53,0,0,1-6.13,1.27,9.14,9.14,0,0,1-4.08-1.6,9,9,0,0,1-3.12-4,9.35,9.35,0,0,1-.45-5.54A10,10,0,0,1,335,225.9a9.33,9.33,0,0,1,5.49.85,9,9,0,0,1,5,7.58,9.53,9.53,0,0,1-1.7,6,7.54,7.54,0,0,1-1.12,1.31A2.6,2.6,0,0,1,342.21,242Z" fill="#fff"/><path d="M812.89,163.88s-.3,0-.91.06l-2.67.1c-2.35.08-5.81.18-10.28.25-2.23,0-4.71.05-7.43,0a20.55,20.55,0,0,1-4.26-.38,44.67,44.67,0,0,1-4.17-2,8.41,8.41,0,0,0-4.71-.62c-.41,0-.83.16-1.23.24a3.55,3.55,0,0,0-1.09.57,8.6,8.6,0,0,0-1.75,1.9,48.93,48.93,0,0,0-4.89,10.2c-1.42,3.72-2.68,7.7-4.17,11.81-.19.51-.39,1-.62,1.53l-.18.39a1.1,1.1,0,0,1-.13.21.43.43,0,0,1-.35.21c-.42-.11-.37-.31-.47-.44a3.52,3.52,0,0,1-.15-.42,27.41,27.41,0,0,1-.62-3.35c-.3-2.25-.52-4.54-.74-6.88-.86-9.35-1.53-19.36-2.44-29.86-.48-5.25-.91-10.66-1.82-16.08-.13-.67-.26-1.34-.45-2a4,4,0,0,0-.33-.92c-.16-.28-.3-.4-.47-.32a3.5,3.5,0,0,0-1.19,1.44,18.85,18.85,0,0,0-.91,1.86,83.23,83.23,0,0,0-2.86,8c-1.71,5.48-3.23,11.12-4.69,16.86l-.55,2.16a15.62,15.62,0,0,1-.62,2.2,4.71,4.71,0,0,1-3.71,2.71c-1.56.06-3,.14-4.57.1a21.37,21.37,0,0,1-4.56-.67,23.23,23.23,0,0,1-5.43-2.16,12.42,12.42,0,0,0-2.5-1.25,2.19,2.19,0,0,0-2.35.44,6.58,6.58,0,0,0-1.12,2.45c-.3.89-.55,1.8-.8,2.7-.5,1.82-1,3.64-1.41,5.45-.93,3.63-1.81,7.21-3,10.74a2,2,0,0,1-.2.38.55.55,0,0,1-.68.16,1.56,1.56,0,0,1-.5-.7,10,10,0,0,1-.46-1.33c-.24-.89-.44-1.78-.63-2.67-.37-1.78-.68-3.55-1-5.32-1.17-7.06-2.12-14-3.14-20.65-.51-3.34-1-6.64-1.69-9.82a12.31,12.31,0,0,0-.65-2.27c-.21-.65-1,.12-1.4.69a29.65,29.65,0,0,0-2.43,4.06c-2.87,5.6-5.2,11.23-7.79,16.44a26.57,26.57,0,0,1-2.17,3.76,1.67,1.67,0,0,1-1,.73,2.74,2.74,0,0,1-1.14,0,4,4,0,0,1-1.79-1.24,5.76,5.76,0,0,0-1.58-1.19,3.65,3.65,0,0,0-1.84-.4c-1.27.12-2.28,1.07-3.32,1.86a4.32,4.32,0,0,1-1.81.92,2,2,0,0,1-1.07-.09,3.19,3.19,0,0,1-.84-.57,20.56,20.56,0,0,1-2.43-2.92c-.73-1-1.43-2-2.16-2.91a9.52,9.52,0,0,0-2.45-2.38c-1-.63-2,.16-2.86.76a23.58,23.58,0,0,0-2.38,2.18,57.89,57.89,0,0,0-3.92,4.68l-.06.07h-.08l-21.23-.08-5.61,0-1.44,0a4.34,4.34,0,0,1-.48,0l.48,0,1.44,0,5.61,0,21.23-.07-.13.06a54.87,54.87,0,0,1,3.93-4.72,21.5,21.5,0,0,1,2.41-2.24,6.47,6.47,0,0,1,1.48-.89,2.45,2.45,0,0,1,.9-.19,2,2,0,0,1,.9.28,9.9,9.9,0,0,1,2.57,2.47c.75.94,1.46,1.92,2.19,2.91a20.84,20.84,0,0,0,2.37,2.85,2.83,2.83,0,0,0,.73.49,1.54,1.54,0,0,0,.83.06,3.91,3.91,0,0,0,1.61-.84c1-.76,2.06-1.81,3.55-2a5,5,0,0,1,3.79,1.7,3.61,3.61,0,0,0,1.57,1.12,2.33,2.33,0,0,0,1,0c.22,0,.46-.3.66-.56a25.35,25.35,0,0,0,2.11-3.68c2.57-5.2,4.88-10.82,7.76-16.47a29.44,29.44,0,0,1,2.48-4.14,4.34,4.34,0,0,1,.9-.92,1.06,1.06,0,0,1,.76-.22.87.87,0,0,1,.63.52,12.46,12.46,0,0,1,.72,2.41c.69,3.22,1.19,6.51,1.71,9.85,1,6.69,2,13.6,3.15,20.65.3,1.76.61,3.53,1,5.29.18.88.38,1.76.62,2.63a11.46,11.46,0,0,0,.43,1.25,1.16,1.16,0,0,0,.26.42c-.06,0,0,.18-.06.07l0,0s0-.05,0,0h0a.82.82,0,0,0,.11-.23c1.12-3.43,2-7.05,2.94-10.66.45-1.82.91-3.64,1.41-5.47.25-.91.51-1.82.8-2.73.14-.45.31-.91.47-1.36a4.18,4.18,0,0,1,.79-1.32,2.46,2.46,0,0,1,1.41-.74,3.65,3.65,0,0,1,1.55.14,13.06,13.06,0,0,1,2.62,1.3,22.66,22.66,0,0,0,5.29,2.11,20.79,20.79,0,0,0,4.43.65c1.47,0,3-.05,4.48-.11a4.09,4.09,0,0,0,3.23-2.35,17.3,17.3,0,0,0,.59-2.1l.54-2.16c1.47-5.75,3-11.4,4.71-16.88a84.73,84.73,0,0,1,2.89-8.06,20,20,0,0,1,.94-1.92,10.2,10.2,0,0,1,.59-.92,2.28,2.28,0,0,1,.91-.78.83.83,0,0,1,.76.09,1.48,1.48,0,0,1,.42.5,4.85,4.85,0,0,1,.38,1c.19.68.33,1.37.46,2,.91,5.48,1.33,10.87,1.81,16.13.89,10.51,1.54,20.52,2.38,29.86.21,2.34.43,4.63.73,6.87a24.53,24.53,0,0,0,.59,3.27,3,3,0,0,0,.12.36.87.87,0,0,0,.08.14.05.05,0,0,1,0,0s-.06,0-.05.09,0-.13,0-.09,0,0,0,0a.83.83,0,0,0,.09-.15l.17-.36c.22-.49.42-1,.61-1.51,1.5-4.08,2.77-8.07,4.21-11.8a49.82,49.82,0,0,1,5-10.26,9.42,9.42,0,0,1,1.85-2,3.66,3.66,0,0,1,1.21-.62c.43-.09.85-.2,1.28-.25a8.82,8.82,0,0,1,4.9.67,43.36,43.36,0,0,0,4.12,2,20.68,20.68,0,0,0,4.18.4c2.71.07,5.19.06,7.42.05l10.28-.13,2.67,0Z" fill="#fbd5a7"/><path d="M974.41,149.23l-4.52,116.5-58.33-1.89c-.69-6.77-1.44-33-1.44-33s-24.36-2.62-25.8-26.78c-.7-11.73-.17-36.07.56-58a44.78,44.78,0,0,1,45.26-43.3h0A44.78,44.78,0,0,1,974.41,149.23Z" fill="#fbbd9d"/><path d="M910.09,230.86s15.34.52,31.09-10.45c0,0-6.62,17.75-30.85,16.72Z" fill="#ec996f"/><path d="M892.81,163.33a3.45,3.45,0,0,0,3.49,3.32,3.29,3.29,0,0,0,3.41-3.28,3.46,3.46,0,0,0-3.49-3.33A3.31,3.31,0,0,0,892.81,163.33Z" fill="#263238"/><path d="M890.65,158.35c.45.43,3-1.63,6.69-1.79s6.53,1.56,6.91,1.08c.19-.21-.29-1-1.51-1.81a9.54,9.54,0,0,0-5.56-1.42,9.08,9.08,0,0,0-5.3,2C890.78,157.33,890.43,158.16,890.65,158.35Z" fill="#263238"/><path d="M928,163.21a3.46,3.46,0,0,0,3.49,3.33,3.31,3.31,0,0,0,3.41-3.29,3.45,3.45,0,0,0-3.49-3.32A3.29,3.29,0,0,0,928,163.21Z" fill="#263238"/><path d="M927.2,157.32c.45.43,3-1.63,6.69-1.8s6.53,1.56,6.91,1.09c.19-.21-.28-1-1.51-1.81a9.47,9.47,0,0,0-5.56-1.43,9.15,9.15,0,0,0-5.3,2C927.34,156.29,927,157.13,927.2,157.32Z" fill="#263238"/><path d="M915,185.51c0-.22-2.32-.51-6.08-.81-1,0-1.86-.2-2.05-.84a4.79,4.79,0,0,1,.5-2.84l2.46-7.35c3.41-10.47,5.83-19.06,5.41-19.2s-3.53,8.25-6.94,18.72q-1.23,3.87-2.34,7.39c-.31,1.09-.87,2.35-.32,3.75a2.41,2.41,0,0,0,1.63,1.31,6.46,6.46,0,0,0,1.62.15C912.68,185.81,915,185.72,915,185.51Z" fill="#263238"/><path d="M926.08,187.56c-.61,0-.42,4-3.74,7.05s-7.63,2.79-7.63,3.35c-.05.26,1,.74,2.81.7a10,10,0,0,0,6.38-2.57,8.77,8.77,0,0,0,2.88-5.9C926.85,188.5,926.35,187.52,926.08,187.56Z" fill="#263238"/><path d="M925.56,142.8c.41,1,4.1.34,8.48.66s8,1.34,8.5.41c.24-.45-.42-1.37-1.89-2.28a14.77,14.77,0,0,0-12.94-.81C926.14,141.5,925.38,142.33,925.56,142.8Z" fill="#263238"/><path d="M891.51,147.53c.69.82,3.21-.18,6.29-.37s5.71.3,6.27-.61c.24-.44-.21-1.27-1.39-2a9.12,9.12,0,0,0-10.11.79C891.52,146.25,891.2,147.14,891.51,147.53Z" fill="#263238"/><path d="M946.93,124.37l.14.1a19,19,0,0,1,7.65,12l.09.48c1.27,6.85,1.43,13.88,2.77,20.71s4.06,13.74,9.37,18.24c2.19,1.85,6,3,7.57.65a5.83,5.83,0,0,0,.71-3.2c.5-16.71,4.35-31.7,3.5-49.1a14.73,14.73,0,0,0-6.66-11.66c-3.77-2.44-8.35-4.94-12.31-2.83s-8.84,9.94-11.83,13.3Z" fill="#263238"/><path d="M966.8,161c.41-.2,16.38-5.7,16.63,10.85S967,185.21,967,184.73,966.8,161,966.8,161Z" fill="#fbbd9d"/><path d="M971.94,178.38c.07,0,.29.2.78.42a2.93,2.93,0,0,0,2.16,0c1.74-.67,3.17-3.47,3.2-6.45a9.55,9.55,0,0,0-.87-4.12,3.33,3.33,0,0,0-2.2-2.18,1.47,1.47,0,0,0-1.69.82c-.21.46-.1.79-.19.82s-.36-.27-.24-1a1.83,1.83,0,0,1,.64-1,2.16,2.16,0,0,1,1.59-.45,4.08,4.08,0,0,1,3,2.52,9.91,9.91,0,0,1,1.07,4.6c-.06,3.34-1.72,6.48-4.1,7.21a3.05,3.05,0,0,1-2.64-.4C972,178.78,971.88,178.41,971.94,178.38Z" fill="#ec996f"/><path d="M962.26,114.79C967,108.65,957,98,949.12,94.55s-19-.66-27.33,1.14c-5.28,1.13-10.62,2.94-16,2.13-3.59-.54-6.88-2.22-10.14-3.79S889,91,885.39,90.8s-7.52,1.36-9.25,4.55-.27,8,3.24,8.85c-4.28-3-11.22-.43-12.53,4.63s3.55,10.65,8.74,10.1c-2.14-2-6.05.51-6.08,3.46s2.39,5.37,4.94,6.84c6.53,3.76,14.64,3.67,22,2.06s14.35-4.62,21.67-6.42,19.61-5.11,26.4-1.85c5,2.4,7.94,9.06,11,8a10.11,10.11,0,0,0,6-6.83,29.29,29.29,0,0,0,.7-9.4Z" fill="#263238"/><path d="M880.26,105.39s-.31.16-.83.52a4.94,4.94,0,0,0-1.69,2.15,7,7,0,0,0-.36,4.28,7.11,7.11,0,0,0,3.32,4.5,13.38,13.38,0,0,0,6.71,1.84,26.54,26.54,0,0,0,8-1.17c5.55-1.61,11.06-4.89,16.85-8.23s11.74-6.13,17.61-6.83a21.83,21.83,0,0,1,8.29.51,20.11,20.11,0,0,1,6.54,3.08,21,21,0,0,1,6.76,7.88,15.08,15.08,0,0,1,1.28,3.6c-.08,0-.4-1.31-1.52-3.48a21.37,21.37,0,0,0-6.8-7.6,20,20,0,0,0-6.41-2.93,21.47,21.47,0,0,0-8.06-.44c-5.72.73-11.57,3.5-17.35,6.81s-11.35,6.63-17,8.24a27.31,27.31,0,0,1-8.22,1.13,13.93,13.93,0,0,1-7-2,8.73,8.73,0,0,1-2.32-2.2,7,7,0,0,1-1.11-2.63,7.19,7.19,0,0,1,.49-4.47,4.87,4.87,0,0,1,1.86-2.15A3.19,3.19,0,0,1,880.26,105.39Z" fill="#455b64"/><path d="M938.74,97a3,3,0,0,1,1.07,0,13.47,13.47,0,0,1,2.88.51,16.17,16.17,0,0,1,11.72,14.06,13.73,13.73,0,0,1,0,2.92,3,3,0,0,1-.22,1c-.13,0,.09-1.53-.25-3.92A16.71,16.71,0,0,0,942.55,98C940.26,97.22,938.73,97.16,938.74,97Z" fill="#455b64"/><path d="M978.39,139.44a2.82,2.82,0,0,1-1.35.38,6.55,6.55,0,0,1-3.73-.81,9.54,9.54,0,0,1-3.95-4,27.82,27.82,0,0,1-2.28-6.52,27.36,27.36,0,0,0-2.2-6.37,9.14,9.14,0,0,0-3.7-3.85,6.64,6.64,0,0,0-3.51-.87c-.87,0-1.34.22-1.36.16a2.92,2.92,0,0,1,1.34-.43,6.51,6.51,0,0,1,3.75.71,9.35,9.35,0,0,1,4,4,26.6,26.6,0,0,1,2.32,6.51,29.2,29.2,0,0,0,2.16,6.39,9.44,9.44,0,0,0,3.63,3.93,6.74,6.74,0,0,0,3.48,1C977.89,139.54,978.37,139.38,978.39,139.44Z" fill="#455b64"/><path d="M977.52,150.38a1.15,1.15,0,0,1-.41.11,8.84,8.84,0,0,1-1.19.16,15,15,0,0,1-4.41-.34,19.9,19.9,0,0,1-11.82-8.15,29.4,29.4,0,0,1-4.88-13.63,12.55,12.55,0,0,0-.38-2.42,3,3,0,0,0-.95-1.48,2.51,2.51,0,0,0-1.43-.54,1.64,1.64,0,0,1,1.59.32A3.27,3.27,0,0,1,954.8,126a12.48,12.48,0,0,1,.49,2.49,30.87,30.87,0,0,0,5,13.3,20.13,20.13,0,0,0,11.37,8.06A22.37,22.37,0,0,0,977.52,150.38Z" fill="#455b64"/><path d="M1047.92,560c-4.32,1-8.61,1.84-12.84,2.63q-3.06.57-6.07,1.09l-3.14.51-3.12.48-3.24.46q-3,.41-5.88.73c-5,.54-9.75.9-14.29,1-5.35.16-10.45.22-15.36.19l-2.25,0-2.59,0-2.61-.05-1.39,0-2.28-.08c-.72,0-1.43,0-2.14-.09l-2-.09c-1.84-.09-3.65-.19-5.45-.31l-2.81-.2-.27,0c-1.77-.14-3.51-.28-5.24-.44-1-.09-2-.19-3-.3l-3.29-.35-3-.35-2.42-.31-.72-.1-1.07-.14c-1.19-.16-2.37-.33-3.56-.51l-3.18-.48-.28-.05c-1.21-.19-2.42-.38-3.63-.59s-2.37-.4-3.56-.62c-1.43-.25-2.87-.51-4.32-.79l-2-.38-.28,0-2.06-.4c-9-1.77-18.26-3.86-28.39-6.25a.07.07,0,0,1-.06,0c-3-.7-6.09-1.44-9.26-2.2l-3.88-.93-6-1.44-4.11-1-4.2-1,1.48-30.37,0-.34v-.35l.21-4.16.64-13.26h0l.05-.95h0l0-.94h0l.88-18.1L864,455.43l-4.34-48.54c0-.12,0-.25,0-.38l-1.85-20.76-.25.41c-5,8.13-13.09,18.57-19.7,26.88l-.23.3-.24.3c-4.15,5.2-7.64,9.5-9.29,11.76q-.39.54-.78,1a16.67,16.67,0,0,1-9.81,6.14c-3.7.93-8.44,1.34-15,1.94l-2.31.21c-2.77.26-7.64-1.65-13.82-5h0a246.44,246.44,0,0,1-21.16-13.36q-2.6-1.79-5.25-3.67c-8.72-6.16-17.87-13-26.51-19.64-3.95-3-7.8-6-11.45-8.9-16.7-13.11-29.33-23.63-29.33-23.63l10.81-15.72L716,326.47h0l2.78-4,13,7.58,29.57,17.24,19.76,11.52h0L793,365.66l5.35-8.33,13.77-21.46.2-.31.21-.32,31.12-48.48a46.61,46.61,0,0,1,19.91-17.26l.78-.36c11.52-5.25,38.11-14.23,38.11-14.23l7.8-9.89.31,0h.07l60.4-7.65,18.56,10.42,37.34,11.44v.09l.72,42.69,2.57,151.86,8,48,.06.38h0l0,.25,8.46,50.61Z" fill="#f1f2f2"/><path d="M921,560.78l-.28,0c-.37-9.19-1-26.06-1.7-47.08,0-.17,0-.35,0-.53a.37.37,0,0,1,0-.11c-.39-11.41-.81-24-1.24-37.29-.22-6.73-.43-13.3-.62-19.62,0-.18,0-.36,0-.54a.41.41,0,0,1,0-.11c-.86-27.37-1.53-50.18-1.84-62.5h0c0-.12,0-.22,0-.34h0c-.15-5.78-.21-9.17-.16-9.52,0,.18.09,1.06.16,2.58h0a.57.57,0,0,1,0,.13c.09,1.82.2,4.5.34,7.94v.07h0a.22.22,0,0,0,0,.08h0c0,.14,0,.28,0,.42v0c.49,12.6,1.28,34.7,2.15,61,0,0,0,.07,0,.1s0,.37,0,.55c.22,6.34.43,12.91.65,19.66.43,13.27.83,25.89,1.18,37.31a.41.41,0,0,0,0,.11c0,.18,0,.36,0,.54C920.32,534.71,920.8,551.61,921,560.78Z" fill="#263238"/><polygon points="910.5 244.25 915.21 385.85 970.99 237.32 910.5 244.25" fill="#fbbd9d"/><path d="M915.65,393.83a2.19,2.19,0,0,1-.19-.43c-.12-.32-.28-.74-.49-1.27l-1.91-4.89c-1.69-4.23-4.19-10.33-7.65-17.71-1.76-3.67-3.74-7.67-6.1-11.83a66.3,66.3,0,0,0-8.75-12.41c-1.84-1.91-4-3.89-4.83-6.8a8.71,8.71,0,0,1,.11-4.39c.36-1.43.86-2.79,1.31-4.19,1.83-5.57,3.74-11.33,5.68-17.24l.12-.36.36.45-22.44,2-.06-.66,12-23.7c3.68-7.24,7-13.61,9.87-18.86s5.25-9.39,7-12.17c.86-1.4,1.54-2.47,2-3.18l.55-.8a1.86,1.86,0,0,1,.2-.26,1,1,0,0,1-.15.29l-.5.84c-.45.77-1.09,1.84-1.91,3.22-1.65,2.82-4,7-6.78,12.26s-6.09,11.67-9.74,18.92c-1.81,3.63-3.73,7.46-5.73,11.48l-3.06,6.14-1.6,3.16-.83,1.6-.44.8c-.07.13-.14.26-.23.4l-.13.21a.88.88,0,0,1-.39.31l-.06-.66,22.44-2.05.52-.05-.16.5-.12.36c-2,5.9-3.86,11.67-5.7,17.24-.87,2.76-2.13,5.53-1.43,8.19s2.8,4.61,4.65,6.53a65.51,65.51,0,0,1,8.8,12.57c2.34,4.19,4.3,8.21,6,11.9,3.41,7.42,5.84,13.56,7.46,17.82.8,2.14,1.41,3.8,1.79,4.94.2.57.34,1,.43,1.3A2.51,2.51,0,0,1,915.65,393.83Z" fill="#263238"/><path d="M915.45,395.17a3.13,3.13,0,0,1,0-.46c.06-.34.13-.78.22-1.35a28.54,28.54,0,0,1,1.39-5.06,89.34,89.34,0,0,1,9-17.13c2.26-3.43,4.84-7.13,7.75-11a137.08,137.08,0,0,1,9.89-11.94,97.46,97.46,0,0,1,12.75-11.57,85.41,85.41,0,0,1,7.63-5.05c2.67-1.58,5.41-3.09,8.05-4.85l-.1.48a38.23,38.23,0,0,0-4.08-5.11A39.09,39.09,0,0,0,958,314.46l-.48-.25.43-.32a63.27,63.27,0,0,1,27.74-11.73l-.26.29c1.18-16.16,2.17-29.76,2.87-39.37.37-4.75.66-8.52.86-11.13.11-1.26.19-2.24.26-2.95l.07-.75a.82.82,0,0,1,0-.26,1.71,1.71,0,0,1,0,.26c0,.2,0,.45,0,.76,0,.7-.09,1.69-.15,3-.17,2.62-.4,6.39-.69,11.15-.64,9.61-1.55,23.22-2.63,39.38v.24l-.24,0a63,63,0,0,0-27.43,11.66l-.05-.57a39.71,39.71,0,0,1,10.28,7.8,38.76,38.76,0,0,1,4.15,5.2l.2.28-.29.19c-2.67,1.78-5.43,3.29-8.08,4.87a82.86,82.86,0,0,0-7.59,5,97.46,97.46,0,0,0-12.69,11.47,137,137,0,0,0-9.89,11.85c-2.94,3.84-5.53,7.51-7.8,10.92a92.61,92.61,0,0,0-9.21,17,31.38,31.38,0,0,0-1.5,5c-.12.56-.21,1-.28,1.34A3.34,3.34,0,0,1,915.45,395.17Z" fill="#263238"/><rect x="947.01" y="351.99" width="39.4" height="7.66" fill="#263238"/><path d="M977.51,421a2.9,2.9,0,0,1-.68.19l-2,.42a57.58,57.58,0,0,1-7.29,1,25.87,25.87,0,0,1-10.85-1.3,17.91,17.91,0,0,1-10-8.69c-2.17-4.34-2.64-9-2.73-13.1s.13-7.79.14-10.9.11-5.61.2-7.35c0-.86.09-1.54.13-2a.35.35,0,1,1,.14,0v2c0,1.83,0,4.32,0,7.34v10.89c.12,4,.62,8.61,2.72,12.8a17.42,17.42,0,0,0,9.62,8.41,26.12,26.12,0,0,0,10.6,1.41c3.08-.16,5.56-.58,7.27-.82l2-.29A2.07,2.07,0,0,1,977.51,421Z" fill="#263238"/><path d="M984.63,377.73c0,.19-9,.55-20,.8s-20,.31-20,.12,9-.55,20-.8S984.62,377.54,984.63,377.73Z" fill="#263238"/><path d="M965.11,378V364.93a3.84,3.84,0,0,1,3.84-3.85h0a3.84,3.84,0,0,1,3.84,3.85v21.54a1.32,1.32,0,0,1-2.63.19,4.41,4.41,0,0,1,0-.52c0-3.28-.36-8.3-.36-8.3Z" fill="#e7515b"/><path d="M964.43,400.58c-.19,0-.34-4.12-.34-9.2s.15-9.2.34-9.2.35,4.12.35,9.2S964.62,400.58,964.43,400.58Z" fill="#263238"/><path d="M971.88,417.69c-.19,0-.35-6.58-.35-14.69s.16-14.7.35-14.7.34,6.58.34,14.7S972.07,417.69,971.88,417.69Z" fill="#263238"/><path d="M911.49,274l18.33,22.36c12.94-13.06,22.24-26,30.39-31.61,0,0-44.93,123.11-45,121.06S911.49,274,911.49,274Z" fill="#d9bbda"/><path d="M960.21,264.79a3.76,3.76,0,0,1-.47.51l-1.41,1.38c-1.24,1.17-3,2.91-5.18,5.07-4.33,4.33-10.09,10.52-16.4,17.42s-12.13,13.06-16.57,17.3c-2.21,2.13-4,3.81-5.33,4.93l-1.5,1.28c-.35.29-.54.43-.56.41a4,4,0,0,1,.46-.51l1.42-1.38c1.24-1.17,3-2.91,5.17-5.07,4.34-4.33,10.1-10.52,16.41-17.42s12.13-13.06,16.56-17.3c2.22-2.13,4-3.81,5.34-4.93l1.5-1.28C960,264.91,960.19,264.77,960.21,264.79Z" fill="#263238"/><path d="M929.71,296.31c-.15.12-4.35-4.77-9.37-10.92s-9-11.23-8.84-11.35,4.34,4.77,9.37,10.92S929.85,296.19,929.71,296.31Z" fill="#263238"/><path d="M851.82,316.8a5.11,5.11,0,0,1,.16.92c.08.68.19,1.56.33,2.66.28,2.31.64,5.65,1.05,9.79.83,8.27,1.83,19.71,2.85,32.34s2,24,2.66,32.36c.34,4.08.63,7.41.83,9.81.08,1.1.15,2,.2,2.66a5.55,5.55,0,0,1,0,.94,4.29,4.29,0,0,1-.17-.92c-.08-.68-.19-1.56-.33-2.66-.27-2.3-.63-5.65-1-9.78-.83-8.27-1.83-19.71-2.86-32.35s-2-24-2.66-32.36c-.34-4.08-.62-7.41-.82-9.8-.09-1.11-.16-2-.21-2.67A4,4,0,0,1,851.82,316.8Z" fill="#263238"/><path d="M1024.22,258.91s29.36,0,36.73,56.49,23.57,160.05-5.89,179.69-165.77,18.26-165.77,18.26V458.63l111.88-12.34s-.43-10.19,5.28-10.11l-6.38-129.13S998.78,261.33,1024.22,258.91Z" fill="#f1f2f2"/><path d="M1000.35,350s0,.53.12,1.56.15,2.59.27,4.59c.21,4,.53,10,.94,17.53.78,15.19,1.9,37,3.26,63.58v.28h-.28a4.19,4.19,0,0,0-2.58,1,6,6,0,0,0-1.57,2.51,17.23,17.23,0,0,0-.85,6.31v.28l-.27,0L889.32,459l.31-.34v5c0,17.19,0,33.91,0,49.72l-.33-.34c47.63.52,89.18-1.38,118.54-5.07,7.33-.94,13.9-2,19.61-3.12a141.82,141.82,0,0,0,14.39-3.64c1.92-.64,3.61-1.26,5.05-1.82s2.63-1.14,3.57-1.63l2.1-1.18.72-.39s-.23.16-.69.44l-2.07,1.24c-.94.5-2.15,1-3.56,1.68s-3.13,1.22-5,1.88a137.89,137.89,0,0,1-14.4,3.75c-5.71,1.15-12.28,2.25-19.62,3.22-29.37,3.81-70.93,5.79-118.6,5.31H889v-.33c0-15.81,0-32.53,0-49.72v-5.31l.31,0,110.1-11.22-.26.3a17.88,17.88,0,0,1,.9-6.53,6.54,6.54,0,0,1,1.73-2.74,4.71,4.71,0,0,1,2.94-1.13l-.27.29c-1.27-26.59-2.3-48.4-3-63.59-.34-7.58-.6-13.5-.79-17.54-.08-2-.14-3.54-.18-4.59S1000.35,350,1000.35,350Z" fill="#263238"/><path d="M1020.77,450.56c-.11,0-.55-1.13-1.55-2.85a22.55,22.55,0,0,0-11.68-9.71c-1.87-.67-3.11-.89-3.09-1a9.18,9.18,0,0,1,3.24.54,20.15,20.15,0,0,1,11.95,9.94A9.18,9.18,0,0,1,1020.77,450.56Z" fill="#263238"/><path d="M1007.63,460.69c-.21.06-1-3.58-3.35-7.39s-5.27-6.12-5.12-6.29a6.69,6.69,0,0,1,2,1.42,21.3,21.3,0,0,1,6.11,9.87A6.68,6.68,0,0,1,1007.63,460.69Z" fill="#263238"/><polygon points="621.02 300.23 701.24 513.48 871.37 516.92 801.25 301.69 621.02 300.23" fill="#e7515b"/><g opacity="0.5"><path d="M728.16,513.86s-40.7-78.27-53.39-130.4c-7.21-29.5-13.64-83-13.64-83l106.19.94s35.22,56.05,55.5,112.05,26.6,103,26.6,103l-54.49-1.2L777,463.06s-5.59,3-13.28-.89l18.5,52.88Z" fill="#fff"/></g><path d="M786.41,429.85l-.06-.16h0c-1.1-3.07-5.21-12.95-4.54-17.92s5.69-10.54,6-15.63.42-16.39-.86-21.91a117.44,117.44,0,0,0-5-14.33s-.27-.42-.76-1.11h0c-2.12-3-8.38-11.1-14.65-11.33l-5.11-.19-4.3-.16s-6.81,1.64-3.51,10.06S764.67,380,765.79,382.5s6.36,12.12,5.17,18.3c-.63,3.27-3.44,9.63-5.77,15.52-2.07,5.24-3.77,10.1-3.21,12.08l-4.81-.18s-4.44-7.71-10.69-11S726.86,399.94,724,391.54c-.67-2-1.35-4.55-2-7.43-2.21-9.4-4.35-21.92-5.79-26.45-1.89-5.92-4.81-11.12-9.7-12.43a15.19,15.19,0,0,0-3-.47,31.68,31.68,0,0,0-8.43.8s-8.75,3.07-4.83,16.24,6.12,14,10.76,21.72,5.81,10,9.5,13.37S722.84,404,726.6,412,732.23,429.39,739,441s9.24,15.81,14.53,15.82,7-6,7.19-9.56a41.5,41.5,0,0,0,0-5.66l6.39.23s7.21,13.49,14.79,16,7-4.28,7.43-6.91S787.4,432.72,786.41,429.85ZM749,445.42c-2-1-5.51-7.78-9-13.63-2.6-4.39-2.36-6.7-2.08-7.58a2.45,2.45,0,0,1,.14-.35l-.05.06c.26-1.53,2.83-.86,4.72-.1,1.39.55,8,3.13,10.13,12.68S751,446.44,749,445.42Zm33.07,1.2c-1.35.9-5.75.2-10.17-9.43s.54-11.79,1.59-12.26c1.41-.63,3.58-1.13,4.91.46l-.06,0,.36.34a12.35,12.35,0,0,1,3.12,7.62C782.34,439.06,783.44,445.72,782.08,446.62Z" fill="#fff"/><path d="M759.39,425.06c1.58-.11.46-6.13.46-6.13a45.45,45.45,0,0,0,0-6.8c-.3-2.84,1.17-5.44,2.19-8.06s-.05-9.62-1.27-13.15-.39-3.84-.39-3.84c4.05-1.34.3-9.78-2.43-17.68s-5.45-7.33-5.45-7.33-1.81-.07-2.85,6.37-2.83,8.72-6.73,8.71l-2.09-.08c-3.9.07-7.42-2.76-13-9.43s-7.34-6.75-7.34-6.75-3.18-.78-.49,7.12,4.7,16.28,9.79,18c0,0,1,.37,2.26,3.9s5,10.64,7.83,13.4,6.18,5.53,7.84,8.42,4.76,7,4.76,7,3.79,6.11,5.48,6.34Z" fill="#fff"/><path d="M710,302.43s-2.08.6-.59,4.06,1.37,5.52,2.18,6.46a30.29,30.29,0,0,0,2.91,2.61s-2.38.82-.63,4.52,2.22,7.36,3,9,2.51,2.14,3.29,3.07-2.58-.09-1.74,3.13,2.93,5.56,2.92,8.52,1.44,6.88,4.26,8.35,2.29,3.5,2.37,5.09.17,2.28,1.28,6.42,7.45,10.51,11.34,10.2,7.62-5,6.7-7.72A42.41,42.41,0,0,0,741,355.66c-1.65-1.65-3.05-1.7-2.75-3.51s2.34,1,2.24-1.51-.34-5-1.91-7.35-2-4.63-3.55-7.64-4.44-3.58-4.22-4.25,1.86-.39.52-3.39-1.4-1-2.83-5.57-2.08-7.36-3.46-6.95-1.18-1.64-1.67-4.84.68-2-1.28-5.51S710,302.43,710,302.43Z" fill="#fff"/><path d="M712.67,415.73l1.76-4.2-2.84-8.42s4.75-2.9,11.36,6.7S729.12,424,729.12,424l-7.83-.28a12.65,12.65,0,0,0-.28,8.6c1.59,4.32,3.91,3.8,6,11.39s2.34,10.64,2.34,10.64l24.43,59.18-10.91-.39-26.35-62.71s-3-1.93-7.86-11.45-9.54-21.87-6.38-25.2S712.67,415.73,712.67,415.73Z" fill="#fff"/><path d="M799.81,418.91l-4.72-4.44-2.94-8.42s-6.89-3.32-7,6,3.49,14,3.49,14l7.84.29s4.89,4.52,6.26,8.83-1.38,3.61,1.69,11.23a78.88,78.88,0,0,0,5,10.73l16,58.86,10.91.39-16.45-62.32s1.74-1.76.12-11.16-5.39-21.7-11-25.35A6.61,6.61,0,0,0,799.81,418.91Z" fill="#fff"/><path d="M621,300.23l180.23,1.17h.21l.06.2c19.69,60.38,43.38,133,68.84,211.12l1.34,4.1.15.46h-.48l-170.14-3.48H701l-.07-.2C653.57,387.12,622,302.77,621,300.23l80.51,213.14-.29-.2,170.14,3.41-.33.45-1.34-4.1C844.28,434.82,820.64,362.17,801,301.78l.27.2Z" fill="#263238"/><path d="M889.52,463.09H872.46s-8.73-8.43-11.1-9.62-14-4.71-14-4.71l4.5,12.48a19.16,19.16,0,0,1,2.07.73c3,1.16,2.15,3.79-.22,3.79H836.48s-17.59-8.44-20.2-6.89c-2.19,1.29-3,3.63-.71,6.89s17.65,11,19.43,11.56l5,1.48-4.74,1.48-22.42-7.83c-1.45-.26-3.46-.5-4.12.34a3,3,0,0,0,.12,4.34c2.77,2.88,10.14,8,10.14,8s-3.58,5.26-.61,7.92S830,503.69,830,503.69s.89,4.44,3.56,6.52,32,2.07,34.08,2.07,13.92-6.81,13.92-6.81l7.77-.81Z" fill="#fbbd9d"/><path d="M838.67,493.58a9.24,9.24,0,0,1-3.21.43,10,10,0,0,1-3.51-.62,19.34,19.34,0,0,1-3.81-2c-2.54-1.65-4.82-3.18-6.45-4.31a14.86,14.86,0,0,1-2.55-2,15.31,15.31,0,0,1,2.82,1.55c1.69,1,4,2.49,6.55,4.14a21.45,21.45,0,0,0,3.67,2,10.1,10.1,0,0,0,3.3.72C837.43,493.61,838.66,493.46,838.67,493.58Z" fill="#ec996f"/><path d="M840,504.55a3.66,3.66,0,0,1-2.23,1.25,8.24,8.24,0,0,1-6-1,24.86,24.86,0,0,1-4.91-3.65,7.69,7.69,0,0,1-1.67-1.9c.15-.18,2.85,2.64,6.91,4.95a8.43,8.43,0,0,0,5.62,1.14A13.15,13.15,0,0,0,840,504.55Z" fill="#ec996f"/><path d="M848.32,480.27c0,.18-2.11.17-4.64-.36s-4.47-1.34-4.41-1.51,2.07.33,4.55.84S848.34,480.08,848.32,480.27Z" fill="#ec996f"/><path d="M614.38,338.78a7.15,7.15,0,0,1-2.52-10,8,8,0,0,1,2.57-2.86c2.87-1.52,28.2-6.26,30.92-6.65s3.21,4.84-.33,7.42-30.64,12-30.64,12Z" fill="#fbbd9d"/><path d="M620.28,357.14a7.15,7.15,0,0,1-2.52-10,8,8,0,0,1,2.57-2.86c2.87-1.52,28.73-8.3,30.91-6.65,2.63,2,3.22,4.84-.33,7.42s-30.63,12.05-30.63,12.05Z" fill="#fbbd9d"/><path d="M625.42,353.35a8.35,8.35,0,0,0-5.58,4.38,5.82,5.82,0,0,0-.51,3.83,11,11,0,0,0,7.7,8.23c4.63,1.44,19.71-1.94,19.71-1.94l-3.48-9.72,10.57-3.46c4.3-1.71,2.22-8.44-3-7.14C649.15,348,631.47,351.84,625.42,353.35Z" fill="#fbbd9d"/><path d="M617.53,347.45a7.16,7.16,0,0,1-2.52-10,8,8,0,0,1,2.57-2.86c2.87-1.52,25.9-5.62,28.58-6.19s5.56,4.38,2,6.95-30.64,12.06-30.64,12.06Z" fill="#fbbd9d"/><path d="M643.54,338.2a26.48,26.48,0,0,1-4,1c-2.5.55-6,1.26-9.81,2s-7.19,1.89-9.25,3.39a14.84,14.84,0,0,0-2.88,2.88s.1-.4.49-1a8.74,8.74,0,0,1,2.11-2.25,15.49,15.49,0,0,1,4-2.17,37,37,0,0,1,5.36-1.5c3.85-.76,7.34-1.4,9.87-1.83A25.65,25.65,0,0,1,643.54,338.2Z" fill="#ec996f"/><path d="M639.09,329.79a23.22,23.22,0,0,1-3.87.94l-9.4,1.82c-3.63.8-6.85,1.89-8.74,3.41a20.22,20.22,0,0,0-2.7,2.82,2.78,2.78,0,0,1,.46-1,9.09,9.09,0,0,1,1.94-2.23c1.9-1.69,5.23-2.9,8.89-3.7s7-1.24,9.46-1.63A23.4,23.4,0,0,1,639.09,329.79Z" fill="#ec996f"/><path d="M643.86,349a22.51,22.51,0,0,1-3.62,1.12c-2.25.6-5.41,1.4-8.93,2s-6.59,1.55-8.48,2.86a14.58,14.58,0,0,0-2.72,2.51s.09-.36.46-.91a8.7,8.7,0,0,1,2-2c1.93-1.47,5.12-2.49,8.64-3.14s6.65-1.29,8.94-1.78A19.9,19.9,0,0,1,643.86,349Z" fill="#ec996f"/><path d="M645.31,357.45c.06.18-2.4,1.17-5.5,2.2s-5.67,1.72-5.74,1.55,2.39-1.16,5.5-2.2S645.25,357.27,645.31,357.45Z" fill="#ec996f"/><path d="M1113.35,489.53c2.44,3.44,7.14,2.26,9.3.13s3.06-5.19,3.88-8.11c1.86-6.67,3.74-13.67,2.26-20.44a11.3,11.3,0,0,0-2.65-5.53,6,6,0,0,0-5.63-1.83c-2.37.65-3.82,3-4.87,5.2a48.67,48.67,0,0,0-4.65,20.93c0,3.36.44,6.89,2.36,9.65" fill="#ffe4c0"/><path d="M1122.55,507a21,21,0,0,1,13-1.68c2.36.37,4.82,1.06,6.44,2.82s2,4.88.12,6.41a6.1,6.1,0,0,1-4,1.06c-3.44,0-7.26-.59-10,1.5-1.56,1.19-2.59,3.16-4.45,3.76a4.42,4.42,0,0,1-4.89-2.13,7.54,7.54,0,0,1-.6-5.58A8.55,8.55,0,0,1,1122.55,507Z" fill="#ffe4c0"/><path d="M1106.75,494.54c2.6-3.14,3.06-7.69,1.86-11.58a22.26,22.26,0,0,0-6.93-9.89,36.87,36.87,0,0,0-12.32-7.14,13,13,0,0,0-5.52-.89,5.78,5.78,0,0,0-4.61,2.83c-1.27,2.48,0,5.45,1.35,7.88a94,94,0,0,0,8.15,12.21c2.44,3.09,5.23,6.14,8.92,7.52s7.51,1.18,9.44-1.38" fill="#ffe4c0"/><path d="M1113.59,541.64a8.69,8.69,0,0,0,.21-1.57c.1-1.15.23-2.58.38-4.29s.43-3.95.91-6.29a50.12,50.12,0,0,1,2.23-7.43,27.11,27.11,0,0,1,3.74-6.74,14.12,14.12,0,0,1,4.75-4,13.56,13.56,0,0,1,4-1.29,8.4,8.4,0,0,0,1.56-.23,7,7,0,0,0-1.59,0,12.36,12.36,0,0,0-4.19,1.13,14.05,14.05,0,0,0-5,4.05,26.49,26.49,0,0,0-3.87,6.88,45.5,45.5,0,0,0-2.21,7.55,52.91,52.91,0,0,0-.79,6.37c-.12,1.82-.16,3.3-.18,4.31A7.94,7.94,0,0,0,1113.59,541.64Z" fill="#fbd5a7"/><path d="M1113.86,538.34a3.74,3.74,0,0,0,0-.73c0-.55,0-1.24,0-2.08,0-1.81,0-4.42,0-7.65.11-6.47.59-15.39,1.59-25.2s2.37-18.64,3.63-25c.3-1.58.6-3,.88-4.27s.5-2.33.73-3.21.34-1.49.47-2a3.11,3.11,0,0,0,.12-.72,3.15,3.15,0,0,0-.25.69c-.15.52-.35,1.19-.59,2s-.53,1.94-.83,3.19-.65,2.68-1,4.26a238.56,238.56,0,0,0-3.82,25c-1,9.83-1.42,18.77-1.41,25.25,0,3.24.07,5.86.17,7.67.06.84.11,1.53.14,2.08A3,3,0,0,0,1113.86,538.34Z" fill="#fbd5a7"/><path d="M1113.77,521.09a14.93,14.93,0,0,0,0-2.17A58.24,58.24,0,0,0,1113,513a81.1,81.1,0,0,0-5.65-18.71A54.06,54.06,0,0,0,1096.7,478a29.06,29.06,0,0,0-2.5-2.29c-.38-.31-.72-.63-1.07-.88l-1-.66a13.35,13.35,0,0,0-1.84-1.16,64.22,64.22,0,0,1,6,5.31,57.13,57.13,0,0,1,10.41,16.28,81.9,81.9,0,0,1,3.69,10c1,3.15,1.61,6.05,2.1,8.49s.75,4.44.92,5.83A12.06,12.06,0,0,0,1113.77,521.09Z" fill="#fbd5a7"/></svg>