<svg id="Layer_1" data-name="Layer 1" xmlns="http://www.w3.org/2000/svg" viewBox="0 0 1155.89 684.63"><title>artwork</title><path d="M406.28,388.69c43.59-37.62,74.35,19.54,69.11,76.49-3.26,35.44-24.78,125.43-38,207.1H406.28Z" fill="#fff3e2" fill-rule="evenodd"/><path d="M406.28,557.33c9-86.76,26.22-153.13,26.33-153.55a2.61,2.61,0,0,1,5.05,1.29c-.14.54-28.62,110.42-31.38,231.87Z" fill="#e0e0e0" fill-rule="evenodd"/><rect x="108.4" y="86.74" width="283.06" height="585.54" rx="31.91" fill="#d1d3d4"/><rect x="126.2" y="86.74" width="283.06" height="585.54" rx="31.91" fill="#e6e7e8"/><path d="M152.91,166.09H382.55a5.89,5.89,0,0,1,5.89,5.89V587a5.9,5.9,0,0,1-5.9,5.9H152.91A5.9,5.9,0,0,1,147,587V172A5.9,5.9,0,0,1,152.91,166.09Z" fill="#6d6e71"/><path d="M267.73,658.92a25.67,25.67,0,1,1,25.67-25.67A25.72,25.72,0,0,1,267.73,658.92Z" fill="#d1d3d4" fill-rule="evenodd"/><path d="M251.86,140.4a2.85,2.85,0,1,1,0-5.69h46.83a2.85,2.85,0,1,1,0,5.69Zm-15.09,0a2.85,2.85,0,1,1,0-5.69h3.47a2.85,2.85,0,1,1,0,5.69Z" fill="#5a5a5c" fill-rule="evenodd"/><path d="M382,261.88l-10,15.74s1.81,12.73,3.95,29.54l29.85-8.73c-2.11-15-3.71-25.54-3.71-25.54Z" fill="#fbbd9d" fill-rule="evenodd"/><path d="M360.2,268.37a30.61,30.61,0,0,0-13.65-9.24c-3.15-1,3.06-12.06,12.38-4.17,0,0,5.47,1.88,6.76-.3s-12.16-33.07-13.63-36.45,2.1-5.7,3.6-5.35,3.57,5.27,6.61,11.31,6.55,12.82,7.38,13.12,2.18-.45,1.81-4.42-3.29-25.73-2.2-27.5,4.91-1.79,6.32,1.34,3.52,25.23,4.68,28,3.67,1.19,4-.87,1.46-26.32,2.42-28,4.86-1.58,5.49,2,.53,26.9,1.44,28.35,3.48,1.48,5.45-2.68,5.08-13.23,6.27-14,4.86,2.08,3.63,6.69-3.9,16.14-4.08,17.9c-1,9.28.76,17.95-1,25.09a17.83,17.83,0,0,1-3.8,7.19,25.53,25.53,0,0,1-18.27,8.79C369.91,285.43,367.07,276.55,360.2,268.37Z" fill="#fbbd9d" fill-rule="evenodd"/><path d="M403.61,283.29a58.3,58.3,0,0,1-29.9,6.88s-1.59,1.8-1.59,3a58.52,58.52,0,0,0,1,5.91,16.33,16.33,0,0,0-4.4,13.93c1.25,8.82,5.82,68.36,5.82,68.36S329.2,352.68,322.12,348a25.12,25.12,0,0,0-6.17-2.79l.72,19.89,12.17,62.46,59.61,11.25s28.66,4.41,30.55-24.89-6.89-113.78-6.89-113.78-.95-6.46-5.44-7.4l-.51-6.93A2.71,2.71,0,0,0,403.61,283.29Z" fill="#f1f2f2" fill-rule="evenodd"/><path d="M372.64,356.93c1.07,13.32,1.92,24.42,1.92,24.42l20.17,11.93-22.09-36.35Zm-56.5-6.47.53,14.6,12.17,62.46,24.56,4.63-37.26-81.69Z" fill="#d1d3d4" fill-rule="evenodd"/><path d="M162.44,361.68c-3.84,31.7,3.39,86.69,3.39,86.69l19.4,43.84s-19,91.63-17.89,100.72h61C244,585.52,264,580,288.94,580h47.84s7.05-5.16,7.61-14.25-15.58-61.67-15.95-71.32c-1.39-36.22,3.42-78.14-3.18-112.92a57.47,57.47,0,0,0-1.8-7L316,345.17s-16.91-6.07-29-8.89c-8.13,4.22-12.32-1.07-24.85-2.67-12.19-.28-26-.55-43.71,1.51a141.92,141.92,0,0,0-39.36,14.66A100.86,100.86,0,0,0,162.44,361.68Z" fill="#f1f2f2" fill-rule="evenodd"/><polygon points="217.33 349.18 193.7 386.9 260.8 488.08 279.7 489.97 307.26 394.69 290.88 374.69 217.33 349.18" fill="#d1d3d4" fill-rule="evenodd"/><path d="M297.94,339.26c-3.71-1.12-7.53-2.18-10.95-3-8.13,4.22-12.32-1.07-24.85-2.67-12.19-.28-26-.55-43.71,1.51a133.54,133.54,0,0,0-17.24,4.79l-7.8,23.91,12.92,6.3L247.57,389l24.25-.94,35.59-13.55Z" fill="#d1d3d4" fill-rule="evenodd"/><path d="M165.9,448.53l19.33,43.68s-19,91.63-17.89,100.72h61A131.77,131.77,0,0,1,264,582l8.44-19.7-26.67-38.82s-54.08-29.6-56.44-33.22-1.73-8.82-1.73-8.82l.61-77.43Z" fill="#d1d3d4" fill-rule="evenodd"/><polygon points="260.29 338.6 280.71 349.23 269.74 480.66 234.05 381.19 222.5 347.14 260.29 338.6" fill="#d9bbda" fill-rule="evenodd"/><path d="M179.07,349.78s-28.47,15.6-37,36.07-7.56,81.89-7.24,111.19a57.81,57.81,0,0,0,14.49,33.07c13.7,15.12,65.67,60,65.67,60l30-3.7L250,556.88,176.59,493.1,188.25,404S191.72,365.84,179.07,349.78Z" fill="#f1f2f2" fill-rule="evenodd"/><path d="M392.23,592.93H211.51a6.17,6.17,0,0,1-6.15-6.15h0a6.16,6.16,0,0,1,6.15-6.14H392.23a6.16,6.16,0,0,1,6.15,6.14h0A6.17,6.17,0,0,1,392.23,592.93Z" fill="#222e5a" fill-rule="evenodd"/><path d="M392.23,592.93H211.51a6.15,6.15,0,0,1-5.21-2.9,6.17,6.17,0,0,1,5.21-2.9H392.23a6.17,6.17,0,0,1,5.21,2.9A6.15,6.15,0,0,1,392.23,592.93Z" fill="#141a2d" fill-rule="evenodd"/><path d="M397,580.64H242.24a7,7,0,0,1-7.05-8l12.34-100.25a9.4,9.4,0,0,1,9-8H411.32a7,7,0,0,1,7.06,8L406,572.6A9.4,9.4,0,0,1,397,580.64Z" fill="#141a2d" fill-rule="evenodd"/><path d="M397,580.64H246.81a7,7,0,0,1-7.05-8L252.1,472.35a9.38,9.38,0,0,1,9-8H411.32a7,7,0,0,1,7.06,8L406,572.6A9.39,9.39,0,0,1,397,580.64Z" fill="#222e5a" fill-rule="evenodd"/><path d="M233.9,592.93H211.51a6.17,6.17,0,0,1-6.15-6.15h0a6.16,6.16,0,0,1,6.15-6.14H233.9a6.16,6.16,0,0,1,6.15,6.14h0A6.17,6.17,0,0,1,233.9,592.93Z" fill="#222e5a" fill-rule="evenodd"/><rect x="231.22" y="577.56" width="167.16" height="6.14" rx="3.07" fill="#304588"/><path d="M336.1,507c8.54,0,14.59,6.91,13.52,15.45a18,18,0,0,1-17.38,15.45c-8.54,0-14.59-6.92-13.52-15.45a16.68,16.68,0,0,1,1-3.86A6.7,6.7,0,0,0,324.9,521a8.92,8.92,0,0,0,8.59-7.63,6.78,6.78,0,0,0-1.83-5.68A16.19,16.19,0,0,1,336.1,507Z" fill="#dde5f4" fill-rule="evenodd"/><path d="M304.61,417.8a4.88,4.88,0,1,1,4.88-4.88A4.89,4.89,0,0,1,304.61,417.8Z" fill="#141a2d" fill-rule="evenodd"/><path d="M230.19,442.43a3.78,3.78,0,1,1,3.78-3.78A3.78,3.78,0,0,1,230.19,442.43Z" fill="#141a2d" fill-rule="evenodd"/><path d="M189.88,442.43a3.78,3.78,0,1,1,3.77-3.78A3.79,3.79,0,0,1,189.88,442.43Z" fill="#141a2d" fill-rule="evenodd"/><path d="M189,438a.9.9,0,1,0,1.79,0V397.08a19.27,19.27,0,0,1,38.53,0V438a.9.9,0,1,0,1.79,0V397.08a21.06,21.06,0,0,0-42.11,0Z" fill="#141a2d" fill-rule="evenodd"/><path d="M187.2,397.08a2.68,2.68,0,1,0,5.35,0,17.48,17.48,0,0,1,35,0,2.68,2.68,0,0,0,5.36,0,22.84,22.84,0,0,0-45.67,0Z" fill="#141a2d" fill-rule="evenodd"/><path d="M276.05,328.32h.57a27.18,27.18,0,0,1,27.1,27.1v56.87a.9.9,0,0,0,1.79,0V355.42a29,29,0,0,0-28.89-28.88h-.57Z" fill="#141a2d" fill-rule="evenodd"/><path d="M228.57,326.54H226.8a17.7,17.7,0,0,0-17.66,17.65v34.06a.9.9,0,0,0,1.79,0V344.19a15.93,15.93,0,0,1,15.87-15.87h1.77Z" fill="#141a2d" fill-rule="evenodd"/><path d="M328.67,428.4l59.65,11.25c.09,0,29.62,4.56,31.57-25.71C421.78,384.58,413,300.25,413,300v0s-.94-6.45-5.47-8l-.47-6.3a3.61,3.61,0,0,0-3.34-3.31l-.2,1.77a1.82,1.82,0,0,1,1.76,1.65c0,2.3.39,5.23.57,7.61l.65.14c3.88.81,4.73,6.64,4.74,6.66.18,1.73,8.75,84.64,6.88,113.6-1.83,28.29-29.4,24.08-29.54,24.06L329,426.65Z" fill="#c6d3ec" fill-rule="evenodd"/><path d="M60,672.28H673.39c3.4,0,6.18,1.11,6.18,2.47h0c0,1.35-2.78,2.46-6.18,2.46H60Z" fill="#fbd5a7" fill-rule="evenodd"/><path d="M469.27,666.59a34.88,34.88,0,0,0,4.84,5.69h71.77c-.75-1.19-1.54-2.39-2.37-3.59-8.82-12.76,7.49-9.45,12.15,1,.38.85.73,1.7,1.06,2.54h38.92c.46-4.11,3.73-3.39,7.31,0H674.6l-.07-.06c-2.9-2.53-4.81-2.76-9-2.29-4.5.5-14.38.12-11.48-2.93s11.42-1.9,11.63-2.15a.32.32,0,0,0,0-.44c-5.73-4.86-11.84-9.66-18.26-14.24-7.26-4.85-13.5-1.43-22.39,3.3-9.24,4.9-17.5,2.11-12.62-4s22.09-6.14,22.64-6.63,0-.93-.13-1a196.56,196.56,0,0,0-34.18-17.24c-6.06-1.65-12.12,2.39-21.44,6.05s-13.67-1.34-11.72-5.3,12.71-4.82,13.55-5.61.3-1.08.21-1.13a118.59,118.59,0,0,0-36.41-3C447.18,623.39,469.27,666.59,469.27,666.59Z" fill="#fff3e2" fill-rule="evenodd"/><path d="M500.52,624.07c55.06,13.69,105.79,33.31,140.34,48.21h-11.1c-35.32-14.83-84.29-33.09-136.67-45.6C495.38,625.77,497.85,624.9,500.52,624.07Z" fill="#e0e0e0" fill-rule="evenodd"/><path d="M477.73,562.71s36.6-6.94,59-69c0-.09.07-.19.1-.29.16-.52.35-1.59-.71-1.91-1.4-.42-14.74-1-29.81,2.66s-6.13-10.38,5.34-11,21.11,2.17,24.89,1.57a6.1,6.1,0,0,0,4.85-3.3h0c4.79-12,10.22-23.89,16-35.38h0s1-2.67-3-1.28-18.74,5.63-25.93,2.05,5.73-10.5,18.62-9.82,14.76.29,15.47-1.06h0c4.71-8.94,9.56-17.54,14.38-25.6h0s.5-1.68-1.41-1.43-18.26,5.24-22.63.91,6.37-10.55,16.51-8.77,12.17,1.68,12.92.48h0C597.06,378,611,360.26,619.13,354.12c8.51-6.4-24.06-.22-62.57,19-3.4,1.8-4.3,3.51-5.37,7.61-1.15,4.38-5,13.47-6.85,9.67s2.32-11.34,2.16-11.63a.32.32,0,0,0-.41-.17c-6.59,3.61-13.26,7.59-19.84,11.94-7.13,5.05-6.17,12.1-4.94,22.1C522.57,423,517,429.71,513,423s2.18-22.83,1.92-23.52-.88-.3-1-.24a197.92,197.92,0,0,0-28.34,25.73c-3.71,5.07-2.11,12.18-2,22.18s-6.16,12.28-9.15,9,.05-13.58-.38-14.65-.9-.67-1-.61a118.54,118.54,0,0,0-15.82,32.94C429.48,567.84,477.73,562.71,477.73,562.71Z" fill="#ffe4c0" fill-rule="evenodd"/><path d="M449.24,518.29c59.06-84.44,131.24-148.56,131.59-148.87a2.18,2.18,0,1,1,2.91,3.25c-.35.31-75.39,67-134.73,153.5C449,523.7,449.06,521.08,449.24,518.29Z" fill="#fbd5a7" fill-rule="evenodd"/><path d="M501.48,608.53s34.47,14.11,87-25.78l.25-.18c.42-.35,1.16-1.15.45-2-1-1.12-11.82-8.87-26.46-14s.51-12.05,10.45-6.29,16.53,13.3,20,14.86a6.09,6.09,0,0,0,5.87-.13h0c10.53-7.43,21.57-14.47,32.65-21h0s2.31-1.69-1.79-2.69-18.78-5.48-22.86-12.4,10.51-5.69,20.95,1.9,12.23,8.27,13.56,7.53h0c8.82-4.93,17.57-9.51,26-13.64h0s1.33-1.14-.4-2S649,527.21,647.74,521.2s11.08-5.38,18.62,1.64,9.29,8,10.58,7.43h0c25.2-11.72,46.52-19,56.71-19.72,10.62-.74-20.07-13.29-62.82-18.15-3.84-.34-5.52.6-8.65,3.46-3.34,3.05-11.56,8.56-11,4.38s8.12-8.25,8.15-8.58a.33.33,0,0,0-.26-.36c-7.49-.56-15.25-.85-23.14-.79-8.72.35-11.76,6.79-16.17,15.84-4.59,9.4-12.91,12-12.59,4.16s14.26-18,14.43-18.68-.58-.74-.71-.75a198,198,0,0,0-37.78,6.15c-5.87,2.24-8.4,9.07-13.78,17.51s-11.85,7-12.6,2.6,7.44-11.37,7.66-12.51-.39-1-.5-1a118.61,118.61,0,0,0-31.19,19C458.22,586.57,501.48,608.53,501.48,608.53Z" fill="#fff3e2" fill-rule="evenodd"/><path d="M501.76,555.76c95.51-38.67,191-53.16,191.44-53.23a2.18,2.18,0,1,1,.67,4.31c-.47.07-99.7,15.12-196.59,55.4Q499.26,559.12,501.76,555.76Z" fill="#e0e0e0" fill-rule="evenodd"/><path d="M527.61,525.17c58.75-5.85,48.11,55,10.4,93.44-11.61,11.86-34.82,31-62.25,53.67H384.44V653.17C430.6,586.32,486.05,529.3,527.61,525.17Z" fill="#ffe4c0" fill-rule="evenodd"/><path d="M408.88,672.28c66.18-71.66,133.86-121.39,134.22-121.66a2.38,2.38,0,1,1,2.83,3.82c-.36.26-65.78,48.34-130.64,117.84Z" fill="#fbd5a7" fill-rule="evenodd"/><path d="M225.62,249.06l3.5,112.16,46.34,3.44C276,359.27,276.8,314,276.8,314s19.4-2.08,20.55-21.32c.55-9.34.13-28.72-.45-46.19a35.66,35.66,0,0,0-36-34.48h0A35.66,35.66,0,0,0,225.62,249.06Z" fill="#fbbd9d"/><path d="M276.83,314.06s-12.22.41-24.76-8.32c0,0,5.28,14.13,24.56,13.31Z" fill="#ec996f"/><path d="M290.59,260.29a2.77,2.77,0,0,1-2.79,2.65,2.63,2.63,0,0,1-2.71-2.62,2.76,2.76,0,0,1,2.78-2.65A2.64,2.64,0,0,1,290.59,260.29Z" fill="#263238"/><path d="M292.3,256.33c-.36.34-2.37-1.3-5.32-1.43s-5.2,1.24-5.5.86c-.15-.16.22-.79,1.2-1.44a7.59,7.59,0,0,1,4.43-1.14,7.2,7.2,0,0,1,4.21,1.59C292.2,255.51,292.48,256.17,292.3,256.33Z" fill="#263238"/><path d="M262.56,260.19a2.75,2.75,0,0,1-2.78,2.65,2.63,2.63,0,0,1-2.72-2.61,2.76,2.76,0,0,1,2.78-2.65A2.63,2.63,0,0,1,262.56,260.19Z" fill="#263238"/><path d="M263.2,255.5c-.36.34-2.37-1.29-5.33-1.43s-5.19,1.25-5.5.87c-.15-.17.23-.8,1.21-1.44a7.58,7.58,0,0,1,4.42-1.14,7.26,7.26,0,0,1,4.22,1.59C263.09,254.69,263.37,255.35,263.2,255.5Z" fill="#263238"/><path d="M272.9,278c0-.17,1.84-.4,4.84-.64.76,0,1.48-.16,1.63-.67a3.8,3.8,0,0,0-.39-2.26c-.63-1.86-1.28-3.82-2-5.86-2.71-8.34-4.64-15.18-4.3-15.28s2.81,6.56,5.52,14.9q1,3.08,1.87,5.88a4.37,4.37,0,0,1,.25,3,1.88,1.88,0,0,1-1.29,1,4.72,4.72,0,0,1-1.29.12C274.76,278.19,272.9,278.12,272.9,278Z" fill="#263238"/><path d="M264.09,279.58c.49,0,.34,3.21,3,5.62s6.08,2.21,6.08,2.66c0,.21-.79.59-2.24.56a8,8,0,0,1-5.08-2,7,7,0,0,1-2.29-4.7C263.48,280.33,263.88,279.55,264.09,279.58Z" fill="#263238"/><path d="M264.51,244c-.33.79-3.26.27-6.75.52s-6.35,1.07-6.77.32c-.19-.35.33-1.08,1.5-1.81a11.81,11.81,0,0,1,10.3-.65C264,242.91,264.66,243.57,264.51,244Z" fill="#263238"/><path d="M291.62,247.71c-.55.65-2.56-.14-5-.29s-4.54.24-5-.49c-.19-.35.17-1,1.1-1.6a7,7,0,0,1,4.13-.91,6.9,6.9,0,0,1,3.93,1.54C291.61,246.69,291.86,247.4,291.62,247.71Z" fill="#263238"/><path d="M247.49,229.27l-.11.08a15.14,15.14,0,0,0-6.09,9.52c0,.14,0,.27-.07.39-1,5.45-1.14,11-2.21,16.49s-3.23,10.93-7.46,14.52c-1.74,1.47-4.74,2.4-6,.52a4.72,4.72,0,0,1-.56-2.55c-.4-13.31-3.47-25.24-2.79-39.1a11.71,11.71,0,0,1,5.3-9.28c3-2,6.65-3.94,9.8-2.26s7,7.92,9.43,10.6Z" fill="#263238"/><path d="M231.67,258.4c-.32-.15-13-4.53-13.24,8.64s13.07,10.67,13.1,10.29S231.67,258.4,231.67,258.4Z" fill="#fbbd9d"/><path d="M227.58,272.28c-.06,0-.23.15-.62.33a2.34,2.34,0,0,1-1.72,0c-1.39-.53-2.52-2.76-2.55-5.13a7.52,7.52,0,0,1,.69-3.28,2.67,2.67,0,0,1,1.76-1.74,1.18,1.18,0,0,1,1.34.65c.17.38.08.64.15.66s.29-.22.19-.76a1.51,1.51,0,0,0-.5-.84,1.74,1.74,0,0,0-1.27-.35,3.22,3.22,0,0,0-2.43,2,7.72,7.72,0,0,0-.85,3.66c0,2.65,1.36,5.16,3.26,5.74a2.45,2.45,0,0,0,2.11-.32C227.55,272.59,227.62,272.3,227.58,272.28Z" fill="#ec996f"/><path d="M235.29,221.64c-3.8-4.88,4.22-13.37,10.46-16.12s15.1-.52,21.76.91c4.21.91,8.46,2.34,12.71,1.7a29.08,29.08,0,0,0,8.07-3,21.4,21.4,0,0,1,8.2-2.57c2.88-.12,6,1.08,7.37,3.62s.22,6.34-2.58,7.05c3.41-2.39,8.94-.35,10,3.68s-2.82,8.49-7,8.05c1.71-1.62,4.82.4,4.85,2.75s-1.9,4.28-3.94,5.45c-5.2,3-11.65,2.92-17.51,1.64s-11.43-3.68-17.26-5.11-15.61-4.07-21-1.48c-4,1.92-6.32,7.22-8.78,6.37a8,8,0,0,1-4.79-5.43,23.2,23.2,0,0,1-.55-7.49Z" fill="#263238"/><path d="M300.58,214.16s.25.12.66.41a4,4,0,0,1,1.35,1.71,5.56,5.56,0,0,1,.28,3.41,5.69,5.69,0,0,1-2.64,3.59,10.66,10.66,0,0,1-5.34,1.46,21.54,21.54,0,0,1-6.39-.93c-4.42-1.28-8.81-3.9-13.42-6.56s-9.34-4.87-14-5.44a17.54,17.54,0,0,0-6.6.41,16.12,16.12,0,0,0-5.21,2.46,16.58,16.58,0,0,0-5.38,6.27,11.64,11.64,0,0,0-1,2.87c.07,0,.32-1,1.21-2.77a16.89,16.89,0,0,1,5.41-6.05,15.71,15.71,0,0,1,5.11-2.34,17.22,17.22,0,0,1,6.42-.35c4.55.58,9.21,2.78,13.81,5.42s9,5.28,13.55,6.56a21.42,21.42,0,0,0,6.54.9,11,11,0,0,0,5.54-1.59,6.9,6.9,0,0,0,1.85-1.75,5.52,5.52,0,0,0,.88-2.1,5.72,5.72,0,0,0-.39-3.56,3.8,3.8,0,0,0-1.48-1.71A2.46,2.46,0,0,0,300.58,214.16Z" fill="#455b64"/><path d="M254,207.51a2.1,2.1,0,0,0-.85,0,10.7,10.7,0,0,0-2.29.41,12.88,12.88,0,0,0-9.33,11.19,11,11,0,0,0,0,2.33,2.32,2.32,0,0,0,.18.83c.1,0-.08-1.21.19-3.11A13.32,13.32,0,0,1,251,208.26C252.8,207.65,254,207.61,254,207.51Z" fill="#455b64"/><path d="M222.45,241.27a2.3,2.3,0,0,0,1.07.3,5.21,5.21,0,0,0,3-.64,7.62,7.62,0,0,0,3.15-3.23,22.49,22.49,0,0,0,1.81-5.19,21.7,21.7,0,0,1,1.75-5.07,7.37,7.37,0,0,1,3-3.07,5.24,5.24,0,0,1,2.79-.69c.69,0,1.07.18,1.08.13a2.2,2.2,0,0,0-1.06-.34,5.13,5.13,0,0,0-3,.56,7.47,7.47,0,0,0-3.21,3.16,21,21,0,0,0-1.84,5.18,23.55,23.55,0,0,1-1.73,5.09,7.43,7.43,0,0,1-2.88,3.13,5.48,5.48,0,0,1-2.78.77C222.84,241.35,222.46,241.22,222.45,241.27Z" fill="#455b64"/><path d="M223.14,250s.11.05.32.09a6.65,6.65,0,0,0,.95.12,11.62,11.62,0,0,0,3.51-.27,15.84,15.84,0,0,0,9.42-6.48,23.58,23.58,0,0,0,3.88-10.86,9.79,9.79,0,0,1,.3-1.93,2.36,2.36,0,0,1,.76-1.18,2.07,2.07,0,0,1,1.14-.42,1.3,1.3,0,0,0-1.27.25,2.58,2.58,0,0,0-.92,1.25,10,10,0,0,0-.4,2,24.39,24.39,0,0,1-3.94,10.58,16,16,0,0,1-9.06,6.42A18.22,18.22,0,0,1,223.14,250Z" fill="#455b64"/><polygon points="228.57 334.27 257.5 363.95 234.05 381.19 218.43 335.12 228.57 326.67 228.57 334.27" fill="#bfa4c1" fill-rule="evenodd"/><polygon points="276.05 334.27 257.5 363.95 278.74 372.84 286.99 336.27 276.05 328.09 276.05 334.27" fill="#bfa4c1" fill-rule="evenodd"/></svg>