<svg id="Layer_1" data-name="Layer 1" xmlns="http://www.w3.org/2000/svg" xmlns:xlink="http://www.w3.org/1999/xlink" viewBox="0 0 500 500"><defs><linearGradient id="linear-gradient" x1="102.49" y1="236.75" x2="315.53" y2="236.75" gradientTransform="matrix(-0.99, 0, 0, 1, 500.45, 0)" gradientUnits="userSpaceOnUse"><stop offset="0" stop-color="#dc3644"/><stop offset="1" stop-color="#e1645d"/></linearGradient><linearGradient id="linear-gradient-2" x1="199.01" y1="281.79" x2="267.36" y2="281.79" xlink:href="#linear-gradient"/><linearGradient id="linear-gradient-3" x1="211.21" y1="241.52" x2="249.94" y2="241.52" xlink:href="#linear-gradient"/><linearGradient id="linear-gradient-4" x1="130.31" y1="287.79" x2="186.81" y2="287.79" xlink:href="#linear-gradient"/><linearGradient id="linear-gradient-5" x1="213.64" y1="164.89" x2="254.22" y2="164.89" gradientTransform="matrix(-0.99, 0, 0, 1, 500.45, 0)" gradientUnits="userSpaceOnUse"><stop offset="0" stop-color="#fcdc58"/><stop offset="1" stop-color="#fde796"/></linearGradient><linearGradient id="linear-gradient-6" x1="207.42" y1="346.86" x2="293.1" y2="346.86" xlink:href="#linear-gradient-5"/><linearGradient id="linear-gradient-7" x1="206.27" y1="418.14" x2="285.28" y2="418.14" xlink:href="#linear-gradient"/><linearGradient id="linear-gradient-8" x1="282.51" y1="332.45" x2="360.66" y2="332.45" gradientTransform="matrix(-0.99, 0, 0, 1, 500.45, 0)" gradientUnits="userSpaceOnUse"><stop offset="0" stop-color="#617abc"/><stop offset="1" stop-color="#8595cb"/></linearGradient><linearGradient id="linear-gradient-9" x1="239.23" y1="184.87" x2="325.79" y2="184.87" xlink:href="#linear-gradient-5"/><linearGradient id="linear-gradient-10" x1="245.97" y1="250.46" x2="329.32" y2="250.46" xlink:href="#linear-gradient"/><linearGradient id="linear-gradient-11" x1="147.47" y1="216.27" x2="227.74" y2="216.27" gradientUnits="userSpaceOnUse"><stop offset="0" stop-color="#8ab0dd"/><stop offset="1" stop-color="#fff"/></linearGradient><linearGradient id="linear-gradient-12" x1="197.18" y1="181.83" x2="227.74" y2="181.83" xlink:href="#linear-gradient-11"/><linearGradient id="linear-gradient-13" x1="213.75" y1="198.11" x2="274.94" y2="198.11" xlink:href="#linear-gradient-5"/><linearGradient id="linear-gradient-14" x1="244.07" y1="180.36" x2="268.53" y2="180.36" gradientUnits="userSpaceOnUse"><stop offset="0" stop-color="#fee0c2"/><stop offset="1" stop-color="#f48167"/></linearGradient><linearGradient id="linear-gradient-15" x1="263.44" y1="115.14" x2="295.36" y2="115.14" gradientTransform="matrix(-0.99, 0, 0, 1, 500.45, 0)" xlink:href="#linear-gradient-14"/><linearGradient id="linear-gradient-16" x1="248.92" y1="80.25" x2="300.82" y2="80.25" gradientTransform="matrix(-0.99, 0, 0, 1, 500.45, 0)" xlink:href="#linear-gradient-14"/><linearGradient id="linear-gradient-17" x1="162.56" y1="159.36" x2="260.26" y2="159.36" xlink:href="#linear-gradient-11"/><linearGradient id="linear-gradient-18" x1="195.58" y1="154.74" x2="206.48" y2="154.74" xlink:href="#linear-gradient-14"/><linearGradient id="linear-gradient-19" x1="196.2" y1="159.78" x2="210.09" y2="159.78" xlink:href="#linear-gradient-14"/><linearGradient id="linear-gradient-20" x1="197.83" y1="163.42" x2="212.72" y2="163.42" xlink:href="#linear-gradient-14"/><linearGradient id="linear-gradient-21" x1="199.6" y1="167.51" x2="217.04" y2="167.51" xlink:href="#linear-gradient-14"/></defs><title>gambar lain</title><path d="M411.17,147.85c-19.17-17.91-43.63-28.8-69.56-32.17-15.17-2-37.28-9.67-60.22-34.28C239.93,37,163.71,21.88,126.59,64.27s-3.68,115.92-34.07,168S24.13,371.68,43.89,413s59.48,45.19,97.74,41.74,198.61,28.21,248-13.66,95-160.59,64.59-231.82A180.73,180.73,0,0,0,411.17,147.85Z" fill="#e6e6e6"/><path d="M217.44,346.85s7.63,8.92,26.18,9.85c3.42.17,25.36-3.65,32.05-7.8,1.4-.87-14-15.75-12.55-16.63,1.23-.72,2.49-1.44,3.75-2.15,1.73-1,3.48-1.92,5.22-2.83,1.34-.71,2.68-1.38,4-2,7.87-3.85,15.26-6.64,19.73-6.64a33.5,33.5,0,0,1,7.2,1c13.37,3.09,33.11,12.27,37.66,12.84,5.5.7,14.43-.46,20.61-5.77,3.59-3.07,4-8.17,4.28-12.36.19-3,.3-5.59,1.45-6.56a6.83,6.83,0,0,1,4.16-1.18,36.9,36.9,0,0,1,8.89,1.18c3,.68,14.65,18.92,14.65,18.92s9.85-37.62-1.15-47.58-73-42.66-89.74-56.5-43-81.93-53.35-91.62c-4-3.77-11-7.5-18.78-10.19a75.59,75.59,0,0,0-15.83-3.71c-7-.77-13.26-.15-17.21,2.6C165.09,143.23,217.44,346.85,217.44,346.85Z" fill="url(#linear-gradient)"/><path d="M214.8,256.32c4.93,12.61,41.16,66.6,48.32,75.95,1.23-.72,2.49-1.44,3.75-2.15,1.73-1,3.48-1.92,5.22-2.83,1.34-.71,2.68-1.38,4-2,7.87-3.85,15.26-6.64,19.73-6.64a33.5,33.5,0,0,1,7.2,1c13.37,3.09,33.11,12.27,37.66,12.84,5.5.7,14.43-.46,20.61-5.77,3.59-3.07,4-8.17,4.28-12.36.19-3,.3-5.59,1.45-6.56a6.83,6.83,0,0,1,4.16-1.18,36.9,36.9,0,0,1,8.89,1.18s-20.83-26.55-53.19-45.62-56-58.16-66.62-84.62c-10.14-25.28-13.35-47.18-28.56-56.73-.71-.45-1.44-.86-2.22-1.26-5.11-2.61-9.68-3.33-13.61-2.45-9.23,2-15,12.71-16.27,27.82C197.75,166.47,209.86,243.69,214.8,256.32Z" fill="#c33c55" opacity="0.47"/><path d="M235.22,238.91c1.12,4.82,3.62,9,6.26,13.17,2.89,4.53,5.72,9.09,8.4,13.76,4.89,8.57,9.36,17.4,13.38,26.42s7.43,18.46,10.81,27.84c.62,1.71,1.27,3.46,2,5.16,7.87-3.85,15.26-6.64,19.73-6.64a33.5,33.5,0,0,1,7.2,1c-2.78-4.12-5.57-8.24-8.42-12.3-9.07-12.91-18.39-25.67-28.27-38Q258.82,260,250.8,251c-4.38-4.87-8.78-10.24-15-12.7C235.45,238.21,235.15,238.6,235.22,238.91Z" fill="url(#linear-gradient-2)"/><path d="M288,261.29c-2.43-3.16-5.13-6.11-7.66-9.18a140.51,140.51,0,0,1-15.54-23.36.63.63,0,0,0-.1-.12c-3.09-5.62-6.46-11-11.45-15.24a.44.44,0,0,0-.75.31c.11,4.22,2.24,7.72,4.63,11.06a93.09,93.09,0,0,1,7.53,12.11c3.81,7.54,6.92,15.51,12,22.33a37.6,37.6,0,0,0,7.13,7.45c1.28,1,5.09,4.4,6.74,2.61C291.9,267.75,289.38,263.08,288,261.29Z" fill="url(#linear-gradient-3)"/><path d="M248.33,277.28c.23,6.72,3.84,12.4,6.81,18.2a125.78,125.78,0,0,1,8.54,21.15q1.68,5.49,2.84,11.11c.15.7.24,1.51.35,2.38,1.73-1,3.48-1.92,5.22-2.83a129.84,129.84,0,0,0-7.44-24,141.42,141.42,0,0,0-7-14.33c-2.38-4.25-4.81-8.9-8.65-12A.41.41,0,0,0,248.33,277.28Z" fill="#de4b62"/><path d="M315.15,261.82c2,5.78,7.78,9.37,12.27,13.13,5.1,4.27,10.16,8.59,15,13.11,8.59,7.93,16.63,16.53,23.11,26.28.19-3,.3-5.59,1.45-6.56a6.83,6.83,0,0,1,4.16-1.18,185,185,0,0,0-24.23-23c-4.9-3.89-9.88-7.65-14.91-11.37-5.23-3.88-10.39-8-16.2-10.95C315.5,261.13,315,261.41,315.15,261.82Z" fill="url(#linear-gradient-4)"/><path d="M248.25,129.54c9.56,5.15,20,15.54,23.53,23.69s3.51,13.23,4.12,14.31,14.65,23.08,12.36,30.46-25.95-5.23-29.92-11.69S248.25,129.54,248.25,129.54Z" fill="url(#linear-gradient-5)"/><path d="M237.51,123.64c.71.28,15.11,8.51,16.46,9.52s-1.88-5.39-3.11-6.78-4.88-3.69-5.57-4.23-2.29-4.69-5.34-6.08-9.17-6.53-16.68-8-17.89.23-19.57,1.39-3.43,3.77-5.88,4.38-5.8,2.17-6.48,3S226.29,119.13,237.51,123.64Z" fill="#de4b62"/><path d="M210.65,284.47c.38,4.22,1.18,9.52,2.21,15.29,3.9,21.95,11.07,50.57,10.71,51.67-.46,1.38-6.28,24.43-5.37,34.12s10.07,42.23,11,44.31-2.52,17.08,0,19.62,15.34,1.38,19.92,1.38,19.46,3.92,26.56,3.92,19.46-4.61,19-6-8.7-3.53-11.45-4.15-31.13-12.31-32.51-16.31,6.57-73.85,7.58-78.15.33-14.51.89-21.62c1.24-15.6-.28-41.71-2.82-62.63-1.37-11.36-3-21.2-4.73-27,0,0-37.71,3-39.77,6.92S208.81,264.16,210.65,284.47Z" fill="url(#linear-gradient-6)"/><path d="M210.65,284.47c.38,4.22,1.18,9.52,2.21,15.29a62.4,62.4,0,0,1,4-7.07,59.54,59.54,0,0,1,14.47-15,75.63,75.63,0,0,1,25-11.75c-1.37-11.36-3-21.2-4.73-27,0,0-37.71,3-39.77,6.92S208.81,264.16,210.65,284.47Z" fill="#d5b23a"/><path d="M228.43,430.48c-.08,1.23-2.21,17.61,0,19.92a6.2,6.2,0,0,0,3.32,1c5.93.74,17.31-.14,18.16,0,1.09.11,20.38,4.33,26.9,4.22s19-4.2,19-7.28c0-1.51-9.28-3.69-10.65-4.26s-32.88-14-33-16.33c-.1-2,4.43-35.27,4.59-44.62,0-.19,0-.38,0-.55,0-1.28-.11-2-.36-1.86-25.41,10.54-39.14,6.19-39,7.42C219.11,401.58,228.51,429.25,228.43,430.48Z" fill="url(#linear-gradient-7)"/><path d="M256.78,383.11c0-.19,0-.38,0-.55A.54.54,0,0,0,256.78,383.11Z" fill="#c33c55"/><path d="M174.93,400.32s-7.63,32.46-7.17,35,8.54,12.54,9.69,14.62,2.06,3.92.91,4.84-37.77,0-40.29-1.61-2-5.69-1.07-7.31,9.62-11.69,10.23-13.39-.92-32.15-.92-32.15Z" fill="#cd6566"/><path d="M143.11,421.78c1.83,2.54,11.44,6.93,14.42,7.16s13.05-1.39,14.42-2.08,19.39-65.62,20.61-67.16,4.88-4.92,6.71-9.53c.58-1.44,2.84-11.47,5.67-24.72,6.23-29.1,15.24-73.8,15.24-77.45L177.93,236s-7.14,18.52-8.74,25.67.94,20.54.48,24.46c-.42,3.6-8.36,51.85-9.85,60.71-.13.8-.21,1.28-.23,1.37-.23,1.16-8.24,16.85-11.22,25.85S141.27,419.24,143.11,421.78Z" fill="url(#linear-gradient-8)"/><path d="M160.72,422q9.61-32.83,19.2-65.68c3.11-10.74,6.54-21.41,9-32.34s4.05-22.09,6.25-33.1c2.53-12.63,5.58-25.12,8.77-37.59a.09.09,0,0,1,.17,0c-2.81,11.16-5.17,22.44-7.43,33.73-2.17,10.9-3.85,21.89-6,32.79s-5.39,21.67-8.56,32.37-6.44,21.71-9.64,32.58c-3.68,12.46-7.41,24.91-11.09,37.37A.34.34,0,0,1,160.72,422Z" fill="#1b1333"/><path d="M167.89,435c-1.62-1.36-11.23-8-21.46-2.41-.75.4-10.42,12.17-11.28,14.65s.4,6.29,1.09,7.1,39.11,3.62,42.65.77c2.14-1.72-2.28-7.75-6-13.22C170.38,438.21,167.89,435,167.89,435Z" fill="#231f20"/><path d="M148.63,432.88c5-1.92,12.13-1.5,16.64,1.61a.3.3,0,0,1-.23.54c-2.82-.5-5.54-1.36-8.42-1.56a63,63,0,0,0-7.89.17C148.27,433.66,148.25,433,148.63,432.88Z" fill="#fff7ed"/><path d="M148.36,435.81c5.19-2,12.52-1.56,17.18,1.66a.31.31,0,0,1-.23.56c-2.92-.52-5.72-1.4-8.7-1.62a67.2,67.2,0,0,0-8.15.18C148,436.62,148,436,148.36,435.81Z" fill="#fff7ed"/><path d="M147.64,438.71c5.63-2.16,13.58-1.69,18.63,1.8a.34.34,0,0,1-.25.61c-3.17-.57-6.2-1.52-9.43-1.76a70.52,70.52,0,0,0-8.84.2C147.24,439.58,147.21,438.87,147.64,438.71Z" fill="#fff7ed"/><path d="M221.86,118.78c17.17,3.67,29.35,11.06,33.14,17.68s9.6,33.23,7.77,41.54-10.68,56.31-11.14,60.93-22.21,14.15-33.89,13.92-33.42-13.15-35.94-15.92-2.06-51.47-3.44-65.78-2.51-41.77,3.21-47.77S203.44,114.84,221.86,118.78Z" fill="url(#linear-gradient-9)"/><path d="M259.23,196.23c1.15-6.78,2.68-13.65,3.3-20.5a50.63,50.63,0,0,0-.5-10.58c-.45-3.67-.9-7.39-1.67-11a.08.08,0,0,1,.16,0c1,4.42,2.08,8.92,2.66,13.47.09-1.55.24-3.09.28-4.62,0-.08.13-.08.13,0a30.68,30.68,0,0,1-.09,7.78s0,0,0,0c.08,1.24.12,2.48.09,3.72-.19,6.74-1.88,13.61-3,20.25-1.19,7.1-6.62,36.09-8.95,43.17a.21.21,0,1,1-.4-.11C252.4,230.85,258.06,203.19,259.23,196.23Z" fill="#d5b23a"/><path d="M235.31,190.11c7.73-.92,17.13,2,23.48-4a.17.17,0,0,1,.24.24,14.3,14.3,0,0,1-9.41,4.43,57.12,57.12,0,0,1-14.37-.26C235,190.5,235.09,190.14,235.31,190.11Z" fill="#d5b23a"/><path d="M193.17,187.66c3.54,1.11,7,2.52,10.65,3.11s7.55.15,11.33-.28c7.65-.88,15.32-1.79,23-2.12.05,0,.07.09,0,.1-7.9,1.49-15.93,2.37-23.92,3.29a35.28,35.28,0,0,1-10.71.05,46.92,46.92,0,0,1-10.63-3.54C192.57,188.11,192.81,187.55,193.17,187.66Z" fill="#d5b23a"/><path d="M203.74,120.78a25.17,25.17,0,0,0,6.74,11.14c3.19,3.22,7,6.34,11.34,7.84a16.18,16.18,0,0,0,11.79-.61c3.68-1.64,9.87-6.41,7.41-11.12a.07.07,0,0,1,.12-.06c2.38,4-1.17,8.32-4.37,10.6A17,17,0,0,1,224,141.43c-5-.94-9.33-4.37-12.94-7.83s-6.7-7.71-7.55-12.77A.11.11,0,0,1,203.74,120.78Z" fill="#d5b23a"/><path d="M253.92,229.54c3.32,1.41,3.39,19.5,0,21.12-1.35.64-10,3-15.69,7.15-7.89,5.77-13.2,11.29-18,14.43-3.81,2.46-5.53,2.61-6.44,1.84s-10-14.85-24.08-18.85c-5.59-1.59-15.43-5.93-15.79-8.32-1-6.6,4.61-19.83,6.46-20.44s21.23,7.17,36.71,8.15C237.81,235.93,251.89,228.68,253.92,229.54Z" fill="url(#linear-gradient-10)"/><path d="M147.56,293.9c1.87,4.73,21.9,20.19,28.42,21.45s33.84,0,36.35-2.21c1.43-1.25,6.57-33.28,10.53-65.07v0c3-24.23,5.34-48.31,4.8-58.54C226.41,165.88,207,120,204.93,116.94l0,0s-2.58-.23-6.2-.22c-7.77,0-20.34,1.12-22.73,8.06-3.49,10.17,1.25,81.35,0,94S145.68,289.17,147.56,293.9Z" fill="url(#linear-gradient-11)"/><path d="M210,151.25c0,.48-10.28,7-10.54,8s19.83,29.21,22,40.31c2.12,10.91,1.44,47.32,1.42,48.5,3-24.23,5.34-48.31,4.8-58.54C226.41,165.88,207,120,204.93,116.94l0,0c-1-2-5-1.32-6.19-.23h0c-1.17,1.21-2.08,29.55-1.14,30.14S210,150.78,210,151.25Z" fill="url(#linear-gradient-12)"/><path d="M174.1,244a.59.59,0,0,1,.67-.67c5.23,1.11,10.44,2.27,15.65,3.44s10.56,2,15.58,3.75c0,0,0,.1,0,.09-5.14-.45-10.28-1.83-15.34-2.85-5.27-1.07-10.54-2.14-15.8-3.26-.59,2-1.13,4.1-1.66,6.23A133.68,133.68,0,0,0,188,254.54c5.07,1,10.2,1.46,15.29,2.28.13,0,.1.24,0,.24-10.11.07-20.61-2.61-30.23-5.7-1.06,4.38-2,8.9-2.94,13.14-.51,2.33-1,4.76.23,7a22.6,22.6,0,0,0,3.29,4.19c2.35,2.58,5.82,6.43,9.41,6.2a45.45,45.45,0,0,0,9.78-2.24c3.51-1,7.31-2,8.61-6a90.32,90.32,0,0,0,2.12-10.06c.76-3.72,1.6-7.42,2.48-11.11.08-.34.55-.19.5.15q-1.08,7.06-2.39,14.08c-.63,3.35-.82,7.93-3.2,10.54-2.1,2.32-5.76,3.13-8.6,3.92-2.16.6-4.36,1.07-6.56,1.52-1.43.3-3.05.83-4.52.5-3.12-.7-6.35-4.33-8.43-6.63-1.88-2.08-4.25-4.52-4.37-7.55C168.27,264.89,172.46,248.28,174.1,244Z" fill="#dcf1f3"/><path d="M227.72,195.12c.81.88,31.08,16.26,37.8,17.34,4,.64,10.58-1.58,15.68-5.26h0c3.51-2.53,6.31-5.74,7.05-9.19,1.83-8.46-15-13.86-21.82-14.31-4.65-.31-11.81,1.26-18.71,3.32C237.14,190.17,227.16,194.51,227.72,195.12Z" fill="url(#linear-gradient-13)"/><path d="M227.72,195.12c.81.88,31.08,16.26,37.8,17.34,4,.64,10.58-1.58,15.68-5.26-5.86,2.93-13,2.59-19.21-.35a32.7,32.7,0,0,1-11.42-8.73A15.44,15.44,0,0,1,247.73,187C237.14,190.17,227.16,194.51,227.72,195.12Z" fill="#d5b23a"/><path d="M258,184.25a23.64,23.64,0,0,1,14.71-.24,44.8,44.8,0,0,1,5.75,2.4,11.06,11.06,0,0,1,4.08,1.15c.06,0,0,.11,0,.09a18.37,18.37,0,0,0-2.8-.59,40,40,0,0,1,5.86,3.85s0,.08,0,.06a74.46,74.46,0,0,0-13.12-6.1c-5-1.6-9.3-.81-14.34-.18C257.82,184.73,257.78,184.32,258,184.25Z" fill="#d5b23a"/><path d="M244.07,177.5s8.24-2,12.75-.65,13,7.25,11.56,7.07a38.37,38.37,0,0,0-8.12.45Z" fill="url(#linear-gradient-14)"/><path d="M202.06,123.82c1.29-8.25,14.23-8.74,20.47-8.42,7.95.41,14.54,2.41,16.59,10.7s1.91,17.2,1.49,25.6a1.21,1.21,0,0,0,2.42.15c.47-9.67,2.29-27.83-6-34.73s-35.2-7.44-37.4,6.54c-.24,1.55,2.15,1.7,2.4.16Z" fill="#17162d"/><path d="M247.07,156.74a5.56,5.56,0,1,1-5.18-6A5.57,5.57,0,0,1,247.07,156.74Z" fill="#2e1f56"/><path d="M244.87,156.6a3.35,3.35,0,1,1-3.13-3.59A3.36,3.36,0,0,1,244.87,156.6Z" fill="#fdfefd"/><path d="M210.27,150.47c6,23.45,5,29.17,3.08,31.85a15.37,15.37,0,0,1-5.48,4.41l-.69-1.55.34.78-.34-.78a13.82,13.82,0,0,0,4.8-3.86c1.41-1.94,2.59-7.2-3.35-30.42Z" fill="#6fc5c3"/><path d="M209.53,184.15l.56,1a1.22,1.22,0,0,1-.49,1.65l-3,1.66A1.22,1.22,0,0,1,205,188l-.56-1a1.23,1.23,0,0,1,.48-1.66l3-1.65A1.21,1.21,0,0,1,209.53,184.15Z" fill="#d5b23a"/><path d="M195.1,151c-4.7,17.62-5.87,27.28-3.66,30.38a13.93,13.93,0,0,0,4.77,3.92l-.72,1.54a15.61,15.61,0,0,1-5.43-4.47c-2.62-3.69-1.63-12.91,3.41-31.81Z" fill="#6fc5c3"/><path d="M193.86,184.22l-.57,1a1.23,1.23,0,0,0,.47,1.66l3,1.68a1.21,1.21,0,0,0,1.65-.47l.57-1a1.23,1.23,0,0,0-.46-1.67l-3-1.68A1.22,1.22,0,0,0,193.86,184.22Z" fill="#d5b23a"/><path d="M192.89,149.79A99.91,99.91,0,0,1,196,138.27a10.21,10.21,0,0,1,3.41-4.16c.33,0,.2-3,0-5.44-.14-2.14-.35-4.63.16-5.32a1.66,1.66,0,0,1,2.31-.11c.58.64.6,3.14.66,5.29.07,2.43.22,5.4.56,5.4a11.14,11.14,0,0,1,3.58,3.88,80.08,80.08,0,0,1,4,11.54c.53,2.51-.29,2.82-1,3.06-1,.34-1.65-.35-2.43-3.13-1.23-4.41-2.78-11.82-5.82-11.82h0c-3,.29-4.28,8.13-5.27,12.5-.62,2.73-1.19,3-2.24,2.75C193.15,152.54,192.4,152.22,192.89,149.79Z" fill="#2e1f56"/><path d="M207.49,119.71c4.27,7.56,15.5,17.09,22.31,15.87s9.08-6.63,8.6-9.38c-.41-2.3-2.1-4.27-2.56-7a7.16,7.16,0,0,1-.13-1.69c.22-7.11,3.39-15.56,3.39-15.56l-25.38-6.32s-3.16-1.63-3.19-.8a117.13,117.13,0,0,1-1.28,12.49C208.28,113.86,207.19,119.19,207.49,119.71Z" fill="url(#linear-gradient-15)"/><path d="M247.09,53.57s8.14,8.79,8.61,17.81-2.68,14-3.49,14.3S247.09,53.57,247.09,53.57Z" fill="#17162d"/><path d="M203.75,81.68a2.78,2.78,0,0,1,1.82-.16c-.37-8.29.3-16.46,2.05-20.62,5.53-13.17,26.39-16.47,37.48-7.15,7.52,6.32,12.44,41.94,3.92,52.19-8.79,10.58-32.42,5.67-38.08-1.41a19.13,19.13,0,0,1-2.89-6.27l-.42-.16C203.29,96.08,199.79,83.5,203.75,81.68Z" fill="url(#linear-gradient-16)"/><path d="M204.84,85.26c-.07,0-.09.09,0,.12,3,1.52,4.47,4.57,5.4,7.69-.85-1.24-2.07-2-3.7-1a.1.1,0,0,0,.07.18,2.78,2.78,0,0,1,3,1.22,13.78,13.78,0,0,1,1.29,2.61c.12.3.64.19.56-.15a.19.19,0,0,1,0-.07C211.79,91.86,209.1,86,204.84,85.26Z" fill="#ac2624"/><path d="M210.46,87.56c5.39-.9,5-13.49,6.74-19.46,1.86-6.21,10.3-5.43,15.83-4.22,9.65,2.11,16.9-1.22,19.38-6.45,5.06-10.66-.71-19.39-9.27-19.7-9.42-.34-27.91,11.27-30.82,12.2s-10.12,1.37-13.64,8.33C194.92,65.68,203.48,88.74,210.46,87.56Z" fill="#17162d"/><path d="M162.8,149.07c1.16,9.23,5.58,16.63,11.6,26.47,6.24,10.23,12.42,21.55,19.53,24.71,6.39,2.83,27.4-1.66,32.36-4.4a144,144,0,0,1,16.42-6.79c6.85-2.44,13.94-4.57,17.55-4.7,0,0-19.32-8.82-29.7-11.59a138.06,138.06,0,0,0-23.12-3.54s-14.12-20.62-15.34-25.54-3.52-26.11-3.52-26.11c-9.3,1.49-15.71,2.88-18.92,5.8-1.6,1.47-3.67,5.17-5.16,9.89A38,38,0,0,0,162.8,149.07Z" fill="url(#linear-gradient-17)"/><path d="M193,174.43c1.9-1.73,4.21-4.12,6.67-5a15.08,15.08,0,0,1,5.72-.75,12.07,12.07,0,0,0-3.36-.31A47,47,0,0,0,196,169.5c-.16,0-.29-.21-.12-.28,3.42-1.46,8.2-2.44,11.57-.35l.12,0c.19,0,.12.3,0,.31-2.7.22-6,.16-8.42,1.52-2,1.14-3.82,2.77-5.79,4C193.08,174.87,192.86,174.58,193,174.43Z" fill="#dcf1f3"/><path d="M192.78,145.63c2.48,3.9,12.82,19,14.68,23a.38.38,0,0,1-.65.39c-2.73-4-11.92-18-14.19-23.31A.09.09,0,0,1,192.78,145.63Z" fill="#dcf1f3"/><path d="M196,147.61a14.41,14.41,0,0,1,1.55,6,.16.16,0,0,1-.31,0c-.62-1.91-.95-3.94-1.55-5.87C195.65,147.56,195.94,147.43,196,147.61Z" fill="#dcf1f3"/><path d="M206.12,158a3.11,3.11,0,0,0,0-2.9c-.81-1.55-9.19-4.64-10.24-4s.56,3.63,5.3,5.34c0,0-1.53,2.1-1,2.07S206.12,158,206.12,158Z" fill="url(#linear-gradient-18)"/><path d="M210.09,162.12a4.61,4.61,0,0,0-2.17-4.12c-2.33-1.26-11.21-.17-11.67,1.09s2,2.95,4,2.65S210.09,162.12,210.09,162.12Z" fill="url(#linear-gradient-19)"/><path d="M212.36,166.23s1.14-3.11-.61-4.31c-3.43-2.36-13.47-1.19-13.89.81s3.86,3,4.73,3Z" fill="url(#linear-gradient-20)"/><path d="M217,170.21a13.84,13.84,0,0,0-4-4.62c-2.38-1.49-14.21-.82-13.39,1.83s7.24,1.75,7.24,1.75Z" fill="url(#linear-gradient-21)"/><path d="M226.89,83.63c0-.07-.13.08-.12.15.12,1.67,0,3.61-1.5,4.23,0,0,0,.11,0,.1C227.11,87.77,227.27,85.19,226.89,83.63Z" fill="#17162d"/><path d="M225.33,81.94c-2.68-.09-2.66,5.33-.18,5.41S227.58,82,225.33,81.94Z" fill="#17162d"/><path d="M239.91,83.17c0-.07.13.07.13.14,0,1.68.18,3.61,1.68,4.16.05,0,0,.1,0,.09C239.87,87.31,239.6,84.75,239.91,83.17Z" fill="#17162d"/><path d="M241.39,81.41c2.67-.22,2.9,5.19.42,5.39S239.15,81.59,241.39,81.41Z" fill="#17162d"/><path d="M228.64,98.82c.4.39.8.93,1.4,1a4.48,4.48,0,0,0,1.79-.43.06.06,0,0,1,.07.08,2.24,2.24,0,0,1-2.11.92,1.77,1.77,0,0,1-1.31-1.48C228.45,98.79,228.58,98.76,228.64,98.82Z" fill="#ac2624"/><path d="M223.2,79.47a19,19,0,0,0,2.08-.74,3.57,3.57,0,0,0,2-1.17,1.15,1.15,0,0,0-.18-1.38,2.8,2.8,0,0,0-2.84-.29,4.17,4.17,0,0,0-2.38,1.82A1.21,1.21,0,0,0,223.2,79.47Z" fill="#17162d"/><path d="M243.45,78.68c-.74-.12-1.41-.36-2.13-.55a3.6,3.6,0,0,1-2.07-1,1.13,1.13,0,0,1,.06-1.39,2.8,2.8,0,0,1,2.8-.55,4.13,4.13,0,0,1,2.53,1.59A1.22,1.22,0,0,1,243.45,78.68Z" fill="#17162d"/><path d="M234.62,95.19s-1.47,3.41-4.09,2.69c-2-.54-.87-4.56-.87-4.56S232.19,95.35,234.62,95.19Z" fill="#fff"/><path d="M229.51,93.47A5.61,5.61,0,0,0,233.3,96a6.57,6.57,0,0,0,2,.09,1.6,1.6,0,0,0,.39,0l.37,0a.42.42,0,0,0,.33-.38h0a.5.5,0,0,0,0-.17v-.16c0-1.29-.1-3.26-.1-3.26.47.24,2.86,1.31,2.82.64-.35-5.59-.74-11.8-2.26-17.28a.15.15,0,0,0-.3,0c.12,5.38,1.18,10.7,1.4,16.1a9.78,9.78,0,0,0-2.68-.81c-.18,0,.32,3.79.26,4.37a.28.28,0,0,1,0,.06c-2.15.28-3.78-.37-5.87-1.81C229.54,93.22,229.41,93.33,229.51,93.47Z" fill="#ac2624"/></svg>