<svg id="Layer_1" data-name="Layer 1" xmlns="http://www.w3.org/2000/svg" xmlns:xlink="http://www.w3.org/1999/xlink" viewBox="0 0 500 500"><defs><linearGradient id="linear-gradient" x1="219.77" y1="265.58" x2="441.01" y2="265.58" gradientUnits="userSpaceOnUse"><stop offset="0" stop-color="#dc3644"/><stop offset="1" stop-color="#e1645d"/></linearGradient><linearGradient id="Degradado_sin_nombre_12" x1="76.56" y1="466.54" x2="76.56" y2="420.87" gradientTransform="translate(19.56 -213.14) rotate(-7.9)" gradientUnits="userSpaceOnUse"><stop offset="0.66" stop-color="#fff" stop-opacity="0"/><stop offset="0.69" stop-color="#fff" stop-opacity="0.04"/><stop offset="0.74" stop-color="#fff" stop-opacity="0.14"/><stop offset="0.8" stop-color="#fff" stop-opacity="0.3"/><stop offset="0.87" stop-color="#fff" stop-opacity="0.52"/><stop offset="0.95" stop-color="#fff" stop-opacity="0.8"/><stop offset="1" stop-color="#fff"/></linearGradient><linearGradient id="linear-gradient-2" x1="57.35" y1="249.25" x2="260.86" y2="249.25" gradientUnits="userSpaceOnUse"><stop offset="0" stop-color="#617abc"/><stop offset="1" stop-color="#8595cb"/></linearGradient><linearGradient id="linear-gradient-3" x1="63.35" y1="317.2" x2="270.66" y2="317.2" gradientUnits="userSpaceOnUse"><stop offset="0" stop-color="#70cddd"/><stop offset="1" stop-color="#5ea4d9"/></linearGradient><linearGradient id="linear-gradient-4" x1="359.42" y1="313.84" x2="400.54" y2="313.84" gradientTransform="translate(195.73 -143.25) rotate(28.49)" xlink:href="#linear-gradient-2"/></defs><title>gambar lain</title><path d="M155.31,116.36a213.88,213.88,0,0,0-25.42,11.35c-23.95,12.7-44.49,35.1-49.31,62.37a77.31,77.31,0,0,0,2.85,37.67c4.28,12.85,13.48,24.46,9.37,38.83-5.22,18.24-20.45,28.89-22.55,48.89-2,18.9,4.08,38.74,16.88,52.87,13.12,14.49,31.74,22.76,50.46,28.4,78.36,23.62,165.9,13.31,238.26-24.14,25-12.94,45.59-30,55.95-56.81a104.72,104.72,0,0,0,2.31-68.18c-8-25.82-28.69-37.9-53.5-43.39-11.46-2.54-24-7.17-28.72-17.94-5.4-12.44,1.7-26.25-.32-39.15-1.88-12.06-9.61-22.74-19.32-29.84-11.55-8.46-25.75-12.5-39.87-14.84C249.39,95.34,198.2,100.34,155.31,116.36Z" fill="#fff7ed"/><path d="M388.09,178.83a60.26,60.26,0,0,0-53.75,21.1,60.28,60.28,0,0,0-46.85-33.75c-33.07-4.17-62.67,14.69-67.41,52.34-4.32,34.48,38.49,80.8,38.49,80.8l48.56,62.52a9.61,9.61,0,0,0,13.48,1.7L383.13,315s53-34.27,57.29-68.76C445.16,208.57,421.14,183,388.09,178.83Z" fill="url(#linear-gradient)"/><path d="M425.41,253H448" fill="none" stroke="#fff" stroke-linecap="round" stroke-miterlimit="10" stroke-width="4"/><path d="M406.38,253.07l9.87,0" fill="none" stroke="#fff" stroke-linecap="round" stroke-miterlimit="10" stroke-width="4"/><path d="M397.81,253.1l-12.5,0c-5.61,0-12.31-1-17.16,2.54-3.36,2.44-5,6.38-6.4,10.12-2.53,6.62-6.68,15.43-15.59,12.14-6.59-2.43-8.17-12-9.5-17.95-1.82-8.14-1.86-17.8-6.48-25-5.54-8.58-16.42-9.17-22,0-4.34,7.1-5.33,16.27-5.53,24.25-.2,8.19,3.66,40.92-13.14,40.92-10.64,0-12.12-13.75-14.19-20.21-2.3-7.13-5.66-17-14.73-17H237.91" fill="none" stroke="#fff" stroke-linecap="round" stroke-miterlimit="10" stroke-width="4"/><path d="M180.9,235.48l-42.72,5.93a16,16,0,0,1-18-13.62l-1.89-13.61a16,16,0,0,1,13.62-18l42.72-5.93a16,16,0,0,1,18,13.62l1.89,13.61A16,16,0,0,1,180.9,235.48Zm-47.81-30.74a7.33,7.33,0,0,0-6.24,8.25l1.89,13.61a7.32,7.32,0,0,0,8.25,6.24l42.72-5.94a7.32,7.32,0,0,0,6.24-8.24l-1.89-13.61a7.33,7.33,0,0,0-8.25-6.24Z" fill="#2e3b96"/><g opacity="0.25"><path d="M180.9,235.48l-42.72,5.93a16,16,0,0,1-18-13.62l-1.89-13.61a16,16,0,0,1,13.62-18l42.72-5.93a16,16,0,0,1,18,13.62l1.89,13.61A16,16,0,0,1,180.9,235.48Zm-47.81-30.74a7.33,7.33,0,0,0-6.24,8.25l1.89,13.61a7.32,7.32,0,0,0,8.25,6.24l42.72-5.94a7.32,7.32,0,0,0,6.24-8.24l-1.89-13.61a7.33,7.33,0,0,0-8.25-6.24Z" fill="url(#Degradado_sin_nombre_12)"/></g><path d="M255,220.41a13.89,13.89,0,0,0-15.67-11.86l-170,23.6a13.88,13.88,0,0,0-11.85,15.67l5.86,42.25,197.51-27.41Z" fill="url(#linear-gradient-2)"/><path d="M63.35,290.07,73,359.75A13.9,13.9,0,0,0,88.7,371.6l170-23.59a13.9,13.9,0,0,0,11.85-15.68l-9.67-69.67Z" fill="url(#linear-gradient-3)"/><rect x="157.92" y="293.99" width="15.26" height="44" transform="translate(-41.87 25.76) rotate(-7.9)" fill="#f9fcfd"/><rect x="157.92" y="293.99" width="15.26" height="44" transform="translate(455.77 108.56) rotate(82.1)" fill="#f9fcfd"/><rect x="62.57" y="276.36" width="199.4" height="2.42" transform="translate(-36.62 24.95) rotate(-7.9)" fill="#80a7d8"/><rect x="85.92" y="271.8" width="17.65" height="27.11" transform="translate(-38.33 15.74) rotate(-7.9)" fill="#80a7d8"/><rect x="218.43" y="253.41" width="17.7" height="27.11" transform="translate(-34.55 33.79) rotate(-7.9)" fill="#80a7d8"/><rect x="220.15" y="251.59" width="13.66" height="27.11" transform="translate(-34.3 33.72) rotate(-7.9)" fill="#2e3b96"/><rect x="87.59" y="269.99" width="13.66" height="27.11" transform="translate(-38.09 15.67) rotate(-7.9)" fill="#2e3b96"/><circle cx="379.98" cy="313.84" r="20.56" transform="translate(-103.69 219.27) rotate(-28.49)" fill="url(#linear-gradient-4)"/><rect x="376.36" y="303.43" width="7.13" height="20.55" transform="translate(-25.56 33.82) rotate(-4.93)" fill="#f9fcfd"/><rect x="376.36" y="303.43" width="7.13" height="20.55" transform="translate(659.81 -91.77) rotate(85.07)" fill="#f9fcfd"/></svg>