<svg id="Layer_1" data-name="Layer 1" xmlns="http://www.w3.org/2000/svg" xmlns:xlink="http://www.w3.org/1999/xlink" viewBox="0 0 500 500"><defs><linearGradient id="linear-gradient" x1="255.54" y1="331.25" x2="363.14" y2="331.25" gradientUnits="userSpaceOnUse"><stop offset="0" stop-color="#617abc"/><stop offset="1" stop-color="#8595cb"/></linearGradient><linearGradient id="linear-gradient-2" x1="236.85" y1="161.07" x2="351.32" y2="161.07" xlink:href="#linear-gradient"/><linearGradient id="linear-gradient-3" x1="242.49" y1="170.31" x2="260.65" y2="170.31" gradientUnits="userSpaceOnUse"><stop offset="0" stop-color="#fee0c2"/><stop offset="1" stop-color="#f48167"/></linearGradient><linearGradient id="linear-gradient-4" x1="248.69" y1="185.88" x2="275.2" y2="185.88" xlink:href="#linear-gradient-3"/><linearGradient id="linear-gradient-5" x1="254.3" y1="170.53" x2="346.39" y2="170.53" xlink:href="#linear-gradient-3"/><linearGradient id="linear-gradient-6" x1="269.63" y1="68.27" x2="308.04" y2="68.27" xlink:href="#linear-gradient-3"/></defs><title>gambar lain</title><path d="M229.21,160.53S218.13,192,143.12,191.76,39,227.63,45,292.76c6.1,66.66,56.56,71.53,125.72,123.33S305.5,472.78,370.4,447,461,308.75,426.81,238.44s-47.1-103.9-92.27-110.95S229.21,160.53,229.21,160.53Z" fill="#fff7ed"/><path d="M255.61,226.76s-8.65-.62-7.85,18.78,2.78,29.73,2.78,29.73-.26,4.31-3.59,3.46-9.6-5-12.69-1.9-2.07,8.22,2.19,14.09,13.11,19.05,13.91,20.24,1.09,3.38-1.27,3.17-18.3-5.62-20.41,2.1,12.43,22.1,14,23.71,1.65,2.61,1,3.58-5.82-1.35-10.42-2.7-10.16-2.11-11,2.44,5.56,17.89,29.56,31.89l11.54,5.77,10.92-7c22.48-16.34,27.52-30.24,26.22-34.69s-6.76-3.13-11.2-1.33-9.36,4.63-10.09,3.73-.74-1.92.65-3.67,14.42-17.52,11.55-25-18.19-.5-20.52,0-2.24-1.78-1.58-3,8.17-15.27,11.82-21.53,4.29-11.33.77-14.24-9.21,2-12.44,3.16-3.91-3.08-3.91-3.08.93-10.48-.22-29.86-9.89-17.82-9.89-17.82" fill="#ebebeb"/><path d="M256.3,244.14s0,.13,0,.4.05.69.09,1.19c.08,1.07.18,2.61.31,4.58.27,4,.61,9.74,1,16.86.79,14.24,1.72,33.92,2.67,55.65s1.82,41.43,2.53,55.67c.37,7.1.66,12.86.86,16.86.1,2,.18,3.52.23,4.59,0,.51,0,.9.05,1.19s0,.41,0,.41,0-.14-.05-.41,0-.68-.09-1.19c-.07-1.07-.18-2.61-.31-4.58-.26-4-.6-9.74-1-16.86-.79-14.23-1.71-33.91-2.66-55.66s-1.83-41.41-2.54-55.65c-.36-7.11-.65-12.86-.86-16.87-.1-2-.17-3.51-.22-4.58,0-.51,0-.91-.05-1.19S256.3,244.14,256.3,244.14Z" fill="#e0e0e0"/><path d="M242.79,283a4.09,4.09,0,0,1,.72.6c.44.4,1.06,1,1.83,1.76,1.52,1.51,3.57,3.64,5.78,6.05l5.65,6.18,1.72,1.86a3.87,3.87,0,0,1,.6.71,3.82,3.82,0,0,1-.72-.59c-.45-.4-1.07-1-1.83-1.77-1.51-1.52-3.53-3.69-5.74-6.09l-5.69-6.14-1.73-1.85A3.82,3.82,0,0,1,242.79,283Z" fill="#e0e0e0"/><path d="M260.23,299.82c-.08-.08,4.14-4.51,9.43-9.87s9.66-9.65,9.75-9.56-4.14,4.5-9.43,9.87S260.32,299.91,260.23,299.82Z" fill="#e0e0e0"/><path d="M260.19,333.27a3.41,3.41,0,0,1,.8-.51l2.26-1.27c1.9-1.07,4.53-2.56,7.37-4.3s5.36-3.4,7.18-4.62l2.15-1.43a4.1,4.1,0,0,1,.82-.49,4,4,0,0,1-.72.63c-.48.37-1.19.91-2.07,1.55-1.78,1.28-4.28,3-7.13,4.74s-5.51,3.19-7.45,4.2c-1,.49-1.77.89-2.33,1.14A3.83,3.83,0,0,1,260.19,333.27Z" fill="#e0e0e0"/><path d="M241.06,321.56a3.64,3.64,0,0,1,.8.38c.5.27,1.22.66,2.1,1.16,1.75,1,4.16,2.41,6.81,4s5,3,6.76,4.09l2,1.29a3.15,3.15,0,0,1,.71.52,3.27,3.27,0,0,1-.8-.37l-2.09-1.17c-1.76-1-4.17-2.4-6.82-4s-5-3-6.75-4.09c-.86-.53-1.55-1-2-1.28A3.21,3.21,0,0,1,241.06,321.56Z" fill="#e0e0e0"/><path d="M237.27,351.09a5.09,5.09,0,0,1,1,.49l2.68,1.48c2.26,1.27,5.37,3.05,8.78,5s6.5,3.8,8.72,5.14l2.61,1.6a5.58,5.58,0,0,1,.93.64,5.55,5.55,0,0,1-1-.49l-2.69-1.48c-2.26-1.27-5.36-3-8.78-5s-6.5-3.81-8.71-5.15l-2.62-1.6A6,6,0,0,1,237.27,351.09Z" fill="#e0e0e0"/><path d="M261.52,365a6.77,6.77,0,0,1,1-.67l2.81-1.71c2.36-1.44,5.63-3.44,9.17-5.75s6.7-4.48,9-6.07l2.7-1.87a6.89,6.89,0,0,1,1-.65,6.11,6.11,0,0,1-.92.79c-.61.48-1.5,1.16-2.62,2-2.23,1.65-5.36,3.86-8.92,6.18s-6.84,4.28-9.25,5.65c-1.21.69-2.2,1.23-2.88,1.59A6.29,6.29,0,0,1,261.52,365Z" fill="#e0e0e0"/><polygon points="278.87 384.89 246.93 384.89 257.36 463.79 268.44 463.79 278.87 384.89" fill="#e0e0e0"/><path d="M248.59,394.59s0,.11.17.28a2,2,0,0,0,.77.55,3.86,3.86,0,0,0,3.37-.41c1.29-.71,2.42-2.11,4.14-2.73a9.14,9.14,0,0,1,5.88.12,25.4,25.4,0,0,1,5.46,2.65,38.65,38.65,0,0,0,4.45,2.39,12.12,12.12,0,0,0,3.28.94,6.13,6.13,0,0,0,.93.07c.21,0,.32,0,.32,0A16.53,16.53,0,0,1,273,397.1a43.48,43.48,0,0,1-4.35-2.46,24.21,24.21,0,0,0-5.56-2.74,9.36,9.36,0,0,0-6.2-.06,8.14,8.14,0,0,0-2.33,1.44,18.31,18.31,0,0,1-1.83,1.42,3.75,3.75,0,0,1-3.11.53A3,3,0,0,1,248.59,394.59Z" fill="#f5f5f5"/><path d="M249.75,409.12c.05,0,.26-.32.76-.84a7,7,0,0,1,2.55-1.62,11.44,11.44,0,0,1,4.44-.67,45.68,45.68,0,0,1,5.56.76,19,19,0,0,0,5.68.23,15.79,15.79,0,0,0,4.48-1.27,14,14,0,0,0,2.69-1.61,4.14,4.14,0,0,0,.86-.76,30.78,30.78,0,0,1-3.7,2,16.69,16.69,0,0,1-4.38,1.14,19.63,19.63,0,0,1-5.55-.28,42.56,42.56,0,0,0-5.63-.72,11.15,11.15,0,0,0-4.59.81,6.53,6.53,0,0,0-2.56,1.82,5.15,5.15,0,0,0-.49.71A.86.86,0,0,0,249.75,409.12Z" fill="#f5f5f5"/><path d="M275.25,416.9a2.94,2.94,0,0,0-.88-.45,9.21,9.21,0,0,0-2.65-.57,16.74,16.74,0,0,0-4,.23c-1.49.24-3.08.65-4.76,1a19.94,19.94,0,0,1-4.76.53,10.46,10.46,0,0,1-3.77-.81,8.78,8.78,0,0,1-2.87-2.14,2.54,2.54,0,0,0,.54.84,6.82,6.82,0,0,0,2.17,1.63,10.21,10.21,0,0,0,3.91,1,19.68,19.68,0,0,0,4.89-.5c1.69-.36,3.28-.79,4.73-1.05a17.61,17.61,0,0,1,3.9-.33A14.93,14.93,0,0,1,275.25,416.9Z" fill="#f5f5f5"/><path d="M252.58,427.84a5.22,5.22,0,0,1,3.1-.31,15.34,15.34,0,0,1,3.24,1.21,12.31,12.31,0,0,0,4.21,1.16,12.62,12.62,0,0,0,7.64-1.77,10.72,10.72,0,0,0,1.9-1.46c.39-.41.59-.65.56-.68a26.56,26.56,0,0,1-2.64,1.82,13.07,13.07,0,0,1-7.41,1.57c-3-.17-5.35-2-7.44-2.21a4.73,4.73,0,0,0-2.41.21A1.63,1.63,0,0,0,252.58,427.84Z" fill="#f5f5f5"/><path d="M254.35,443a6.18,6.18,0,0,0,2.67-.53c1.6-.54,3.59-1.77,5.91-2.69a9.58,9.58,0,0,1,3.39-.71,6.15,6.15,0,0,1,2.73.62,6,6,0,0,1,2,1.7s0-.27-.3-.67a4.41,4.41,0,0,0-1.5-1.35,6.15,6.15,0,0,0-2.89-.78,9.58,9.58,0,0,0-3.59.7c-2.4,1-4.32,2.23-5.86,2.84S254.34,442.9,254.35,443Z" fill="#f5f5f5"/><path d="M255.92,450a7.33,7.33,0,0,0,2,.66,36.6,36.6,0,0,0,5.06.85,36.12,36.12,0,0,0,5.12.15,7.21,7.21,0,0,0,2.11-.25c0-.16-3.23,0-7.18-.42S256,449.88,255.92,450Z" fill="#f5f5f5"/><path d="M275.33,428.32l.66,22.61s-22.77,8.26-23.05,12.45l43.88.3.43-35.27Z" fill="#455b64"/><path d="M270.66,452.57c-.05.21.87.58,1.6,1.49s.92,1.87,1.13,1.87.36-1.22-.56-2.34S270.67,452.37,270.66,452.57Z" fill="#263238"/><path d="M268,458.06c.19.05.5-1-.05-2.2s-1.54-1.65-1.63-1.47.53.81,1,1.78S267.79,458,268,458.06Z" fill="#263238"/><path d="M352.14,428.33l4.59,22.59s22.76,8.26,23,12.45l-43.89.3-5.33-35.25Z" fill="#455b64"/><path d="M362.06,452.56c.05.21-.88.58-1.6,1.49s-.92,1.87-1.14,1.86-.36-1.21.56-2.33S362.05,452.36,362.06,452.56Z" fill="#263238"/><path d="M364.71,458.05c-.19.05-.5-1,0-2.2s1.54-1.65,1.64-1.47-.53.81-1,1.78S364.92,458,364.71,458.05Z" fill="#263238"/><polygon points="329.96 212.78 363.13 450.83 330.95 450.21 294.79 247.61 303.18 451.16 267.92 448.98 255.54 211.34 329.96 212.78" fill="url(#linear-gradient)"/><g opacity="0.3"><polygon points="256.47 230.04 256.33 226.59 332.21 228.95 332.99 235.55 256.47 230.04"/></g><path d="M280.87,449.93c-.16,0-2.5-47.37-5.23-105.8S270.83,238.3,271,238.29s2.5,47.36,5.23,105.81S281,449.92,280.87,449.93Z" fill="#263238"/><path d="M347.73,448s-.05-.18-.11-.53-.14-.91-.25-1.58c-.21-1.41-.51-3.45-.91-6.07-.78-5.29-1.91-12.91-3.3-22.32-2.81-18.84-6.82-44.86-11.55-73.54s-9.33-54.61-12.73-73.36c-1.7-9.35-3.09-16.93-4.05-22.19-.47-2.6-.84-4.63-1.09-6-.12-.67-.21-1.19-.27-1.57s-.07-.54-.07-.54.05.18.13.53.18.89.32,1.56l1.2,6c1,5.22,2.48,12.8,4.23,22.16,3.5,18.73,8.14,44.65,12.89,73.34s8.68,54.71,11.39,73.57c1.35,9.43,2.42,17.07,3.12,22.35.35,2.62.62,4.67.81,6.08.08.68.14,1.21.19,1.59S347.73,448,347.73,448Z" fill="#263238"/><path d="M254,152.11s-16.62-4-17.17-4.67l13.67-35.2A25.74,25.74,0,0,1,266.46,96.7a45.14,45.14,0,0,1,16.14-2.49L305.68,93a45.61,45.61,0,0,1,18.2,5A36.67,36.67,0,0,1,341,116.86l10.35,25.85-26.1,5.46-1,27.77,11.93,53.22-83.29-2.73,3.72-72.91h0Z" fill="url(#linear-gradient-2)"/><g opacity="0.3"><path d="M239.69,142.85c0,.07,4.29,1.48,9.63,3.14s9.7,2.93,9.72,2.86-4.29-1.49-9.63-3.15S239.72,142.77,239.69,142.85Z" fill="#fff"/></g><path d="M315.1,118.1a5,5,0,0,0,.44-.61c.26-.4.67-1,1.19-1.65s1.18-1.46,1.95-2.29a33.68,33.68,0,0,1,2.71-2.5,31.7,31.7,0,0,1,3-2.12,29.12,29.12,0,0,1,2.65-1.43c.77-.36,1.41-.64,1.86-.81a3.86,3.86,0,0,0,.69-.31,3.3,3.3,0,0,0-.73.2,19.82,19.82,0,0,0-1.91.73,23.39,23.39,0,0,0-2.7,1.39,27.78,27.78,0,0,0-3.06,2.12,28.26,28.26,0,0,0-2.72,2.54,24.09,24.09,0,0,0-1.93,2.36c-.5.7-.88,1.29-1.12,1.71A3.13,3.13,0,0,0,315.1,118.1Z" fill="#263238"/><path d="M318.5,126.5c-.08,0,.72,8.49,1.8,18.94s2,18.91,2.09,18.9-.72-8.48-1.8-18.94S318.58,126.49,318.5,126.5Z" fill="#263238"/><path d="M261.76,110.79a14.33,14.33,0,0,0,.37-1.73,30.39,30.39,0,0,1,1.15-4.06,31.66,31.66,0,0,1,1.7-3.87,13.92,13.92,0,0,0,.8-1.57,1.94,1.94,0,0,0-.29.38c-.18.24-.42.62-.7,1.09a23.76,23.76,0,0,0-2.86,8c-.09.54-.14,1-.16,1.28A1.4,1.4,0,0,0,261.76,110.79Z" fill="#263238"/><path d="M260.32,140.43a5.91,5.91,0,0,0,.14-.83c.07-.54.15-1.32.25-2.29.19-1.93.38-4.61.49-7.57s.09-5.65,0-7.59c0-1-.06-1.75-.09-2.3a4.45,4.45,0,0,0-.08-.84,5.29,5.29,0,0,0,0,.85v2.3c0,1.93,0,4.61-.13,7.57s-.27,5.63-.4,7.57c-.06.92-.12,1.69-.16,2.29A4.87,4.87,0,0,0,260.32,140.43Z" fill="#263238"/><path d="M295.21,135.47a117.27,117.27,0,0,0,18.17-.34v2.37H295.21Z" fill="#fff"/><g opacity="0.3"><path d="M277.13,96.21a1.79,1.79,0,0,0-.07.35c0,.26-.09.61-.16,1-.11.92-.27,2.27-.4,4-.28,3.42-.51,8.27-.6,14v.22l.2-.09c3.62-1.76,7.68-3.69,11.91-5.8l20.66-10.34,6.24-3.16,1.69-.87.44-.23.14-.09s-.06,0-.16.06l-.45.21-1.71.82-6.29,3.08-20.69,10.26c-4.23,2.11-8.28,4-11.9,5.81l.19.13c.06-5.72.26-10.57.49-14,.11-1.7.24-3,.33-4,.05-.44.09-.79.11-1.05A1.64,1.64,0,0,0,277.13,96.21Z" fill="#fff"/></g><g opacity="0.3"><path d="M320.52,145.27l.3-.05.85-.21,3.1-.79c2.63-.67,6.25-1.59,10.26-2.56s7.66-1.81,10.3-2.41l3.12-.71.85-.21.29-.09a1.12,1.12,0,0,0-.3,0l-.86.15c-.75.14-1.82.35-3.15.63-2.65.55-6.3,1.35-10.32,2.32s-7.63,1.93-10.24,2.65c-1.3.36-2.36.66-3.08.88l-.84.26A1,1,0,0,0,320.52,145.27Z" fill="#fff"/></g><path d="M280.3,91.91c0-.09-1.56.73-3.07,3a27.75,27.75,0,0,0-3.65,9.64,40.1,40.1,0,0,0-.66,5.65c0,.88,0,1.71,0,2.48s0,1.51.12,2.16.13,1.24.19,1.77.16,1,.22,1.33a4.46,4.46,0,0,0,.27,1.11,4.5,4.5,0,0,0,0-1.14l-.12-1.33c0-.53-.07-1.12-.11-1.76s0-1.37,0-2.14,0-1.59.06-2.45a45.65,45.65,0,0,1,.7-5.56,30.64,30.64,0,0,1,3.42-9.53,13.33,13.33,0,0,1,1.9-2.41A10.47,10.47,0,0,0,280.3,91.91Z" fill="#263238"/><path d="M306.12,92.07a13.71,13.71,0,0,0,1.2,1.73,24,24,0,0,1,2.68,5,34.23,34.23,0,0,1,2,8.16c.41,3.15.59,6.67.82,10.36s.2,7.19.21,10.39v8.51c0,2.43.06,4.39.14,5.75a9.14,9.14,0,0,0,.21,2.1,11,11,0,0,0,.13-2.1c0-1.38.09-3.34.15-5.74s.14-5.31.19-8.51.05-6.74-.14-10.45-.43-7.22-.9-10.42a32.53,32.53,0,0,0-2.21-8.29,21,21,0,0,0-3-5A7.66,7.66,0,0,0,306.12,92.07Z" fill="#263238"/><path d="M267.94,139.55a11.29,11.29,0,0,0,.11-1.88c0-1.21.06-3,.09-5.12,0-1.08,0-2.26,0-3.53s0-2.63.07-4a6.74,6.74,0,0,1,1.45-4,5.51,5.51,0,0,1,4-1.89,6.21,6.21,0,0,1,4.18,1.63,7.26,7.26,0,0,1,2.12,3.68c.35,1.35.5,2.71.71,4s.38,2.42.55,3.49c.34,2.13.63,3.86.84,5.05a11,11,0,0,0,.39,1.83,11.69,11.69,0,0,0-.16-1.87c-.14-1.2-.37-2.93-.66-5.07-.14-1.07-.3-2.25-.48-3.5a39.31,39.31,0,0,0-.67-4,7.71,7.71,0,0,0-2.25-4,6.82,6.82,0,0,0-4.58-1.78,6,6,0,0,0-4.43,2.11,7.08,7.08,0,0,0-1.56,4.3c-.09,1.46,0,2.8,0,4.07s0,2.45,0,3.54c0,2.15.06,3.9.1,5.11A11.82,11.82,0,0,0,267.94,139.55Z" fill="#263238"/><path d="M273.42,113.58a9.57,9.57,0,0,0,2.2,5.66,8.08,8.08,0,0,0-3.66.07,12.51,12.51,0,0,0,1-5.73" fill="#263238"/><path d="M267.92,126.5a18.29,18.29,0,0,1,.9-2.25,7,7,0,0,1,1.65-2,6.14,6.14,0,0,1,2.8-1.33,6,6,0,0,1,3.07.31,6.68,6.68,0,0,1,2.2,1.33,16.36,16.36,0,0,1,1.56,1.85,4.1,4.1,0,0,0-1.27-2.15,6.47,6.47,0,0,0-2.29-1.54,6.19,6.19,0,0,0-3.38-.38,6.28,6.28,0,0,0-3,1.5,6.59,6.59,0,0,0-1.67,2.19A4.13,4.13,0,0,0,267.92,126.5Z" fill="#263238"/><path d="M252.72,190.83c-3.38,0-6.4-2.43-8-5.42s-2-6.45-2.16-9.82a80.16,80.16,0,0,1,3.25-26.53l14.83,2.59-4,39.92Z" fill="url(#linear-gradient-3)"/><polygon points="312.67 195.81 264.41 194.05 252.71 137.5 303.54 140.32 312.67 195.81" fill="#263238"/><path d="M287.83,139.35l-.73-1.44-3.85-.29s-1-2.52-6.48-2.78c-4.93-.23-5.13,2.25-5.13,2.25H269v1.21Z" fill="#455b64"/><path d="M260.92,177.58l-3.65-1.07a4.48,4.48,0,0,0-2.12-.09h0a4.48,4.48,0,0,0-2.27,1.2,29.36,29.36,0,0,0-3.44,3.75,3.55,3.55,0,0,0,0,2.9c.41.54-.9,3.36-.74,4.3a5.77,5.77,0,0,0,.74,2.26c.32.4,0,1.73.81,2.75a13.07,13.07,0,0,0,1.56,1.63s10,.47,11,0a14.27,14.27,0,0,0,2.7-2.26s.9-1.65-.49-1.8l5.72-2.19a1.37,1.37,0,0,0,.83-1.72,1,1,0,0,0-.51-.55s2.57-.81,3.17-1.07c1.18-.53,1.63-3.29-.82-2.94-1.3.19-3.05.57-3.05.57a1.82,1.82,0,0,0-.38-2.43c-.79-.56-4.37.12-4.37.12l-4.71-3.36Z" fill="url(#linear-gradient-4)"/><path d="M259.65,192.66a8.38,8.38,0,0,0,3-.44,7.18,7.18,0,0,0,2.74-1.24c0-.07-1.24.52-2.82,1S259.64,192.58,259.65,192.66Z" fill="#ec996f"/><path d="M261.84,189.09a37.28,37.28,0,0,0,4.66-1,38.16,38.16,0,0,0,4.59-1.32,36.86,36.86,0,0,0-4.66,1A38.16,38.16,0,0,0,261.84,189.09Z" fill="#ec996f"/><path d="M260.65,185.54a44.16,44.16,0,0,0,5-1,43.36,43.36,0,0,0,4.95-1.31,90.93,90.93,0,0,0-10,2.34Z" fill="#ec996f"/><path d="M256.93,181a6.27,6.27,0,0,0,1.29.41l1.41.37.85.2a3,3,0,0,0,1,.1,5.42,5.42,0,0,0,.94-.16l.85-.19,1.42-.34A6.66,6.66,0,0,0,266,181a6,6,0,0,0-1.34.18l-1.44.28a15.34,15.34,0,0,1-1.74.32,6.58,6.58,0,0,1-1.73-.27l-1.43-.3A5.91,5.91,0,0,0,256.93,181Z" fill="#ec996f"/><path d="M256.28,182.88s-.16.11-.28.38a1.67,1.67,0,0,0,0,1.12,1.71,1.71,0,0,0,.67.9c.24.16.43.18.44.15s-.6-.39-.83-1.14A3.3,3.3,0,0,1,256.28,182.88Z" fill="#ec996f"/><path d="M256.49,186.77c-.07,0-.3.37-.26.92s.3.93.36.89,0-.43-.07-.91S256.57,186.8,256.49,186.77Z" fill="#ec996f"/><path d="M256.43,191c-.07,0-.22.25-.15.6s.31.55.37.5,0-.28-.08-.55S256.51,191,256.43,191Z" fill="#ec996f"/><path d="M255.34,180.73a3.08,3.08,0,0,0,1,0l1-.14a4.15,4.15,0,0,1,1.23-.06,3,3,0,0,1,1.09.5c.31.21.59.44.85.6a1.55,1.55,0,0,0,.93.31s-.35-.15-.81-.49a5.08,5.08,0,0,0-2-1.21,3.89,3.89,0,0,0-.68,0l-.62.1-1,.2A3,3,0,0,0,255.34,180.73Z" fill="#ec996f"/><path d="M249.53,191a4.69,4.69,0,0,0-.25-.72,5.58,5.58,0,0,1-.41-2,5.7,5.7,0,0,1,.22-1.4c.11-.5.34-1,.47-1.59a5.07,5.07,0,0,0-.12-1.86,3.18,3.18,0,0,1,.33-1.82,8.45,8.45,0,0,1,1-1.62c.39-.5.77-1,1.16-1.41a6.69,6.69,0,0,1,2.37-1.86,3.8,3.8,0,0,1,2-.3,5.5,5.5,0,0,1,.74.17.62.62,0,0,0-.17-.11,3.05,3.05,0,0,0-.55-.17,3.72,3.72,0,0,0-2.1.22,6.66,6.66,0,0,0-2.5,1.87c-.39.44-.78.91-1.18,1.41a8.56,8.56,0,0,0-1.08,1.67,3.47,3.47,0,0,0-.35,2,5,5,0,0,1,.14,1.77c-.1.54-.33,1.07-.44,1.58a6,6,0,0,0-.19,1.46,5.1,5.1,0,0,0,.51,2A3.46,3.46,0,0,0,249.53,191Z" fill="#ec996f"/><path d="M346.36,182l-.47-7-2.68-30.61-22,4.25,1.76,20.68-39.63-6.29s-9.81-4.21-12.45-5c-2.13-.6-8.16-.64-10.39-.63a1.13,1.13,0,0,0-1.13,1.33.94.94,0,0,0,.3.52s-2.15-.84-3.42-.19-.58,3.08-.58,3.08a2.68,2.68,0,0,0-1.33,2.54,3.68,3.68,0,0,0,1.79,2.69s-1.59,3,.89,4.58l1.66.89a19.83,19.83,0,0,0-.14,2c.07,1.1,5.58,3.63,5.58,3.63l14.31-.16,41.53,14.78,8.51,2.77A13.69,13.69,0,0,0,346.36,182Z" fill="url(#linear-gradient-5)"/><path d="M258.47,159a1.49,1.49,0,0,0,.47.16,10.56,10.56,0,0,0,1.3.28c1.1.2,2.65.36,4.34.55a36,36,0,0,1,4.3.65c1.09.26,1.69.59,1.72.55s-.14-.11-.41-.27a7.88,7.88,0,0,0-1.25-.48,27.29,27.29,0,0,0-4.33-.75c-1.7-.18-3.23-.31-4.34-.46S258.49,159,258.47,159Z" fill="#ec996f"/><path d="M255.64,162.11a3.3,3.3,0,0,0,1.06.55,17.68,17.68,0,0,0,2.74.79c1.1.23,2.09.38,2.82.47a4.68,4.68,0,0,0,1.18.1,35.53,35.53,0,0,0-3.93-.85c-1.09-.23-2.05-.49-2.74-.71A7.4,7.4,0,0,0,255.64,162.11Z" fill="#ec996f"/><path d="M256.07,167.45a11.75,11.75,0,0,0,3.23,1.1,11.47,11.47,0,0,0,3.38.4c0-.09-1.5-.27-3.32-.69S256.1,167.37,256.07,167.45Z" fill="#ec996f"/><path d="M257,172a7.78,7.78,0,0,0,2.48.91,7.6,7.6,0,0,0,2.62.32,25.39,25.39,0,0,0-2.55-.61C258.13,172.3,257,171.93,257,172Z" fill="#ec996f"/><path d="M264.85,169.29s.15.13.46.16a1.74,1.74,0,0,0,1.81-1.29c.07-.3,0-.49,0-.49s-.17.74-.84,1.22A3.31,3.31,0,0,1,264.85,169.29Z" fill="#ec996f"/><path d="M265.16,174.05c0,.08.59.11,1.11-.35s.55-1.06.47-1.06-.23.46-.67.84S265.15,174,265.16,174.05Z" fill="#ec996f"/><path d="M266.91,164.37c0,.08.38.22.77-.08s.37-.72.29-.72-.19.28-.47.49S266.92,164.29,266.91,164.37Z" fill="#ec996f"/><path d="M283.31,163.05s0,0-.11-.06l-.36-.17-1.4-.62c-1.22-.53-3-1.3-5.25-2.22-1.13-.46-2.37-1-3.73-1.46a14.77,14.77,0,0,0-2.16-.68c-.77-.14-1.57-.22-2.4-.29-1.64-.13-3.39-.19-5.21-.21l-1.38,0h-.7a1.44,1.44,0,0,0-.75.16,1.22,1.22,0,0,0-.65,1.37.41.41,0,0,0,.18.19l.17.11.34.16a5.41,5.41,0,0,0,.71.25.15.15,0,0,0,.18-.11.15.15,0,0,0-.1-.17,14.63,14.63,0,0,0-1.88-.42,6.94,6.94,0,0,0-2-.07,1.83,1.83,0,0,0-1,.42,1.76,1.76,0,0,0-.48,1,5,5,0,0,0,.12,2.07l.08-.17a2.66,2.66,0,0,0-.83.74,2.94,2.94,0,0,0-.44,2.68,4,4,0,0,0,1.73,2.06l-.06-.19a4.77,4.77,0,0,0-.48,2.62,3.06,3.06,0,0,0,1.42,2.15h0l1.67.89-.08-.14c0,.4-.08.8-.11,1.19l0,.59c0,.1,0,.2,0,.3a.69.69,0,0,0,.12.33,3.46,3.46,0,0,0,.86.81c.31.23.62.43.94.63a37.34,37.34,0,0,0,3.74,2l0,0,11-.17,3-.07.79,0,.27,0a.8.8,0,0,0-.27,0h-3.83l-11,.07h.05a40.75,40.75,0,0,1-3.71-2c-.31-.19-.62-.39-.91-.61a3.33,3.33,0,0,1-.79-.75.47.47,0,0,1-.08-.2,2.61,2.61,0,0,1,0-.28,5.44,5.44,0,0,1,0-.57c0-.39.06-.78.11-1.17a.14.14,0,0,0-.07-.14l-1.66-.89h0a2.71,2.71,0,0,1-1.29-1.95,4.48,4.48,0,0,1,.45-2.45.15.15,0,0,0-.06-.19,3.76,3.76,0,0,1-1.59-1.9A2.67,2.67,0,0,1,255,163a2.46,2.46,0,0,1,.73-.65.15.15,0,0,0,.08-.18,4.52,4.52,0,0,1-.12-1.93,1.48,1.48,0,0,1,.39-.8,1.46,1.46,0,0,1,.82-.35,6.39,6.39,0,0,1,1.9.07,16.28,16.28,0,0,1,1.84.4l.07-.27a5.9,5.9,0,0,1-.67-.23l-.32-.15c-.1,0-.19-.15-.23-.14a1.15,1.15,0,0,1,.09-.6,1,1,0,0,1,.44-.43,1.16,1.16,0,0,1,.62-.13h2.08c1.81,0,3.55.07,5.19.18.82.07,1.62.14,2.37.28a14.76,14.76,0,0,1,2.14.65c1.35.49,2.6,1,3.73,1.43l5.28,2.14,1.42.58.37.14Z" fill="#ec996f"/><path d="M322.78,169.31a11.7,11.7,0,0,1,4.88,5.86,3.26,3.26,0,0,0-.3-1.12,8.77,8.77,0,0,0-1.42-2.41,9,9,0,0,0-2.11-1.84A3.38,3.38,0,0,0,322.78,169.31Z" fill="#ec996f"/><path d="M271,46.79A20,20,0,0,1,291,28.34h1C303.17,29,308.88,38.81,307.94,50L306,94.69a2,2,0,0,1-1.16,1.74L279.76,108.2l.78-23.47s-10.75-1.65-10.9-12.39C269.56,67.15,270.28,56.46,271,46.79Z" fill="url(#linear-gradient-6)"/><path d="M280.45,84.72a26.16,26.16,0,0,0,14.07-4.15s-3.3,7.74-14,6.79Z" fill="#ec996f"/><path d="M273.64,55.19a1.54,1.54,0,0,0,1.48,1.55,1.47,1.47,0,0,0,1.58-1.39,1.54,1.54,0,0,0-1.48-1.55A1.48,1.48,0,0,0,273.64,55.19Z" fill="#263238"/><path d="M273.36,52c.19.2,1.35-.67,3-.67s2.86.83,3,.63-.11-.45-.63-.84a4.21,4.21,0,0,0-2.44-.74,4.13,4.13,0,0,0-2.39.77C273.44,51.58,273.26,52,273.36,52Z" fill="#263238"/><path d="M289.13,55.59a1.53,1.53,0,0,0,1.48,1.54,1.46,1.46,0,0,0,1.58-1.38,1.54,1.54,0,0,0-1.48-1.55A1.48,1.48,0,0,0,289.13,55.59Z" fill="#263238"/><path d="M289.58,52.31c.2.2,1.36-.66,3-.66s2.86.82,3,.62-.11-.45-.64-.83a4.25,4.25,0,0,0-2.43-.75,4.06,4.06,0,0,0-2.39.78C289.66,51.86,289.49,52.22,289.58,52.31Z" fill="#263238"/><path d="M283.62,64.57a10.54,10.54,0,0,0-2.68-.48c-.42,0-.82-.13-.9-.42a2.19,2.19,0,0,1,.28-1.25c.4-1,.81-2.09,1.24-3.21,1.73-4.57,3-8.33,2.79-8.4s-1.73,3.58-3.46,8.16c-.41,1.13-.81,2.2-1.18,3.23a2.4,2.4,0,0,0-.22,1.65,1,1,0,0,0,.7.62,2.81,2.81,0,0,0,.71.1A11.52,11.52,0,0,0,283.62,64.57Z" fill="#263238"/><path d="M288.48,65.7c-.27,0-.27,1.77-1.8,3s-3.44,1.08-3.45,1.33.42.35,1.23.37a4.48,4.48,0,0,0,2.88-1,3.88,3.88,0,0,0,1.4-2.56C288.8,66.13,288.6,65.69,288.48,65.7Z" fill="#263238"/><path d="M289.15,45.84c.16.45,1.81.23,3.74.46s3.51.76,3.77.36c.11-.2-.16-.62-.8-1a6.57,6.57,0,0,0-5.72-.62C289.43,45.28,289.07,45.63,289.15,45.84Z" fill="#263238"/><path d="M274,47.26c.3.37,1.43,0,2.8,0s2.53.25,2.79-.15c.12-.19-.07-.56-.57-.92a4,4,0,0,0-4.5.15C274,46.69,273.83,47.08,274,47.26Z" fill="#263238"/><path d="M306.33,57.92c.18-.08,7.38-2.2,7.16,5.15s-7.55,5.61-7.56,5.4S306.33,57.92,306.33,57.92Z" fill="#fbbd9d"/><path d="M307.61,65.75s.13.09.34.2a1.31,1.31,0,0,0,1,0,3.19,3.19,0,0,0,1.55-2.8,4.2,4.2,0,0,0-.31-1.84,1.46,1.46,0,0,0-.93-1,.63.63,0,0,0-.76.33c-.11.2-.07.35-.11.36s-.15-.13-.08-.43a.74.74,0,0,1,.3-.45.94.94,0,0,1,.71-.17,1.81,1.81,0,0,1,1.31,1.18,4.44,4.44,0,0,1,.38,2.06c-.09,1.48-.89,2.84-2,3.12a1.38,1.38,0,0,1-1.17-.23C307.62,65.93,307.59,65.76,307.61,65.75Z" fill="#ec996f"/><path d="M301.52,36.09l-30.63.68a13.93,13.93,0,0,1,4.5-5.21,23.93,23.93,0,0,1,13.87-5c5-.09,15.16,6,18.78,9.44,2.89,2.76,2.87,5.14,2.87,5.14.46,4-1.76,8.49-2.64,12.38-.46,2-1.34,8.1-1.34,8.1h0c-1.69,0-2.31-1.35-2.06-3l.32-6.54a9.89,9.89,0,0,1-3-11.55C302.61,39.93,303.54,37.2,301.52,36.09Z" fill="#231f20"/><path d="M295.08,59.32a.2.2,0,0,0,.08-.39.2.2,0,0,0-.22.16A.2.2,0,0,0,295.08,59.32Z" fill="#ec996f"/><path d="M291.93,58.61a.21.21,0,0,0,.22-.19.2.2,0,0,0-.13-.26.22.22,0,0,0-.23.19A.22.22,0,0,0,291.93,58.61Z" fill="#ec996f"/><path d="M289.81,58.56c.09,0,.19-.11.21-.27s0-.31-.14-.32-.2.11-.22.27S289.71,58.55,289.81,58.56Z" fill="#ec996f"/><path d="M293.54,61.3c.1,0,.18,0,.18-.12s-.08-.11-.18-.11-.18,0-.18.11S293.44,61.3,293.54,61.3Z" fill="#ec996f"/><path d="M290.64,60.64a.21.21,0,0,0,.2-.19.2.2,0,0,0-.16-.23.21.21,0,0,0-.2.19A.2.2,0,0,0,290.64,60.64Z" fill="#ec996f"/><path d="M275.59,58.87a.19.19,0,0,0,.21-.17.18.18,0,0,0-.13-.23.19.19,0,0,0-.22.16A.2.2,0,0,0,275.59,58.87Z" fill="#ec996f"/><path d="M273.44,58.68c.1,0,.19-.09.2-.21a.21.21,0,0,0-.16-.25c-.1,0-.19.09-.2.21A.21.21,0,0,0,273.44,58.68Z" fill="#ec996f"/><path d="M277.49,58.92a.17.17,0,0,0,.2-.12.16.16,0,0,0-.14-.19.16.16,0,0,0-.21.12A.17.17,0,0,0,277.49,58.92Z" fill="#ec996f"/><path d="M275.9,61.07a.2.2,0,0,0,.25-.12.2.2,0,0,0-.08-.26.2.2,0,0,0-.26.12A.19.19,0,0,0,275.9,61.07Z" fill="#ec996f"/><path d="M274.06,60.71a.16.16,0,0,0,.13-.2.17.17,0,0,0-.21-.1.18.18,0,0,0-.14.2A.17.17,0,0,0,274.06,60.71Z" fill="#ec996f"/><path d="M308.24,36.43a9.06,9.06,0,0,0-9.05-11.26,28,28,0,0,1-4.27.31c-2.65-.29-4.7-2.41-7.15-3.44a9.34,9.34,0,0,0-11,3.3c-.93,1.39-1.54,3.11-3,4-1.23.76-2.79.7-4.17,1.12A6.8,6.8,0,0,0,265,37.18a8,8,0,0,0,4.89,6.75,9.77,9.77,0,0,0,8.46-.6c2.31-1.28,4.38-3.48,7-3.4s5.13,2.66,7.81,2.13a7.59,7.59,0,0,0,3.53-2.37,6.14,6.14,0,0,1,3.65-2.1c1.43-.08,2.18,1.89,1.67,3.23l6.17-4.39" fill="#231f20"/><path d="M271.48,32.88l0,.11c0,.06.09.17.18.29a5.25,5.25,0,0,0,.88,1,5.46,5.46,0,0,0,1.82,1,5.2,5.2,0,0,0,2.78.17,5.46,5.46,0,0,0,2.93-1.67,36,36,0,0,0,2.11-3.23,4.37,4.37,0,0,1,1.49-1.34,4.22,4.22,0,0,1,2-.44,4.56,4.56,0,0,1,2.08.56A3.85,3.85,0,0,1,289.37,31,22.52,22.52,0,0,0,290.45,33a2.52,2.52,0,0,0,2,1.2,3.83,3.83,0,0,0,2.14-.62,8.24,8.24,0,0,0,1.62-1.35,6.89,6.89,0,0,1,3-2.16,3.86,3.86,0,0,1,3.07.72,5.23,5.23,0,0,1,1.69,2.1,9.21,9.21,0,0,1,.64,2c.11.56.16,1,.2,1.31a2.87,2.87,0,0,0,.06.45s0,0,0-.12,0-.19,0-.34a11.72,11.72,0,0,0-.15-1.32,8.32,8.32,0,0,0-.6-2,5.42,5.42,0,0,0-1.71-2.2,4.1,4.1,0,0,0-3.26-.79A7,7,0,0,0,296,32.06a7.93,7.93,0,0,1-1.58,1.3,3.56,3.56,0,0,1-2,.57,2.28,2.28,0,0,1-1.74-1.07c-.42-.61-.68-1.35-1.06-2a4.24,4.24,0,0,0-1.66-1.7,4.75,4.75,0,0,0-2.22-.59,4.6,4.6,0,0,0-2.17.48A4.71,4.71,0,0,0,282,30.44c-.8,1.13-1.28,2.34-2.07,3.23a5.29,5.29,0,0,1-2.8,1.62,5.09,5.09,0,0,1-2.68-.11,5.62,5.62,0,0,1-1.8-1A7.9,7.9,0,0,1,271.48,32.88Z" fill="#455b64"/><path d="M265.93,33a1.83,1.83,0,0,0-.12.59,4.65,4.65,0,0,0,.15,1.64,5.85,5.85,0,0,0,1.15,2.16,6.8,6.8,0,0,0,2.42,1.76,10,10,0,0,0,5.35.61,14.32,14.32,0,0,0,1.6-.32,2.29,2.29,0,0,0,.57-.19c0-.05-.84.15-2.2.3a10.37,10.37,0,0,1-5.2-.67,6.58,6.58,0,0,1-2.33-1.67,5.85,5.85,0,0,1-1.16-2A6.63,6.63,0,0,1,265.93,33Z" fill="#455b64"/><path d="M318.2,151.31a6.12,6.12,0,0,1-1.29,3.19,4.15,4.15,0,0,1-3.06,1.62,4.67,4.67,0,0,1-4.13-2.07c-1.31-2.08-1.63-6.41-.58-9,.72-1.77,2.34-3.4,4.24-3.45a4.69,4.69,0,0,1,4.6,3.58" fill="#e0e0e0"/><path d="M318,145.21a4,4,0,0,0-.46-1.23,5.23,5.23,0,0,0-.94-1.23,4.42,4.42,0,0,0-1.77-1,4.56,4.56,0,0,0-1.19-.19,3.73,3.73,0,0,0-1.3.17,5.19,5.19,0,0,0-2.32,1.67,6.71,6.71,0,0,0-1.36,2.84,12.07,12.07,0,0,0-.25,3.36,9.19,9.19,0,0,0,1.45,4.9,4.33,4.33,0,0,0,1.88,1.43,5,5,0,0,0,2.14.35h0a3.21,3.21,0,0,0,1.53-.37,5.24,5.24,0,0,0,1.15-.81,6,6,0,0,0,1.65-3.24,3.46,3.46,0,0,0,0-.38c0-.08,0-.13,0-.13a7.42,7.42,0,0,1-.55,1.83,5.92,5.92,0,0,1-1.26,1.78,5.09,5.09,0,0,1-1.12.75,2.94,2.94,0,0,1-1.42.33h0a4.55,4.55,0,0,1-3.78-1.71,9.07,9.07,0,0,1-1.38-4.74,8.63,8.63,0,0,1,1.54-6,4.91,4.91,0,0,1,2.18-1.6,3.48,3.48,0,0,1,1.22-.18,4.53,4.53,0,0,1,1.13.16,4.44,4.44,0,0,1,1.72,1,5.48,5.48,0,0,1,.95,1.17A8.7,8.7,0,0,1,318,145.21Z" fill="#263238"/><path d="M319.53,151.43a6.12,6.12,0,0,1-1.29,3.18,4.19,4.19,0,0,1-3.06,1.63,4.67,4.67,0,0,1-4.13-2.07c-1.31-2.09-1.63-6.42-.58-9,.72-1.76,2.34-3.4,4.24-3.45a4.7,4.7,0,0,1,4.6,3.58" fill="#e0e0e0"/><path d="M319.31,145.32a4,4,0,0,0-.46-1.23,5.23,5.23,0,0,0-.94-1.23,4.3,4.3,0,0,0-1.77-1,4.18,4.18,0,0,0-1.19-.19,3.31,3.31,0,0,0-1.3.17,5.17,5.17,0,0,0-2.32,1.66,6.77,6.77,0,0,0-1.36,2.84,12.11,12.11,0,0,0-.25,3.37,9.24,9.24,0,0,0,1.45,4.9,4.33,4.33,0,0,0,1.88,1.42,5.22,5.22,0,0,0,2.14.36h0a3.33,3.33,0,0,0,1.53-.38,5.21,5.21,0,0,0,1.15-.8,5.81,5.81,0,0,0,1.25-1.87,5.39,5.39,0,0,0,.4-1.38,3.29,3.29,0,0,0,0-.38q0-.12,0-.12a7.43,7.43,0,0,1-.55,1.82,5.92,5.92,0,0,1-1.26,1.78,5.09,5.09,0,0,1-1.12.75,3.07,3.07,0,0,1-1.42.34h0a4.56,4.56,0,0,1-3.77-1.71,9.13,9.13,0,0,1-1.38-4.75,8.63,8.63,0,0,1,1.54-6,4.86,4.86,0,0,1,2.18-1.6,3.48,3.48,0,0,1,1.22-.18,4.11,4.11,0,0,1,1.13.17,4.2,4.2,0,0,1,1.72,1,5.45,5.45,0,0,1,.95,1.16A9.46,9.46,0,0,1,319.31,145.32Z" fill="#263238"/><path d="M317.12,144.68a2.92,2.92,0,0,1,3.05,1.76,5,5,0,0,1,0,3.7,4.6,4.6,0,0,1-.94,1.67,2.52,2.52,0,0,1-1.7.83,3,3,0,0,1-2.34-1.39,5.27,5.27,0,0,1-.8-4.36c.25-1,1-2,2-2" fill="#e0e0e0"/><path d="M316.38,144.87s-.08,0-.23,0a1.34,1.34,0,0,0-.61.21,3,3,0,0,0-1.3,1.95,5.34,5.34,0,0,0,.35,3.48,4.49,4.49,0,0,0,1.27,1.67,2.47,2.47,0,0,0,2.19.52,3,3,0,0,0,1.75-1.43,6.09,6.09,0,0,0,.73-2,4.37,4.37,0,0,0-.56-3.43,3,3,0,0,0-2-1.26,1.91,1.91,0,0,0-.64,0,.66.66,0,0,0-.22.06,3.79,3.79,0,0,1,.84,0,3,3,0,0,1,1.83,1.27,4.19,4.19,0,0,1,.48,3.25,6.13,6.13,0,0,1-.72,1.87,2.76,2.76,0,0,1-1.58,1.3A2.18,2.18,0,0,1,316,152a4.42,4.42,0,0,1-1.21-1.56,5.26,5.26,0,0,1-.39-3.31,3,3,0,0,1,1.16-1.91A2.69,2.69,0,0,1,316.38,144.87Z" fill="#263238"/><path d="M314.25,154c.05,0,.11-.17.31-.4a2,2,0,0,1,1-.62,5.37,5.37,0,0,1,1.19-.19c.31,0,.52-.05.52-.09s-.2-.09-.52-.12a3.33,3.33,0,0,0-1.28.11,1.89,1.89,0,0,0-1.05.79C314.21,153.79,314.22,154,314.25,154Z" fill="#263238"/><path d="M313.81,143.91s.09.2.35.41a2.73,2.73,0,0,0,1.2.52,2.83,2.83,0,0,0,1.3-.07c.32-.1.49-.23.48-.26a7.67,7.67,0,0,1-1.73,0A7.42,7.42,0,0,1,313.81,143.91Z" fill="#263238"/><path d="M336.16,229.16c0,.16-18.72-.32-41.8-1.06s-41.79-1.47-41.78-1.63,18.71.32,41.8,1.06S336.16,229,336.16,229.16Z" fill="#263238"/></svg>