<svg xmlns="http://www.w3.org/2000/svg" xmlns:xlink="http://www.w3.org/1999/xlink" viewBox="0 0 500 500"><defs><clipPath id="clip-path"><path d="M158.43,355.28c-1.25.2-2.47.35-3.64.44l-.64-8.39a36.54,36.54,0,0,0,5.16-.78c25.11-5.47,22.23-53,19.19-103.29-1.77-29.38-3.61-59.75.22-83.76,4.56-28.58,16.66-44.08,37-47.39h.08l1.33,8.3h-.06c-37.22,6-33.64,65.16-30.18,122.34,3.26,54,6.34,105-25.8,112Q159.75,355.05,158.43,355.28Z" fill="#2f5d7d"/></clipPath><linearGradient id="linear-gradient" x1="130.6" y1="239.52" x2="385.85" y2="239.52" gradientUnits="userSpaceOnUse"><stop offset="0" stop-color="#dc3644"/><stop offset="1" stop-color="#e1645d"/></linearGradient><linearGradient id="linear-gradient-2" x1="267.39" y1="149.63" x2="321.67" y2="149.63" xlink:href="#linear-gradient"/><linearGradient id="linear-gradient-3" x1="143.93" y1="199.14" x2="183.34" y2="199.14" xlink:href="#linear-gradient"/><linearGradient id="linear-gradient-4" x1="193.36" y1="166.57" x2="212.11" y2="166.57" xlink:href="#linear-gradient"/><clipPath id="clip-path-2"><path d="M154.79,355.72c-26.59,2-33.31-23.74-41.09-53.57-3.38-13-7.21-27.64-13-42-11.25-28-22.59-36.79-30.12-39.21-7.1-2.28-11.92.72-12.13.85l-4.65-7c.32-.22,8.07-5.32,19-2,13.58,4.17,25.59,19,35.69,44.18,6,14.9,9.88,29.86,13.32,43.06,8.37,32.06,13.61,48.73,32.32,47.3Z" fill="#2f5d7d"/></clipPath><clipPath id="clip-path-3"><path d="M358.61,359.72l-.17,0-1.33-8.3.17,0c20.27-3.29,40.54-18,37.64-101.29l8.4-.29C405.82,321.34,392.44,354.22,358.61,359.72Z" fill="#2f5d7d"/></clipPath><clipPath id="clip-path-4"><path d="M358.44,359.74c-1.5.24-3.06.43-4.66.57-41.62,3.55-57.2-61.29-72.27-124-14.35-59.76-29.2-121.55-64.37-115.9l-1.33-8.3c42.86-6.89,58.63,58.75,73.88,122.24,14.24,59.26,29,120.53,63.38,117.59,1.39-.12,2.75-.28,4-.49Z" fill="#2f5d7d"/></clipPath><clipPath id="clip-path-5"><path d="M447,183.21c-13.4,40.75-29.5,61.35-47.85,61.16h0c-18.34-.17-34.06-21-46.72-62l-10.71,3.3c14.46,46.84,33.21,69.71,57.33,69.93h0a36.71,36.71,0,0,0,6.23-.46c21.22-3.45,38.4-25.93,52.37-68.41Z" fill="#2f5d7d"/></clipPath><clipPath id="clip-path-6"><path d="M385.8,83.2h0a1.86,1.86,0,0,0-.28-.82c-2.2-5.06-13-6.38-16-6.69-3.22-.33-6,.95-8.74,5.56l.55,3.44.75,4.72.55,3.44c4,3.53,7.08,3.89,10,2.57s12.63-5.85,13.15-11.33a1.83,1.83,0,0,0,0-.87Z" fill="#a3c6db"/></clipPath><clipPath id="clip-path-7"><path d="M415.79,83.4h0a1.74,1.74,0,0,1,.27-.82c2.13-5.08,12.88-6.54,15.93-6.9,3.22-.37,6,.88,8.82,5.45l-.51,3.45-.69,4.73-.5,3.44c-4,3.58-7,4-10,2.71s-12.71-5.69-13.3-11.17a1.7,1.7,0,0,1,0-.87Z" fill="#a3c6db"/></clipPath></defs><title>gambar lain</title><g style="isolation:isolate"><g id="Layer_1" data-name="Layer 1"><path d="M297.35,357.52s-3.52-33.22,64.34-65.17S440.28,215.26,406.93,159c-34.14-57.58-81.8-40.31-166.5-57.4s-146.06,6.68-193.6,57.84S24.36,323.19,85.44,372s87.15,73.61,131,60.59S297.35,357.52,297.35,357.52Z" fill="#fff7ed"/><path d="M436.16,344.45a55.71,55.71,0,0,0-39.76-14.26c-17.91.77-42,4.79-56.12,19.51-24.51,25.56-17.78,77.64,18.43,96S462,421.72,466,394.15C468.43,377.29,450.48,357.38,436.16,344.45Z" fill="#fff7ed"/><path d="M158.43,355.28c-1.25.2-2.47.35-3.64.44l-.64-8.39a36.54,36.54,0,0,0,5.16-.78c25.11-5.47,22.23-53,19.19-103.29-1.77-29.38-3.61-59.75.22-83.76,4.56-28.58,16.66-44.08,37-47.39h.08l1.33,8.3h-.06c-37.22,6-33.64,65.16-30.18,122.34,3.26,54,6.34,105-25.8,112Q159.75,355.05,158.43,355.28Z" fill="#2f5d7d"/><g clip-path="url(#clip-path)"><g opacity="0.3" style="mix-blend-mode:multiply"><path d="M161.28,363.43c-1.25.21-2.47.35-3.65.44l-.64-8.38a39.84,39.84,0,0,0,5.17-.78c7.66-1.69,12.63-7.67,15.55-14.64,4.79-11.41,2.92-21.59-1-33.09-2.26-6.56-4.86-13.09-6.07-20-1.11-6.26-.87-12.7-1.92-19.13l-7.52-46.09a139.48,139.48,0,0,1-2.11-17.63c-.42-12.57,2.58-25,5.82-37.13.85-3.22,1.79-6.54,3.92-9.11,7.09-8.54,16-15.33,24.23-22.68,8-7.09,14.46-13.19,25.55-15l.08,0,1.34,8.31h-.07c-37.21,6-33.63,65.16-30.18,122.34,3.27,54,6.35,105-25.79,112C163.05,363.12,162.15,363.29,161.28,363.43Z" fill="#2f5d7d"/></g></g><path d="M380.51,157.6c-22.64-50-87.34-55.66-120.38,1.7a17,17,0,0,1-23.44,6.13c-56.89-33.84-110.54,2.77-105.8,57.46,4,45.55,77.73,108.78,150.67,136A30.73,30.73,0,0,0,315.75,350C366,290.51,399.37,199.25,380.51,157.6Z" fill="url(#linear-gradient)"/><path d="M299.4,139.46c4.25-4.3,8.91-8.39,14.48-10,2.56-.75,5.9-.59,7.27,2.09,1.08,2.12.31,4.79-.87,6.73-3.23,5.32-8.92,7.76-13.84,11-10.61,7-19.3,17.88-31.87,20.54-2.38.5-5,.71-7.14-.69a2.35,2.35,0,0,1,1.12-2.36A8,8,0,0,1,271,166c5.28-1.32,10.54-6.67,14.07-11.06A206.38,206.38,0,0,1,299.4,139.46Z" fill="url(#linear-gradient-2)"/><path d="M144.52,207c-1,6.34-.91,13.11,1.95,18.86,1.19,2.41,3.68,4.87,6.2,3.93,2.14-.8,2.75-3.48,3.08-5.74,1.92-13.27,5.52-27,14.79-36.69,3.67-3.83,8.13-6.92,11.31-11.17a6.38,6.38,0,0,0,1.4-2.9c1.7-13.18-21.09,3.48-23.4,5.46C151.56,185.86,146.26,196.31,144.52,207Z" fill="url(#linear-gradient-3)"/><path d="M197.9,170.84a29.23,29.23,0,0,0,10,.1,7.07,7.07,0,0,0,2.75-.85,2.92,2.92,0,0,0,1.47-2.36c0-7.07-10.72-6.48-14.9-4.89-1.53.58-3.21,1.37-3.71,2.92a3.72,3.72,0,0,0,1.85,4.1A8.58,8.58,0,0,0,197.9,170.84Z" fill="url(#linear-gradient-4)"/><path d="M72.41,213.08A21.36,21.36,0,1,1,47,196.81,21.37,21.37,0,0,1,72.41,213.08Z" fill="#c2e3f7"/><path d="M67.94,214.15a15.12,15.12,0,1,1-18-11.52A15.13,15.13,0,0,1,67.94,214.15Z" fill="#a3c6db"/><path d="M154.79,355.72c-26.59,2-33.31-23.74-41.09-53.57-3.38-13-7.21-27.64-13-42-11.25-28-22.59-36.79-30.12-39.21-7.1-2.28-11.92.72-12.13.85l-4.65-7c.32-.22,8.07-5.32,19-2,13.58,4.17,25.59,19,35.69,44.18,6,14.9,9.88,29.86,13.32,43.06,8.37,32.06,13.61,48.73,32.32,47.3Z" fill="#2f5d7d"/><g clip-path="url(#clip-path-2)"><g opacity="0.3" style="mix-blend-mode:multiply"><path d="M156.53,357.63,150,356.07a28.8,28.8,0,0,1-7.71-2.63,24,24,0,0,1-7.15-6.94C125,332.65,121,315.11,116.72,298.77c-3.43-12.94-7.32-27.61-13.16-42-4.15-10.23-9.15-20.58-16.43-29a41.4,41.4,0,0,0-7.26-6.74c-3.3-2.31-7.81-2.66-10.37-5.85-1-1.2-1.52-2.69-2.48-3.89a7.26,7.26,0,0,0-8.08-2.14c-2.68,1.06-4.45,3.63-5.7,6.22-1.15,2.41-1.94,5.27-3.67,7.35-1.49,1.78-3.86,3-4.67,5.36-1.12,3.3-.6,6.91-.07,10.36q1.48,9.57,3,19.15c1.37,8.67,2.76,17.39,5.67,25.66,3.45,9.84,8.95,18.82,14.76,27.47,15.41,22.93,34,44.73,58.62,57.33,10.56,5.41,23.67,8.87,34,3,2.23-1.27,4.34-3.08,5.09-5.54,1.39-4.5-2.74-6.31-6.41-7.19Z" fill="#2f5d7d"/></g></g><path d="M358.61,359.72l-.17,0-1.33-8.3.17,0c20.27-3.29,40.54-18,37.64-101.29l8.4-.29C405.82,321.34,392.44,354.22,358.61,359.72Z" fill="#2f5d7d"/><g clip-path="url(#clip-path-3)"><g opacity="0.3" style="mix-blend-mode:multiply"><path d="M349.61,352.06l-.17,0-.6-8.39H349C369.49,342.15,391,329.25,395.3,246l8.4.43C400,317.93,383.79,349.52,349.61,352.06Z" fill="#2f5d7d"/></g></g><path d="M358.44,359.74c-1.5.24-3.06.43-4.66.57-41.62,3.55-57.2-61.29-72.27-124-14.35-59.76-29.2-121.55-64.37-115.9l-1.33-8.3c42.86-6.89,58.63,58.75,73.88,122.24,14.24,59.26,29,120.53,63.38,117.59,1.39-.12,2.75-.28,4-.49Z" fill="#2f5d7d"/><g clip-path="url(#clip-path-4)"><g opacity="0.3" style="mix-blend-mode:multiply"><path d="M357.5,368.42c-1.5.23-3.06.42-4.66.56-41.62,3.56-57.2-61.29-72.27-124-14.35-59.76-29.2-121.56-64.37-115.91l-1.33-8.3c42.86-6.89,58.63,58.76,73.88,122.24,14.24,59.26,29,120.53,63.38,117.59,1.39-.12,2.75-.28,4-.49Z" fill="#2f5d7d"/></g></g><path d="M344.42,184.83c-5-16.1-8.5-31.93-11.57-46.64-4-19.28-2.09-34.45,5.63-43.86C344,87.57,352.57,83.89,362.54,84l-.05,5.61c-5.83,0-14,1.34-19.68,8.3-6.6,8-8.15,21.59-4.48,39.15,3.05,14.58,6.54,30.26,11.45,46.13Z" fill="#c2e3f7"/><path d="M447,183.21c-13.4,40.75-29.5,61.35-47.85,61.16h0c-18.34-.17-34.06-21-46.72-62l-10.71,3.3c14.46,46.84,33.21,69.71,57.33,69.93h0a36.71,36.71,0,0,0,6.23-.46c21.22-3.45,38.4-25.93,52.37-68.41Z" fill="#2f5d7d"/><g clip-path="url(#clip-path-5)"><path d="M453,181.75l.37-.71a12.42,12.42,0,0,1,3.23-4.15c4.55-3.43,9.33.86,12.08,4.36,5.79,7.37,10.77,16.05,10.61,25.41-.12,7.06-3.15,13.74-6.67,19.87-9.31,16.2-22.76,30.35-39.52,38.61s-37,10.18-54.35,3.3c-13.72-5.44-24.85-15.8-35-26.51-5.25-5.54-10.38-11.31-13.9-18.07a58,58,0,0,1-5.41-16.7c-1-5.85-1.38-12,.37-17.65s5.86-10.86,11.52-12.68c9.77,17.59,13,37.46,25.85,53.75,8.24,10.46,19.51,18.58,33.27,18.71a36.79,36.79,0,0,0,6.23-.47c13.83-2.25,24.29-12.56,31.88-23.7A117.21,117.21,0,0,0,445,203.05C447.79,196.12,449.54,188.4,453,181.75Z" fill="#2f5d7d" opacity="0.3" style="mix-blend-mode:multiply"/></g><path d="M455,185.84l-5.33-1.76c5.19-15.77,9-31.39,12.28-45.91,4-17.5,2.69-31.06-3.76-39.23-5.58-7.06-13.7-8.6-19.52-8.66l.05-5.6c10,.09,18.44,3.92,23.86,10.78,7.55,9.55,9.22,24.75,4.84,44C464.09,154.07,460.27,169.84,455,185.84Z" fill="#c2e3f7"/><rect x="353.25" y="81.82" width="8.48" height="11.77" transform="translate(-9.35 57.33) rotate(-9.05)" fill="#2f5d7d"/><path d="M385.8,83.2h0a1.86,1.86,0,0,0-.28-.82c-2.2-5.06-13-6.38-16-6.69-3.22-.33-6,.95-8.74,5.56l.55,3.44.75,4.72.55,3.44c4,3.53,7.08,3.89,10,2.57s12.63-5.85,13.15-11.33a1.83,1.83,0,0,0,0-.87Z" fill="#a3c6db"/><g clip-path="url(#clip-path-6)"><path d="M406.12,76.49c1.07,6.68-7.41,13.59-18.93,15.42s-21.72-2.09-22.78-8.77,7.41-13.59,18.93-15.43S405.06,69.81,406.12,76.49Z" fill="#c2e3f7"/></g><rect x="439.91" y="81.66" width="8.48" height="11.77" transform="matrix(-0.99, -0.14, 0.14, -0.99, 871, 238.34)" fill="#2f5d7d"/><path d="M415.79,83.4h0a1.74,1.74,0,0,1,.27-.82c2.13-5.08,12.88-6.54,15.93-6.9,3.22-.37,6,.88,8.82,5.45l-.51,3.45-.69,4.73-.5,3.44c-4,3.58-7,4-10,2.71s-12.71-5.69-13.3-11.17a1.7,1.7,0,0,1,0-.87Z" fill="#a3c6db"/><g clip-path="url(#clip-path-7)"><ellipse cx="416.28" cy="80.01" rx="12.25" ry="21.12" transform="translate(276.97 480.36) rotate(-81.69)" fill="#c2e3f7"/></g><path d="M64.88,214.74a13.65,13.65,0,1,1-16.26-10.4A13.65,13.65,0,0,1,64.88,214.74Z" fill="#2f5d7d"/><path d="M56.64,225.28a13.62,13.62,0,0,1-16.46-15.05,13.64,13.64,0,1,0,24.93,9.2A13.61,13.61,0,0,1,56.64,225.28Z" fill="#c2e3f7" opacity="0.2"/></g></g></svg>