<svg id="Layer_1" data-name="Layer 1" xmlns="http://www.w3.org/2000/svg" xmlns:xlink="http://www.w3.org/1999/xlink" viewBox="0 0 500 500"><defs><linearGradient id="linear-gradient" x1="224.97" y1="202.69" x2="322.67" y2="202.69" gradientUnits="userSpaceOnUse"><stop offset="0" stop-color="#617abc"/><stop offset="1" stop-color="#8595cb"/></linearGradient><linearGradient id="linear-gradient-2" x1="220.64" y1="357.19" x2="288.91" y2="357.19" xlink:href="#linear-gradient"/><linearGradient id="linear-gradient-3" x1="251.76" y1="358.11" x2="305.92" y2="358.11" xlink:href="#linear-gradient"/><linearGradient id="linear-gradient-4" x1="245.98" y1="126.18" x2="280.37" y2="126.18" gradientUnits="userSpaceOnUse"><stop offset="0" stop-color="#fee0c2"/><stop offset="1" stop-color="#f48167"/></linearGradient><linearGradient id="linear-gradient-5" x1="245.94" y1="109.6" x2="293.56" y2="109.6" xlink:href="#linear-gradient"/><linearGradient id="linear-gradient-6" x1="171.18" y1="290.21" x2="178.35" y2="290.21" gradientUnits="userSpaceOnUse"><stop offset="0" stop-color="#fcdc58"/><stop offset="1" stop-color="#fde796"/></linearGradient><linearGradient id="linear-gradient-7" x1="179.08" y1="333.94" x2="196.61" y2="333.94" xlink:href="#linear-gradient-6"/><linearGradient id="linear-gradient-8" x1="175.33" y1="376.92" x2="185.93" y2="376.92" xlink:href="#linear-gradient-6"/><linearGradient id="linear-gradient-9" x1="185.51" y1="422.34" x2="196.93" y2="422.34" xlink:href="#linear-gradient-6"/><linearGradient id="linear-gradient-10" x1="148.4" y1="277.23" x2="164.87" y2="277.23" xlink:href="#linear-gradient-6"/><linearGradient id="linear-gradient-11" x1="164.41" y1="315.1" x2="182.23" y2="315.1" xlink:href="#linear-gradient-6"/><linearGradient id="linear-gradient-12" x1="165.15" y1="354.04" x2="172.67" y2="354.04" xlink:href="#linear-gradient-6"/><linearGradient id="linear-gradient-13" x1="166.51" y1="405.69" x2="183.97" y2="405.69" xlink:href="#linear-gradient-6"/><linearGradient id="linear-gradient-14" x1="203.37" y1="372.65" x2="209.67" y2="372.65" xlink:href="#linear-gradient-6"/><linearGradient id="linear-gradient-15" x1="179.93" y1="413.36" x2="186.98" y2="413.36" xlink:href="#linear-gradient-6"/><linearGradient id="linear-gradient-16" x1="215.94" y1="353.61" x2="229.47" y2="353.61" xlink:href="#linear-gradient-6"/><linearGradient id="linear-gradient-17" x1="191.39" y1="401.63" x2="214.27" y2="401.63" xlink:href="#linear-gradient-6"/></defs><title>gambar lain</title><path d="M367.34,38.63a1.81,1.81,0,1,1-1.81-1.81A1.81,1.81,0,0,1,367.34,38.63Z" fill="#e0e0e0"/><path d="M441.68,38.63a1.81,1.81,0,1,1-1.81-1.81A1.81,1.81,0,0,1,441.68,38.63Z" fill="#e0e0e0"/><rect x="167.01" y="111.62" width="200.33" height="366.04" rx="11.96" fill="#fff5e9"/><path d="M340.54,260.63s-7.91-.57-7.18,17.19,2.54,27.23,2.54,27.23-.24,3.94-3.29,3.16-8.79-4.6-11.62-1.74-1.89,7.53,2,12.9,12,17.45,12.74,18.54,1,3.09-1.16,2.9-16.75-5.14-18.69,1.92S327.27,363,328.7,364.44s1.5,2.39.92,3.28-5.32-1.24-9.53-2.47-9.31-1.94-10.08,2.23,5.09,16.38,27.06,29.21L347.64,402l10-6.38c20.58-15,25.19-27.69,24-31.76s-6.19-2.87-10.26-1.22-8.57,4.24-9.24,3.42-.68-1.76.6-3.36,13.2-16,10.57-22.88-16.65-.46-18.79,0-2-1.62-1.44-2.76,7.48-14,10.82-19.72,3.93-10.37.71-13-8.44,1.82-11.39,2.9-3.59-2.82-3.59-2.82.86-9.6-.19-27.35-9.07-16.31-9.07-16.31" fill="#ebebeb"/><path d="M341.17,276.54s0,.12,0,.37.05.62.09,1.09c.06,1,.16,2.39.28,4.19.24,3.65.56,8.92.92,15.44.72,13,1.57,31.05,2.44,51s1.67,37.92,2.32,51c.33,6.51.6,11.78.78,15.45.09,1.8.16,3.22.21,4.19,0,.47,0,.83.05,1.1v.37s0-.13,0-.37-.05-.63-.09-1.09c-.06-1-.16-2.39-.28-4.2-.25-3.64-.56-8.91-.92-15.43-.72-13-1.57-31.06-2.44-51s-1.67-37.92-2.32-51c-.33-6.5-.6-11.77-.79-15.44-.09-1.81-.16-3.22-.2-4.2,0-.46,0-.83-.05-1.09A3.39,3.39,0,0,1,341.17,276.54Z" fill="#e0e0e0"/><path d="M328.8,312.16a3.4,3.4,0,0,1,.66.54c.41.37,1,.93,1.68,1.62,1.39,1.38,3.27,3.34,5.3,5.54l5.17,5.65,1.57,1.71a3.59,3.59,0,0,1,.55.65,3.4,3.4,0,0,1-.66-.54c-.41-.37-1-.92-1.67-1.62-1.38-1.4-3.23-3.38-5.26-5.58l-5.21-5.62-1.58-1.69A3.81,3.81,0,0,1,328.8,312.16Z" fill="#e0e0e0"/><path d="M344.78,327.52c-.08-.07,3.78-4.12,8.63-9s8.84-8.83,8.92-8.75-3.78,4.12-8.63,9S344.86,327.6,344.78,327.52Z" fill="#e0e0e0"/><path d="M344.73,358.15a4.07,4.07,0,0,1,.74-.47l2.07-1.16c1.74-1,4.15-2.34,6.75-3.94s4.91-3.11,6.57-4.22l2-1.32a3.18,3.18,0,0,1,.75-.44,3.82,3.82,0,0,1-.66.57c-.44.35-1.08.83-1.9,1.42-1.62,1.18-3.91,2.74-6.52,4.34s-5,2.93-6.83,3.84c-.89.46-1.62.82-2.13,1.05A3,3,0,0,1,344.73,358.15Z" fill="#e0e0e0"/><path d="M327.22,347.43a3.13,3.13,0,0,1,.74.35c.45.24,1.11.6,1.91,1.06,1.61.92,3.82,2.2,6.25,3.65s4.61,2.77,6.18,3.74c.79.49,1.42.89,1.85,1.18a2.84,2.84,0,0,1,.65.48,3.43,3.43,0,0,1-.73-.35c-.46-.24-1.11-.6-1.92-1.06-1.61-.92-3.81-2.2-6.24-3.65s-4.61-2.77-6.18-3.74c-.79-.49-1.42-.89-1.85-1.18A2.79,2.79,0,0,1,327.22,347.43Z" fill="#e0e0e0"/><path d="M323.75,374.47a3.89,3.89,0,0,1,.93.45l2.46,1.35c2.07,1.16,4.91,2.79,8,4.61s5.95,3.49,8,4.71l2.39,1.47a5,5,0,0,1,.86.59,5.23,5.23,0,0,1-.93-.45L343,385.84c-2.07-1.16-4.92-2.79-8-4.61s-6-3.48-8-4.71l-2.4-1.47A5.6,5.6,0,0,1,323.75,374.47Z" fill="#e0e0e0"/><path d="M346,387.18a7.48,7.48,0,0,1,.92-.62l2.57-1.56c2.17-1.32,5.16-3.15,8.4-5.27s6.14-4.1,8.22-5.55l2.47-1.72a6,6,0,0,1,.94-.59,6.69,6.69,0,0,1-.85.72c-.55.44-1.37,1.07-2.39,1.82-2.05,1.51-4.92,3.54-8.17,5.66s-6.27,3.92-8.47,5.18c-1.11.62-2,1.12-2.64,1.45A6.18,6.18,0,0,1,346,387.18Z" fill="#e0e0e0"/><polygon points="361.84 405.42 332.6 405.42 342.14 477.66 352.29 477.66 361.84 405.42" fill="#e0e0e0"/><path d="M334.11,414.3s0,.1.16.26a1.87,1.87,0,0,0,.71.5,3.51,3.51,0,0,0,3.08-.38c1.18-.65,2.21-1.93,3.8-2.49a8.33,8.33,0,0,1,5.37.1,23.09,23.09,0,0,1,5,2.43,35.86,35.86,0,0,0,4.07,2.19,11,11,0,0,0,3,.86,5,5,0,0,0,.85.06,1,1,0,0,0,.3,0,15.39,15.39,0,0,1-4-1.21,38.94,38.94,0,0,1-4-2.26,22.43,22.43,0,0,0-5.1-2.5,8.56,8.56,0,0,0-5.67-.06,7.45,7.45,0,0,0-2.14,1.32,17,17,0,0,1-1.67,1.3,3.46,3.46,0,0,1-2.85.49A3.17,3.17,0,0,1,334.11,414.3Z" fill="#f5f5f5"/><path d="M335.18,427.61s.23-.3.69-.78a6.59,6.59,0,0,1,2.34-1.48,10.37,10.37,0,0,1,4.06-.61,43,43,0,0,1,5.09.69,17.49,17.49,0,0,0,5.21.22,14.67,14.67,0,0,0,4.1-1.17,12.71,12.71,0,0,0,2.46-1.47,3.37,3.37,0,0,0,.78-.7,25.81,25.81,0,0,1-3.38,1.86,15.18,15.18,0,0,1-4,1,18.12,18.12,0,0,1-5.08-.25,38.38,38.38,0,0,0-5.16-.66,10.25,10.25,0,0,0-4.2.74,6.17,6.17,0,0,0-2.35,1.67,4.38,4.38,0,0,0-.44.64C335.2,427.51,335.17,427.6,335.18,427.61Z" fill="#f5f5f5"/><path d="M358.52,434.73a2.16,2.16,0,0,0-.8-.42,9.14,9.14,0,0,0-2.42-.52,16,16,0,0,0-3.67.21c-1.36.22-2.82.6-4.36.92a18,18,0,0,1-4.35.5,9.56,9.56,0,0,1-3.46-.75,8.11,8.11,0,0,1-2.62-1.95,2.16,2.16,0,0,0,.49.76,6.26,6.26,0,0,0,2,1.49,9.36,9.36,0,0,0,3.58.89,17.68,17.68,0,0,0,4.47-.47c1.55-.33,3-.72,4.34-1a16.87,16.87,0,0,1,3.57-.3A13.49,13.49,0,0,1,358.52,434.73Z" fill="#f5f5f5"/><path d="M337.76,444.75a4.83,4.83,0,0,1,2.84-.29,13.84,13.84,0,0,1,3,1.11,11.42,11.42,0,0,0,10.85-.56,9.11,9.11,0,0,0,1.74-1.34c.36-.38.54-.59.52-.62a23.5,23.5,0,0,1-2.43,1.67,12,12,0,0,1-6.78,1.44c-2.77-.16-4.89-1.81-6.81-2a4.33,4.33,0,0,0-2.21.19A1.46,1.46,0,0,0,337.76,444.75Z" fill="#f5f5f5"/><path d="M339.39,458.61a5.52,5.52,0,0,0,2.44-.48c1.47-.49,3.29-1.62,5.42-2.46a8.58,8.58,0,0,1,3.1-.65,5.13,5.13,0,0,1,4.31,2.13,1.36,1.36,0,0,0-.28-.62,3.94,3.94,0,0,0-1.37-1.24,5.75,5.75,0,0,0-2.65-.71,8.69,8.69,0,0,0-3.28.64c-2.21.88-4,2-5.37,2.6S339.38,458.54,339.39,458.61Z" fill="#f5f5f5"/><path d="M340.83,465.07a6.71,6.71,0,0,0,1.85.6,33.13,33.13,0,0,0,4.63.78,32.66,32.66,0,0,0,4.69.13,6.19,6.19,0,0,0,1.93-.23c0-.14-3,0-6.58-.38S340.86,464.93,340.83,465.07Z" fill="#f5f5f5"/><path d="M258.84,445.53l8.72,19.94s-11.9,9.09-11,12.8l38.09-11.37-9-30.67Z" fill="#263238"/><path d="M269,464.21c0,.19.91.27,1.77.87s1.3,1.37,1.48,1.31,0-1.15-1.1-1.87S269,464,269,464.21Z" fill="#263238"/><path d="M268.16,469.67c.19,0,.17-1-.62-1.89s-1.77-1-1.8-.85.67.57,1.3,1.3S268,469.71,268.16,469.67Z" fill="#263238"/><path d="M277,445.62l.77,20.48s-20.55,7.66-20.78,11.45l39.76-.06.11-32Z" fill="#455b64"/><path d="M272.91,467.63c0,.19.8.51,1.46,1.33s.85,1.69,1.05,1.68.31-1.1-.53-2.11S272.92,467.44,272.91,467.63Z" fill="#263238"/><path d="M270.55,472.62c.18,0,.45-.93-.05-2s-1.41-1.48-1.49-1.32.48.73.87,1.61S270.36,472.6,270.55,472.62Z" fill="#263238"/><path d="M243,150.48s-7.25,4.85-9.15,13.62c-1.5,6.89-5.6,43.27-5.6,43.27l-7.17,14,4.68,11.15h0A17.16,17.16,0,0,0,237,229.28l3.15-2.29,5.79-8.58Z" fill="#fff"/><path d="M316.77,190.2l5.9-1s-12.44-34.37-19.85-37.73L297.44,149v-.1l-8.87-3.62-10.38-3.81h0l-.78-.29.32.32-20.8,1.33-1.62,1.23-10.67,5.58h0s-4.74,1.58-9,7.19S225,191.1,225,191.1l13.95,5.74L242.4,220l-8.86,44.21,76-1.45-16.44-45.92,2.55-22.93Z" fill="url(#linear-gradient)"/><g opacity="0.3"><path d="M241.1,228.36a64.73,64.73,0,0,0,24.77,6.08c3,.12,6.28,0,8.83-1.65a19.44,19.44,0,0,1,3.2-2.11c1.62-.65,3.44-.34,5.17-.15a35,35,0,0,0,12.06-.79,3.17,3.17,0,0,0,1.62-.76,1.15,1.15,0,0,0,.05-1.61,1.78,1.78,0,0,0-1.05-.28l-54.23-2.71Z"/></g><path d="M236.18,173.6c.15,0,1.23,7.11,2.42,15.93s2.05,16,1.91,16-1.23-7.11-2.42-15.93S236,173.62,236.18,173.6Z" fill="#263238"/><path d="M264.67,167.54a4.22,4.22,0,0,1-.77-.74c-.48-.5-1.14-1.23-2-2.14l-2.86-3.22c-1.06-1.22-2.26-2.55-3.38-4.06a17.54,17.54,0,0,1-2.56-4.67,10.72,10.72,0,0,1-.54-4.33,7.42,7.42,0,0,1,.79-2.82,3,3,0,0,1,.61-.89,9.83,9.83,0,0,0-1,3.74,10.94,10.94,0,0,0,.64,4.14,17.52,17.52,0,0,0,2.52,4.52c1.1,1.49,2.28,2.82,3.33,4.05l2.77,3.3c.78.94,1.41,1.71,1.83,2.25A4.54,4.54,0,0,1,264.67,167.54Z" fill="#263238"/><path d="M282.84,143.18a5.22,5.22,0,0,1-.12,1.21,17,17,0,0,1-.93,3.2,29,29,0,0,1-6.25,9c-2.93,3.1-5.64,5.85-7.61,7.83l-2.35,2.33a5.71,5.71,0,0,1-.91.81,5.17,5.17,0,0,1,.77-.95l2.23-2.44,7.49-7.94a31.07,31.07,0,0,0,6.29-8.76A34.16,34.16,0,0,0,282.84,143.18Z" fill="#263238"/><path d="M295.07,194l2.41,13.45-32.07,4.72,1.85,14.76s39.61,2.17,44,1.2c5.53-1.22,9.76-7.85,9.62-17.53-.05-3.83-1.83-11.48-4.09-20.39Z" fill="#fff"/><path d="M299,150.05c0,.06-.69.08-1.89.45a10.71,10.71,0,0,0-4.38,2.8,12.94,12.94,0,0,0-3.35,6.88,19.23,19.23,0,0,0-.22,4.59,31.18,31.18,0,0,0,.79,4.9c1.47,6.67,2.81,12.7,3.79,17.16.47,2.2.83,4,1,5.23.11.62.19,1.1.23,1.43a1.65,1.65,0,0,1,0,.51s-.17-.68-.45-1.9-.71-3.06-1.2-5.19c-1-4.38-2.49-10.41-3.95-17.13a31.22,31.22,0,0,1-.79-5,19.22,19.22,0,0,1,.26-4.71,13.07,13.07,0,0,1,3.56-7.05A10.42,10.42,0,0,1,297,150.3a8.3,8.3,0,0,1,1.44-.24A2.7,2.7,0,0,1,299,150.05Z" fill="#263238"/><path d="M309.53,262.74c0,.15-17.06.55-38.09.89s-38.1.52-38.1.37,17-.54,38.09-.89S309.52,262.6,309.53,262.74Z" fill="#263238"/><path d="M238.5,256.67l-16.93,89.39a53.29,53.29,0,0,0,3.1,30.26l35.92,87,28.32-18.06-29-86L278.27,283l-6-31.95Z" fill="url(#linear-gradient-2)"/><path d="M252.38,279.33l12.94,102.79,2.24,83.35,32.22.5s-1.16-84.43-1.16-89.52V293.21A106.54,106.54,0,0,0,305.1,283c1.85-3.7,0-22.19,0-22.19s-6.88-14.07-32.84-9.76S252.38,279.33,252.38,279.33Z" fill="url(#linear-gradient-3)"/><path d="M267.56,465.47a5,5,0,0,1-.05-.51c0-.37,0-.87-.07-1.52-.06-1.36-.14-3.32-.24-5.83-.18-5.09-.44-12.41-.77-21.44s-.66-19.84-1.06-31.81c-.21-6-.43-12.27-.74-18.78s-.7-13.24-1.51-20.09c-.4-3.43-.91-6.8-1.46-10.12s-1.15-6.59-1.72-9.8c-1.07-6.43-1.94-12.66-2.7-18.61-1.51-11.88-2.58-22.62-3.58-31.62s-1.86-16.29-2.52-21.31c-.34-2.49-.6-4.44-.78-5.78-.08-.64-.14-1.14-.19-1.5s0-.52,0-.52,0,.17.1.51l.25,1.5c.21,1.31.52,3.25.87,5.76.73,5,1.66,12.29,2.68,21.3s2.16,19.73,3.69,31.6c.78,5.94,1.66,12.16,2.74,18.59.56,3.21,1.13,6.48,1.72,9.79s1.07,6.71,1.46,10.15c.82,6.87,1.19,13.62,1.51,20.13s.51,12.8.71,18.78c.36,12,.68,22.75.95,31.81s.46,16.37.6,21.45c.06,2.52.11,4.48.14,5.84,0,.65,0,1.15,0,1.51S267.56,465.47,267.56,465.47Z" fill="#263238"/><path d="M277.67,465.47c-.14,0-2.52-42.7-5.32-95.37s-4.94-95.4-4.79-95.41,2.52,42.69,5.31,95.38S277.81,465.47,277.67,465.47Z" fill="#263238"/><path d="M288.72,267.91a3.28,3.28,0,0,1-.66.86,13.27,13.27,0,0,1-2.23,1.92,14.81,14.81,0,0,1-18.2-.9,13,13,0,0,1-2-2.14,3.64,3.64,0,0,1-.57-.91,29.72,29.72,0,0,0,2.84,2.77,15,15,0,0,0,17.75.88A27.71,27.71,0,0,0,288.72,267.91Z" fill="#263238"/><path d="M267.32,458.37l-.23-.47c-.15-.34-.36-.8-.62-1.4l-2.37-5.41c-2-4.72-5-11.52-8.59-19.92s-7.85-18.47-12.58-29.61-9.9-23.42-15-36.44c-.3-.82-.61-1.64-.92-2.45a14.65,14.65,0,0,1-.54-2.6,34.45,34.45,0,0,1-.16-5.17c.13-3.42.52-6.76.95-10,.91-6.54,2.1-12.79,3.32-18.72,2.46-11.87,5.09-22.46,7.36-31.34s4.24-16,5.63-20.95l1.63-5.67c.19-.63.34-1.11.44-1.46l.17-.5s0,.18-.12.51-.22.85-.39,1.48c-.36,1.33-.87,3.24-1.54,5.7-1.32,4.94-3.24,12.1-5.47,21s-4.81,19.48-7.24,31.34c-1.21,5.93-2.38,12.18-3.29,18.7-.42,3.26-.8,6.59-.93,10A33.31,33.31,0,0,0,227,360a13.82,13.82,0,0,0,.51,2.48c.31.81.61,1.63.92,2.44,5.09,13,10.29,25.27,15,36.44L255.85,431l8.44,20c1,2.35,1.74,4.18,2.27,5.44l.58,1.42C267.27,458.2,267.32,458.37,267.32,458.37Z" fill="#263238"/><path d="M259.88,359.2c-.14.18-2-2.07-4.12-4.89a39.14,39.14,0,0,1-3.64-5.29,41.29,41.29,0,0,1,4.05,5c1.07,1.41,2,2.71,2.68,3.65A12.06,12.06,0,0,1,259.88,359.2Z" fill="#263238"/><g opacity="0.3"><polygon points="251.01 272.34 255.67 352.2 259.88 359.2 261.41 352.88 251.01 272.34"/></g><g opacity="0.3"><polygon points="237.1 264.1 236.46 267.45 305.62 267.45 305.27 262.83 237.1 264.1"/></g><polygon points="187.41 207.44 233.75 224.6 272.82 230.57 226.37 207.93 187.41 207.44" fill="#263238"/><path d="M207.25,226a19.7,19.7,0,0,0-2.47-7,5.32,5.32,0,0,1-.63-1.32,1.52,1.52,0,0,1,.26-1.39c.59-.64,1.68-.36,2.41.13a8.53,8.53,0,0,1,3.12,4.37,24.89,24.89,0,0,1,1,5.36" fill="#fbbd9d"/><path d="M225.31,221.53H223a4.48,4.48,0,0,0-2-1.16,1.59,1.59,0,0,0-1.52.6c1-1.7,2.14-3.57,2.35-4.08.42-1-.5-1.74-2-1.74s-8,9.29-8,9.29,4.07-7.47,4.46-8.62c1-2.85-2.13-3.06-3.26-1.68-1.41,1.7-7.09,10.3-7.09,10.3a4,4,0,0,0-.33,3.4c.74,1.66,2.9,1,2.9,1a2.78,2.78,0,0,0,1.52,2.31c1.66.92,3.85-.15,3.85-.15l8.48,1.91,3.07-.31a9.43,9.43,0,0,0,8.38-8h0Z" fill="#fbbd9d"/><path d="M219.6,220.84a29.55,29.55,0,0,1-2.5,4c-.73,1.06-1.41,2-1.91,2.7a7.69,7.69,0,0,1-.86,1.07,7.14,7.14,0,0,1,.7-1.18c.46-.71,1.12-1.68,1.85-2.74s1.4-2,1.9-2.71l.58-.81C219.51,220.93,219.57,220.84,219.6,220.84Z" fill="#ec996f"/><path d="M219.09,230.29a7.78,7.78,0,0,1,.75-1.38c.5-.84,1.21-2,2-3.24.39-.63.76-1.23,1.07-1.78a2.09,2.09,0,0,0,.19-1.58,4.21,4.21,0,0,0-.72-1.35,1,1,0,0,1,.32.28,2.63,2.63,0,0,1,.58,1,2.21,2.21,0,0,1-.15,1.74c-.31.58-.67,1.18-1.07,1.81-.78,1.27-1.52,2.39-2.06,3.2A12.6,12.6,0,0,1,219.09,230.29Z" fill="#ec996f"/><path d="M223.54,231.14a5,5,0,0,1,.46-1.32c.18-.42.38-.89.6-1.38a11.18,11.18,0,0,0,.62-1.72,2,2,0,0,0-.26-1.65,1.51,1.51,0,0,0-.61-.43,1.64,1.64,0,0,0-.63-.18,2.53,2.53,0,0,0-.91.32c-.22.11-.34.16-.35.14s.09-.1.29-.23a3.77,3.77,0,0,1,.38-.23,1.52,1.52,0,0,1,.59-.19,1.92,1.92,0,0,1,.72.16,1.94,1.94,0,0,1,.71.48,2.21,2.21,0,0,1,.33,1.87,9.39,9.39,0,0,1-.66,1.75c-.23.52-.46,1-.65,1.37C223.78,230.66,223.58,231.15,223.54,231.14Z" fill="#ec996f"/><path d="M225.11,223.12s.13,0,.36.11a4.26,4.26,0,0,1,.88.52,4.8,4.8,0,0,1,1.37,6.14,3.72,3.72,0,0,1-.58.85c-.16.18-.26.26-.28.25a13.5,13.5,0,0,0,.7-1.18,5.19,5.19,0,0,0,.36-3.19,5.09,5.09,0,0,0-1.68-2.73C225.59,223.35,225.08,223.16,225.11,223.12Z" fill="#ec996f"/><path d="M210.18,218.24a48.33,48.33,0,0,1-4.06,6,50.4,50.4,0,0,1,4.06-6Z" fill="#ec996f"/><path d="M265.44,212.78l-5.29-1.2-5.09-4.79a3.64,3.64,0,0,0-2.27-1l-9.26-.53a3.63,3.63,0,0,0-2.54.85l-6.62,5.59,28.88,14.08,4,.35Z" fill="#fbbd9d"/><path d="M249.46,210.31s-.69-.08-1.78-.22a7.79,7.79,0,0,0-4.2.43,11.16,11.16,0,0,0-2,1.25c-.58.44-1.11.85-1.57,1.16a9.48,9.48,0,0,1-1.15.67,1.53,1.53,0,0,1-.45.16s.61-.32,1.49-1c.45-.33.95-.75,1.54-1.2a10.27,10.27,0,0,1,2-1.3,6,6,0,0,1,2.37-.53,10.35,10.35,0,0,1,2,.15c.55.09,1,.19,1.3.27A1.53,1.53,0,0,1,249.46,210.31Z" fill="#ec996f"/><path d="M251.36,215.46s-.38-.12-1-.19a5.4,5.4,0,0,0-2.38.34,12.09,12.09,0,0,0-2.18,1.12,4.51,4.51,0,0,1-.9.5,3.57,3.57,0,0,1,.79-.66,9.33,9.33,0,0,1,2.2-1.21,4.76,4.76,0,0,1,2.5-.27A2.08,2.08,0,0,1,251.36,215.46Z" fill="#ec996f"/><path d="M263.27,216.32c-.06,0-.81-1.07-1.79-2.38a29.6,29.6,0,0,1-1.77-2.4,17.89,17.89,0,0,1,3.56,4.78Z" fill="#ec996f"/><path d="M248.69,205.83l11.74-10.93a1.12,1.12,0,0,0-.08-1.71h0a1.12,1.12,0,0,0-1.43.05l-13.76,12.34" fill="#e7515b"/><g opacity="0.3"><path d="M248.69,205.83l11.74-10.93a1.12,1.12,0,0,0-.08-1.71h0a1.12,1.12,0,0,0-1.43.05l-13.76,12.34"/></g><path d="M246.49,101.64a14,14,0,0,1,3.09-12.44,18.3,18.3,0,0,1,8.52-5.07,19.75,19.75,0,0,1,13.23.3c4.14,1.75,7.51,5.62,8,10.09.21,2-.16,4.15.49,6.09a4.53,4.53,0,0,1,.51,2.56,2.11,2.11,0,0,1-1.83,1.39,4.77,4.77,0,0,1-2.36-.48,25.52,25.52,0,0,1-6.71-4.82" fill="#231f20"/><path d="M246.42,103.81c.41-6.34,4.63-14.1,10.94-13.42l19.7,5a3.71,3.71,0,0,1,3.31,3.77l-2.21,47.53h0L265.26,162s-8.24-9.59-8.76-12.5h0a8,8,0,0,1-.14-1,31.12,31.12,0,0,1-.08-6.52h0c0-3.84,0-5.41,0-5.38s-8.09-1.36-9.74-11.92C245.68,119.46,246,110.85,246.42,103.81Z" fill="url(#linear-gradient-4)"/><path d="M249.55,111.47a1.36,1.36,0,0,0,1.3,1.37,1.31,1.31,0,0,0,1.4-1.22,1.36,1.36,0,0,0-1.3-1.37A1.29,1.29,0,0,0,249.55,111.47Z" fill="#263238"/><path d="M248.28,108.29c.17.18,1.19-.58,2.65-.57s2.52.74,2.68.56-.09-.4-.55-.74a3.73,3.73,0,0,0-2.15-.67,3.61,3.61,0,0,0-2.11.68C248.35,107.89,248.2,108.21,248.28,108.29Z" fill="#263238"/><path d="M263.87,111.47a1.36,1.36,0,0,0,1.3,1.37,1.3,1.3,0,0,0,1.4-1.22,1.35,1.35,0,0,0-1.3-1.37A1.29,1.29,0,0,0,263.87,111.47Z" fill="#263238"/><path d="M262.6,108.6c.17.17,1.2-.58,2.65-.58s2.53.74,2.69.56-.09-.4-.56-.74a3.81,3.81,0,0,0-2.15-.66,3.57,3.57,0,0,0-2.11.67C262.67,108.2,262.52,108.52,262.6,108.6Z" fill="#263238"/><path d="M257.29,119.39a9.83,9.83,0,0,0-2.37-.43c-.37,0-.72-.12-.78-.37a1.87,1.87,0,0,1,.25-1.1c.35-.9.72-1.84,1.1-2.83,1.54-4,2.66-7.35,2.49-7.41s-1.54,3.16-3.08,7.19l-1.06,2.85a2.15,2.15,0,0,0-.19,1.46.91.91,0,0,0,.61.54,2.22,2.22,0,0,0,.63.09A9.29,9.29,0,0,0,257.29,119.39Z" fill="#263238"/><path d="M256.24,136.63a26.79,26.79,0,0,0,14.15-3.74s-3.57,7.3-14.13,6.29Z" fill="#ec996f"/><path d="M261.58,120.41c-.24,0-.25,1.57-1.6,2.69s-3,.94-3.06,1.16.38.31,1.09.33a4,4,0,0,0,2.55-.88,3.46,3.46,0,0,0,1.24-2.26C261.86,120.79,261.68,120.4,261.58,120.41Z" fill="#263238"/><path d="M262,106c.14.4,1.6.21,3.31.42s3.09.68,3.32.33c.1-.17-.14-.54-.7-.93a5.75,5.75,0,0,0-5-.57C262.21,105.54,261.89,105.85,262,106Z" fill="#263238"/><path d="M248.82,104.08c.26.33,1.26,0,2.47,0s2.23.23,2.47-.12c.1-.16-.06-.5-.51-.81a3.45,3.45,0,0,0-2-.55,3.51,3.51,0,0,0-2,.66C248.85,103.57,248.71,103.91,248.82,104.08Z" fill="#263238"/><path d="M289.48,123.69c-2.74,1.13-5.18-7.31-7.69-8.88s-5,3.78-5.24.82c-.17-2.6.7-5.46-.65-7.7-1.79-3-6.44-3.07-8.24-6-1.05-1.71-.85-4-2-5.65s-3-2.2-4.91-2.49-3.82-.36-5.5-1.22-3-2.82-2.38-4.6a100.24,100.24,0,0,1,23.72,1.1c1.81.31,3.73.72,5,2s1.71,3.45,2,5.38c1.38,9.39,4.49,17.83,5.86,27.23" fill="#231f20"/><path d="M246.25,105.2c.53-6.19,4.25-14,9.88-16.68s12.27-2.94,17.39.59c5.54,3.81,7,10.23,7.72,16.92s-.36,9.1-1.92,15.65l-.67,14.41c3.87,4.41,8.93-.58,9.67-.93s3.48-5,3.86-5.7c4-7.54-2.18-8.65-1.12-12.89a20.55,20.55,0,0,0-.79-12.85c-.8-1.9-1.92-3.67-2.57-5.62-.7-2.14-.81-4.46-1.7-6.53a12,12,0,0,0-5.09-5.44,24.83,24.83,0,0,0-7.12-2.55c-5.71-1.28-9.5-3.48-15-1.47s-9.33,4.9-11.89,12.07a26,26,0,0,0-.66,11" fill="url(#linear-gradient-5)"/><path d="M289.29,133.53c0,.05-.36.54-1.25,1a6.69,6.69,0,0,1-3.85.8,6.82,6.82,0,0,1-3.62-1.52c-.77-.66-1.08-1.22-1-1.26s.47.41,1.26,1a7.07,7.07,0,0,0,7.08.69C288.76,133.85,289.24,133.47,289.29,133.53Z" fill="#263238"/><path d="M277.34,116.88c0-.79.92-2.64,1.69-2.76,2.08-.32,5.82-.14,5.84,5.12,0,7.2-7.2,5.75-7.22,5.54S277.33,119.59,277.34,116.88Z" fill="#fbbd9d"/><path d="M279.84,122.05s.13.08.34.18a1.24,1.24,0,0,0,.94,0,3.09,3.09,0,0,0,1.42-2.79,4,4,0,0,0-.36-1.79,1.44,1.44,0,0,0-.95-1,.63.63,0,0,0-.74.35c-.09.2,0,.34-.08.35s-.16-.11-.1-.41a.74.74,0,0,1,.28-.45.9.9,0,0,1,.69-.19,1.75,1.75,0,0,1,1.32,1.11,4.21,4.21,0,0,1,.44,2c0,1.46-.77,2.82-1.81,3.12a1.36,1.36,0,0,1-1.15-.18C279.85,122.22,279.82,122.06,279.84,122.05Z" fill="#ec996f"/><path d="M273.52,121.24s-8.44,7.59-16.6,6.47-11-6.47-11-6.47-1.29,7.79,2.32,11.65c4,4.28,5.83,5.46,14.32,4s13.08-11.08,13.08-11.08Z" fill="#f5f5f5"/><path d="M277.86,115a14.73,14.73,0,0,1-2,3.37,15.45,15.45,0,0,1-2.42,3.08,14.73,14.73,0,0,1,2-3.37A15,15,0,0,1,277.86,115Z" fill="#f5f5f5"/><path d="M279.15,125c0,.15-.78.3-1.73.52s-1.73.44-1.79.3.66-.57,1.67-.8S279.15,124.86,279.15,125Z" fill="#f5f5f5"/><path d="M271.57,124.94a5.59,5.59,0,0,1-.78.91,23.58,23.58,0,0,1-2.44,2.16,19,19,0,0,1-9.9,4.08,13.5,13.5,0,0,1-10.06-3.38,9.55,9.55,0,0,1-2-2.58,4.24,4.24,0,0,1-.46-1.11,14.52,14.52,0,0,0,2.72,3.42,13.52,13.52,0,0,0,9.77,3.13,19.83,19.83,0,0,0,9.72-3.85C270.33,126.12,271.5,124.87,271.57,124.94Z" fill="#263238"/><path d="M267.23,130.28a7.35,7.35,0,0,1-2,1.41A16.07,16.07,0,0,1,253.59,133a7.28,7.28,0,0,1-2.28-.93c0-.08.91.26,2.37.57A18.09,18.09,0,0,0,265,131.36C266.4,130.73,267.17,130.2,267.23,130.28Z" fill="#263238"/><path d="M181.46,448.83a4.34,4.34,0,0,1,.2-.48c.16-.33.37-.79.64-1.37a34.51,34.51,0,0,0,1.9-5.5c1.25-4.89,1.69-12.36-.17-21.23A114.22,114.22,0,0,0,180.1,406c-1.67-5.07-3.61-10.44-5.19-16.24a62.89,62.89,0,0,1-2.56-18.67c.24-6.61,2.2-13.2,4.35-19.76s4.36-13,5-19.46a29.66,29.66,0,0,0-3.57-18c-2.85-5.24-6.43-9.73-9.11-14.37a50,50,0,0,1-5.47-13.82,51.62,51.62,0,0,1-.35-21.41,40,40,0,0,1,2.24-7.56,3.37,3.37,0,0,1-.14.51l-.45,1.45a57.42,57.42,0,0,0-1.39,5.65,52.08,52.08,0,0,0,.56,21.25,49.75,49.75,0,0,0,5.49,13.64c2.67,4.59,6.27,9.06,9.17,14.36a30.24,30.24,0,0,1,3.68,18.34c-.67,6.57-2.9,13-5,19.6s-4.09,13.08-4.33,19.57a62.59,62.59,0,0,0,2.5,18.48c1.55,5.78,3.47,11.15,5.11,16.23a113.75,113.75,0,0,1,3.88,14.35c1.8,8.94,1.29,16.48-.06,21.39a32.14,32.14,0,0,1-2,5.49l-.71,1.35A2.28,2.28,0,0,1,181.46,448.83Z" fill="#263238"/><path d="M172.69,304.1s-5.44-17.4,4.32-27.59a.61.61,0,0,1,1,.3C178.57,279.69,179.22,288.44,172.69,304.1Z" fill="url(#linear-gradient-6)"/><path d="M176,282.31a15.26,15.26,0,0,1-.36,3.21c-.36,2.21-.78,4.81-1.25,7.68l-1.21,7.67a17.61,17.61,0,0,1-.58,3.18,13.29,13.29,0,0,1,.1-3.24c.18-2,.53-4.72,1-7.72s1-5.71,1.44-7.66A15.19,15.19,0,0,1,176,282.31Z" fill="#263238"/><path d="M179.08,345.14s3.33-17.92,16.72-22.37a.61.61,0,0,1,.78.75C195.7,326.31,192.18,334.35,179.08,345.14Z" fill="url(#linear-gradient-7)"/><path d="M192.16,327.4a16.38,16.38,0,0,1-1.83,2.67l-4.68,6.2L181,342.49a16.34,16.34,0,0,1-2,2.53,14.64,14.64,0,0,1,1.6-2.81c1.09-1.67,2.68-3.93,4.52-6.35s3.57-4.57,4.85-6.09A14.41,14.41,0,0,1,192.16,327.4Z" fill="#263238"/><path d="M175.47,390.11s-2-18.12,9.5-26.26a.61.61,0,0,1,1,.49C185.89,367.26,184.86,376,175.47,390.11Z" fill="url(#linear-gradient-8)"/><path d="M182.82,369.34a15.72,15.72,0,0,1-1,3.08l-2.68,7.3c-1,2.73-1.9,5.2-2.66,7.3a19.1,19.1,0,0,1-1.17,3,13.19,13.19,0,0,1,.71-3.16c.56-1.92,1.42-4.53,2.48-7.39s2.08-5.4,2.87-7.24A14.84,14.84,0,0,1,182.82,369.34Z" fill="#263238"/><path d="M185.55,435.34s-1.37-18.18,10.44-25.9a.6.6,0,0,1,.94.52C196.79,412.88,195.45,421.55,185.55,435.34Z" fill="url(#linear-gradient-9)"/><path d="M193.65,414.85a15.56,15.56,0,0,1-1.08,3l-2.94,7.2c-1.1,2.69-2.08,5.13-2.92,7.2a18.29,18.29,0,0,1-1.28,3,13.09,13.09,0,0,1,.82-3.13c.63-1.89,1.59-4.48,2.74-7.29s2.28-5.33,3.14-7.13A14.09,14.09,0,0,1,193.65,414.85Z" fill="#263238"/><path d="M164.87,288.81s-16.16-8.44-16.47-22.54a.6.6,0,0,1,.94-.52C151.74,267.41,158.4,273.13,164.87,288.81Z" fill="url(#linear-gradient-10)"/><path d="M151.75,271.11a16,16,0,0,1,2,2.53l4.56,6.3,4.57,6.28a16.66,16.66,0,0,1,1.84,2.66,14.81,14.81,0,0,1-2.22-2.36c-1.28-1.53-3-3.71-4.74-6.18s-3.32-4.75-4.4-6.43A14,14,0,0,1,151.75,271.11Z" fill="#263238"/><path d="M182.23,326.18s-16.65-7.44-17.82-21.5a.61.61,0,0,1,.91-.58C167.82,305.61,174.81,310.92,182.23,326.18Z" fill="url(#linear-gradient-11)"/><path d="M168.05,309.31a16.31,16.31,0,0,1,2.17,2.4c1.42,1.73,3.08,3.77,4.93,6l4.94,6a17.16,17.16,0,0,1,2,2.53,13.33,13.33,0,0,1-2.36-2.21c-1.37-1.45-3.19-3.53-5.11-5.88s-3.61-4.54-4.78-6.15A15,15,0,0,1,168.05,309.31Z" fill="#263238"/><path d="M172.65,367.86s-11.43-14.2-6.07-27.25a.6.6,0,0,1,1.07-.1C169.19,343,173,350.9,172.65,367.86Z" fill="url(#linear-gradient-12)"/><path d="M167.72,346.39a16.57,16.57,0,0,1,.83,3.12c.47,2.19,1,4.76,1.65,7.6s1.19,5.4,1.67,7.59a18.68,18.68,0,0,1,.63,3.17,13.18,13.18,0,0,1-1.09-3.05c-.56-1.92-1.24-4.59-1.88-7.57s-1.14-5.68-1.45-7.65A13.71,13.71,0,0,1,167.72,346.39Z" fill="#263238"/><path d="M184,416.92s-16.52-7.72-17.45-21.8a.59.59,0,0,1,.91-.56C169.91,396.11,176.81,401.53,184,416.92Z" fill="url(#linear-gradient-13)"/><path d="M170.08,399.81a15.31,15.31,0,0,1,2.12,2.44c1.4,1.75,3,3.81,4.83,6.09l4.85,6.08a17.79,17.79,0,0,1,2,2.56,13.73,13.73,0,0,1-2.32-2.25c-1.35-1.47-3.13-3.58-5-6s-3.53-4.59-4.68-6.22A15,15,0,0,1,170.08,399.81Z" fill="#263238"/><path d="M216.86,345.24s0,.14,0,.4,0,.7,0,1.16c-.05,1.1-.12,2.58-.2,4.43-.21,3.88-.51,9.3-.86,15.78v0c-1.18,6.6-4.54,13.91-9,21-3.31,5.23-6.78,10-9.77,14.4a100.83,100.83,0,0,0-7.33,12.12,51,51,0,0,0-3.43,8.88c-.29,1.09-.51,1.94-.63,2.52a5.32,5.32,0,0,1-.24.88,3.82,3.82,0,0,1,.1-.9c.08-.59.26-1.46.51-2.56a47.1,47.1,0,0,1,3.25-9,97.81,97.81,0,0,1,7.25-12.26c3-4.45,6.42-9.21,9.71-14.42,4.49-7.06,7.83-14.26,9.06-20.75v0c.46-6.48.84-11.89,1.11-15.78l.36-4.41c0-.46.08-.84.11-1.16A2.42,2.42,0,0,1,216.86,345.24Z" fill="#263238"/><path d="M207,386.7s7-16.84-1.8-27.87a.61.61,0,0,0-1.06.21C203.39,361.85,202,370.51,207,386.7Z" fill="#e7515b"/><path d="M205.76,364.7a15.3,15.3,0,0,1,.55,3.19c.25,2,.53,4.72.74,7.75s.32,5.79.32,7.79a13.31,13.31,0,0,1-.19,3.23,17.36,17.36,0,0,1-.29-3.22c-.15-2.23-.32-4.85-.52-7.75s-.38-5.52-.54-7.76A15.56,15.56,0,0,1,205.76,364.7Z" fill="#263238"/><path d="M207,386.7s7-16.84-1.8-27.87a.61.61,0,0,0-1.06.21C203.39,361.85,202,370.51,207,386.7Z" fill="url(#linear-gradient-14)"/><path d="M185.37,427.27s5.6-17.35-4.06-27.63a.61.61,0,0,0-1,.29C179.72,402.8,179,411.55,185.37,427.27Z" fill="#e7515b"/><path d="M182.31,405.45a13.59,13.59,0,0,1,.81,3.13c.41,1.95.91,4.66,1.37,7.67s.79,5.74.95,7.73a13.39,13.39,0,0,1,.07,3.24A17.13,17.13,0,0,1,185,424c-.33-2.22-.71-4.82-1.14-7.69s-.83-5.47-1.17-7.68A17,17,0,0,1,182.31,405.45Z" fill="#263238"/><path d="M185.37,427.27s5.6-17.35-4.06-27.63a.61.61,0,0,0-1,.29C179.72,402.8,179,411.55,185.37,427.27Z" fill="url(#linear-gradient-15)"/><path d="M215.94,366.13s14.93-10.46,13.43-24.49a.6.6,0,0,0-1-.39C226.2,343.2,220.34,349.74,215.94,366.13Z" fill="#e7515b"/><path d="M215.94,366.13s14.93-10.46,13.43-24.49a.6.6,0,0,0-1-.39C226.2,343.2,220.34,349.74,215.94,366.13Z" fill="url(#linear-gradient-16)"/><path d="M226.66,346.88a13.81,13.81,0,0,1-1.24,3c-.85,1.8-2.08,4.26-3.53,6.93s-2.84,5.06-3.91,6.75a13.67,13.67,0,0,1-1.89,2.62,16,16,0,0,1,1.48-2.87l3.72-6.82,3.7-6.83A17,17,0,0,1,226.66,346.88Z" fill="#263238"/><path d="M191.39,410.07s18-2.8,22.84-16.06a.61.61,0,0,0-.73-.8C210.69,394,202.56,397.3,191.39,410.07Z" fill="#e7515b"/><path d="M191.39,410.07s18-2.8,22.84-16.06a.61.61,0,0,0-.73-.8C210.69,394,202.56,397.3,191.39,410.07Z" fill="url(#linear-gradient-17)"/><path d="M209.5,397.52a15.18,15.18,0,0,1-2.43,2.13c-1.56,1.25-3.76,2.91-6.23,4.68s-4.78,3.29-6.48,4.33a13.76,13.76,0,0,1-2.86,1.52,16.48,16.48,0,0,1,2.6-1.92c1.82-1.3,4-2.81,6.34-4.49l6.34-4.5A15.64,15.64,0,0,1,209.5,397.52Z" fill="#263238"/><polygon points="170.08 443.23 175.24 477.12 195.88 477.08 202.83 443.23 170.08 443.23" fill="#455b64"/></svg>