<svg id="Layer_1" data-name="Layer 1" xmlns="http://www.w3.org/2000/svg" xmlns:xlink="http://www.w3.org/1999/xlink" viewBox="0 0 500 500"><defs><linearGradient id="linear-gradient" x1="216.53" y1="160.4" x2="396.4" y2="160.4" gradientUnits="userSpaceOnUse"><stop offset="0" stop-color="#fcdc58"/><stop offset="1" stop-color="#fde796"/></linearGradient></defs><title>gambar lain</title><path d="M258.83,176.2s-8.6,32.27-83.4,37.83-101,43.86-90,108.33c11.27,66,62,66.91,134.94,113.18s138.78,46,201.47,15.25,79.58-144.86,40-212.3-55-99.91-100.62-103.43S258.83,176.2,258.83,176.2Z" fill="#fff7ed"/><path d="M197.25,176.44s1.28-11,25.47-16.31S253.65,141,247,120.46c-6.81-21-23.42-18.94-49.47-30.61S150,81.37,131,94.39s-19.16,51.12-3,71.3,22.72,30.05,37.79,29.05S197.25,176.44,197.25,176.44Z" fill="#fff7ed"/><path d="M363.37,351.29c16.45,29.08,16.21,75.92,16,77.73-.32,2.35-4.88,5.79-4.88,5.79l-14.36-27-1.26-2.36-.63-1.19-.33-.62c.33,11.7-7.16,41.3-7.16,42.27,0,.48-1.81,1-3.64,1.33s-3.84.63-3.84.63c-1.62-8.46-22.76-105.7-22.76-105.7l-.25-.33-.59-.79h0c-12.09-16.57-10.55-34-10.78-49.59-.25-15.94,0-75.62,0-75.62s11.94,4.15,29.5-2.68a98.54,98.54,0,0,0,19.17-10,61.76,61.76,0,0,0,7.89-6.15s11.32,16,16.2,31.31-1.95,35.45-8.46,51.71c-4.2,10.51-15.16,29.09-22.37,40.9-.61,1-1.2,2-1.75,2.88l0,0c-3,4.83-5,8-5,8h0l.66.33c7.85,3.92,14,10.79,18.66,19.14Z" fill="#871a4f"/><path d="M373.15,280C366.64,296.28,344,331.81,344,331.81c8.18,3.87,14.48,10.89,19.33,19.48h0c.57,17.55-1.57,41.16-3.28,56.48l-2.22-4.17c.33,11.7-7.16,41.3-7.16,42.27,0,.48-1.81,1-3.64,1.33,1.88-17.31,5.07-55.87-1.07-77-8.07-27.8-11.55-33.69-11.55-33.69s37.68-65.82,36.7-87.29c-.85-18.93-8.15-34.78-13.63-46.07a61.76,61.76,0,0,0,7.89-6.15s11.32,16,16.2,31.31S379.66,263.77,373.15,280Z" fill="#711243"/><path d="M396.4,166c0,15.85-7.8,48.53-7.8,48.53-.68-.3-2.31-.87-4.28-1.53-4.39-1.47-10.36-3.34-10.36-3.34s.11-2.89.15-7.14c.06-6.79-.07-17.07-1.12-24.57-1.71-12.19-5.85-30.49-5.85-30.49-2-1.95-23.18-13.17-23.18-13.17s.49,8.54,1.47,12.44,5.36,19.51,8.29,27.07S365.41,197,365.41,197a61.81,61.81,0,0,1-8.17,6.33,98.61,98.61,0,0,1-18.89,9.77c-17.56,6.83-29.5,2.68-29.5,2.68-3.59-14.14-12.77-28.76-18-36.29-2.25-3.24-3.75-5.17-3.75-5.17a10.85,10.85,0,0,1-8.78-2c1,8.78-4.15,21.71-14.05,34.83S231,234.71,231,234.71c-1.94.44-4.62-.07-7.16-.84a51.48,51.48,0,0,1-7.35-3s30.37-44.39,33.05-47.8,2.44-8.3,2.92-22.33c.27-7.5.67-17.55,1.1-26.28.09-1.91-.1-5.56,0-7.31,7.52,3,15,3.53,19.39-4.57,3.06-5.7,6.44-17,8.78-25.73l7.06-2.81a18.21,18.21,0,0,1,3.53-2.39c2.22,3.87,5.55,8.07,11.61,9.22,13.92,2.65,20-7.9,20.37-15,1,.33,2.43.75,3.54,1.27,16.42,7.6,48.61,34.52,58.45,44,1.07,1,1.9,1.88,2.38,2.44C394.2,140,396.4,150.19,396.4,166Z" fill="url(#linear-gradient)"/><path d="M301.4,168.65s-6.47,7-10.51,10.85c-2.25-3.24-3.75-5.17-3.75-5.17a10.85,10.85,0,0,1-8.78-2c1,8.78-4.15,21.71-14.05,34.83S231,234.71,231,234.71c-1.94.44-4.62-.07-7.16-.84,6-3.41,25.41-15,33.76-28.32,9.93-15.8,14.1-39.52,12-49,.29.62,4.82,10.56,13.11,12.07C291.32,170.22,301.4,168.65,301.4,168.65Z" fill="#231f20" opacity="0.05"/><path d="M374.11,202.56c.06-6.79-.07-17.07-1.12-24.57-1.71-12.19-5.85-30.49-5.85-30.49-2-1.95-23.18-13.17-23.18-13.17s.49,8.54,1.47,12.44,5.36,19.51,8.29,27.07S365.41,197,365.41,197a61.81,61.81,0,0,1-8.17,6.33c-2.77-6.76-7.71-19.76-11.24-31-3.95-12.57-3.14-18.17-3.14-18.17a26.17,26.17,0,0,1-12.92,8.39s10.52-8.45,9.7-19.27-5.62-23.49-5.19-24.16,30,15.15,35.9,24.16S374.11,202.56,374.11,202.56Z" fill="#231f20" opacity="0.05"/><path d="M324.48,88.36c-.27,5-3.79,11.9-11.11,14a18.43,18.43,0,0,1-8.57.22,16,16,0,0,1-11.29-8.1,27,27,0,0,1-3.24-12c.31-3.66.58-7,.58-10.16,0-6.45-1.17-12.17-5.65-18.21-6.49-8.72-10.16-12.24-15.84-11.6l-.53.08c-6,.92-7.23,6.44-11.54,10.14-5.32,4.57-7.83,6.22-11.75,6.92s-4.39,4.38,0,15.91c4.16,11,11.24,18.58,21.24,21.29.52.14,1.05.28,1.58.39A19.75,19.75,0,0,0,282,95.51a16.89,16.89,0,0,0,3.33-2.4c-.41,1.64-.91,3.55-1.47,5.62-.08.34-.18.68-.27,1-2.21,8.06-5.25,18.13-8,23.29a12,12,0,0,1-.69,1.17v0c-4.16,6.59-10.65,7.48-17.38,4.84a30.34,30.34,0,0,1-5-2.57c-8.76-5.53-3.23-15.91-5.22-28.79s-9.53-22.47-12.15-38.46,6.5-25.36,12.15-29.52a24.69,24.69,0,0,1,6.71-3.51c12.32-4.18,26.17,2.48,34.72,12.19C298.81,50,306,61.72,313.79,69.09s9.69,10.84,10.61,17.3A9.72,9.72,0,0,1,324.48,88.36Z" fill="#231f20"/><path d="M283.54,99.76c-2.21,8.06-5.25,18.13-8,23.29a12,12,0,0,1-.69,1.17,68.3,68.3,0,0,0-2.45-17,27.08,27.08,0,0,0-5.59-10.43c.52.14,1.05.28,1.58.39A19.75,19.75,0,0,0,282,95.51,32.18,32.18,0,0,1,283.54,99.76Z" fill="#2b1c1e"/><path d="M290.76,104.24a4.89,4.89,0,0,1-3,1.39c-3.46.32-7.46-2.86-10.64-5.73-1.34-1.18-2.53-2.32-3.48-3.11a19,19,0,0,0,12.73-6.07A16.2,16.2,0,0,0,290,84.07a66.08,66.08,0,0,1,2.39,10.67C292.85,98.76,292.63,102.47,290.76,104.24Z" fill="#f2b6ac"/><path d="M292.36,94.74c-4.45,3.62-11.68,4.61-15.22,5.16-1.34-1.18-2.53-2.32-3.48-3.11a19,19,0,0,0,12.73-6.07A16.2,16.2,0,0,0,290,84.07,66.08,66.08,0,0,1,292.36,94.74Z" fill="#f6958f"/><path d="M290.27,82.47a16.72,16.72,0,0,1-1,4.7,15.91,15.91,0,0,1-2.52,4.4,14.06,14.06,0,0,1-1.44,1.55,17.89,17.89,0,0,1-12.52,4.59,22.16,22.16,0,0,1-4.38-.48c-10.84-2.31-18.45-10.15-22.83-21.68s-3.92-15.22,0-15.91,6.43-2.35,11.76-6.92c3.67-3.15,5.11-7.64,9.17-9.45a8.69,8.69,0,0,1,2.36-.69c6-.92,9.68,2.53,16.37,11.53S291.2,71.4,290.27,82.47Z" fill="#f2b6ac"/><path d="M275.16,58c-.72-.12-6.56-.78-9.94,1.75s-3,4.93-1.2,5,2.65-1.12,4.82-3.27S275.16,58,275.16,58Z" fill="#3e2b2c"/><path d="M246.5,73.87a7.24,7.24,0,0,1,4-6.53c4.22-2.17,5.48-.14,5.6.78C256.3,69.89,250.46,70.69,246.5,73.87Z" fill="#3e2b2c"/><polygon points="343.24 447.82 322.26 459.69 355.43 459.69 350.71 445.87 343.24 447.82" fill="#916728"/><polygon points="374.46 434.82 358.11 459.69 391.29 444.81 379.33 429.02 374.46 434.82" fill="#916728"/><path d="M268.13,89.87c.13-.6,7.37-4.88,11.43-8.44,0,0,3.37,4.27-1.13,8.42S268.13,89.87,268.13,89.87Z" fill="#fff"/><path d="M255.3,77.34c.55,2,.51,3.81-.07,4s-1.52-1.36-2.06-3.39-.51-3.8.08-4S254.76,75.31,255.3,77.34Z" fill="#3e2b2c"/><path d="M270.65,71.46c.55,2,.51,3.81-.08,4s-1.5-1.37-2-3.4-.51-3.8.07-4S270.11,69.43,270.65,71.46Z" fill="#3e2b2c"/><path d="M261.83,88.72a.22.22,0,0,1-.11,0,.36.36,0,0,1-.25-.27l-3.53-16.61a.37.37,0,0,1,.28-.43.37.37,0,0,1,.44.28l3.4,16a13.27,13.27,0,0,0,3.27-4.37.37.37,0,0,1,.46-.24.38.38,0,0,1,.24.47c-.8,2.37-3.83,5-4,5.12A.32.32,0,0,1,261.83,88.72Z" fill="#3e2b2c"/><path d="M340.91,239c-.22,1.34-17.36,86.3-20.69,102.78l-.59-.79h0c3.56-17.64,20.35-100.79,20.56-102.09a.38.38,0,0,1,.42-.3A.35.35,0,0,1,340.91,239Z" fill="#711243"/><path d="M383.72,234.71a1.18,1.18,0,0,1-.61-.31c-.85-.75-.63-2.57-.22-4.13-1.07,3.07-3,7.81-4.29,7.48-1.75-.44.44-8.37,1.07-10.5-.85,2.6-4.81,14.33-6.93,13.92-2.43-.5,2.69-14.88,2.69-15.62s-3.17,12-5.73,10.49,3.78-17.81,4.27-18.54-6.34,6.59-8.29,3.91,7.56-11.22,8.29-11.71l10.34,3.45,4.29,1.42C389.33,221.41,386.4,235.31,383.72,234.71Z" fill="#f2b6ac"/><path d="M383.72,234.71a1.18,1.18,0,0,1-.61-.31,40.51,40.51,0,0,0,1.2-21.25l4.29,1.42C389.33,221.41,386.4,235.31,383.72,234.71Z" fill="#f6958f"/><path d="M208.93,405.48l-.08-.75L205.33,374l0,0c-.5-.23-13.24-6.21-25.66-11.74-6.22-2.78-12.36-5.45-16.83-7.21-1.75-.7-3.39-1.35-4.92-2l-.08,0a41.28,41.28,0,0,1-8-4.11c-5.14-3.6-8.06-8.76-9.18-19.56-1.85-17.88-9.22-81.94-11.54-91.18-2.19-8.69-2.87-19.68-13.35-19.48l-2.07.17c-7.79,1.1-12,3.33-9.24,30.95,1.73,17.17,10.14,73.62,16.91,114.79,0,.27.09.55.13.82,4.06,24.69,7.51,43.7,8.5,45.09,2.65,3.69,83.78,37.11,83.78,37.11Z" fill="#d9e8e7"/><polygon points="213.77 442.09 218.09 475.04 225.66 475.04 227.51 441.5 213.77 442.09" fill="#a1d1ce"/><path d="M349.78,362.44h0c-.63.09-39.78,5.63-65,7.23l-.72,0c-25.37,1.55-78.74,4.31-78.74,4.31l3.52,30.71.08.75,4.84,42.15L344.36,442l3.18-46.63,0-.7,2.2-32.18Z" fill="#c2dbda"/><path d="M347.58,394.62l0,.7L208.93,405.48h0a.4.4,0,0,1-.15,0l-87.26-40c0-.27-.09-.55-.13-.82l87.49,40.12.11,0Z" fill="#329c92"/><polygon points="330.38 442.65 335.4 475.04 342.96 475.04 343.89 442.09 330.38 442.65" fill="#a1d1ce"/><path d="M322.52,343.62c-22.33-7.6-77.15-19.81-80.81-24.43s-20.74-109-20.74-109l-105.2,8.53c10.48-.2,11.15,10.78,13.34,19.49,2.32,9.24,9.69,73.3,11.54,91.17,1.11,10.8,4,16,9.17,19.55,1.75,1,4.56,2.47,8,4.13,1.55.64,3.21,1.3,5,2,4.47,1.76,10.61,4.43,16.83,7.21C192.32,367.9,205.33,374,205.33,374s26.17-1.38,78.74-4.31c25.37-1.54,65.71-7.27,65.71-7.27C350.07,358.27,344.86,351.22,322.52,343.62Z" fill="#c2dbda"/><path d="M135.43,413.72c.37.18,7.06,46.75,7.06,46.75h7.29V420.4Z" fill="#a1d1ce"/><path d="M295.62,464.31H284.07s-13.55-14.94-18.58-24.2h.42a105,105,0,0,0,13.22,2.14,108,108,0,0,0,15.76.33A102,102,0,0,0,295.62,464.31Z" fill="#f2b6ac"/><path d="M340.9,464.31H329.35s-9.9-10.64-11.59-24.77c3.19-.71,6.19-1.49,9-2.34a70.21,70.21,0,0,0,12.81-5.08C339.78,440.34,340.9,464.31,340.9,464.31Z" fill="#f2b6ac"/><path d="M286.88,464.31h-2.81s-13.55-14.94-18.58-24.2h.42a105,105,0,0,0,13.22,2.14C281.49,449.74,284.81,458.79,286.88,464.31Z" fill="#f6958f"/><path d="M332.58,464.31h-3.23s-9.9-10.64-11.59-24.77c3.19-.71,6.19-1.49,9-2.34C327.3,443.89,329.58,456.8,332.58,464.31Z" fill="#f6958f"/><path d="M329.35,357.36a2.3,2.3,0,0,1-2.17-1.53l-21-58.39a2.31,2.31,0,1,1,4.35-1.57l21,58.39a2.32,2.32,0,0,1-1.39,3A2.18,2.18,0,0,1,329.35,357.36Z" fill="#fff0cc"/><path d="M347.13,425.74c-1.1,2.13-3.74,4.3-7.59,6.38-5.26,2.81-12.78,5.43-21.78,7.42-3.76.83-7.76,1.55-12,2.13-3,.43-6,.68-8.9.83a124.91,124.91,0,0,1-19.11-.55,112.6,112.6,0,0,1-11.86-1.84l-1.25-.28s-13.17-22.18-18.94-43.9a129.05,129.05,0,0,1-4.33-29.81,79.52,79.52,0,0,1,.17-8.53s-26.33-.46-44.23-4.16-29.69-2.78-38.47-14.33-9.08-21.25-9.08-21.25c4.79-9,12.68-15.49,23.42-20.37A111.06,111.06,0,0,1,192.58,291l.63-.16c21.25-5.13,58.52-2.86,59.14-2.86,0,0,10.23,3.53,31.72,8.16A137.4,137.4,0,0,1,309,303.66a59.07,59.07,0,0,1,16.19,9.8c4.49,3.94,6,12.75,7.12,23.35.78,7.4,1.36,15.68,2.59,23.78C337.89,380.23,347.13,425.74,347.13,425.74Z" fill="#3e2b2c"/><path d="M347.13,425.74c-1.1,2.13-3.74,4.3-7.59,6.38-5.26,2.81-12.78,5.43-21.78,7.42-3.76.83-7.76,1.55-12,2.13-3,.43-6,.68-8.9.83a124.91,124.91,0,0,1-19.11-.55,112.6,112.6,0,0,1-11.86-1.84l-1.25-.28s-13.17-22.18-18.94-43.9a129.05,129.05,0,0,1-4.33-29.81c59.39,4.45,76.8-11.6,90.91-29.31.78,7.4,1.36,15.68,2.59,23.78C337.89,380.23,347.13,425.74,347.13,425.74Z" fill="#2b1c1e"/><path d="M309,303.66l-72.21,13.06-43.11-21.8L192.58,291l.63-.16c21.25-5.13,58.52-2.86,59.14-2.86,0,0,10.23,3.53,31.72,8.16A137.4,137.4,0,0,1,309,303.66Z" fill="#2b1c1e"/><path d="M277.77,442a112.6,112.6,0,0,1-11.86-1.84l-1.25-.28s-13.17-22.18-18.94-43.9-4.16-38.34-4.16-38.34-26.33-.46-44.23-4.16-29.69-2.78-38.47-14.33-9.08-21.25-9.08-21.25c4.79-9,12.68-15.49,23.42-20.37,2.66,8.54,9.31,20.85,16.74,29.72,8,9.55,53.37,20.26,74.72,11.06C264.66,338.26,252.54,401.81,277.77,442Z" fill="#2b1c1e"/><path d="M241.56,265.2S253,288,252.35,288s-37.89-2.29-59.14,2.86a112.41,112.41,0,0,0-20,6.63h0c-10.74,4.88-18.63,11.4-23.42,20.38,0,0-1.85-22.63.46-39.42,0,0-1.74-17.57-3-27.47-.5-3.88-.93-6.57-1.14-6.57-.46,0-5.58-1.12-9.92-2.08L130,240.93s.85-20.26,9-37.82a36.36,36.36,0,0,1,4.42-7.07c6.42-8.06,16.73-14.91,28.6-19.41a87.79,87.79,0,0,1,28.18-5.7,63,63,0,0,1,29,6.28c11.47,5.47,19.83,13.39,23.59,19.13,6.46,9.86,11.85,31.81,11.85,31.81s-9.24.46-17.51,1.78c-1.91.3-3.77.65-5.44,1.06,0,0,3.7,6.63,3.7,10.93A18.11,18.11,0,0,1,243,250.6a40.65,40.65,0,0,1-4.51,6.57l.24.65Z" fill="#f26222"/><path d="M143.41,196c-1.95,13.18-3.77,36.22-4.73,42.14l-2.52,4.13L130,240.93s.85-20.26,9-37.82A36.36,36.36,0,0,1,143.41,196Z" fill="#e05526"/><path d="M200.62,257.12a34.59,34.59,0,0,1-23.19-.11s-8.79,7.5-8.43,18.37c.27,7.76,2.79,17.29,4.2,22.09-10.74,4.88-18.63,11.4-23.42,20.38,0,0-1.85-22.63.46-39.42,0,0-1.74-17.57-3-27.47,2.24-3.32,3.9-5.23,4.13-5.15.69.23,10.08-7.65,10.08-7.65s-.24-13-.89-19.29c-.55-5.41-.71-8.05-.74-8.7.18,1.59,2.93,10.52,6.18,24.29C169.37,248.81,183.13,259,200.62,257.12Z" fill="#e05526"/><path d="M241.71,231s3.7,6.63,3.7,10.93A18.11,18.11,0,0,1,243,250.6a40.65,40.65,0,0,1-4.51,6.57l.24.65c-4.71,1.13-12.3-.7-12.3-.7,15.4-2.92,17.56-17.71,15.28-24.48S235,213.73,235,213.73c5.89,3.61,10.35,11.47,12.2,16.2C245.24,230.23,243.38,230.58,241.71,231Z" fill="#e05526"/><path d="M229.22,177.21c-4.89,4.71-13.78,10.36-28.31,10.36-15.14,0-24.16-6.13-28.9-10.94a87.63,87.63,0,0,1,28.19-5.69A62.89,62.89,0,0,1,229.22,177.21Z" fill="#e05526"/><path d="M229,152.4c-.18.72-.68,2.5-2,6.29-1.85,5.32-3.93,3.75-3.93,3.75s-5.08,13.11-10.85,15.93a14.93,14.93,0,0,1-5.08,1.31,31.6,31.6,0,0,1-19.94-5.08c-.21-.14-.42-.27-.62-.42l-.36-.27a21.2,21.2,0,0,1-7.63-12.5,15.64,15.64,0,0,1-.33-2.26c-6.24,0-7.62-12.7-6.7-14.09a21,21,0,0,0,3.7,2.77c.58.23,1.76.73,2.8,1.18l1.93.83c1.07-6,.93-9.46,4.25-13.24A2.21,2.21,0,0,1,185,136c.73-.36,1.43-.73,2.06-1.11h0c6.23-3.65,8.26-7.8,8.26-7.8l0,.05c.42.34,3.7,2.92,10.58,1.93,7.39-1.08,8.62-5.24,8.62-5.24s1.08-.77,5.4,1.54,4.3,12.62,4.3,12.62l-1,2.95c-.19.58-.42,1.3-.71,2.14-1.69,5.08-.3,10.62,3.39,10.32A7,7,0,0,0,229,152.4Z" fill="#f2b6ac"/><path d="M186.23,173.91a21.2,21.2,0,0,1-7.63-12.5,15.64,15.64,0,0,1-.33-2.26c-6.24,0-7.62-12.7-6.7-14.09a21,21,0,0,0,3.7,2.77c.58.23,1.76.73,2.8,1.18l1.93.83c1.07-6,.93-9.46,4.25-13.24A2.21,2.21,0,0,1,185,136c.73-.36,1.43-.73,2.06-1.11C184.56,146.35,183.06,162.59,186.23,173.91Z" fill="#f6958f"/><path d="M318.88,287.28a6.65,6.65,0,0,1-1.54,1.47c-3.47,2.31-1.16-3.24-1.16-3.24s-.46-5.31-3.47-6.93c0,0-.92,4-3.23,5-1.72.76-2.67-3.26-3-5.36-.13-.73-.19-1.24-.19-1.24s-1.17.36-3.27.76a68.32,68.32,0,0,1-21.57.62c-14.2-1.84-27.37-11.87-32-16.78a33.58,33.58,0,0,1-6.42-11,18.16,18.16,0,0,0,2.42-8.69c0-4.3-3.71-10.92-3.71-10.92,1.78-.43,3.75-.8,5.77-1.12,8.18-1.28,17.18-1.72,17.18-1.72s3.24,15.29,3.7,17.15c0,0,4.39-.92,16.17,6.47s17.79,13.42,17.79,13.42,14.09,2.41,17.33,8.24A13.1,13.1,0,0,1,318.88,287.28Z" fill="#f2b6ac"/><path d="M318.88,287.28a6.65,6.65,0,0,1-1.54,1.47c-3.47,2.31-1.16-3.24-1.16-3.24s-.46-5.31-3.47-6.93c0,0-.92,4-3.23,5-1.72.76-2.67-3.26-3-5.36l3.27.44s1.62-3,4.28-1.44A11.5,11.5,0,0,1,318.88,287.28Z" fill="#f6958f"/><path d="M284.07,464.31h11.55l18.48,10.17h-30Z" fill="#329c92"/><path d="M329.35,464.31H340.9l18.48,10.17h-30Z" fill="#329c92"/><path d="M190,141.83c-.46-.93,3.31-3.39,7.36-3.08s6.35,2,5.58,3.85-2.29.08-6.41-.62C191.43,141.13,190,141.83,190,141.83Z" fill="#ead7b6"/><path d="M214.41,144.94c-1.36.19-.15-3.85,3.55-4a6.83,6.83,0,0,1,5.47,2v2S221,144,214.41,144.94Z" fill="#ead7b6"/><path d="M193.67,167.54l15.09,1.55s-2.65,6.46-8.56,5.7S193.67,167.54,193.67,167.54Z" fill="#fff"/><path d="M234,144.29c-.88,4-2.71,6.73-5,8.11a7,7,0,0,1-3,1c-3.69.31-5.08-5.24-3.39-10.31l1.7-5.09s0-10.32-4.32-12.63-5.38-1.54-5.38-1.54-1.24,4.15-8.63,5.24-10.63-2-10.63-2-2.46,5.05-10.31,8.91a2.37,2.37,0,0,0-.8.61c-.83.88-2.14,2.94-3.21,7.7-.4,1.79-.75,3.69-1,5.54v0s-3.57-1.56-4.73-2a21.24,21.24,0,0,1-3.69-2.77c-.93,1.38.46,14.09,6.7,14.09a5.34,5.34,0,0,0,0,.61c.06.4.13,1,.28,1.65,0,0-11.57.9-9.26-19,0,0-5.05-9.24,4.47-17.4,0,0-.87-7.59,4.45-8.7a9.38,9.38,0,0,1,4.63.39s-.45-4.82,2.54-6.09c5.69-2.43,8.24,1.39,8.24,1.39s3-6.31,8.21-6.31c6.88,0,7,4.92,7,4.92s6.1-7.38,14.69-2.54c6.38,3.59,4,11.11,4,11.11a8.68,8.68,0,0,1,1.56,1.33,12.71,12.71,0,0,1,3.36,6.53c1.08,5.51-.77,7.76-.77,7.76A11.29,11.29,0,0,1,234,144.29Z" fill="#f5e7ca"/><polygon points="239.02 309.08 312.48 295.91 317.76 282.05 239.02 294.92 239.02 309.08" fill="#dda527"/><polygon points="239.02 294.92 317.76 282.05 272.98 260.1 197.16 272.36 239.02 294.92" fill="#fff0cc"/><path d="M206.68,371.68a2.34,2.34,0,0,1-1-.21,2.31,2.31,0,0,1-1.14-3.06l28.59-62.24a2.31,2.31,0,0,1,4.19,1.93l-28.58,62.23A2.3,2.3,0,0,1,206.68,371.68Z" fill="#fff0cc"/><path d="M166,357.36a2.24,2.24,0,0,1-1-.25,2.3,2.3,0,0,1-1-3.09l33.68-67.57a2.31,2.31,0,0,1,4.14,2.06l-33.68,67.57A2.35,2.35,0,0,1,166,357.36Z" fill="#fff0cc"/><polygon points="197.16 272.36 197.16 287.48 239.02 309.08 239.02 294.92 197.16 272.36" fill="#ffc72a"/><path d="M208.76,290.59a2.54,2.54,0,0,1-1.75,1.52,7,7,0,0,1-2.41.28c0,.06.05.13.08.19.67,2.11-2.32,3.06-7.52,1.71-5.36-1.39-10.1-9.7-10.1-9.7s-.94.69-19-1-30.95-8.46-36-16.33S130,240.93,130,240.93a83.9,83.9,0,0,1,8.9-3.81c13.91-5,22.28-3.59,22.28-3.59.93,6.94-.92,19.64-.92,19.64,11.32,5.83,28.88,15.75,28.88,15.75,10.16-2.72,17.32-3.05,18.13,0s-10.1,3.43-10.1,3.43a11,11,0,0,0,1.44,5.31,10.63,10.63,0,0,0,2.07,3,13.76,13.76,0,0,0,5.32,2.92c3,1.11,2.32,3,1.7,3.93a3.67,3.67,0,0,1-.43.55,1.64,1.64,0,0,1,.44.15A1.77,1.77,0,0,1,208.76,290.59Z" fill="#f2b6ac"/><path d="M201.76,149.54c-.29,2.12-1,3.77-1.59,3.69s-.82-1.87-.53-4,1-3.77,1.59-3.69S202.05,147.42,201.76,149.54Z" fill="#3e2b2c"/><path d="M219.71,151.9c-.29,2.11-1,3.77-1.59,3.68s-.82-1.86-.53-4,1-3.76,1.59-3.68S220,149.78,219.71,151.9Z" fill="#3e2b2c"/><path d="M208.76,163.89h-.06c-.24,0-5.7-1.08-7.09-2.9a.36.36,0,0,1,.07-.49.35.35,0,0,1,.48.07c1,1.29,4.89,2.29,6.51,2.61,2.26-2,2.75-12.68,2.75-15.26a.35.35,0,0,1,.69,0c0,.14-.13,13.65-3.14,15.91A.31.31,0,0,1,208.76,163.89Z" fill="#3e2b2c"/><path d="M175.61,156.27c-1.66-.26-1.93,3.85-.61,4.35S177.58,156.57,175.61,156.27Z" fill="#48aea7"/><path d="M226,161c-1.86-.44-3.36,3.6-1.62,4.41S227.83,161.43,226,161Z" fill="#48aea7"/><path d="M153,313.11a.36.36,0,0,1-.2-.06l.21-.27-.27-.22c.43-.54,10.5-12.88,31.73-19.68a.35.35,0,1,1,.21.66c-21,6.74-31,18.92-31.39,19.44A.39.39,0,0,1,153,313.11Z" fill="#48aea7"/><path d="M242.8,287.82a.29.29,0,0,1-.16,0l-24.7-12.46a.35.35,0,0,1-.19-.36.36.36,0,0,1,.29-.29l53.35-8.07a.34.34,0,0,1,.2,0l25,11.71a.34.34,0,0,1,.19.36.35.35,0,0,1-.28.3l-53.65,8.82Zm-23.58-12.63,23.63,11.93,52.43-8.63L271.39,267.3Z" fill="#3e2b2c"/><path d="M204.83,187.39c-2.61,2-7.22,2-10.51.78a7.09,7.09,0,0,1-3.19-2.11c-2-2.58-4.38-9.87-3.92-11.46a29.29,29.29,0,0,0,8.41,3.89,30.59,30.59,0,0,0,11.53,1.19C207.41,181.66,207.47,185.37,204.83,187.39Z" fill="#f2b6ac"/><path d="M195.62,178.49c-.63,3.2-1,6.81-1.3,9.68a7.09,7.09,0,0,1-3.19-2.11c-2-2.58-4.38-9.87-3.92-11.46A29.29,29.29,0,0,0,195.62,178.49Z" fill="#f6958f"/><path d="M207.7,288.2a7.2,7.2,0,0,1-1.72.19c-5.83,0-11.36-6-12.61-8.13a.33.33,0,0,1,.12-.46.34.34,0,0,1,.48.11c1.27,2.14,7.68,9,13.72,7.59a3.67,3.67,0,0,1-.43.55A1.64,1.64,0,0,1,207.7,288.2Z" fill="#3e2b2c"/><path d="M205.48,292.62c-6.29,0-11.81-5.46-12-5.7a.35.35,0,0,1,0-.5.36.36,0,0,1,.49,0c.06.07,6.27,6.21,12.72,5.44a.34.34,0,0,1,.39.3.34.34,0,0,1-.31.38A8.61,8.61,0,0,1,205.48,292.62Z" fill="#3e2b2c"/><path d="M224.31,138l-1,2.95c-2.76-1.25-2.75-7.79-2.56-9.88.24-2.45-4.61-6-4.61-6s-2.32,4.08-8.89,5.7c-6.22,1.54-11.32-3.11-11.86-3.62.42.34,3.7,2.92,10.58,1.93,7.39-1.08,8.62-5.24,8.62-5.24s1.08-.77,5.4,1.54S224.31,138,224.31,138Z" fill="#f6958f"/><path d="M113.69,218.87l2.08-.17A17.45,17.45,0,0,0,113.69,218.87Z" fill="#fad1e0"/><path d="M174.92,349.62h-.07c-13.79-2.6-21.32-16.1-23.59-23.66-2.52-8.39-2.43-32.83-2.43-33.86a.35.35,0,0,1,.35-.34h0a.35.35,0,0,1,.35.35c0,.25-.1,25.37,2.39,33.65,2.23,7.42,9.59,20.64,23.06,23.18a.36.36,0,0,1,.28.41A.35.35,0,0,1,174.92,349.62Z" fill="#3e2b2c"/><path d="M178.19,156.07a.35.35,0,0,1-.35-.33c-.08-3.25-2.67-6.08-2.7-6.11a.35.35,0,1,1,.51-.47c.11.12,2.8,3.05,2.89,6.56a.35.35,0,0,1-.35.35Z" fill="#3e2b2c"/><path d="M177.69,153.57H175.4a.35.35,0,1,1,0-.69h2.29a.35.35,0,1,1,0,.69Z" fill="#3e2b2c"/><path d="M251.53,255.89l3.7,25.1a21.53,21.53,0,0,0,9.78,0l2.69-25.1S258.77,258.07,251.53,255.89Z" fill="#329c92"/><path d="M251.53,255.89s9.55,2,16.17,0C267.7,255.89,258.76,254.05,251.53,255.89Z" fill="#329c92"/><path d="M244.45,273.61c-4.5-.18-11,1.16-10.28,5.31s8.43,4.25,13.67,2.62S252.14,273.91,244.45,273.61Z" fill="#9e772b"/><path d="M267.7,274.37a5.66,5.66,0,1,1,5.65,5.66A5.65,5.65,0,0,1,267.7,274.37Z" fill="#871a4f"/></svg>