<svg id="Layer_1" data-name="Layer 1" xmlns="http://www.w3.org/2000/svg" xmlns:xlink="http://www.w3.org/1999/xlink" viewBox="0 0 500 500"><defs><linearGradient id="linear-gradient" x1="243.19" y1="130.68" x2="334.63" y2="130.68" gradientUnits="userSpaceOnUse"><stop offset="0" stop-color="#dc3644"/><stop offset="1" stop-color="#e1645d"/></linearGradient></defs><title>gambar lain</title><path d="M223.06,463.92h0l-.91,0h-.06l-.61,0h-.07l-1.5.06h-.1l-.24,0h0l-1.33.05h0l-3.17.1q-10.11.24-19.48-.24a209.24,209.24,0,0,1-51.3-8.68A173.78,173.78,0,0,1,126.93,449c-1.34-.56-2.65-1.14-4-1.74l-.19-.08-.33-.16a160.35,160.35,0,0,1-39.4-25.62q-2.41-2.13-4.71-4.38c-.13-.11-.26-.24-.39-.37q-4.18-4.09-8-8.48a147.84,147.84,0,0,1-35.54-85.48c-3.89-49.74-4.62-147.18,43.51-185.23q2.18-1.72,4.53-3.42a4.44,4.44,0,0,1,.38-.27c1.15-.84,2.34-1.67,3.55-2.49a206.72,206.72,0,0,1,18.08-10.9h0l.58-.32,3.29-1.74.45-.23L109,118l1.14-.59.39-.19q3.87-2,7.92-3.87h0q5.89-2.77,12.12-5.41l.39-.16q3.93-1.66,8-3.25,2.4-.94,4.84-1.86l.54-.21q5-1.87,10.11-3.65c1.46-.51,2.93-1,4.41-1.49,0,0,0,0,0,0s0,0,0,0h0c3.38-1.14,6.75-2.23,10.19-3.28l.35-.11h0c4.22-1.28,8.48-2.5,12.75-3.65h0l.9-.24h0c1.66-.45,3.33-.89,5-1.3h0c1.71-.44,3.41-.86,5.12-1.27h0l4.24-1h0l.29-.07.47-.11,3.74-.82.52-.12c2.82-.6,5.65-1.18,8.46-1.72h0l3.42-.64.59-.11c62-11.16,119.08-4.77,121.8,36.53,5,75.81,113,19.16,129.06,139.13C481.86,377.55,371.87,456.72,223.06,463.92Z" fill="#e6e6e6"/><path d="M332.72,101.33c-8.11-17.91-31.29-19.94-43.13.61a6.07,6.07,0,0,1-8.39,2.2c-20.39-12.12-39.6,1-37.9,20.58,1.41,16.32,27.84,39,54,48.74a11,11,0,0,0,12.25-3.21C327.52,149,339.47,116.25,332.72,101.33Z" fill="url(#linear-gradient)"/><path d="M241.38,461.55a44.83,44.83,0,0,1-5,1l-7.13.59-5.21.42h0l-.19.08-.21.08-.26.09-.3.1h0a9.73,9.73,0,0,1-1.64.32,10.74,10.74,0,0,1-1.19.07c-.35,0-.72,0-1.1-.05s-.6-.07-.92-.13h0l-.5-.09h0l-2.66.19q-10.11.24-19.48-.24a209.24,209.24,0,0,1-51.3-8.68A173.78,173.78,0,0,1,126.93,449c-1.34-.56-2.65-1.14-4-1.74l-.19-.08-.33-.16a160.35,160.35,0,0,1-39.4-25.62q-2.41-2.13-4.71-4.38c-.13-.11-.26-.24-.39-.37q-4.18-4.09-8-8.48c0-.91,0-1.75,0-2.5.63-18.31,5.69-32.37,11.48-42.62h0l0,0,.15-.26c.75-1.33,1.52-2.58,2.29-3.78l.08-.13.28-.42C92,346.61,100,341.19,100,341.19l25.22-5.34,4.6-1,2.18-.46h0l10.39-2.22.46-.09.23-.05.83-.18h0l.53-.12h0l.36-.08h0l2.29-.48.63-.14h0l2.9-.61.55-.13h0l8.55-1.8,21,4.8h0l.44.1h0l.9.2.46.1,2.32.53h0l.52.13.49.11.45.1,4.71,1.08h0l.47.11h0l.45.11h0l2,.46,5.94,1.36,3.27.74h0l1,.24h0l7.84,1.79,4.13,17.17.05.16,0,.19h0L227,401.69Z" fill="#f1f2f2"/><path d="M195.54,464a209.24,209.24,0,0,1-51.3-8.68l19.33-80.62.06.13,0,.05v0l.13.34h0Z" fill="#939598"/><path d="M162.71,354.22a20.1,20.1,0,0,1,.3,3.09c.13,2.07.29,4.64.47,7.48s.28,5.57.32,7.49a17.76,17.76,0,0,1-.07,3.11,20.31,20.31,0,0,1-.3-3.09c-.13-2.08-.29-4.64-.47-7.48s-.28-5.57-.32-7.49A17.76,17.76,0,0,1,162.71,354.22Z" fill="#263238"/><path d="M173,364.64c0,.05-.37.14-1,.48a4.81,4.81,0,0,0-1.88,2.1,4,4,0,0,0,.2,4,4.24,4.24,0,0,0,7.82-1.24,4.08,4.08,0,0,0-1-3.85,4.8,4.8,0,0,0-2.45-1.41c-.67-.14-1.06-.11-1.06-.16a1,1,0,0,1,.28-.06,3.34,3.34,0,0,1,.82,0,4.88,4.88,0,0,1,3.81,3.14,4.24,4.24,0,0,1,.11,2.43,4.7,4.7,0,0,1-8.7,1.39,4.21,4.21,0,0,1-.65-2.35,4.57,4.57,0,0,1,.53-2.05,4.73,4.73,0,0,1,2.12-2.12,3.1,3.1,0,0,1,.77-.27A1,1,0,0,1,173,364.64Z" fill="#263238"/><path d="M191.12,416.29s-.37.14-1,.48a4.81,4.81,0,0,0-1.88,2.1,4,4,0,0,0,.19,4,4.25,4.25,0,0,0,7.83-1.24,4,4,0,0,0-1.05-3.85,4.78,4.78,0,0,0-2.44-1.41c-.67-.15-1.06-.11-1.06-.16a.7.7,0,0,1,.28-.06,3.34,3.34,0,0,1,.82,0,4.74,4.74,0,0,1,2.67,1.36,4.84,4.84,0,0,1,1.14,1.78,4.33,4.33,0,0,1,.11,2.43,4.7,4.7,0,0,1-8.7,1.39,4.31,4.31,0,0,1-.66-2.35,4.85,4.85,0,0,1,.53-2.05,4.73,4.73,0,0,1,2.12-2.12,3.15,3.15,0,0,1,.78-.27A1,1,0,0,1,191.12,416.29Z" fill="#263238"/><path d="M132.26,378.78s-.11.16-.35.44-.61.7-1.1,1.21a44,44,0,0,1-4.48,4,46,46,0,0,1-17.81,8.37,35.42,35.42,0,0,1-10.86.89,16.56,16.56,0,0,1-8.35-3A12.13,12.13,0,0,1,85.49,386,8.49,8.49,0,0,1,85,384.5a1.87,1.87,0,0,1-.1-.56c.05,0,.2.76.82,2a12.59,12.59,0,0,0,3.86,4.39,16.4,16.4,0,0,0,8.17,2.85,35.88,35.88,0,0,0,10.71-.92,47.63,47.63,0,0,0,17.7-8.16,51.76,51.76,0,0,0,4.56-3.84l1.16-1.13A2.32,2.32,0,0,1,132.26,378.78Z" fill="#263238"/><path d="M132.26,388.15s-.11.16-.35.44-.61.7-1.1,1.21a44,44,0,0,1-4.48,4,46,46,0,0,1-17.81,8.37,35.42,35.42,0,0,1-10.86.89,16.56,16.56,0,0,1-8.35-3,12.13,12.13,0,0,1-3.82-4.61,8.49,8.49,0,0,1-.54-1.54,1.87,1.87,0,0,1-.1-.56c.05,0,.2.76.82,2a12.59,12.59,0,0,0,3.86,4.39,16.4,16.4,0,0,0,8.17,2.85,35.88,35.88,0,0,0,10.71-.92,47.63,47.63,0,0,0,17.7-8.16,51.76,51.76,0,0,0,4.56-3.84l1.16-1.13A3,3,0,0,1,132.26,388.15Z" fill="#263238"/><path d="M80.08,392.73a2.08,2.08,0,0,1,0,.41c0,.3-.08.69-.13,1.2-.14,1.07-.33,2.61-.58,4.57a120.2,120.2,0,0,0-1,16.91c0,.39,0,.79,0,1.19-.13-.11-.26-.24-.39-.37s0-.54,0-.81a112.66,112.66,0,0,1,1.21-16.94c.28-2,.5-3.5.65-4.57.08-.5.15-.89.2-1.19A3.62,3.62,0,0,1,80.08,392.73Z" fill="#263238"/><path d="M135.78,420.15a50.94,50.94,0,0,1-3,13.14c-.34.89-.73,1.79-1.15,2.68a32.83,32.83,0,0,1-7,9.78q-.81.78-1.68,1.5l-.19-.08-.33-.16c.64-.52,1.26-1.06,1.85-1.63a33.44,33.44,0,0,0,8-12.26,50.71,50.71,0,0,0,3-13,80.8,80.8,0,0,0,.32-11.68c-.32-7.16-1-12.92-1.42-16.91-.2-2-.33-3.55-.41-4.61,0-.5-.05-.9-.07-1.19a1.82,1.82,0,0,1,0-.41,2.06,2.06,0,0,1,.06.41c0,.28.07.68.13,1.19.11,1.08.29,2.62.5,4.59.42,4,1.22,9.74,1.58,16.91A79.63,79.63,0,0,1,135.78,420.15Z" fill="#263238"/><path d="M132.4,434.88c-.8,4-2.22,9.49-5.47,14.11-1.34-.56-2.65-1.14-4-1.74l-.19-.08.77-.66c3-2.67,5.62-7.08,8.05-10.54Z" fill="#e6e7e8"/><g opacity="0.2"><path d="M85.94,396.06a17.19,17.19,0,0,0,12.6,9.88c5.42,1,12.43-.7,15.82-5.79-11.91,4.19-23.76,4.28-28.42-4.09Z"/></g><path d="M183.8,381.3s-.27,0-.76,0a14.24,14.24,0,0,1-2-.44,19,19,0,0,1-10.76-8.17,13.14,13.14,0,0,1-1-1.85,2.37,2.37,0,0,1-.25-.72c.08,0,.55.94,1.53,2.36a21.19,21.19,0,0,0,10.56,8C182.75,381,183.82,381.21,183.8,381.3Z" fill="#263238"/><g opacity="0.2"><path d="M170,370.76c1.22,4.19,5.86,8.09,10,9.46a6.12,6.12,0,0,0,2.53.38,3,3,0,0,0,2.19-1.22c.87-1.33.11-3.22-1.16-4.16a11.73,11.73,0,0,0-4.47-1.59c-3.19-.75-6.08.87-8.72-1.82Z"/></g><g opacity="0.2"><path d="M81.45,363c7.46,6.52,18,6.8,27.51,4s17.78-8.08,25.84-13.84c-8.8,1.74-16.3,5.76-25.18,7.07-8.47,1.25-17.29,1.38-25.62-1.45Z"/></g><path d="M224.61,463.26a.7.7,0,0,1-.19.12l-.39.19h0l-.19.08a8.47,8.47,0,0,1-2.42.59,11.33,11.33,0,0,1-3.72-.2h0a14.81,14.81,0,0,1-5-2.13c-3.31-2.12-6.35-5.68-9.57-9.61A102.93,102.93,0,0,1,195,440.72a1.59,1.59,0,0,1-.13-.22c-.38-.64-.76-1.29-1.14-2-1.5-2.62-2.83-5.23-4-7.81a.14.14,0,0,0,0-.06,117.52,117.52,0,0,1-7.23-20c-1-3.75-1.57-6.81-1.95-8.94-.16-1-.28-1.85-.39-2.46s-.1-.78-.1-.85a4.56,4.56,0,0,1,.21.84c.12.6.28,1.41.49,2.43.42,2.11,1.1,5.16,2.1,8.88a121.91,121.91,0,0,0,5.94,16.85,108.67,108.67,0,0,0,5.45,10.91,106.42,106.42,0,0,0,9.25,13.7c3.19,3.95,6.17,7.51,9.39,9.6a14.4,14.4,0,0,0,5.91,2.37,12.32,12.32,0,0,0,2.62.09,9.81,9.81,0,0,0,2.26-.46h0C224.29,463.4,224.59,463.22,224.61,463.26Z" fill="#263238"/><path d="M188.63,426.34s14.77,18.57,25.55,23.13c3.65,1.54,7.67,2.81,10.16,5.89a6.49,6.49,0,0,1,1.56,5.23,5,5,0,0,1-.2.64c-1.56,3.95-9,3.39-12.42.89-1.49-1.09-.61-.39-1.81-1.29C208,458.23,189.53,436.84,188.63,426.34Z" fill="#e6e7e8"/><polygon points="123.42 175.66 132.84 173.79 179.47 174.34 203.16 179.54 212.19 311.81 107.47 316.71 123.42 175.66" fill="#939598"/><path d="M191.24,305.68l2.23-60.16-3.72-69.76c14.74,3.79,34.88,8,46,20.72,7.24,8.26,14.33,18.82,17,35.82,3.09,20,7.15,58.29,9.69,79.71Z" fill="#f1f2f2"/><path d="M206.05,295.86l-72.4,11.77-2.56-44.72-4-88.39c-21,.85-44.93,18.22-52.11,31.75-5,9.39-9.2,20.3-10.51,30.85-2.51,20.05-6.76,54.31-9.3,75.73a44.08,44.08,0,0,0,12.14,35.92h0c10.51,10.84,27,14.59,41.75,11.53l110.24-31.07Z" fill="#f1f2f2"/><path d="M198.43,295.07a.75.75,0,0,1,.06-.25c0-.19.12-.43.21-.73.2-.67.49-1.6.86-2.79.77-2.46,1.88-6,3.27-10.39,2.84-8.86,6.81-21.25,11.36-35.47l.14.32-11.74-4.86-.45-.19.41-.27,2.71-1.77,8.86-5.79-.11.28c-4.5-15.64-8.46-29.43-11.31-39.34-1.4-4.93-2.52-8.89-3.3-11.65q-.56-2-.87-3.15-.12-.5-.21-.81a1.2,1.2,0,0,1,0-.29s0,.09.1.27.15.47.26.81c.22.74.54,1.78,1,3.12.81,2.75,2,6.7,3.44,11.61,2.9,9.9,6.92,23.67,11.49,39.29l.05.18-.16.11-8.85,5.79c-.93.61-1.86,1.21-2.71,1.78l-.05-.46,11.74,4.87.21.09-.07.22c-4.62,14.2-8.65,26.56-11.53,35.41l-3.42,10.34c-.4,1.18-.71,2.11-.94,2.77-.1.29-.18.53-.25.71A1.13,1.13,0,0,1,198.43,295.07Z" fill="#263238"/><g opacity="0.2"><path d="M214.43,233.24a10.47,10.47,0,0,1-3.65,5.47c-1.37.79-.59,1.84.56,2.95,1.36,1.31,3.57,1.67,4.57,3.28s.45,3.43-.08,5.11a369.89,369.89,0,0,1-18.22,46.66l16.82-51.19-11.74-4.86Z" fill="#d1d3d4"/></g><path d="M127.62,296.3s0-.06-.11-.2-.17-.37-.29-.63L126.14,293l-4-9.16-13.53-31.64-.08-.18.17-.12,9.26-6.62v.42l-6.14-4.87-2.71-2.14-1.35-1.07-.33-.26c-.06-.07-.1,0-.19-.18a.81.81,0,0,1-.14-.28A3.7,3.7,0,0,1,107,236a51.63,51.63,0,0,1,.62-6.68c.61-4.34,1.33-8.5,2-12.46,1.42-7.91,2.83-15,4-21s2.21-10.78,2.93-14.1l.84-3.83.24-1a1.54,1.54,0,0,1,.09-.33,1.24,1.24,0,0,1,0,.34c-.05.26-.11.59-.18,1q-.27,1.37-.75,3.84c-.66,3.37-1.61,8.19-2.77,14.13s-2.52,13.08-3.92,21c-.69,3.95-1.4,8.11-2,12.44a51.56,51.56,0,0,0-.61,6.6,2.56,2.56,0,0,0,.09.76c0,.12.29.3.5.48l1.34,1.06,2.71,2.15,6.13,4.86.27.21-.28.2L109,252.34l.08-.3,13.36,31.71c1.63,3.91,2.93,7,3.83,9.22l1,2.47.25.64A1.11,1.11,0,0,1,127.62,296.3Z" fill="#263238"/><rect x="131.1" y="246.65" width="78.64" height="108.02" rx="2.41" transform="translate(47.86 -22.48) rotate(8.77)" fill="#e7515b"/><g opacity="0.2"><rect x="131.1" y="246.65" width="78.64" height="108.02" rx="2.41" transform="translate(47.86 -22.48) rotate(8.77)"/></g><rect x="135.71" y="248.96" width="69.86" height="100.55" transform="translate(47.65 -22.53) rotate(8.77)" fill="#ebebeb"/><path d="M192.12,253.22a8.12,8.12,0,0,0-.73-1.65,8.31,8.31,0,0,0-2.46-2.71,0,0,0,0,0,0,0h0a8.35,8.35,0,0,0-3.64-1.47l.57-4.25a5.88,5.88,0,0,0-4.91-6.71,5.46,5.46,0,0,0-.9-.07,5.9,5.9,0,0,0-5.81,5l-.68,4.41-1.48-.21a8.59,8.59,0,0,0-3.32.2h0a8.3,8.3,0,0,0-3.42,1.8,8.58,8.58,0,0,0-1.4,1.54l-1.15,1.63,30.06,4.64Zm-15.06-11.38a3.17,3.17,0,1,1,2.65,3.62A3.17,3.17,0,0,1,177.06,241.84Z" fill="#263238"/><path d="M167.21,262.25a85.22,85.22,0,0,1-9.4-1.18,83.55,83.55,0,0,1-9.32-1.71,86.87,86.87,0,0,1,9.4,1.19A88,88,0,0,1,167.21,262.25Z" fill="#263238"/><path d="M157,263.91a19.66,19.66,0,0,1-4.55-.43,20.56,20.56,0,0,1-4.47-1,20.75,20.75,0,0,1,4.55.44A20.23,20.23,0,0,1,157,263.91Z" fill="#263238"/><path d="M199.64,279.5c0,.14-11.7-1.54-26.08-3.76s-26-4.14-26-4.28,11.71,1.54,26.1,3.76S199.67,279.36,199.64,279.5Z" fill="#263238"/><path d="M198.88,284.47c0,.14-11.71-1.55-26.09-3.77s-26-4.13-26-4.28,11.7,1.55,26.09,3.77S198.9,284.32,198.88,284.47Z" fill="#263238"/><path d="M198.11,289.43c0,.15-11.7-1.54-26.09-3.76s-26-4.13-26-4.28,11.7,1.55,26.09,3.77S198.13,289.29,198.11,289.43Z" fill="#263238"/><path d="M197.34,294.4c0,.15-11.7-1.54-26.08-3.76s-26-4.14-26-4.28,11.71,1.54,26.1,3.76S197.37,294.26,197.34,294.4Z" fill="#263238"/><path d="M196.58,299.37c0,.14-11.71-1.54-26.09-3.76s-26-4.14-26-4.28,11.7,1.54,26.09,3.76S196.6,299.23,196.58,299.37Z" fill="#263238"/><path d="M195.81,304.34c0,.14-11.7-1.54-26.09-3.76s-26-4.14-26-4.28,11.7,1.54,26.09,3.76S195.83,304.2,195.81,304.34Z" fill="#263238"/><path d="M169.07,304.8a4.53,4.53,0,0,1-1-.06c-.66-.07-1.62-.19-2.8-.35-2.37-.32-5.63-.79-9.22-1.34s-6.85-1.09-9.2-1.5c-1.18-.21-2.13-.38-2.78-.51a4.59,4.59,0,0,1-1-.26,3.58,3.58,0,0,1,1,.05l2.8.35c2.37.32,5.63.79,9.22,1.35s6.85,1.09,9.2,1.5c1.18.2,2.13.38,2.78.51A3.65,3.65,0,0,1,169.07,304.8Z" fill="#263238"/><path d="M203.81,267.44a17.59,17.59,0,0,1-4.21-.38,16.94,16.94,0,0,1-4.13-.91,17.3,17.3,0,0,1,4.21.39A17.5,17.5,0,0,1,203.81,267.44Z" fill="#263238"/><path d="M155.56,313.8a45.41,45.41,0,0,1-6.81-.79,46.28,46.28,0,0,1-6.73-1.3,46,46,0,0,1,6.81.78A44,44,0,0,1,155.56,313.8Z" fill="#263238"/><path d="M155.31,318.38a47.06,47.06,0,0,1-6.92-.81,44.58,44.58,0,0,1-6.84-1.32,46.91,46.91,0,0,1,6.92.81A44.58,44.58,0,0,1,155.31,318.38Z" fill="#263238"/><path d="M194.91,319.18a10.82,10.82,0,0,1-3.31-.25,11,11,0,0,1-3.24-.76,11.06,11.06,0,0,1,3.32.24A10.45,10.45,0,0,1,194.91,319.18Z" fill="#263238"/><path d="M194.5,323.27a10.83,10.83,0,0,1-3.31-.25,10.62,10.62,0,0,1-3.23-.76,21.34,21.34,0,0,1,6.54,1Z" fill="#263238"/><path d="M148.27,322.14a10.09,10.09,0,0,1-3.2-.23,9.7,9.7,0,0,1-3.12-.75,10.09,10.09,0,0,1,3.2.23A10.12,10.12,0,0,1,148.27,322.14Z" fill="#263238"/><path d="M194,328a5.65,5.65,0,0,1-2.41-.11,5.78,5.78,0,0,1-2.33-.62,5.85,5.85,0,0,1,2.41.11A5.78,5.78,0,0,1,194,328Z" fill="#263238"/><path d="M139.88,331.79a9.68,9.68,0,0,1,1.18,0l3.33.1,11.87.47h.27l-.06.27a5.75,5.75,0,0,1-2.09,3.23,4.68,4.68,0,0,1-7.29-1.94,4,4,0,0,1,1.22-4.32,3.67,3.67,0,0,1,1.58-.84,2.34,2.34,0,0,1,.45-.07,1.6,1.6,0,0,1,.49,0,.67.67,0,0,1,.51.38,1.07,1.07,0,0,1,.06.54,7.83,7.83,0,0,1-1.09,3.16,8,8,0,0,1-2.21,2.34,4.89,4.89,0,0,1-3,1,2.78,2.78,0,0,1-2.4-1.73,4.15,4.15,0,0,1-.2-2.79,10.1,10.1,0,0,1,2.8-4l.27-.28,0,.38a6.84,6.84,0,0,1-.77,4,7.2,7.2,0,0,1-2,2.37,6.41,6.41,0,0,1-1.71.94,2.6,2.6,0,0,1-.66.16,8.1,8.1,0,0,0,2.24-1.26,7.15,7.15,0,0,0,1.85-2.34,6.47,6.47,0,0,0,.66-3.84l.32.1a9.7,9.7,0,0,0-2.65,3.88,3.77,3.77,0,0,0,.2,2.49,2.32,2.32,0,0,0,2,1.44,4.38,4.38,0,0,0,2.64-.91,7.12,7.12,0,0,0,2.06-2.2,7.22,7.22,0,0,0,1-2.94.73.73,0,0,0,0-.28s0-.06-.14-.08a2.37,2.37,0,0,0-.72.07,3.15,3.15,0,0,0-1.36.72,3.53,3.53,0,0,0-1.07,3.76,4.13,4.13,0,0,0,2.92,2.53,4.2,4.2,0,0,0,3.59-.8,5.29,5.29,0,0,0,1.94-3l.2.27-11.85-.66-3.32-.22A6.6,6.6,0,0,1,139.88,331.79Z" fill="#263238"/><path d="M189.34,339.26a2.87,2.87,0,0,1-.58.59,3,3,0,0,1-.84.54,1.94,1.94,0,0,1-1.38.08,1.47,1.47,0,0,1-.69-.51,1.7,1.7,0,0,1-.28-.88,16,16,0,0,1,.13-1.92c.14-1.36.28-2.85.44-4.46l.44.17L182.76,338l-1,1.29-.62.83.16-1c.4-2.68.78-5.17,1.1-7.36l.37.2a23.74,23.74,0,0,0-4.11,4.5c-.84,1.22-1.24,2-1.29,1.94a2.15,2.15,0,0,1,.23-.57c.18-.36.45-.87.85-1.51a21.24,21.24,0,0,1,4-4.7l.45-.39-.08.59c-.31,2.19-.66,4.69-1,7.37l-.47-.19q.48-.63,1-1.29l3.85-5.15.54-.72-.1.89c-.19,1.61-.37,3.1-.52,4.45a17.26,17.26,0,0,0-.19,1.86,1.15,1.15,0,0,0,.72,1.13,2.23,2.23,0,0,0,2-.46A3.55,3.55,0,0,1,189.34,339.26Z" fill="#263238"/><path d="M191.1,336.53a93.35,93.35,0,0,1-9.82.21,93.25,93.25,0,0,1-9.81-.3,94.84,94.84,0,0,1,9.82-.22A91.67,91.67,0,0,1,191.1,336.53Z" fill="#263238"/><path d="M194.29,339.64a62.35,62.35,0,0,1-7.84,1.12,58.73,58.73,0,0,1-7.9.59,60.64,60.64,0,0,1,7.84-1.11A62,62,0,0,1,194.29,339.64Z" fill="#263238"/><g opacity="0.2"><path d="M107.27,236.61c-.12,3,.69,6.06,3.2,7.76-3.14,1.52-4.81,5.16-4.91,8.65s1.11,6.86,2.42,10.09c4,9.94,12.7,23.93,19.3,32.39,0,0-3.35-9-4.31-11.11-4.35-9.5-8.17-19.05-12.53-28.55-.48-1.05-1.34-3.91-1.34-3.91-.45.2.17,0,1.3-.9,2.44-1.95,7.74-5.51,7.74-5.51s-10.87-8.61-10.87-8.91Z" fill="#d1d3d4"/></g><path d="M107.12,257c.14,0-.11,11.56-.57,25.8s-.94,25.79-1.09,25.78.11-11.55.57-25.8S107,257,107.12,257Z" fill="#263238"/><path d="M124.38,226.63l-1,0c0-.38,1.45-38.24,2.58-53.3a7.75,7.75,0,0,1,2.64-5.57c3.12-2.67,7.79-2.32,8-2.31l-.08,1s-4.47-.32-7.26,2.08a6.78,6.78,0,0,0-2.29,4.87C125.83,188.41,124.4,226.25,124.38,226.63Z" fill="#263238"/><path d="M133.73,290H132v-2h1.78a7,7,0,0,0,7-7v-21.2h2V281A9,9,0,0,1,133.73,290Z" fill="#455b64"/><path d="M134.44,289.24a2.15,2.15,0,1,1-1.92-2.35A2.15,2.15,0,0,1,134.44,289.24Z" fill="#263238"/><path d="M116.42,290h-1.77a9,9,0,0,1-9-9.05l.08-21.2h2l-.08,21.2a7,7,0,0,0,7,7h1.78Z" fill="#455b64"/><path d="M113.93,289.18a2.15,2.15,0,1,0,1.94-2.35A2.14,2.14,0,0,0,113.93,289.18Z" fill="#263238"/><path d="M105.13,262.19l-.25-15.12c-.19-11.51,8.22-21,18.76-21.2a18.29,18.29,0,0,1,13.66,5.95,21.78,21.78,0,0,1,5.79,14.62l.25,15.12-3,.05-.25-15.12a18.82,18.82,0,0,0-5-12.62,15.24,15.24,0,0,0-11.42-5c-8.88.15-16,8.29-15.81,18.16l.25,15.11Z" fill="#263238"/><path d="M190.61,227.24c-.05-.4-4.6-39.75-5.91-52.35l-.09-.93c-.42-4.27-.89-9.12-5.63-10.4l.26-1c5.41,1.46,5.94,6.9,6.36,11.28l.09.91c1.32,12.6,5.87,51.94,5.91,52.34Z" fill="#263238"/><circle cx="191.11" cy="220.49" r="10.73" transform="translate(-99.94 199.71) rotate(-45)" fill="#263238"/><path d="M196.3,220.49a5.2,5.2,0,1,1-5.19-5.19A5.19,5.19,0,0,1,196.3,220.49Z" fill="#455b64"/><path d="M127.62,296.3l-13.48,33.16,107.53,29.81a34.5,34.5,0,0,0,29.08-5h0c11.25-7.94,14-21.82,12.64-35.56l-1.91-14.57Z" fill="#f1f2f2"/><path d="M241.55,332.29c-.12,0-.35-2.26-1.45-5.76-.29-.87-.6-1.82-1-2.81s-.91-2-1.44-3.11a38.46,38.46,0,0,0-9.9-12.1c-1-.74-1.85-1.46-2.77-2a29,29,0,0,0-2.55-1.57c-3.2-1.77-5.4-2.45-5.35-2.56a8.33,8.33,0,0,1,1.53.47,15.19,15.19,0,0,1,1.75.69c.67.31,1.45.62,2.25,1.08a26.55,26.55,0,0,1,2.61,1.53c.94.57,1.85,1.29,2.83,2a37,37,0,0,1,10,12.26,34.07,34.07,0,0,1,1.41,3.17c.42,1,.72,2,1,2.86a24.5,24.5,0,0,1,.61,2.42,14.2,14.2,0,0,1,.33,1.86A8.48,8.48,0,0,1,241.55,332.29Z" fill="#263238"/><g opacity="0.2"><path d="M111.74,310.41c-8.21.68-14.53,1.44-23,2.48-5.28.65-10.78.28-12.51-4.76s-.63-10.79,2.2-15.3,7.31-15.06,31.21-7Z"/></g><path d="M122.81,309s0-.08.06-.23.14-.39.23-.66l.9-2.52c.83-2.22,2-5.39,3.45-9.32l0-.12h.14l36.57,3.31,35.38,3.36,10.72,1.07,2.91.32.76.1c.17,0,.26,0,.25,0a.83.83,0,0,1-.26,0l-.76,0-2.92-.22-10.73-.92-35.4-3.2-36.56-3.48.19-.11-3.61,9.26-1,2.49-.27.64A.72.72,0,0,1,122.81,309Z" fill="#263238"/><g opacity="0.2"><path d="M167.05,343.16c15.27,4.09,24.56,1.72,38.43-5.87a73.75,73.75,0,0,0,8.17-5.54,29.87,29.87,0,0,0,5.23-5.55c-17.87,6.83-32.7,12-51.11,17.15Z"/></g><path d="M122.86,308.6l3.49-9.75-8.12-12.7a9.56,9.56,0,0,0-6.28-4.24l-29.86-5.64a4.81,4.81,0,0,0,2.52,5.87c3.91,2.24,21.51,6.33,21.51,6.33L79,288s-.84,3.92,2.23,5.31,22.39,2.11,22.39,2.11l-24.73,3.48s-.14,3.93,5.51,4a166.83,166.83,0,0,0,16.67-1.05.88.88,0,0,1,1,.73h0a.9.9,0,0,1-.67,1L85,307.46a2.2,2.2,0,0,0-.17,4.25,2.74,2.74,0,0,0,.92.07c2.79-.28,19.53-2.41,19.53-2.41l.87,1.95,16.73-2.72Z" fill="#fbbd9d"/><path d="M110.58,305.59a5.26,5.26,0,0,0-.92-1.48,4.07,4.07,0,0,0-1.58-1,6,6,0,0,0-2.28-.25c-1.66.12-3.16.6-4.29.74a3.92,3.92,0,0,1-1.84,0,15.4,15.4,0,0,1,1.77-.39,27.31,27.31,0,0,1,4.33-.9,6.1,6.1,0,0,1,2.48.32,4.17,4.17,0,0,1,1.68,1.18A2.11,2.11,0,0,1,110.58,305.59Z" fill="#aa6551"/><path d="M113.28,298.16s-.07-.28-.3-.71a3.5,3.5,0,0,0-1.42-1.4c-1.51-.88-4.06-.59-6.75-.41s-5.14.58-6.91.81a16.67,16.67,0,0,1-2.88.29,15.55,15.55,0,0,1,2.82-.65,69.23,69.23,0,0,1,6.93-1c1.37-.11,2.66-.17,3.86-.15a6.21,6.21,0,0,1,3.12.76,3.46,3.46,0,0,1,1.42,1.64A1.29,1.29,0,0,1,113.28,298.16Z" fill="#aa6551"/><path d="M115.34,293.83a4.64,4.64,0,0,0-2.44-4,7.76,7.76,0,0,0-3-.88c-2.24-.21-4.34.05-5.87-.12a5.18,5.18,0,0,1-2.39-.58c0-.08.92.19,2.41.21s3.56-.24,5.91,0a7.61,7.61,0,0,1,3.18,1,5.16,5.16,0,0,1,1.88,2,3.82,3.82,0,0,1,.45,1.78A1.31,1.31,0,0,1,115.34,293.83Z" fill="#aa6551"/><path d="M212.28,293.8a8.81,8.81,0,0,1,.16-1.62c.12-1,.38-2.54.73-4.38.68-3.68,1.9-8.71,3.2-14.27A128.68,128.68,0,0,0,219,259.17c.12-.92.17-1.76.24-2.5s.11-1.38.13-1.9a8.43,8.43,0,0,1,.14-1.62,11.54,11.54,0,0,1,.06,1.62c0,.53,0,1.17,0,1.91s-.07,1.6-.17,2.53a104.7,104.7,0,0,1-2.47,14.44c-1.29,5.56-2.56,10.57-3.34,14.23-.4,1.82-.7,3.31-.89,4.33A10.64,10.64,0,0,1,212.28,293.8Z" fill="#263238"/><path d="M222.66,359.45a2.59,2.59,0,0,1-.59-.1l-1.66-.37-6.09-1.5c-5.13-1.3-12.2-3.16-20-5.33s-14.79-4.23-19.86-5.78l-6-1.86-1.62-.54a3.42,3.42,0,0,1-.55-.22,2.1,2.1,0,0,1,.58.12l1.65.44,6,1.71,19.89,5.63,19.94,5.47,6,1.66,1.64.47A3,3,0,0,1,222.66,359.45Z" fill="#263238"/><path d="M119.65,69.19c2.19-6.79,13.48-12.93,19.66-16.49,9.25-5.32,17.83-4.25,23.11.48,9.56-8,22.13-15.71,34.19-12.56s21.85,15.51,19.66,27.78c-1.3,7.23-6.31,13.72-6,21.06.19,5,2.84,9.52,5,14.06s3.73,9.83,1.85,14.47c-1.75,4.32-6.12,7-8.48,11-1.92,3.27-2.36,7.18-3.59,10.77-4.54,13.32-20.26,20.78-34.13,18.44s-25.42-12.78-32-25.23-8.72-26.74-9.48-40.79Z" fill="#263238"/><path d="M129.87,78.53l2.77,111c1,12.72,12.72,22,26.33,20.83h0c13.75-1.18,24.24-12.55,23.45-25.42-.83-13.51-1.45-27.74-1.45-27.74s17.21-4,19.35-26.94c1.09-11.75-.81-31-2.81-46.3a22.75,22.75,0,0,0-26.42-19.49Z" fill="#fbbd9d"/><path d="M192.44,100.38a2.9,2.9,0,0,1-2.61,3.12,2.79,2.79,0,0,1-3.17-2.43A2.92,2.92,0,0,1,189.27,98,2.79,2.79,0,0,1,192.44,100.38Z" fill="#263238"/><path d="M195.29,97.42c-.34.4-2.65-1.09-5.78-.88s-5.33,1.93-5.69,1.56c-.18-.15.15-.86,1.1-1.66a8,8,0,0,1,4.52-1.72,7.73,7.73,0,0,1,4.63,1.17C195.09,96.57,195.46,97.24,195.29,97.42Z" fill="#263238"/><path d="M162.33,103.53a2.92,2.92,0,0,1-2.61,3.12,2.79,2.79,0,0,1-3.17-2.43,2.91,2.91,0,0,1,2.61-3.12A2.79,2.79,0,0,1,162.33,103.53Z" fill="#263238"/><path d="M164.54,100c-.34.4-2.65-1.09-5.78-.88s-5.33,1.93-5.69,1.57c-.18-.16.14-.87,1.1-1.66a8,8,0,0,1,4.52-1.73,7.66,7.66,0,0,1,4.63,1.18C164.33,99.14,164.7,99.81,164.54,100Z" fill="#263238"/><path d="M177.41,122.48c0-.17,1.89-.63,5-1.24.8-.14,1.54-.34,1.64-.9a4,4,0,0,0-.68-2.33l-2.76-5.94c-3.85-8.46-6.68-15.44-6.34-15.59s3.73,6.58,7.58,15c.93,2.09,1.81,4.08,2.66,6a4.65,4.65,0,0,1,.62,3.11,2,2,0,0,1-1.24,1.26,5.45,5.45,0,0,1-1.35.27C179.4,122.52,177.43,122.66,177.41,122.48Z" fill="#263238"/><path d="M181,157.18A57.84,57.84,0,0,1,150.05,151s8.6,15.28,31.17,11.69Z" fill="#ec996f"/><path d="M164.56,87.66c-.26.87-3.41.67-7.06,1.35s-6.55,1.88-7.09,1.14c-.24-.35.23-1.18,1.37-2.08a12.44,12.44,0,0,1,10.78-1.9C163.94,86.62,164.66,87.25,164.56,87.66Z" fill="#263238"/><path d="M193.55,88.43c-.5.74-2.71.15-5.3.28s-4.77.79-5.32.07c-.24-.34.06-1.08,1-1.81a7.68,7.68,0,0,1,8.56-.29C193.42,87.35,193.77,88.06,193.55,88.43Z" fill="#263238"/><path d="M180.86,133.62c0,.24-.78.6-2.15.52a11.68,11.68,0,0,1-4.91-1.6,13.45,13.45,0,0,1-3.92-3.3c-.82-1.05-1.07-1.88-.86-2,.42-.27,2.48,1.89,5.71,3.67a24.4,24.4,0,0,0,4.22,1.93C180.07,133.22,180.83,133.34,180.86,133.62Z" fill="#263238"/><circle cx="165.4" cy="113.24" r="0.83" fill="#aa6551"/><path d="M189.75,109.17a.84.84,0,0,1-.84.83.83.83,0,1,1,0-1.66A.84.84,0,0,1,189.75,109.17Z" fill="#aa6551"/><path d="M194.34,111.34a.83.83,0,0,1-.83.83.84.84,0,1,1,.83-.83Z" fill="#aa6551"/><path d="M195.74,107.86a.84.84,0,1,1-.84-.83A.84.84,0,0,1,195.74,107.86Z" fill="#aa6551"/><path d="M162.42,116.92a.83.83,0,1,1-1.66,0,.83.83,0,1,1,1.66,0Z" fill="#aa6551"/><path d="M159.31,113.57a.84.84,0,1,1-.83-.83A.83.83,0,0,1,159.31,113.57Z" fill="#aa6551"/><path d="M172.92,103.52a24.89,24.89,0,0,0-.55-3.5,14.34,14.34,0,0,0-5.27-7.83,14.07,14.07,0,0,0-6-2.64,14.28,14.28,0,0,0-7.46.63,13.19,13.19,0,0,0-3.59,1.94,13.39,13.39,0,0,0-3,3,14.13,14.13,0,0,0,0,16.78,13.23,13.23,0,0,0,3,3,13.44,13.44,0,0,0,3.59,1.93A14.32,14.32,0,0,0,172.37,107a24.89,24.89,0,0,0,.55-3.5,1.1,1.1,0,0,1,0,.24v.69a6.93,6.93,0,0,1-.09,1.11,11.3,11.3,0,0,1-.27,1.51A13.69,13.69,0,0,1,171,111a14.52,14.52,0,0,1-9.82,7,14.59,14.59,0,0,1-7.71-.61,14.52,14.52,0,0,1-6.83-5.1,14.59,14.59,0,0,1,0-17.38,13.7,13.7,0,0,1,3.11-3.11,14,14,0,0,1,3.72-2,14.57,14.57,0,0,1,13.86,2.16A14.36,14.36,0,0,1,171,96.07a13.8,13.8,0,0,1,1.57,3.9,11.59,11.59,0,0,1,.27,1.51,7,7,0,0,1,.09,1.12v.69A1,1,0,0,1,172.92,103.52Z" fill="#fff"/><path d="M179.19,99.15a11.37,11.37,0,0,0-3.42-.4,11.6,11.6,0,0,0-3.27,1.1s.21-.38.76-.75a5.56,5.56,0,0,1,5-.53C178.91,98.82,179.22,99.1,179.19,99.15Z" fill="#fff"/><path d="M170.05,61.21c-2.05,18.07-15.46,34.36-32.81,39.84,5.6,8.07,2.07,23.42,2.22,36.23.13,11.91.12,15.31-7.59,21.38-6.38,1.54-10.06-15.93-14.79-20.81s-9.28-10.89-8.93-17.69c.17-3.17,1.41-6.22,1.58-9.39.2-3.52-.93-7-1.55-10.44-2.77-15.36,5.2-31.88,18.58-39.92s31.25-7.49,44.52.73Z" fill="#263238"/><path d="M131.75,135.55a44.08,44.08,0,0,0-8.37-16l.28.62a19.64,19.64,0,1,0-30.25,23.23c-2.26-.49-4.53,1.44-5,3.7a8.63,8.63,0,0,0,1.69,6.53c4.7,6.86,15.33,8.67,22,3.74,5.3,3.59,13.15,1.5,17.08-3.55S133.56,141.69,131.75,135.55Z" fill="#263238"/><path d="M110.27,109.06a3.55,3.55,0,0,1-.57-.64,6.3,6.3,0,0,1-1-2.21c-.62-2.07-.33-5.35,1.31-8.81a17.37,17.37,0,0,1,3.62-5.07A34.5,34.5,0,0,1,119,87.69a29.06,29.06,0,0,1,7.07-3.54c2.6-.88,5.35-1.58,8.15-2.28s5.54-1.4,8.11-2.29a51,51,0,0,0,7.17-3.12,53.31,53.31,0,0,0,10.82-7.61,52.41,52.41,0,0,0,6.09-6.56c.67-.82,1.14-1.49,1.47-1.94a5.37,5.37,0,0,1,.53-.67,5,5,0,0,1-.44.73c-.3.47-.76,1.16-1.4,2a49.79,49.79,0,0,1-6,6.7,52.45,52.45,0,0,1-10.84,7.77,51.48,51.48,0,0,1-7.24,3.17c-2.58.91-5.33,1.61-8.14,2.32s-5.54,1.38-8.12,2.25a29,29,0,0,0-7,3.46,34.71,34.71,0,0,0-5.41,4.54,17,17,0,0,0-3.59,4.93c-1.66,3.38-2,6.57-1.46,8.6A7.57,7.57,0,0,0,110.27,109.06Z" fill="#455b64"/><path d="M168.44,59.68a4.35,4.35,0,0,1-.47.57c-.31.37-.8.89-1.44,1.56a61.9,61.9,0,0,1-5.77,5.26,40.14,40.14,0,0,1-9.93,6,39.13,39.13,0,0,1-6.62,1.8c-2.33.46-4.76.83-7.25,1.2a81.78,81.78,0,0,0-13.8,2.9,30.37,30.37,0,0,0-10,5.53,19.75,19.75,0,0,0-4.82,6,19.3,19.3,0,0,0-.83,1.94,3.28,3.28,0,0,1-.29.68,5.25,5.25,0,0,1,.19-.71,14.28,14.28,0,0,1,.75-2,19.08,19.08,0,0,1,4.76-6.18A30.09,30.09,0,0,1,123,78.51a77.72,77.72,0,0,1,13.87-3c2.49-.38,4.91-.74,7.23-1.2a37.8,37.8,0,0,0,6.55-1.74,40.57,40.57,0,0,0,9.87-5.83,75,75,0,0,0,5.86-5.11l1.51-1.49A4.22,4.22,0,0,1,168.44,59.68Z" fill="#455b64"/><path d="M193.85,39.89c0,.11-1.95.18-5,1a23.27,23.27,0,0,0-2.43.78c-.87.29-1.76.72-2.7,1.14a30.54,30.54,0,0,0-10.44,8.29,29.06,29.06,0,0,0-1.71,2.38,20.37,20.37,0,0,0-1.31,2.19c-1.47,2.77-2,4.67-2.09,4.63a6.34,6.34,0,0,1,.35-1.33,10.55,10.55,0,0,1,.54-1.52,17.21,17.21,0,0,1,.87-2,23.2,23.2,0,0,1,1.27-2.26,29.62,29.62,0,0,1,1.71-2.44,29.38,29.38,0,0,1,10.6-8.42,26.09,26.09,0,0,1,2.76-1.11,19.85,19.85,0,0,1,2.49-.73,18.77,18.77,0,0,1,2.1-.41,11,11,0,0,1,1.6-.19A6.81,6.81,0,0,1,193.85,39.89Z" fill="#455b64"/><path d="M210,126.3s0-.08.15-.21.28-.33.47-.55c.42-.49,1-1.2,1.77-2.19a12.29,12.29,0,0,0,2-3.89,6.86,6.86,0,0,0,.2-2.7,7.39,7.39,0,0,0-1-2.84c-1.08-1.88-2.86-3.51-4.48-5.53a32.13,32.13,0,0,1-6.75-15.81,67.08,67.08,0,0,1-.25-9.76,33.93,33.93,0,0,0-.88-9.59,19.11,19.11,0,0,0-4.33-7.74,19.49,19.49,0,0,0-6.52-4.74,18.65,18.65,0,0,0-6.85-1.58,20.28,20.28,0,0,0-9.93,2.19,22.89,22.89,0,0,0-2.4,1.44l-.59.43-.22.13a14.22,14.22,0,0,1,3.12-2.18,19.9,19.9,0,0,1,10-2.37,18.75,18.75,0,0,1,7,1.55,20.08,20.08,0,0,1,11.16,12.73,34.1,34.1,0,0,1,.91,9.74,68.66,68.66,0,0,0,.23,9.68,32.11,32.11,0,0,0,2.41,8.64,31.65,31.65,0,0,0,4.18,7c1.57,2,3.36,3.66,4.46,5.61a7.85,7.85,0,0,1,1,3,7.23,7.23,0,0,1-.25,2.82,12.31,12.31,0,0,1-2.13,3.93,24.45,24.45,0,0,1-1.85,2.14l-.51.52A1.73,1.73,0,0,1,210,126.3Z" fill="#455b64"/><path d="M207.66,100a26.17,26.17,0,0,0-.56-3.51,14.37,14.37,0,0,0-5.26-7.83,14.24,14.24,0,0,0-13.47-2,13.62,13.62,0,0,0-3.59,1.94,13.44,13.44,0,0,0-3,3,14.16,14.16,0,0,0,0,16.77,13.44,13.44,0,0,0,3,3,13.62,13.62,0,0,0,3.59,1.94,14.31,14.31,0,0,0,7.47.63,14.13,14.13,0,0,0,6-2.64,14.45,14.45,0,0,0,5.27-7.83,27.24,27.24,0,0,0,.55-3.5,1.85,1.85,0,0,1,0,.23c0,.19,0,.41,0,.69a6.1,6.1,0,0,1-.09,1.12,10.11,10.11,0,0,1-.27,1.51,13.45,13.45,0,0,1-1.56,3.9,14.67,14.67,0,0,1-9.82,7,14.79,14.79,0,0,1-7.71-.61,14.59,14.59,0,0,1-6.84-5.11,14.58,14.58,0,0,1,0-17.37,14.72,14.72,0,0,1,6.84-5.11,14.79,14.79,0,0,1,7.71-.61,14.67,14.67,0,0,1,9.82,7,13.45,13.45,0,0,1,1.56,3.9,10.11,10.11,0,0,1,.27,1.51,6.1,6.1,0,0,1,.09,1.12c0,.28,0,.5,0,.69A2.17,2.17,0,0,1,207.66,100Z" fill="#fff"/><path d="M131.73,159a2.83,2.83,0,0,1-.49-.33c-.31-.23-.76-.58-1.33-1a40.58,40.58,0,0,1-4.55-4.23,16.42,16.42,0,0,1-4.28-8.12,39,39,0,0,1-.24-5.45,9.47,9.47,0,0,0-1.56-5.37,33.67,33.67,0,0,0-3.92-4.24,15.78,15.78,0,0,1-3.22-4.43,19.49,19.49,0,0,1-1.56-4.7,18.81,18.81,0,0,1-.41-4.3c0-1.32.31-2.49.43-3.51a11.89,11.89,0,0,0,.06-2.63c-.17-1.44-.45-2.21-.39-2.23a5.44,5.44,0,0,1,.21.55,11.56,11.56,0,0,1,.38,1.65,10.76,10.76,0,0,1,0,2.69c-.09,1-.32,2.21-.36,3.5a20.68,20.68,0,0,0,2,8.77,15.39,15.39,0,0,0,3.16,4.28,34.5,34.5,0,0,1,4,4.31A8.7,8.7,0,0,1,121,137a13.25,13.25,0,0,1,.37,2.9,40.54,40.54,0,0,0,.21,5.38,16.21,16.21,0,0,0,4.08,8,47,47,0,0,0,4.4,4.32l1.27,1.11A2.36,2.36,0,0,1,131.73,159Z" fill="#455b64"/><path d="M120.36,135.73s0,.14,0,.41,0,.66-.08,1.17a18.85,18.85,0,0,1-1,4.22,21,21,0,0,1-3,5.66,20.59,20.59,0,0,1-19.66,7.91A18.88,18.88,0,0,1,92.48,154c-.48-.18-.83-.38-1.07-.49a1.33,1.33,0,0,1-.36-.21,29.85,29.85,0,0,0,5.65,1.47,21.67,21.67,0,0,0,6.3-.1,21,21,0,0,0,7.22-2.61,20.76,20.76,0,0,0,5.7-5.13,21,21,0,0,0,3.06-5.5A28.84,28.84,0,0,0,120.36,135.73Z" fill="#455b64"/><path d="M116.5,131a5.64,5.64,0,0,1-.3,1.36,18.8,18.8,0,0,1-1.41,3.55,23,23,0,0,1-8.53,9.15,24.82,24.82,0,0,1-12,3.52,23,23,0,0,1-3.81-.2,6.59,6.59,0,0,1-1.37-.29,45.71,45.71,0,0,0,5.17.12,25.75,25.75,0,0,0,11.75-3.6,23.73,23.73,0,0,0,8.48-8.87A39.27,39.27,0,0,0,116.5,131Z" fill="#455b64"/><path d="M87.23,121.05a4.07,4.07,0,0,1,.9-.52,8.78,8.78,0,0,1,1.11-.49,13.37,13.37,0,0,1,1.53-.54,21.72,21.72,0,0,1,4.13-.81,23.73,23.73,0,0,1,5.16.11,24.8,24.8,0,0,1,5,1.25,20.83,20.83,0,0,1,3.76,1.9,13.22,13.22,0,0,1,1.31.94,6.75,6.75,0,0,1,.93.79c.48.47.74.73.71.76s-1.12-1-3.15-2.18a21.78,21.78,0,0,0-3.73-1.76,24.09,24.09,0,0,0-10-1.33,22.94,22.94,0,0,0-4.07.68C88.59,120.46,87.27,121.15,87.23,121.05Z" fill="#455b64"/><path d="M110.27,119.21c-.1.11-6.41-5.26-14.1-12S82.32,95,82.41,94.84s6.41,5.26,14.1,12S110.36,119.1,110.27,119.21Z" fill="#e7515b"/><path d="M139.09,108.25a6.23,6.23,0,0,1,2.06-2.33,6.35,6.35,0,0,1,2.72-1.5,18.16,18.16,0,0,1-2.39,1.91A19.43,19.43,0,0,1,139.09,108.25Z" fill="#fff"/><path d="M111,113.88a.82.82,0,0,1-.13-.2l-.34-.61a8.92,8.92,0,0,1-.77-2.56,12.74,12.74,0,0,1,2.63-9.3,16.2,16.2,0,0,1,2.23-2.42,17.91,17.91,0,0,1,3-2,25.93,25.93,0,0,1,7.38-2.54c5.42-1.13,11.51-.86,17.72-1.79a27,27,0,0,0,8.68-2.7,26,26,0,0,0,6.72-5.16,41.17,41.17,0,0,0,7.74-12.13c1.64-3.79,2.68-7,3.42-9.17l.85-2.52.23-.66a1.24,1.24,0,0,1,.1-.22.79.79,0,0,1-.05.24c0,.18-.1.4-.18.67-.18.62-.43,1.48-.75,2.55a96.71,96.71,0,0,1-3.28,9.26,40.86,40.86,0,0,1-7.73,12.31,26.69,26.69,0,0,1-6.83,5.29A27.75,27.75,0,0,1,142.74,93c-6.29.94-12.36.64-17.7,1.74s-10,3.33-12.36,6.7a12.68,12.68,0,0,0-2.73,9A11.34,11.34,0,0,0,111,113.88Z" fill="#fafbfb"/><path d="M117.38,153.57a14.93,14.93,0,0,1-1.23,4.06,19.09,19.09,0,0,1-2.62,4.25,17.7,17.7,0,0,1-5.06,4.26,16.72,16.72,0,0,1-7.74,2,15.19,15.19,0,0,1-8.79-2.58,14.71,14.71,0,0,1-5.83-8.24,12.94,12.94,0,0,1-.3-5.41,13.12,13.12,0,0,1,2.09-5.18,12.6,12.6,0,0,1,7.44-5.27l0,.51a20.17,20.17,0,0,1-8.59-3.5,16.49,16.49,0,0,1-5.46-6.55A15.48,15.48,0,0,1,80,124.4a12.49,12.49,0,0,1,6.13-9.93A12.11,12.11,0,0,1,89.9,113a10.63,10.63,0,0,1,2.55-.19l.65.07a.74.74,0,0,1,.22,0,13.23,13.23,0,0,0-3.38.26,12.18,12.18,0,0,0-3.69,1.51,12.87,12.87,0,0,0-3.82,3.66,12.5,12.5,0,0,0-2.05,6.08,15.19,15.19,0,0,0,1.34,7.32,16.05,16.05,0,0,0,5.34,6.34,19.65,19.65,0,0,0,8.38,3.39l1.29.2-1.27.3A12.13,12.13,0,0,0,88.33,147a12.64,12.64,0,0,0-2,5,12.46,12.46,0,0,0,.29,5.2,14.29,14.29,0,0,0,5.6,8,14.76,14.76,0,0,0,8.51,2.53,16.23,16.23,0,0,0,7.58-1.91,17.2,17.2,0,0,0,5-4.12,19.1,19.1,0,0,0,2.65-4.15,21.13,21.13,0,0,0,1.11-2.92l.22-.79A1.1,1.1,0,0,1,117.38,153.57Z" fill="#263238"/><path d="M111.45,110.34l-.24-.11-.7-.37a18.52,18.52,0,0,1-2.49-1.71,21,21,0,0,1-6.42-9,20.84,20.84,0,0,1,7-23.67A29.14,29.14,0,0,1,118,70.93a53,53,0,0,1,10.29-1.88c3.36-.32,6.61-.47,9.69-.68a84.78,84.78,0,0,0,8.71-1,39.12,39.12,0,0,0,7.34-2,26.22,26.22,0,0,0,9.25-5.82,23.84,23.84,0,0,0,1.94-2.29l.46-.64a1.06,1.06,0,0,1,.17-.21,15.54,15.54,0,0,1-2.42,3.28,25.68,25.68,0,0,1-9.27,6,39.25,39.25,0,0,1-7.4,2.07,82.57,82.57,0,0,1-8.74,1c-6.16.49-13,.54-19.87,2.58a28.75,28.75,0,0,0-9.23,4.5,20.17,20.17,0,0,0-6,7.32,20.39,20.39,0,0,0-1,15.81,21.28,21.28,0,0,0,6.21,8.93,20.46,20.46,0,0,0,2.42,1.78l.66.41C111.38,110.28,111.46,110.33,111.45,110.34Z" fill="#263238"/><path d="M223,95.59a1.37,1.37,0,0,1-.94.46,2.59,2.59,0,0,1-2.44-1.59,2.36,2.36,0,0,1,.14-2.18,4,4,0,0,1,2-1.69,6.34,6.34,0,0,1,6.11,1,6.67,6.67,0,0,1,2.28,2.94,7.1,7.1,0,0,1,.28,4,6.68,6.68,0,0,1-2.23,3.7A8.06,8.06,0,0,1,224,104a11,11,0,0,1-8.9-3.51,12.51,12.51,0,0,1-2.85-4.33,10,10,0,0,1-.51-5.31,24,24,0,0,1,1.62-5.07c.67-1.6,1.29-3.18,1.82-4.76a41.13,41.13,0,0,0,2-9.38,28.44,28.44,0,0,0-.52-8.64A22.4,22.4,0,0,0,213.77,56a19.68,19.68,0,0,0-8-7.32,17.3,17.3,0,0,0-2.8-1l-.75-.19L202,47.4a.89.89,0,0,1,.27,0l.77.15a15.54,15.54,0,0,1,2.86,1,19.49,19.49,0,0,1,8.19,7.3,22.39,22.39,0,0,1,3,7.06,28.59,28.59,0,0,1,.58,8.77,40.93,40.93,0,0,1-2,9.5c-.52,1.6-1.15,3.2-1.82,4.8a23.79,23.79,0,0,0-1.58,5,9.5,9.5,0,0,0,.47,5,12.14,12.14,0,0,0,2.73,4.15,10.56,10.56,0,0,0,8.48,3.39,7.6,7.6,0,0,0,4-1.65,6.24,6.24,0,0,0,2.1-3.44,6.62,6.62,0,0,0-.24-3.78,6.21,6.21,0,0,0-2.12-2.79,6,6,0,0,0-5.78-1A3.76,3.76,0,0,0,220,92.4a2.15,2.15,0,0,0-.18,2A2.52,2.52,0,0,0,222,96,2,2,0,0,0,223,95.59Z" fill="#263238"/><g opacity="0.2"><path d="M216.59,322.07c4.86-1.38,9.91,3,14.83,1.86,3.05-.7,5.27-3.38,6.63-6.2s2.09-5.91,3.53-8.69,3.85-5.34,6.95-5.76c2.84-.38,6.21,1,8.32-1,1.64-1.49,1.41-4.27.11-6.07s-3.36-2.84-5.35-3.82a30,30,0,0,0-6.91-2.74,10.23,10.23,0,0,0-7.24.84c-4.16,2.42-5,7.91-6.21,12.58a25.1,25.1,0,0,1-4.08,9.11,13.55,13.55,0,0,1-8.26,5.33,8.85,8.85,0,0,0-3.66.94c-1.05.72-1.46,2.53-.38,3.19Z"/></g><path d="M191.24,304.08l18.23-6.31,16.34-25.55a10.83,10.83,0,0,1,7.13-4.82l29.31-5.54a4.81,4.81,0,0,1-2.51,5.87c-3.92,2.24-21.52,6.34-21.52,6.34l27.11-.47s.84,3.92-2.24,5.32-22.38,2.1-22.38,2.1l24.72,3.49s.15,3.92-5.51,4a161,161,0,0,1-16.66-1.05.89.89,0,0,0-1,.73h0a.89.89,0,0,0,.67,1l16.44,3.88c2.17.52,2.33,3.7.17,4.25a2.52,2.52,0,0,1-.92.07c-2.8-.28-19.54-2.4-19.54-2.4s-5.9,20.68-9.73,22.36-11.83,2.13-11.83,2.13l-17,6.74Z" fill="#fbbd9d"/><path d="M263.49,273.49a8.63,8.63,0,0,1-1.42.14l-3.88.19c-3.28.14-7.8.29-12.81.43l-7,.18a15.44,15.44,0,0,0-5.59.8,6.05,6.05,0,0,0-2.88,2.37,11,11,0,0,0-.56,1.28s0-.13,0-.37a3.77,3.77,0,0,1,.36-1,5.93,5.93,0,0,1,2.91-2.61,15,15,0,0,1,5.72-.94l7.05-.22c5-.14,9.53-.23,12.81-.28l3.88,0A6.71,6.71,0,0,1,263.49,273.49Z" fill="#aa6551"/><path d="M263.86,284.58a7.08,7.08,0,0,1-1.31-.09L259,284c-3-.4-7.11-1-11.67-1.67-2.27-.31-4.45-.73-6.4-.9a8.6,8.6,0,0,0-5,.91,7.73,7.73,0,0,0-2.59,2.31c-.48.68-.67,1.12-.71,1.1s0-.12.1-.33a5.88,5.88,0,0,1,.44-.88,7.45,7.45,0,0,1,2.58-2.52A8.78,8.78,0,0,1,241,281c2,.15,4.17.55,6.45.87,4.55.68,8.67,1.32,11.65,1.81l3.52.61A5.93,5.93,0,0,1,263.86,284.58Z" fill="#aa6551"/><path d="M250.1,290.87a17.92,17.92,0,0,1-2.86-.63c-1.76-.42-4.18-1.06-6.87-1.62a13.21,13.21,0,0,0-1.93-.28,3.57,3.57,0,0,0-1.67.49,6,6,0,0,0-2.19,2.08,8.15,8.15,0,0,0-.87,2.72,1.7,1.7,0,0,1-.06-.8,5.31,5.31,0,0,1,.6-2.1,6.07,6.07,0,0,1,2.28-2.32,4.08,4.08,0,0,1,1.89-.58,11.5,11.5,0,0,1,2.05.28c2.72.56,5.13,1.26,6.86,1.78A14.79,14.79,0,0,1,250.1,290.87Z" fill="#aa6551"/><path d="M55.9,317.82l54.68-6.72,95.92-15.6,12.38,31.11c-36.07,12.5-73,23.76-109.26,33.67a40.17,40.17,0,0,1-9,.76C88.51,361.09,58.64,356.22,55.9,317.82Z" fill="#f1f2f2"/><path d="M218.88,326.61s-.1-.18-.26-.55l-.68-1.63c-.59-1.46-1.45-3.56-2.54-6.24-2.19-5.43-5.31-13.19-9.1-22.61l.23.13-46.61,7.78c-11,1.9-21.56,3.12-31.13,4.39-4.79.63-9.33,1.27-13.57,1.95-2.12.34-4.16.7-6.12,1.05a52.7,52.7,0,0,0-5.57,1.23,22.63,22.63,0,0,0-8.44,4.81,23.28,23.28,0,0,0-4.61,5.75,24.26,24.26,0,0,0-1.9,4.28c-.17.51-.28.9-.36,1.17a2.21,2.21,0,0,1-.13.39,12.17,12.17,0,0,1,.39-1.59,21.86,21.86,0,0,1,1.83-4.34,23.17,23.17,0,0,1,4.58-5.88,22.89,22.89,0,0,1,8.53-4.94,48.08,48.08,0,0,1,5.61-1.27q2.94-.56,6.12-1.09c4.24-.7,8.79-1.35,13.58-2,9.57-1.29,20.12-2.53,31.11-4.43l46.62-7.68.17,0,.06.16c3.72,9.45,6.78,17.23,8.93,22.68l2.44,6.29c.27.7.47,1.25.62,1.65S218.88,326.61,218.88,326.61Z" fill="#263238"/><path d="M85.32,359.39a2.32,2.32,0,0,1,.43.09l1.27.31c1.12.24,2.77.62,4.93.88a54,54,0,0,0,18.31-.88c1.9-.4,3.86-.94,5.91-1.53l6.39-1.79,14.06-4c9.9-2.88,20.76-6.12,32.12-9.65,19-5.91,36.48-11.69,50.07-16.36l-.12.27L209.74,304c-1.05-2.69-1.86-4.8-2.43-6.26-.27-.7-.47-1.25-.62-1.64a5.76,5.76,0,0,1-.19-.57s.09.18.25.54.38.93.67,1.62l2.54,6.22c2.17,5.42,5.3,13.18,9.11,22.66l.08.2-.21.07c-13.57,4.73-31,10.56-50.05,16.47-11.36,3.53-22.23,6.75-32.13,9.61l-14.09,4-6.39,1.77c-2,.57-4,1.11-5.94,1.5a53.36,53.36,0,0,1-18.41.73A34.87,34.87,0,0,1,85.32,359.39Z" fill="#263238"/><path d="M106.52,311.1a8.55,8.55,0,0,1-1.37.2l-3.75.38L89,312.89l-12.36,1.32-3.75.39a8.44,8.44,0,0,1-1.39.08,7.14,7.14,0,0,1,1.36-.28c.88-.15,2.16-.34,3.73-.56,3.16-.43,7.52-1,12.36-1.47s9.22-.85,12.4-1.06c1.59-.11,2.87-.18,3.76-.21A6.22,6.22,0,0,1,106.52,311.1Z" fill="#263238"/></svg>