<svg xmlns="http://www.w3.org/2000/svg" xmlns:xlink="http://www.w3.org/1999/xlink" viewBox="0 0 500 500"><defs><linearGradient id="linear-gradient" x1="271.16" y1="208.37" x2="297.48" y2="208.37" gradientUnits="userSpaceOnUse"><stop offset="0" stop-color="#fee0c2"/><stop offset="1" stop-color="#f48167"/></linearGradient><linearGradient id="linear-gradient-2" x1="264.16" y1="176.73" x2="300.14" y2="176.73" xlink:href="#linear-gradient"/><linearGradient id="linear-gradient-3" x1="-1088.99" y1="187.58" x2="-1094.18" y2="187.99" gradientTransform="matrix(-1, 0, 0, 1, -815.73, 0)" gradientUnits="userSpaceOnUse"><stop offset="0" stop-color="#f15956"/><stop offset="1" stop-color="#ee1c56"/></linearGradient><linearGradient id="linear-gradient-4" x1="194.17" y1="179.62" x2="216.25" y2="295.36" gradientUnits="userSpaceOnUse"><stop offset="0" stop-color="#617abc"/><stop offset="1" stop-color="#8595cb"/></linearGradient><linearGradient id="linear-gradient-5" x1="147.48" y1="232.96" x2="180.24" y2="232.96" xlink:href="#linear-gradient"/><linearGradient id="linear-gradient-6" x1="139.52" y1="202.37" x2="181.31" y2="202.37" xlink:href="#linear-gradient"/><linearGradient id="linear-gradient-7" x1="65.93" y1="490.99" x2="62.08" y2="491.3" gradientTransform="translate(-92.64 -199.34) rotate(-25.49)" xlink:href="#linear-gradient-3"/><linearGradient id="linear-gradient-8" x1="199.27" y1="249.09" x2="247.31" y2="249.09" xlink:href="#linear-gradient"/><linearGradient id="linear-gradient-9" x1="283.94" y1="199.59" x2="266.38" y2="306.39" gradientUnits="userSpaceOnUse"><stop offset="0" stop-color="#70cddd"/><stop offset="1" stop-color="#5ea4d9"/></linearGradient><linearGradient id="linear-gradient-10" x1="259.47" y1="282.67" x2="240.58" y2="372.36" gradientUnits="userSpaceOnUse"><stop offset="0" stop-color="#f6f9fd"/><stop offset="1" stop-color="#d4e1eb"/></linearGradient><linearGradient id="linear-gradient-11" x1="171.5" y1="244.86" x2="180.08" y2="310.94" gradientUnits="userSpaceOnUse"><stop offset="0" stop-color="#f6f9fd"/><stop offset="1" stop-color="#f6f8fc"/></linearGradient><linearGradient id="linear-gradient-12" x1="210.84" y1="281.44" x2="229.25" y2="281.44" xlink:href="#linear-gradient"/><linearGradient id="linear-gradient-13" x1="142.22" y1="285.76" x2="216.91" y2="285.76" xlink:href="#linear-gradient"/><linearGradient id="linear-gradient-14" x1="227.63" y1="270.82" x2="315.17" y2="270.82" xlink:href="#linear-gradient"/><linearGradient id="linear-gradient-15" x1="315.25" y1="205.01" x2="298.1" y2="309.3" xlink:href="#linear-gradient-9"/><linearGradient id="linear-gradient-16" x1="270.3" y1="366.55" x2="411.71" y2="366.55" xlink:href="#linear-gradient-4"/></defs><title>gambar lain</title><g style="isolation:isolate"><g id="Layer_1" data-name="Layer 1"><path id="Path_368" data-name="Path 368" d="M436.48,336.41c0-.36.1-.72.14-1.08.36-2.88.61-5.74.76-8.6,0-.27,0-.53,0-.79.06-1.28.1-2.56.12-3.83,0-.17,0-.35,0-.52q0-4.48-.23-8.94a2.45,2.45,0,0,1,0-.27,129.48,129.48,0,0,0-5.14-28.63h0c-.16-.56-.34-1.11-.51-1.67-.1-.32-.2-.65-.31-1A148.19,148.19,0,0,0,414,245h0c-1-1.58-2.09-3.15-3.19-4.7A56.65,56.65,0,0,0,399,227.78h0q-.79-.6-1.59-1.17h0a53.47,53.47,0,0,0-15-7.26h0a114.61,114.61,0,0,0-16.57-3.6h-.06l-1.53-.24h0c-4.88-.74-9.89-1.42-15-2.35h0l-1.59-.29h0l-.89-.17a40.87,40.87,0,0,1-14.1-5.86h0q-.81-.51-1.59-1.05h0a79.08,79.08,0,0,1-15-14.18q-.81-.94-1.59-1.92h0c-5.29-6.51-10.21-13.76-15-20.91h0l-1.5-2.24c-3.39-5.09-6.74-10.08-10.11-14.69-1.56-2.11-3.22-4.15-5-6.1h0q-.78-.87-1.59-1.71h0a87.83,87.83,0,0,0-15-12.49h0a118.17,118.17,0,0,0-16.58-9.11h0c-5.41-2.47-11-4.61-16.58-6.53h0l-1.59-.54h0c-6.15-2.06-12.32-3.87-18.37-5.59-21.22-6-42.58-4.37-62.94,2.61h0l-1.31.46a141.23,141.23,0,0,0-15.27,6.48h0l-1.58.78h0a166.61,166.61,0,0,0-15,8.67h0l-1.59,1h0l-.39.26q-7.39,4.93-14.6,10.41h0L99,141.7h0c-5.14,4-10.16,8.22-15,12.71h0l-1.58,1.47h0a181.9,181.9,0,0,0-15,16h0c-.54.65-1.07,1.31-1.59,2h0a158,158,0,0,0-10.37,14.55q-2.48,3.93-4.62,8h0c-.55,1.05-1.08,2.11-1.59,3.17h0c-12.51,25.77-15.67,55.94-11.06,85.8A196.23,196.23,0,0,0,43,308h0c.45,1.61.92,3.2,1.4,4.8.16.54.33,1.07.5,1.61.35,1.13.71,2.27,1.09,3.39.17.54.35,1.08.53,1.62.48,1.43,1,2.85,1.48,4.27.07.19.14.38.2.57q.84,2.32,1.74,4.62l.6,1.53c.44,1.11.88,2.22,1.33,3.32l.63,1.53c.6,1.42,1.21,2.85,1.83,4.26l.18.41c.67,1.51,1.35,3,2,4.49.22.48.45,1,.67,1.43.52,1.1,1,2.19,1.57,3.27l.69,1.41c.71,1.45,1.43,2.88,2.17,4.31a1.19,1.19,0,0,0,.08.16q1.14,2.22,2.32,4.41c.24.44.48.88.71,1.32.59,1.08,1.18,2.15,1.78,3.22.23.43.47.86.71,1.29l2.46,4.29.16.27a69.58,69.58,0,0,0,4.4,6.61c6.37,8.48,14.57,15.63,23.1,21.7a206.71,206.71,0,0,0,18.15,11.39h0l1,.55.62.33h0A69.71,69.71,0,0,0,144,418.42c1.7.17,3.4.3,5.11.37.85,0,1.7.07,2.56.09,15.37.34,31-2.6,46.34-4.32.61-.07,1.26-.12,1.93-.16h.05c9.12-.52,23.08,1.62,38,4.07,6.16,1,12.48,2.07,18.69,3l3.71.56c1.84.27,3.67.52,5.47.76l3.58.46c12.4,1.49,23.43,2,30.52-.09,9.5-2.78,10.83-9.74,14.63-15.52.23-.35.47-.69.72-1l.08-.11c.25-.34.51-.67.79-1,2.79-3.28,7-5.86,15-6.56.51,0,1-.08,1.59-.1,9.9-.53,25.15,1.62,49.55,8.36a17.38,17.38,0,0,0,10.78-.66,27,27,0,0,0,4.31-2l.09-.06h0a40.08,40.08,0,0,0,5.21-3.67,67.37,67.37,0,0,0,9.1-9.32c.64-.79,1.28-1.59,1.91-2.42a133.24,133.24,0,0,0,14.46-24.36l.62-1.37c1.22-2.73,2.31-5.39,3.24-7.93l.45-1.26q.66-1.87,1.2-3.63c.11-.39.23-.78.34-1.16q.33-1.14.6-2.22c.18-.72.34-1.41.48-2.08.29-1.41.54-2.81.79-4.22.06-.4.13-.8.19-1.19Q436.26,338,436.48,336.41Z" fill="#fff5e9"/><path d="M279.58,188.72s.67,14.06-4.1,18.44c0,0-12.05,35.8,4.1,28.13s17.9-28.13,17.9-28.13-5.41-6.38,0-26.78Z" fill="url(#linear-gradient)"/><path d="M335.57,218.33s-3.1,4.17-8.21,0-2.29-10.36-6.46-19.11c-3.11-6.51-11.72-7.13-15.92-7a7.86,7.86,0,0,1-4.64,3c1.13,7.14-2.21,19.83,2.48,25.9,4.93,6.39,14.58,14.61,25.75,11.42S335.57,218.33,335.57,218.33Z" fill="#231f20"/><path d="M301.55,217.48c-.47-1.37-.81-3.48-1.29-5.68.14,3.61.75,6.94,2.56,9.28l.36.46C302.56,220.18,302,218.81,301.55,217.48Z" fill="#4f2b78"/><path d="M285.57,151.88s-14.6,17.63-17.13,17.9-12.88-1.08-10.6-13.33,24.36-15.34,30.56-14S292.57,151.47,285.57,151.88Z" fill="#231f20"/><path d="M264.65,166.49a10.13,10.13,0,0,0-.37,4.71c.57,4.31,2.33,15.67,5.28,19.91,3.67,5.28,10.9,7.23,17.22,2.29s9-12.54,10.36-16.67,1.69-1.39,2.76-6-1.68-6.27-3.75-5.89c0,0-7.75-1.46-7.75,3.74s-.74,5.14-2.35,3.3-4.29-7.88-4.13-14.69C281.92,157.21,267.78,157.67,264.65,166.49Z" fill="url(#linear-gradient-2)"/><path d="M267.61,176.31a1.36,1.36,0,1,0,1.35-1.16A1.26,1.26,0,0,0,267.61,176.31Z" fill="#160c41"/><path d="M278.15,175.15a1.48,1.48,0,1,0,1.47-1.26A1.38,1.38,0,0,0,278.15,175.15Z" fill="#160c41"/><path d="M274,184.86h.12a.35.35,0,0,0,.38-.33.36.36,0,0,0-.36-.35c-.77,0-1.27-.15-1.42-.39s.27-1.18.64-1.75c.14-.23.28-.44.37-.63a13.18,13.18,0,0,0,.68-3.83.37.37,0,0,0-.36-.36.36.36,0,0,0-.39.33,12.5,12.5,0,0,1-.6,3.57c-.09.17-.21.36-.35.57-.48.76-1.08,1.71-.63,2.43C272.4,184.57,273,184.82,274,184.86Z" fill="#d67bb2"/><path d="M275.86,189.09a4.33,4.33,0,0,0,2.9-1.86.37.37,0,0,0-.58-.46c-2,2.49-3.7,1.37-3.77,1.32a.37.37,0,1,0-.42.62A3.08,3.08,0,0,0,275.86,189.09Z" fill="url(#linear-gradient-3)"/><path d="M281.64,171.8a.37.37,0,0,0,.09-.72,7.29,7.29,0,0,0-5.18.23.37.37,0,0,0,.31.68,6.6,6.6,0,0,1,4.62-.21A.3.3,0,0,0,281.64,171.8Z" fill="#160c41"/><path d="M266.24,174.06a.35.35,0,0,0,.23-.12,3.78,3.78,0,0,1,3.46-.87.37.37,0,0,0,.45-.27.37.37,0,0,0-.27-.45,4.47,4.47,0,0,0-4.19,1.09.38.38,0,0,0,0,.52A.36.36,0,0,0,266.24,174.06Z" fill="#160c41"/><path d="M264.58,295.45s-26.86-12.52-29.28-22.21-23-84-35.13-88.42-98.11,1.61-106.59,2-27.86,5.65-27.45,13.32,30.68,115.48,46.43,131.63S241,389.12,287.39,394s121.12-62.59,121.12-62.59S295.07,308.37,264.58,295.45Z" fill="#cfe6f7"/><path d="M126.85,242.63c-8.3,5.16-11.12,10.43-9,20.42,1.93,9.23,6.15,17.59,9.76,26.23.53,1.27,1.17,2.73,1.84,4.3,3-1.07,6-2.16,8.87-3.33,15.73-6.33,13.34-21,18.17-34.56,2.45-6.87,6.35-14.11,6.6-21.57.27-8.3-1.3-17.75-2.89-25.91C158.52,199.67,155.3,192,152,184c0-.07-.06-.13-.08-.19-7.23.26-14.56.6-21.49,1a88.92,88.92,0,0,0-4.73,8.66c-3.39,6.93-4.19,15.06,3.62,19.31,6.81,3.71,15.5,9.29,13,18.4C140.51,237.78,132.05,239.4,126.85,242.63Z" fill="#cfe6f7" style="mix-blend-mode:multiply"/><path d="M341.85,365.4c-13.6-1.52-26.24-4.43-39.45-7.71-9.95-2.47-20-2.3-30.61-3.19-26.09-2.21-49.76-13.07-74.1-21.86-22.46-8.11-46.35-12.55-62.09-32.25-13.69-17.15-21-38.12-26.43-59.15-3-11.6-5.77-23.48-9.43-34.9-2.13-6.65-4.55-13-6.2-19.5-8.49.42-27.82,5.66-27.41,13.32s30.68,115.48,46.43,131.63S241,389.12,287.39,394c22.13,2.31,50.69-11.81,74.51-27.22C355.2,366.53,348.51,366.14,341.85,365.4Z" fill="url(#linear-gradient-4)"/><path d="M180.19,235.29s-2.65.67-6-2.78h0a18.44,18.44,0,0,1-2-2.56h0c-.38-.58-.76-1.22-1.15-1.92l-.11-.21c-.1-.17-.19-.35-.28-.53s-.14-.29-.22-.43l-.24-.51c-.1-.2-.19-.4-.28-.6s-.13-.28-.2-.43l-.46-1.08c0-.12-.09-.25-.14-.37-.12-.28-.23-.57-.34-.88-.06-.14-.11-.29-.17-.44l-.33-.94-.15-.42c-.16-.46-.31-.93-.47-1.43h0l-.2,0-.29,0H167l-1.13-.11h0l-1-.11h0l-.53-.06h-.08l-.45-.05-.22,0-.37,0-.33,0-.3,0-.45-.05-.2,0-.55-.07-.17,0-.63-.08h-.08c-2.06-.28-4.3-.63-6.35-1l-.09-.44c-3.89-.69-4.3-1.65-5.39-2.82,0,0,.15.68.35,1.79l-.55-.26a8.63,8.63,0,0,1,.66.81c.85,4.68,2.44,15.17.7,20.23a5.65,5.65,0,0,1-2.3,2.72l.05,0,.05,0,.1.09.07.07.17.14.09.08.24.2.11.1.3.25.14.12.35.28.17.14.39.31.19.16.44.34a1.84,1.84,0,0,0,.22.17l.47.37.24.18.52.39.26.19.55.4.27.2.59.42.28.19.64.44.27.18.72.47.23.16.8.5.19.12,1,.58,0,0h0c5,2.9,10.74,5.16,14.92,3.36C181.4,246.79,180.19,235.29,180.19,235.29Z" fill="url(#linear-gradient-5)"/><path d="M141.23,183.2s9.55-6.32,15.88-4.71,14.83,8.2,15.64,11a94.61,94.61,0,0,1,2.21,9.73,15,15,0,0,0,2.32,6.16c1.31,2,4.92,5.35,3.83,6.41-.77.75-3.94,1-3.73,2.2s4.52,10-2.45,11.84a21,21,0,0,1-18.27-3.9c-1.48-1.16-8-7.31-8-7.31l-1,1s-1.63,2.21-2.34,1.63c-9.28-7.68-3-13.8.38-12S134.77,190.46,141.23,183.2Z" fill="url(#linear-gradient-6)"/><path d="M148.62,214.65a6.35,6.35,0,0,1-3.09-2c-1.8-2.63-1.57-6.19.89-6.84,3.83-1,5.39,2,6.5,3.88a2.35,2.35,0,0,0,3.15,1,1.85,1.85,0,0,0,.87-2.27c-.7-4.4-4.56-7.52-4-14.48.54-6.73-5.78-11-5.78-11-5.39-4.3-16.52.57-14,17.94,2.06,14.2,12.63,17.6,16.36,18.52A15.45,15.45,0,0,0,148.62,214.65Z" fill="#231f20"/><path d="M139.83,184.82S155,196,163.1,195.18s9.15-5.88,10-3.57a36.7,36.7,0,0,1,1.44,5.43,10.06,10.06,0,0,0,5.67-11.7c-1.74-7.89-7.65-4.9-12.29-5.7s-9.8-5.59-14.92-5.66S139.66,178.05,139.83,184.82Z" fill="#231f20"/><path d="M172.81,205.68a1.48,1.48,0,1,1-1.87-.51A1.38,1.38,0,0,1,172.81,205.68Z" fill="#160c41"/><path d="M177.69,217.28a4.35,4.35,0,0,1-3.42-.44.37.37,0,0,1-.17-.49.37.37,0,0,1,.5-.17,4,4,0,0,0,3.43.12c.13,0,.2.72.08.8A3.31,3.31,0,0,1,177.69,217.28Z" fill="url(#linear-gradient-7)"/><path d="M167.77,203a.37.37,0,0,1-.37-.13.37.37,0,0,1,0-.52,7.24,7.24,0,0,1,5-1.45.36.36,0,0,1,.33.41.37.37,0,0,1-.41.33,6.59,6.59,0,0,0-4.43,1.28A.37.37,0,0,1,167.77,203Z" fill="#160c41"/><path d="M236.41,239.12s-5.41,6.69-7.16,6.77a106.58,106.58,0,0,1-29.07-4.26l-.91,8.39s27.29,10.8,34.19,8.78S247.31,246,247.31,246Z" fill="url(#linear-gradient-8)"/><path d="M275.48,207.16s-12.92.71-17.37,1.3-25.63,30.06-28.86,33.69c0,0,9.69,10.1,14.33,13.73,0,0,12-15.55,13.15-16.55,0,0-7.9,38.8-14.16,49.38,0,0,1,15,28.46,17.84s44.22-7.27,44.22-7.27-10.68-27-11.7-50.26,7.37-32.91,7.37-32.91-9.81-6.26-13.44-9c0,0-17.5,14-18.71,15.88C278.77,223,276.35,211.6,275.48,207.16Z" fill="url(#linear-gradient-9)"/><path d="M261.4,262.21c-2.16-5.06-1.43-10.2.36-15.29,2.11-6,.22-9.35-2.12-15a32.94,32.94,0,0,1-2.31-8.49c-1.63,3.74-3,7.61-4.31,11.5a31.88,31.88,0,0,1-7.69,11.62,17.53,17.53,0,0,0-4.54,6.91c1,.93,2,1.76,2.79,2.39,0,0,12-15.55,13.15-16.55,0,0-7.9,38.8-14.16,49.38,0,0,.58,8.43,12.42,13.84a62.13,62.13,0,0,1,5.15-7.06c.76-.9,4.17-4,4.1-5.29-.35-6-2.13-11.29-.34-17.28S263.66,267.49,261.4,262.21Z" fill="#3ac1d0" opacity="0.55" style="mix-blend-mode:multiply"/><path d="M307,223.62c-3.64,3.18-7.51,6.17-10.65,9.75-8.74,9.93-2,21.81-4.59,33.55-1.27,5.83-5.12,11.12-4.85,17.21.21,4.8.79,10.22-.63,14.92a32.56,32.56,0,0,1-3.52,8c20.45-.46,32.54-7.74,32.54-7.74s-10.68-27-11.7-50.26C303,237.23,304.94,228.94,307,223.62Z" fill="#3ac1d0" opacity="0.55" style="mix-blend-mode:multiply"/><path d="M356.39,312.11c-10.06-4.4-17.75-13.38-28.14-16.95-15.87-5.44-34.72,2.84-49.54-5-10.16-5.37-15.89-17.22-26.41-21.82-2.31-1-4.78-1.63-7-2.75-3-1.48-5.47-3.77-8.4-5.34-5.87-3.12-12.85-3.05-19.49-2.91-8.84.19-17.7.39-26.44,1.7-22.39,3.35-43,13.82-63.12,24.15-4.24,2.17-8.73,4.58-11,8.78-2,3.76-1.9,8.27-2.9,12.43-2.31,9.57-10.63,17.26-11.25,27.08s7,18.65,15.35,24.07c29.85,19.28,70.54,11.38,102.23,27.47,12.27,6.23,23.28,16.08,36.94,17.78,14.66,1.82,28.53-6.17,42.92-9.46,15.51-3.55,31.74-1.6,47.54-3.51s32.72-9.29,38.44-24.14c3.44-8.93,2.2-18.91.62-28.35-.51-3,10.06-1.77,9.3-4.76C392,314.69,366.19,316.4,356.39,312.11Z" fill="url(#linear-gradient-10)"/><path d="M210.82,295.6c1.25-.12,2.54-.25,3.89-.42a64.33,64.33,0,0,0,12.9-3.19,37,37,0,0,1,7.38-5.43c9-4.58,19.41-6.21,29.17-9.15-3.55-3.65-7.25-7.06-11.86-9.08-2.31-1-4.78-1.63-7-2.75-3-1.48-5.47-3.77-8.4-5.34-5.87-3.12-12.85-3.05-19.49-2.91-8.84.19-17.7.39-26.44,1.7-22.39,3.35-43,13.82-63.12,24.15-1.19.61-2.39,1.24-3.56,1.92,3.2,5,7.2,9.55,12.45,12.35,9.16,4.88,17,2.3,26.44-.36,10.79-3,21.64-3.3,32.77-2.9C200.85,294.36,206,294.5,210.82,295.6Z" fill="#d9e1f3" opacity="0.55" style="mix-blend-mode:multiply"/><path d="M200.33,266.35c4.79,6.42,10.66,13.11,19.31,12.94,15.88-.3,31.86-7.35,47,.79l.09.05c-4.39-4.6-8.71-9.29-14.46-11.8-2.31-1-4.78-1.63-7-2.75-3-1.48-5.47-3.77-8.4-5.34-5.87-3.12-12.85-3.05-19.49-2.91-7.44.16-14.9.33-22.29,1.16C196.72,261.18,198.45,263.82,200.33,266.35Z" fill="#d9e1f3" style="mix-blend-mode:multiply"/><path d="M203.59,297.27c6.63,5.77,15.1,8.2,23.54,10,9.6,2.05,20-2.16,29.6-.22,11,2.23,20.87,9.76,32,11.29,10.71,1.47,21-.91,31.63-1.69a79.9,79.9,0,0,1,9.7-.11c-.3-.18-.59-.37-.9-.52-8.08-4-17.34-3.14-26.07-3.66-9.35-.55-18.1-2.2-26.62-6.24-7.44-3.53-15-10.71-23.14-12.09-17-2.85-35.5,9.37-51.47-1.68a62.75,62.75,0,0,1-6-4.77A37.87,37.87,0,0,0,203.59,297.27Z" fill="#d9e1f3" opacity="0.55" style="mix-blend-mode:multiply"/><path d="M385.16,328.78a30.27,30.27,0,0,0-8.46,0c-18.65,2.35-37.64,9.24-55.35,15.33-8.83,3-16.63,6.25-24.26,11.68-6.51,4.63-13.22,9.47-21.32,10.59-13.72,1.89-25.68-6.31-32.75-17.54-4.94-7.85-9-21.64-19.14-24.22-8-2-17-2-25.18-.91-9.37,1.21-18.1,5.21-27.48,6.54-17.49,2.46-28.36-6.32-37.74-20a209,209,0,0,0-15.12-20l-.23-.23a13.79,13.79,0,0,0-1.32,1.94c-2,3.76-1.9,8.27-2.9,12.43-2.31,9.57-10.63,17.26-11.25,27.08s7,18.65,15.35,24.07c29.85,19.28,70.54,11.38,102.23,27.47,12.27,6.23,23.28,16.08,36.94,17.78,14.66,1.82,60.23,3.55,74.62.26,15.51-3.54,0-11.32,15.84-13.23s32.72-9.29,38.44-24.14c3.44-8.93,2.2-18.91.62-28.35A37.35,37.35,0,0,0,385.16,328.78Z" fill="#d9e1f3" style="mix-blend-mode:multiply"/><path d="M243,348.85c-4.94-7.85-9-21.64-19.14-24.22-8-2-17-2-25.18-.91-9,1.16-17.39,4.87-26.34,6.34,8.67,2,15.81,4,24.79,2.78a185,185,0,0,1,19.52-.26c8,.63,11.62,4.69,17,9.88,7.42,7.11,13,16.22,21.55,19.05A41.46,41.46,0,0,1,243,348.85Z" fill="#d9e1f3" opacity="0.55" style="mix-blend-mode:multiply"/><path d="M112.24,349.14c-4.8-11.34-.53-19.2,5.6-28.53,3.22-4.9.88-10.33,3.29-15.66,2.22-4.89,6.48-7.53,11.68-8.41,7.15-1.21,10.36-4.31,15.8-9,4.9-4.25,9.89-7.94,16.12-10s13-3.43,19.61-2.31c3.3.56,5.82,2.26,9.08,1,2.14-.83,4.48-2.05,6.77-2.38,7.6-1.12,15-.18,22.57-.54,7.31-.35,14.48-3.94,21.83-3.37,4.06.31,8.11.69,12.14,1a26.55,26.55,0,0,0-4.43-2.53c-2.31-1-4.78-1.63-7-2.75-3-1.48-5.47-3.77-8.4-5.34-5.87-3.12-12.85-3.05-19.49-2.91-8.84.19-17.7.39-26.44,1.7-22.39,3.35-43,13.82-63.12,24.15-4.24,2.17-8.73,4.58-11,8.78-2,3.76-1.9,8.27-2.9,12.43-2.31,9.57-10.63,17.26-11.25,27.08-.54,8.43,4.82,15.94,11.56,21.33A21.78,21.78,0,0,1,112.24,349.14Z" fill="#fff"/><path d="M120.87,290.59c-.35-.81-.64-1.64-.91-2.48a14.15,14.15,0,0,0-3.15,3.85c-2,3.76-1.9,8.27-2.9,12.43-2.31,9.57-10.63,17.26-11.25,27.08-.54,8.43,4.82,15.94,11.56,21.33a21.78,21.78,0,0,1-2-3.66c-4.8-11.34-.53-19.2,5.6-28.53,3.22-4.9.88-10.33,3.29-15.66a13.71,13.71,0,0,1,4.38-5.44A52.32,52.32,0,0,1,120.87,290.59Z" fill="#d9e1f3" opacity="0.55" style="mix-blend-mode:multiply"/><path d="M174.24,232.5s-3.19,10.59-5.52,10.73-18.53-7.15-18.53-7.15-10,6.21-17.41,9.17c0,0-10.26,2.55-7.84,14.8s5.52,24.36,9.42,29.61,9.68,5.13,13.12,4.31c0,0,5-11.44,12.77-13.33,0,0,22.5,1.51,27.11-.08s24.25,10.85,33.68-.86l2.52-8s-6.16-12.74-8.85-17.58-7.27-13.86-13.32-16.69S180.07,233.89,174.24,232.5Z" fill="url(#linear-gradient-11)"/><path d="M206.78,264c-1.94-3.24-4.35-4.38-7-4.53a19.68,19.68,0,0,0-3.89-5.16c1.17,2.8.77,3.54,1.27,5-3.83.68-8.91,2.71-12.83,2.58-3.69-.12-7-1.86-10.16.47a28.64,28.64,0,0,1-8,4.39c-3.1,1.09-7.33.07-10.09-1.47-3.44-1.9-4.62,1.23-7.77-.85-.17-.12-2.36-2.14-2.57-2.17,2.2,7.29,7.56,13.33,12.88,18.95a11,11,0,0,1,1.64-.57s22.5,1.51,27.11-.08,24.25,10.85,33.68-.86l.66-2.1C215.62,275.6,209.62,268.72,206.78,264Z" fill="#d9e1f3" style="mix-blend-mode:multiply"/><path d="M142.84,284.64c-2.53-2.35-7.44-2.12-9-5.29-3.51-7.24,2.41-13.68-6.91-22.8-1.86-1.82.55-6.79-.13-7.21-1.72,2.26-2.89,5.65-1.89,10.71,2.42,12.25,5.52,24.36,9.42,29.61,3.63,4.89,8.88,5.12,12.37,4.46C144.87,291.87,145,286.64,142.84,284.64Z" fill="#d9e1f3" style="mix-blend-mode:multiply"/><path d="M214.56,270.37a36.77,36.77,0,0,1-4.74-6.27c-7-5-15.72-2.19-24.06-.17-4.69,1.14-10-1-14.31.25-5.06,1.47-8.4,6.21-13.11,8.38a47.19,47.19,0,0,1-10,3.46,37.85,37.85,0,0,0,7.4,5.3,7.89,7.89,0,0,1,4.09,5.38c13.08-.38,26.17-3.77,39.31-4.42,6.78-.34,12.6-3.67,19.1-5.29a13.29,13.29,0,0,1,1.38-.24C218,274.71,216.47,272.51,214.56,270.37Z" fill="#f6f2f8"/><path d="M215.18,271.11a117.07,117.07,0,0,1-12.89-2.3,60.2,60.2,0,0,0-10.35,2.3,48.81,48.81,0,0,1-18.66,3c-5.78-.18-12.66,3.47-18.07,5.46-.53.2-1.06.36-1.59.55a20.06,20.06,0,0,0,2.08,1.19,7.89,7.89,0,0,1,4.09,5.38c13.08-.38,22.6,1.93,35.74,1.28,6.78-.34,13.17,12.52,28-2.22.33-.33-4.44-8.95-4-9C218.15,274.94,216.8,273,215.18,271.11Z" fill="#d9e1f3" style="mix-blend-mode:multiply"/><path d="M214.56,270.37c-.72-.8-2.62-3.19-3.28-4-3.7-4.59-8.17-5.57-14-4.9a100.83,100.83,0,0,0-11.49,2.46c-4.69,1.14-10-1-14.31.25-5.06,1.47-8.4,6.21-13.11,8.38a47.19,47.19,0,0,1-10,3.46,37.85,37.85,0,0,0,7.4,5.3,6.12,6.12,0,0,1,.56.31,37.21,37.21,0,0,1,8.47-4.14c6.26-2.09,13-3.43,19.61-2.31,3.3.56,5.82,2.26,9.08,1,2.14-.83,4.48-2.05,6.77-2.38,5.65-.84,11.17-.54,16.76-.48C216.2,272.33,215.43,271.35,214.56,270.37Z" fill="#fff"/><path d="M216.12,273.29l7.07-2a86.13,86.13,0,0,1,5.7,6.57c1.24,1.86-1.1,9.26-1.86,10.28s-6.11,2.87-8.86,3.38c-1.34.24-1.51-.72-1.2-1.12a35.68,35.68,0,0,1,3.62-1.76s-5.39,2.5-6.1,1.8c-1.77-1.72,4.67-4,4.67-4s-6.26,2.95-6.45,1.06c-.22-2.29,5.4-3.41,5.4-3.41s-6.39,2.35-7.19.87,5.12-3.1,6.3-3.66c.36-.17,2.12-3.66.95-4-.22-.05-2,2.21-3,2.92a5.52,5.52,0,0,1-3.22,1.24c-1.58,0-.33-2.87,3.31-5A7.22,7.22,0,0,0,216.12,273.29Z" fill="url(#linear-gradient-12)"/><path d="M152.66,278.89s13.06,1.21,17,1.62a162.53,162.53,0,0,0,18.17,0c1.35-.27,10.77-4.44,12.59-4s9.18,4.75,11.81,7.47,5.85,8.78,4.34,9.14-6.26-4.19-7.47-5.71a22.47,22.47,0,0,0-4.24-3.43,54.49,54.49,0,0,1,4.37,4.24c1.08,1.35,6.8,5.38,5.25,6.39s-5.85-2.91-6.8-4a40.39,40.39,0,0,0-4.17-3.63l4.33,4.31c.25.25,5.14,3.13,2.47,3.78s-4.9-2.82-5.55-3.33-2.53-2.52-2.53-2.52l2.3,2.6a16.67,16.67,0,0,1,1.56,1.69c.44.62.31,1.21-.76,1.11-2.07-.2-5.22-3.23-7.79-4.34s-6.28-.23-10.58-1.49-40.85,6.23-43.88,4.82S145.83,277.28,152.66,278.89Z" fill="url(#linear-gradient-13)"/><path d="M315,268c.21,1.25-.92-4.84-.23-3.8-1.35-2-3.56-3.64-5.39-5.19a8.53,8.53,0,0,0-3.78-2,20.51,20.51,0,0,0-3.72,2.06s-41.79,16-46.13,15.39-6.66-3.2-11.5-5.64-16.65,2.93-16.66,5.18,10.8-1.76,12.52-.95c0,0-11.9,2-11.58,3.4.27,1.19,3.22,1.66,8.46.74-3.13.72-7.15,1.86-6.78,2.86.45,1.18,3.56,1.13,7.25.48-2.4.67-4.79,1.68-3.88,3,1.68,2.35,9.62-1.75,12.38-1.48s6.39,3,9.22,2.62,7.41-3.35,12.22-3.78c4.49-.39,40.67-6,47.73-12.11C314.93,268,315.17,268.72,315,268Z" fill="url(#linear-gradient-14)"/><path d="M304,218.37c-3,6-7.66,22.64-8,42.91,0,0,7.07-2.12,12.65.45a12.75,12.75,0,0,1,6.49,7.41,68.37,68.37,0,0,0,2.65-36c-1-5.06-1-7.28-2.07-9.65-2.77-6.06-5.67-9.12-8-8.42A6.35,6.35,0,0,0,304,218.37Z" fill="url(#linear-gradient-15)"/><path d="M262.49,153.66s2.48,11,16.72,13.59c0,0,7.5,1.08,6.29,8.88,0,0,1.21,3,2.16,0s5.11-7.8,7.82-2.27c2.45,5-4.4,7.66-4.4,7.66s-.94,10.23,5.69,15.34,8.52-2.83,8.52-2.83,15.07-20.18,3.9-38.69S267.87,136.3,262.49,153.66Z" fill="#231f20"/><rect x="270.3" y="326.62" width="141.42" height="79.86" rx="8.89" fill="url(#linear-gradient-16)"/><rect x="279.62" y="326.62" width="141.42" height="79.86" rx="8.89" fill="#d9e1f3"/><path d="M415.38,397.59V365c-4,.25-8,.32-11.93.25-4.9.09-9.79-.06-14.63-.37-11.59-.76-24-3.43-36-3.83-1.75.06-3.5.18-5.22.39-6.68.82-12.87,2-19.38,1.57a42.14,42.14,0,0,1-11-.68c-7.53-1.55-14.51-3.42-22.26-3.62a69.3,69.3,0,0,1-15.33-2.09v41a8.89,8.89,0,0,0,8.89,8.89h118A8.89,8.89,0,0,0,415.38,397.59Z" fill="#d9e1f3" opacity="0.55" style="mix-blend-mode:multiply"/></g></g></svg>