<svg id="Layer_1" data-name="Layer 1" xmlns="http://www.w3.org/2000/svg" xmlns:xlink="http://www.w3.org/1999/xlink" viewBox="0 0 500 500"><defs><linearGradient id="linear-gradient" x1="339.22" y1="255.06" x2="398.45" y2="255.06" gradientUnits="userSpaceOnUse"><stop offset="0" stop-color="#f6f9fd"/><stop offset="1" stop-color="#d4e1eb"/></linearGradient><linearGradient id="linear-gradient-2" x1="117.75" y1="269.27" x2="273.4" y2="269.27" gradientUnits="userSpaceOnUse"><stop offset="0" stop-color="#dc3644"/><stop offset="1" stop-color="#e1645d"/></linearGradient><linearGradient id="linear-gradient-3" x1="319.26" y1="269.27" x2="332.09" y2="269.27" xlink:href="#linear-gradient-2"/><linearGradient id="linear-gradient-4" x1="276.41" y1="236.29" x2="316.25" y2="236.29" xlink:href="#linear-gradient"/><linearGradient id="linear-gradient-5" x1="130.98" y1="236.29" x2="170.83" y2="236.29" xlink:href="#linear-gradient"/><linearGradient id="linear-gradient-6" x1="179.45" y1="236.29" x2="219.3" y2="236.29" xlink:href="#linear-gradient"/><linearGradient id="linear-gradient-7" x1="227.93" y1="236.29" x2="267.78" y2="236.29" xlink:href="#linear-gradient"/><linearGradient id="linear-gradient-8" x1="341.67" y1="220.61" x2="357.39" y2="220.61" xlink:href="#linear-gradient-2"/><linearGradient id="linear-gradient-9" x1="358.19" y1="292.8" x2="377.01" y2="292.8" xlink:href="#linear-gradient-2"/><linearGradient id="linear-gradient-10" x1="54.67" y1="278.51" x2="77.77" y2="278.51" gradientUnits="userSpaceOnUse"><stop offset="0" stop-color="#70cddd"/><stop offset="1" stop-color="#5ea4d9"/></linearGradient><linearGradient id="linear-gradient-11" x1="60.86" y1="271.18" x2="87.31" y2="271.18" xlink:href="#linear-gradient-10"/></defs><title>gambar lain</title><path d="M175.57,185.81C95.86,191,56.36,221.87,54.34,259c-3.2,58.88,34.41,106.89,119.34,96.69,87.39-10.51,150.9,44.57,220,17S491.07,295.33,455,235.47s-78.2-78.83-126.18-81.83S255.29,180.65,175.57,185.81Z" fill="#fff7ed"/><path d="M119.82,211.4h-12.1c0,8.32,5.41,11.1,11.75,13.23Z" fill="#c3c3c3" fill-rule="evenodd"/><path d="M435.07,305.79c2.32,0,4.22-3.55,4.22-7.91s-1.9-7.92-4.22-7.92-4.21,3.55-4.21,7.92S432.75,305.79,435.07,305.79Z" fill="#dbdddc" fill-rule="evenodd"/><rect x="284.8" y="227.74" width="49.6" height="72.86" fill="#505354"/><polygon points="426.55 333.77 127.79 333.96 127.79 287.92 426.55 287.73 433.22 333.75 426.55 333.77" fill="#1c2023" fill-rule="evenodd"/><path d="M375.28,333.9l-43.19.06V227.74c5.52-.06,30.53.27,35.85,1.33,8.76.72,36.6,43.93,38.51,44.71,3.69,1.51,29.71,7.33,29.84,17.09v42.87l-11.46,0c.07-.74.1-1.49.1-2.25a24.88,24.88,0,0,0-49.76,0A23.22,23.22,0,0,0,375.28,333.9Z" fill="#fff" fill-rule="evenodd"/><path d="M342.63,279.43l9.76,0a2.37,2.37,0,0,1,2.37,2.38h0a2.39,2.39,0,0,1-2.38,2.38l-9.76,0a2.38,2.38,0,0,1-2.37-2.38h0A2.38,2.38,0,0,1,342.63,279.43Z" fill="#efeeee" fill-rule="evenodd"/><path d="M400.69,273.78c-8-13.33-25.08-37.53-28.51-37.75l-33.87-.56-.07,38.44Z" fill="#495258" fill-rule="evenodd"/><path d="M398.45,272.52c-2.92-4.77-23.06-34.08-26.23-34.5l-33-.54,0,35.16Z" fill-rule="evenodd" fill="url(#linear-gradient)"/><path d="M117.75,300.6V208.3H332.09V334H186.68q.12-1.2.12-2.43a24.89,24.89,0,0,0-49.77,0q0,1.23.12,2.43h-19.4Z" fill="#fff" fill-rule="evenodd"/><path d="M338.78,330V334H186.68q.12-1.2.12-2.43c0-.51,0-1-.05-1.51Z" fill="#fff" fill-rule="evenodd"/><path d="M277,221.3h38.66a3.62,3.62,0,0,1,3.6,3.61v96.55a3.61,3.61,0,0,1-3.6,3.6H277a3.6,3.6,0,0,1-3.6-3.6V224.91a3.62,3.62,0,0,1,3.6-3.61Zm38.66.57H277a3,3,0,0,0-3,3v96.55a3.06,3.06,0,0,0,3,3h38.66a3,3,0,0,0,3-3V224.91a3,3,0,0,0-3-3Z" fill="#8c9898" fill-rule="evenodd"/><rect x="185.44" y="330.02" width="188.35" height="4.85" fill="#9e9e9f"/><path d="M116,319.78h12.9V334H116c-2.82,0-5.13-1.81-5.13-4V323.8a4.38,4.38,0,0,1,0-.51,3.89,3.89,0,0,1,0-.49v-3Z" fill="#cfd1d2" fill-rule="evenodd"/><rect x="117.75" y="300.6" width="4.42" height="17.59" fill="#ed7e23"/><rect x="117.75" y="254.45" width="155.65" height="29.65" fill="url(#linear-gradient-2)"/><rect x="273.97" y="254.45" width="44.73" height="29.65" fill="#e41e26"/><rect x="274.94" y="263.21" width="4.76" height="14.51" rx="2.38" fill="#ce2027"/><rect x="319.26" y="254.45" width="12.82" height="29.65" fill="url(#linear-gradient-3)"/><rect x="425.94" y="291.58" width="7.88" height="4.6" rx="1.3" fill="#ed8322"/><rect x="226.58" y="225.54" width="42.54" height="21.51" fill="#495258"/><rect x="178.11" y="225.54" width="42.54" height="21.51" fill="#495258"/><rect x="129.63" y="225.54" width="42.54" height="21.51" fill="#495258"/><rect x="275.06" y="225.54" width="42.54" height="21.51" fill="#495258"/><rect x="276.41" y="226.88" width="39.85" height="18.82" fill="url(#linear-gradient-4)"/><rect x="130.98" y="226.88" width="39.85" height="18.82" fill="url(#linear-gradient-5)"/><rect x="179.45" y="226.88" width="39.85" height="18.82" fill="url(#linear-gradient-6)"/><rect x="227.93" y="226.88" width="39.85" height="18.82" fill="url(#linear-gradient-7)"/><path d="M297.26,280.9a12.18,12.18,0,1,0-12.17-12.17A12.2,12.2,0,0,0,297.26,280.9Z" fill="#fff" fill-rule="evenodd"/><polygon points="287.86 271.88 287.86 265.57 294.11 265.57 294.11 259.32 300.42 259.32 300.42 265.57 306.67 265.57 306.67 271.88 300.42 271.88 300.42 278.13 294.11 278.13 294.11 271.88 287.86 271.88" fill="#e41e26" fill-rule="evenodd"/><path d="M137.82,274.4l-.7,4.39h-3l3.24-19.06h3.95l3.2,19.06h-3l-.67-4.39Zm1.5-10.3-1.06,7.5h2.13l-1.07-7.5Zm10.47,14.69h-2.87V259.71h4.13l2.68,13.74,2.59-13.74h4v19.08H157.4v-12l-2.51,12h-2.31l-2.79-12v12Zm13,0V259.71h4.3a5.45,5.45,0,0,1,3.07.9,4.15,4.15,0,0,1,1.67,2.36,6.7,6.7,0,0,1,.28,2,4.46,4.46,0,0,1-1,3.07,2.81,2.81,0,0,1-1,.75,3.34,3.34,0,0,1,1.62,1.45,5.37,5.37,0,0,1,.65,1.88,7.69,7.69,0,0,1,.11,1.33,6.33,6.33,0,0,1-.69,3.07,4,4,0,0,1-1.5,1.58,4.1,4.1,0,0,1-2.17.67Zm3.11-2.85h1.19a2,2,0,0,0,2-1.5,3.11,3.11,0,0,0,.2-1.18,3.56,3.56,0,0,0-.61-2.32,1.92,1.92,0,0,0-1.6-.67h-1.19v5.67Zm0-8.43h1.19a1.76,1.76,0,0,0,1.79-1.32,3.75,3.75,0,0,0,.16-1.2,2.56,2.56,0,0,0-.57-1.8,1.78,1.78,0,0,0-1.38-.56h-1.19v4.88ZM179.52,279a4.52,4.52,0,0,1-4.54-4.54V259.73h2.8v14.72a1.64,1.64,0,0,0,1.66,1.64,1.62,1.62,0,0,0,1.64-1.64V259.73h3v14.74a4.35,4.35,0,0,1-1.34,3.23,4.44,4.44,0,0,1-3.22,1.31Zm15-.22h-7.83V259.73h2.87v16.19h5v2.87Zm5.68-4.39-.71,4.39h-3l3.24-19.06h4l3.2,19.06h-3l-.67-4.39Zm1.5-10.3-1.07,7.5h2.13l-1.06-7.5Zm10.83-4.39,3.82,12.81V259.71h2.87v19.08h-3.09l-4-12.21v12.21h-2.87V259.71ZM226.26,279a4.54,4.54,0,0,1-4.56-4.55v-10.4a4.55,4.55,0,1,1,9.1,0v2.18h-3V264a1.64,1.64,0,0,0-1.65-1.65,1.61,1.61,0,0,0-1.17.48,1.66,1.66,0,0,0-.47,1.17v10.43a1.61,1.61,0,0,0,1.64,1.64,1.66,1.66,0,0,0,1.17-.47,1.59,1.59,0,0,0,.48-1.17v-2.62h3v2.65a4.54,4.54,0,0,1-4.54,4.55Zm6.91-.24V259.71h8.18v2.89H236v5.21h3.88v2.89H236v5.2h5.31v2.89Z" fill="#fff" fill-rule="evenodd"/><path d="M196.08,293.59H260.9a1.87,1.87,0,0,1,1.34.56,1.91,1.91,0,0,1,.56,1.34v26.67a1.92,1.92,0,0,1-.56,1.34,1.9,1.9,0,0,1-1.34.55H196.08a1.89,1.89,0,0,1-1.89-1.89V295.49a1.87,1.87,0,0,1,.56-1.34,1.84,1.84,0,0,1,1.33-.56Zm64.82.32H196.08a1.57,1.57,0,0,0-1.57,1.58v26.67a1.57,1.57,0,0,0,1.57,1.57H260.9a1.58,1.58,0,0,0,1.11-.46,1.56,1.56,0,0,0,.46-1.11V295.49a1.56,1.56,0,0,0-.46-1.12A1.58,1.58,0,0,0,260.9,293.91Z" fill="#8c9898" fill-rule="evenodd"/><rect x="221.38" y="298.95" width="14.22" height="2.47" rx="1.23" fill="#5a5958"/><path d="M228.49,306.8a1.85,1.85,0,1,0-1.85-1.85A1.85,1.85,0,0,0,228.49,306.8Z" fill="#3e3b3a" fill-rule="evenodd"/><path d="M399.84,302.75c-16.1,0-29.15,13.46-29.15,30.05,0,.72,0,1.42.08,2.12h5.42A24.87,24.87,0,0,1,389,310.8a23.61,23.61,0,0,1,32.34,10.44,25.17,25.17,0,0,1,2.63,13.68h5c.05-.7.08-1.4.08-2.12C429,316.21,416,302.75,399.84,302.75Z" fill="#dbdddc" fill-rule="evenodd"/><circle cx="365.34" cy="296.99" r="12.18" transform="translate(-4.12 5.14) rotate(-0.8)" fill="#fff"/><rect x="134.19" y="213.2" width="15.67" height="5.02" rx="2.04" fill="#e41e2b"/><rect x="152.12" y="213.2" width="15.67" height="5.02" rx="2.04" fill="#82cef3"/><rect x="279.03" y="213.2" width="15.67" height="5.02" rx="2.04" fill="#e41e2b"/><rect x="296.96" y="213.2" width="15.67" height="5.02" rx="2.04" fill="#82cef3"/><path d="M430.66,320.87h6.23a1.83,1.83,0,0,1,1.82,1.82V333a1.83,1.83,0,0,1-1.82,1.82h-6.23Z" fill="#cfd1d2" fill-rule="evenodd"/><rect x="436.29" y="325.63" width="2.42" height="4.47" fill="#ed8322"/><path d="M156.89,345.79a13.08,13.08,0,1,0-6.24-17.41,13.07,13.07,0,0,0,6.24,17.41Zm25.21-2.56h0a21.71,21.71,0,1,1-10.36-28.89A21.71,21.71,0,0,1,182.1,343.23Z" fill="#343436" fill-rule="evenodd"/><path d="M176.29,340.49A15.28,15.28,0,1,1,169,320.15,15.28,15.28,0,0,1,176.29,340.49Z" fill="#888" fill-rule="evenodd"/><path d="M174.94,339.85a13.78,13.78,0,1,0-18.35,6.58A13.81,13.81,0,0,0,174.94,339.85Z" fill="#3e3b3a" fill-rule="evenodd"/><path d="M174,327.7a16.73,16.73,0,0,1-2.88-2.34,17.08,17.08,0,0,1-2.33-2.87,9.76,9.76,0,0,1-.84-1.63,9.74,9.74,0,0,1-1.75.56,18,18,0,0,1-7.36,0,9.37,9.37,0,0,1-1.74-.56,9.76,9.76,0,0,1-.84,1.63A18.29,18.29,0,0,1,151,327.7a9.76,9.76,0,0,1-1.63.84,9.37,9.37,0,0,1,.56,1.74,18.06,18.06,0,0,1,0,7.37,9.89,9.89,0,0,1-.56,1.74,9.76,9.76,0,0,1,1.63.84,18,18,0,0,1,5.21,5.21,9.76,9.76,0,0,1,.84,1.63,9.37,9.37,0,0,1,1.74-.56,17.6,17.6,0,0,1,7.37,0,9.62,9.62,0,0,1,1.74.56,9.76,9.76,0,0,1,.84-1.63,17,17,0,0,1,2.33-2.88,17.53,17.53,0,0,1,2.88-2.33,10.1,10.1,0,0,1,1.62-.84,10.22,10.22,0,0,1-.55-1.74,17.6,17.6,0,0,1,0-7.37,10.22,10.22,0,0,1,.55-1.74,10.1,10.1,0,0,1-1.62-.84Zm-13.73,11a5.27,5.27,0,1,1,7-2.52A5.29,5.29,0,0,1,160.22,338.73Z" fill="#888" fill-rule="evenodd"/><path d="M162.47,326.13a7.83,7.83,0,1,1-7.83,7.83A7.83,7.83,0,0,1,162.47,326.13Z" fill="#b5b5b6" fill-rule="evenodd"/><path d="M167.23,336.21a5.26,5.26,0,1,1-2.51-7A5.27,5.27,0,0,1,167.23,336.21Z" fill="#343436" fill-rule="evenodd"/><circle cx="162.47" cy="323.45" r="0.7" fill="#b5b5b6"/><path d="M154.55,326a.69.69,0,0,1,1,0,.7.7,0,0,1-1,1A.69.69,0,0,1,154.55,326Z" fill="#b5b5b6" fill-rule="evenodd"/><circle cx="151.96" cy="333.96" r="0.7" fill="#b5b5b6"/><path d="M154.55,341.89a.69.69,0,0,1,0-1,.7.7,0,1,1,0,1Z" fill="#b5b5b6" fill-rule="evenodd"/><path d="M162.47,345.17a.7.7,0,1,1,.7-.7A.7.7,0,0,1,162.47,345.17Z" fill="#b5b5b6" fill-rule="evenodd"/><path d="M170.4,341.89a.7.7,0,1,1,0-1A.71.71,0,0,1,170.4,341.89Z" fill="#b5b5b6" fill-rule="evenodd"/><path d="M173.68,334a.7.7,0,0,1-1.4,0,.7.7,0,1,1,1.4,0Z" fill="#b5b5b6" fill-rule="evenodd"/><path d="M170.4,326a.7.7,0,1,1-1,0A.69.69,0,0,1,170.4,326Z" fill="#b5b5b6" fill-rule="evenodd"/><path d="M394.81,345.79a13.08,13.08,0,1,0-6.24-17.41,13.07,13.07,0,0,0,6.24,17.41ZM420,343.23h0a21.71,21.71,0,1,1-10.36-28.89A21.71,21.71,0,0,1,420,343.23Z" fill="#343436" fill-rule="evenodd"/><path d="M414.2,340.49a15.28,15.28,0,1,1-7.29-20.34A15.27,15.27,0,0,1,414.2,340.49Z" fill="#888" fill-rule="evenodd"/><path d="M412.85,339.85a13.78,13.78,0,1,0-18.35,6.58A13.8,13.8,0,0,0,412.85,339.85Z" fill="#3e3b3a" fill-rule="evenodd"/><path d="M411.86,327.7a18.09,18.09,0,0,1-5.2-5.21,9.06,9.06,0,0,1-.84-1.63,9.74,9.74,0,0,1-1.75.56,18,18,0,0,1-7.36,0,9.74,9.74,0,0,1-1.75-.56,9.06,9.06,0,0,1-.84,1.63,18.09,18.09,0,0,1-5.2,5.21,10.6,10.6,0,0,1-1.63.84,9.4,9.4,0,0,1,.55,1.74,17.6,17.6,0,0,1,0,7.37,9.91,9.91,0,0,1-.55,1.74,10.1,10.1,0,0,1,1.62.84,16.73,16.73,0,0,1,2.88,2.33,17,17,0,0,1,2.33,2.88,9.06,9.06,0,0,1,.84,1.63,9.62,9.62,0,0,1,1.74-.56,17.6,17.6,0,0,1,7.37,0,9.74,9.74,0,0,1,1.75.56,9,9,0,0,1,.83-1.63,17.12,17.12,0,0,1,2.34-2.88,16.73,16.73,0,0,1,2.88-2.33,10.1,10.1,0,0,1,1.62-.84,9.37,9.37,0,0,1-.56-1.74,18.06,18.06,0,0,1,0-7.37,9.37,9.37,0,0,1,.56-1.74,10.6,10.6,0,0,1-1.63-.84Zm-13.72,11a5.27,5.27,0,1,1,7-2.52A5.28,5.28,0,0,1,398.14,338.73Z" fill="#888" fill-rule="evenodd"/><circle cx="400.39" cy="333.96" r="7.83" transform="translate(6.75 675.86) rotate(-80.81)" fill="#b5b5b6"/><path d="M405.15,336.21a5.26,5.26,0,1,1-2.51-7A5.27,5.27,0,0,1,405.15,336.21Z" fill="#343436" fill-rule="evenodd"/><path d="M400.39,322.75a.7.7,0,1,1-.7.7A.7.7,0,0,1,400.39,322.75Z" fill="#b5b5b6" fill-rule="evenodd"/><path d="M392.46,326a.7.7,0,1,1,1,1,.7.7,0,0,1-1-1Z" fill="#b5b5b6" fill-rule="evenodd"/><circle cx="389.88" cy="333.96" r="0.7" fill="#b5b5b6"/><path d="M392.46,341.89a.7.7,0,0,1,1-1,.69.69,0,0,1,0,1A.71.71,0,0,1,392.46,341.89Z" fill="#b5b5b6" fill-rule="evenodd"/><path d="M400.39,345.17a.7.7,0,1,1,.7-.7A.7.7,0,0,1,400.39,345.17Z" fill="#b5b5b6" fill-rule="evenodd"/><path d="M408.32,341.89a.71.71,0,0,1-1,0,.69.69,0,0,1,0-1,.7.7,0,0,1,1,1Z" fill="#b5b5b6" fill-rule="evenodd"/><circle cx="410.9" cy="333.96" r="0.7" fill="#b5b5b6"/><path d="M408.32,326a.7.7,0,0,1-1,1,.7.7,0,1,1,1-1Z" fill="#b5b5b6" fill-rule="evenodd"/><rect x="116.58" y="206.44" width="217.29" height="4.09" fill="#8ba1c1"/><path d="M429.89,294c-1.34,0-2.66,0-3.95-.1v1a1.3,1.3,0,0,0,1.3,1.3h5.27a1.3,1.3,0,0,0,1.3-1.3v-1c-.82.05-1.65.07-2.49.09Z" fill="#cc6928" fill-rule="evenodd"/><path d="M147.82,218.22a2,2,0,0,0,2-2v-.47H134.19v.47a2.05,2.05,0,0,0,2.05,2Z" fill="#c62127" fill-rule="evenodd"/><path d="M152.12,216.18a2,2,0,0,0,2,2h11.58a2.05,2.05,0,0,0,2-2v-.47H152.12Z" fill="#62b6dc" fill-rule="evenodd"/><path d="M279,216.18a2,2,0,0,0,2,2h11.58a2.05,2.05,0,0,0,2.05-2v-.47H279Z" fill="#c62127" fill-rule="evenodd"/><path d="M297,216.18a2,2,0,0,0,2,2h11.58a2,2,0,0,0,2-2v-.47H297Z" fill="#62b6dc" fill-rule="evenodd"/><rect x="117.75" y="309.4" width="4.42" height="8.8" fill="#e41e26"/><polygon points="340.84 224.17 357.89 224.57 357.79 228.27 340.73 227.87 340.84 224.17" fill="#8ba1c1" fill-rule="evenodd"/><path d="M349.75,216.67a7.73,7.73,0,0,1,7.64,7.88l-15.72-.36A7.84,7.84,0,0,1,349.75,216.67Z" fill-rule="evenodd" fill="url(#linear-gradient-8)"/><path d="M356.69,221.15a28.56,28.56,0,0,1-9.62,1.51,34.12,34.12,0,0,1-5.1-.38,7.54,7.54,0,0,0-.3,1.91l15.72.36A7.59,7.59,0,0,0,356.69,221.15Z" fill="#c62127" fill-rule="evenodd"/><path d="M161.28,302.7c-16.1,0-29.15,13.45-29.15,30.05,0,.71,0,1.42.07,2.12h5.42a24.9,24.9,0,0,1,12.77-24.13,23.62,23.62,0,0,1,32.34,10.45,25.35,25.35,0,0,1,2.63,13.68h5c0-.7.07-1.41.07-2.12C190.43,316.15,177.38,302.7,161.28,302.7Z" fill="#dbdddc" fill-rule="evenodd"/><rect x="341.29" y="279.96" width="12.24" height="2.33" rx="1.17" fill="#8c9898"/><rect x="276.13" y="264.42" width="2.33" height="12.24" rx="1.17" fill="#8c9898"/><path d="M385.6,274h15.32a79.39,79.39,0,0,0-7.82-12.75C389.93,261.21,385.6,269.66,385.6,274Z" fill="#727272" fill-rule="evenodd"/><path d="M389.26,260.14l3.39.31c3.16.28,2.61,16.58-2.06,16l-3-.27Z" fill="#505354" fill-rule="evenodd"/><polygon points="389.26 260.14 391.99 260.39 390.31 276.45 387.57 276.2 389.26 260.14" fill="#8e9094" fill-rule="evenodd"/><path d="M338.24,273.71h62.65v26.93l-.21,0c-13.72-1.15-31.77,11.74-31.77,26.32v.2H338.05V273.71Zm62.25.4H338.44v52.63h30.07c.15-14.65,18.16-27.56,32-26.53Z" fill="#8c9898" fill-rule="evenodd"/><polygon points="358.19 295.95 358.19 289.65 364.45 289.65 364.45 283.39 370.75 283.39 370.75 289.65 377.01 289.65 377.01 295.95 370.75 295.95 370.75 302.21 364.45 302.21 364.45 295.95 358.19 295.95" fill-rule="evenodd" fill="url(#linear-gradient-9)"/><rect x="218.75" y="313.5" width="19.48" height="0.79" fill="#5a5958"/><rect x="218.75" y="315.74" width="19.48" height="0.79" fill="#5a5958"/><rect x="218.75" y="317.98" width="19.48" height="0.79" fill="#5a5958"/><rect x="218.75" y="320.22" width="19.48" height="0.79" fill="#5a5958"/><rect x="102.63" y="303.6" width="3.09" height="45.14" fill="#bac1c0"/><path d="M103.61,355.4a3.18,3.18,0,1,0-3.18-3.18A3.18,3.18,0,0,0,103.61,355.4Z" fill="#3e3b3a" fill-rule="evenodd"/><polygon points="102.63 348.36 102.59 352.76 104.16 352.78 105.86 348.35 102.63 348.36" fill="#bac1c0" fill-rule="evenodd"/><rect x="101.77" y="347.84" width="4.85" height="0.95" rx="0.48" fill="#b0b1b4"/><rect x="104.21" y="327.37" width="14.91" height="1.07" fill="#888"/><rect x="117.88" y="303.6" width="3.08" height="45.14" fill="#bac1c0"/><path d="M118.85,355.4a3.18,3.18,0,1,0-3.17-3.18A3.19,3.19,0,0,0,118.85,355.4Z" fill="#3e3b3a" fill-rule="evenodd"/><polygon points="117.88 348.36 117.83 352.76 119.41 352.78 121.11 348.35 117.88 348.36" fill="#bac1c0" fill-rule="evenodd"/><rect x="117.02" y="347.84" width="4.85" height="0.95" rx="0.48" fill="#b0b1b4"/><rect x="192.46" y="303.6" width="3.08" height="45.14" fill="#bac1c0"/><circle cx="193.44" cy="352.22" r="3.18" fill="#3e3b3a"/><polygon points="192.46 348.36 192.42 352.76 193.99 352.78 195.69 348.35 192.46 348.36" fill="#bac1c0" fill-rule="evenodd"/><rect x="191.6" y="347.84" width="4.85" height="0.95" rx="0.48" fill="#b0b1b4"/><rect x="194.04" y="327.37" width="14.91" height="1.07" fill="#888"/><rect x="207.7" y="303.6" width="3.09" height="45.14" fill="#bac1c0"/><path d="M208.68,355.4a3.18,3.18,0,1,0-3.18-3.18A3.19,3.19,0,0,0,208.68,355.4Z" fill="#3e3b3a" fill-rule="evenodd"/><polygon points="207.71 348.36 207.66 352.76 209.23 352.78 210.94 348.35 207.71 348.36" fill="#bac1c0" fill-rule="evenodd"/><rect x="206.84" y="347.84" width="4.85" height="0.95" rx="0.48" fill="#b0b1b4"/><path d="M68.69,257.74c0-.05-.47-2.15-.47-2.15L73.49,257a17.82,17.82,0,0,1-.11,2.79C73.25,259.66,68.69,257.74,68.69,257.74Z" fill="#46afbe" fill-rule="evenodd"/><path d="M72.24,296.91c0,.8,9.51,28.43,9.51,28.43l.07,25.48-6.57.58-2-22.8-7.76-19.46L59.2,328.4,45.74,350.67s-6.23-.62-6-1.42,12.06-24.86,12.06-26.47,3.35-13.55,2.95-15.62.49-10.49,1.34-10.84S72.24,296.91,72.24,296.91Z" fill="#010101" fill-rule="evenodd"/><path d="M55.38,297.3c-.07.18-.4,2.84-.4,2.84s9.91.74,13.17.9a29.6,29.6,0,0,0,5.43-.16l-.47-2.44Z" fill="#2e2727" fill-rule="evenodd"/><path d="M73,261.87c-3,.94-3.55,4.41-3.08,6.55s4.65,11.94,5.31,13.41,16.39,1.83,16.39,1.83l.73-3.06-14.11-3,.15-11.49C78,261.3,77.28,260.49,73,261.87Z" fill="#31a3b5" fill-rule="evenodd"/><path d="M77.25,261.06c-3.47-2-11.13-6.92-14.42-2.25C59.2,264,53,299.66,55.11,299.18c1.28-.28,18.28,1.73,18.25.64C73.19,294.19,79.61,268.92,77.25,261.06Z" fill-rule="evenodd" fill="url(#linear-gradient-10)"/><rect x="100.06" y="297.77" width="2.92" height="4.22" fill="#9b9b9a"/><rect x="173.95" y="297.77" width="2.92" height="4.22" fill="#9b9b9a"/><rect x="209.83" y="297.77" width="2.92" height="4.22" fill="#9b9b9a"/><path d="M189.06,285.05a11.26,11.26,0,0,0,7.14,2.15c3.86,0,13.74,0,19.36-.06,2,0,4.49-3.2,4.84-4.36C214.26,276.52,193.7,278.6,189.06,285.05Z" fill="#efeeee" fill-rule="evenodd"/><path d="M95.87,287.14H218.72a3,3,0,0,1,3,2.92v3.41a3,3,0,0,1-3,2.92H95.87a3,3,0,0,1-3-2.92v-3.41A3,3,0,0,1,95.87,287.14Z" fill="#e86224" fill-rule="evenodd"/><path d="M181.5,294.28h40.29a2.27,2.27,0,0,1,2.27,2.27h0a2.27,2.27,0,0,1-2.27,2.27H181.5a2.27,2.27,0,0,1-2.27-2.27h0A2.27,2.27,0,0,1,181.5,294.28Z" fill="#dbdddc" fill-rule="evenodd"/><path d="M91.25,294.28h87a2.28,2.28,0,0,1,2.28,2.27h0a2.28,2.28,0,0,1-2.28,2.27h-87A2.28,2.28,0,0,1,89,296.55h0A2.28,2.28,0,0,1,91.25,294.28Z" fill="#dbdddc" fill-rule="evenodd"/><rect x="95.71" y="301.48" width="121.1" height="4.08" rx="2.04" fill="#dbdddc"/><path d="M211.21,301.67l9.47-6.86a2,2,0,0,1,2.75.44h0A2,2,0,0,1,223,298l-9.46,6.86a2,2,0,0,1-2.75-.44h0A2,2,0,0,1,211.21,301.67Z" fill="#dbdddc" fill-rule="evenodd"/><path d="M98.36,287.14v3.29l77.21-.27c0-1.16,0-2.14.07-3Z" fill="#f3f2f3" fill-rule="evenodd"/><path d="M92.72,282h0a1.54,1.54,0,0,1,1.53,1.53v11.68H91.19V283.55A1.54,1.54,0,0,1,92.72,282Z" fill="#dbdddc" fill-rule="evenodd"/><path d="M220.31,282.09h0a1.54,1.54,0,0,1,1.53,1.53V295.3h-3.07V283.62A1.54,1.54,0,0,1,220.31,282.09Z" fill="#dbdddc" fill-rule="evenodd"/><path d="M110.38,282h48.74a7.55,7.55,0,0,1,7.53,7.53v7.53h-63.8v-7.53a7.55,7.55,0,0,1,7.53-7.53Zm-5.64,13.17h60v-5.64a5.66,5.66,0,0,0-5.64-5.64H110.38a5.66,5.66,0,0,0-5.64,5.64Z" fill="#dbdddc" fill-rule="evenodd"/><path d="M73,257.93c.18.2,2.92,2.86,2.92,2.86l.59,1.43-2.63-1.63Z" fill="#7fcbdd" fill-rule="evenodd"/><path d="M73.68,262.94,76,260.79,74.11,259l-.52,1.41C73.65,261.26,73.67,262.08,73.68,262.94Z" fill="#46afbe" fill-rule="evenodd"/><path d="M71.07,249.32c-.36,1.22-3.14,8.2-3.14,8.2A55,55,0,0,0,73.61,263c.38.28.91-8.66,1.59-10.89Z" fill="#f1c8b0" fill-rule="evenodd"/><path d="M87.28,240c0,8.13-3.43,19.07-13.16,16.77-12.06-2.84-7.73-22.17-.73-23.49C76.59,232.71,87.27,236,87.28,240Z" fill="#f9d9c7" fill-rule="evenodd"/><path d="M65.57,246.65c-2.35-11.13,2.83-11.89,3.18-12.8,1.56-4.07,3.94-4.07,8.07-3.09,4.77,1.13,7.78,4,10.63,4.81,5.58,1.6,3.59,5.94-2.26,5.56-4.3-.28-9.43-2.84-10.84-2.32-1.74.64-.78,4.89-2.28,6.79-1,1.32-.41.33-.87-2.5-2-.63-2.3,2.05-2.9,4.08A5.78,5.78,0,0,1,67,249.46C66.36,249.15,65.72,247.39,65.57,246.65Z" fill="#30190e" fill-rule="evenodd"/><path d="M71.6,244.61c.24-1.72-.57-3.25-1.81-3.42s-2.43,1.08-2.67,2.79.57,3.24,1.81,3.42S71.36,246.32,71.6,244.61Z" fill="#f9d9c7" fill-rule="evenodd"/><path d="M70.44,243.37c0-.12-.19-1.32-1.16-1s-1.28,2-1.14,2.83,1.12,1.63,1.28,1-.21-1.23.15-1.41.62.23.84-.24A1.82,1.82,0,0,0,70.44,243.37Z" fill="#cc955c" fill-rule="evenodd"/><path d="M78.61,244.13c.51,0,.81.57.65,1.29s-.7,1.29-1.22,1.29-.81-.58-.65-1.29S78.09,244.13,78.61,244.13Z" fill="#3e3b3a" fill-rule="evenodd"/><path d="M85.39,245.81c.51,0,.81.58.65,1.29s-.7,1.29-1.22,1.29-.81-.57-.65-1.29S84.87,245.81,85.39,245.81Z" fill="#3e3b3a" fill-rule="evenodd"/><path d="M77,243.3a.53.53,0,0,1-.65-.35.54.54,0,0,1,.35-.65,4.7,4.7,0,0,1,2.8.1,5.52,5.52,0,0,1,2.2,1.15.52.52,0,1,1-.76.7,4.41,4.41,0,0,0-1.75-.86A3.59,3.59,0,0,0,77,243.3Z" fill="#27170e" fill-rule="evenodd"/><path d="M84,245.13c-.18.1-.38,0-.43-.29a.67.67,0,0,1,.23-.68,2.28,2.28,0,0,1,1.89-.16,3.06,3.06,0,0,1,1.48,1,.71.71,0,0,1,0,.73c-.14.21-.36.23-.49,0a2.45,2.45,0,0,0-1.18-.7A1.72,1.72,0,0,0,84,245.13Z" fill="#27170e" fill-rule="evenodd"/><path d="M77.31,251.8a.3.3,0,0,1,.17-.31.19.19,0,0,1,.29.07c.42.3,2.11,1.77,3.29,1.32.1-.1.25-.14.33-.07s.08.2,0,.31C79.92,254,77.86,252.54,77.31,251.8Z" fill="#87746b" fill-rule="evenodd"/><path d="M82.57,249.35c0,.17-2.12-.32-2.6.36A.22.22,0,0,0,80,250a2.74,2.74,0,0,0,1.55.5,1.65,1.65,0,0,0,1.29-.57,6.85,6.85,0,0,0-.26-1.74C82.57,248.28,82.6,248.12,82.57,249.35Z" fill="#cc955c" fill-rule="evenodd"/><path d="M85.14,280.66c.1-.07,6-2.07,7.39-2s3.68,1.79,3.81,3.36-2.29,3.86-2.74,3.49-.15-2.6-.67-2.62-1.08,1-2.79,1.39a5,5,0,0,1-3.12-.42Z" fill="#f9d9c7" fill-rule="evenodd"/><path d="M69.5,262.47c-.47-.6-2.47-5.82-5.42-4.88S60.54,262,61,264.14s1.13,18.52,1.8,20,24,.33,24,.33l.46-4.53-19-.07Z" fill-rule="evenodd" fill="url(#linear-gradient-11)"/><path d="M71.28,260.28c.17,0,1.46.26,1.46.26a19.22,19.22,0,0,1,.87,2.45,11.85,11.85,0,0,1-2.8-2Z" fill="#46afbe" fill-rule="evenodd"/><path d="M68.22,255.59l4.52,5-2.36,2.18s-2.89-4.83-3.56-5.56Z" fill="#7fcbdd" fill-rule="evenodd"/><path d="M79.8,348.66c.52,1,1.49,2.33,4.82,3.49s7.18,1.27,5.83,2.2-10.68,1.45-10.78,1a4.2,4.2,0,0,0-.91-1.18s-.23,1.22-.46,1.2L75,355.16l.78-5.27Z" fill="#010101" fill-rule="evenodd"/><path d="M43.85,348.32c.44,1.05,1.31,2.44,4.54,3.85S55.45,354,54,354.81s-10.76.63-10.83.21a4.26,4.26,0,0,0-.82-1.24s-.32,1.2-.55,1.17l-3.24-.51,1.18-5.19Z" fill="#010101" fill-rule="evenodd"/><path d="M58.72,271.72c.5,6.34,1.5,14.25,4,15,2.71.81,8.77.71,12.42.56.14-.8.28-1.61.42-2.44-6.07.11-12.39.05-12.73-.71-.67-1.47-1.34-17.85-1.8-20a4.6,4.6,0,0,1-.11-.68C60.18,265.75,59.44,268.61,58.72,271.72Z" fill="#5bbbc7" fill-rule="evenodd"/><path d="M70,252.19a11.6,11.6,0,0,1-1.74-4.94,5.78,5.78,0,0,1-1.34,2.21,10.36,10.36,0,0,0,2.35,4.6,9.22,9.22,0,0,0,4.83,2.75l.35.08a8.62,8.62,0,0,0,6.41-.91,10.51,10.51,0,0,1-6.28-.23A8.93,8.93,0,0,1,70,252.19Z" fill="#f7ceba" fill-rule="evenodd"/></svg>