<svg id="Layer_1" data-name="Layer 1" xmlns="http://www.w3.org/2000/svg" xmlns:xlink="http://www.w3.org/1999/xlink" viewBox="0 0 500 500"><defs><linearGradient id="linear-gradient" x1="193.19" y1="338.36" x2="388.69" y2="338.36" gradientUnits="userSpaceOnUse"><stop offset="0" stop-color="#617abc"/><stop offset="1" stop-color="#8595cb"/></linearGradient><linearGradient id="linear-gradient-2" x1="64.41" y1="212.38" x2="263.92" y2="212.38" xlink:href="#linear-gradient"/><linearGradient id="linear-gradient-3" x1="66.53" y1="338.01" x2="224.38" y2="338.01" xlink:href="#linear-gradient"/></defs><title>new</title><path d="M410,146.75c-19.17-17.91-43.63-28.8-69.56-32.17-15.17-2-37.28-9.68-60.23-34.28C238.71,35.85,162.49,20.78,125.37,63.17s-3.68,115.92-34.08,168S22.91,370.58,42.66,411.94s59.48,45.18,97.75,41.74S339,481.89,388.41,440s95-160.59,64.58-231.83A180.67,180.67,0,0,0,410,146.75Z" fill="#fff"/><path d="M433.58,186.32l-.68-1-23.09-24.06a3.82,3.82,0,0,1,2-5.77,24.44,24.44,0,0,0,9.7-5.66c9.63-9.19,10.05-24.3.86-33.48-8.76-9.61-23.87-9.85-33.48-.63a24,24,0,0,0-6.09,9.42,3.83,3.83,0,0,1-5.85,1.77l-23-24.16-1-.72a3.81,3.81,0,0,0-5.28.07L321,127.68a3.6,3.6,0,0,1-3.79-2.58c-2.27-7.84-8.79-14.62-19.86-16.76a9.69,9.69,0,0,0-3.48,0c-22.67,4-28.5,27.55-16.32,40.33a22.26,22.26,0,0,0,9,5.75,3.57,3.57,0,0,1,2.27,4.14L262,184.29a3.8,3.8,0,0,0-.19,5.4L286,215l.44.33.14.15a3.82,3.82,0,0,0,6.41-1.94c2.23-8.56,9.3-16.19,21.1-18.51a23.49,23.49,0,0,1,6.59.43,23.62,23.62,0,0,1,18,18.87,23.15,23.15,0,0,1,.16,6.6c-2.86,11.69-10.81,18.41-19.45,20.23a3.84,3.84,0,0,0-2.23,6.33l.15.15.32.45,24.18,25.39a3.82,3.82,0,0,0,5.41.05l26.94-25.68a3.59,3.59,0,0,1,4,2.46,22.38,22.38,0,0,0,5.35,9.27c12.22,12.74,36,8,41-14.49a9.49,9.49,0,0,0,.12-3.48c-1.64-11.16-8.12-18-15.84-20.6a3.59,3.59,0,0,1-2.4-3.9l26.77-25.52A3.84,3.84,0,0,0,433.58,186.32Z" fill="#c33c55"/><path d="M310.92,421.61h.21l.55.08,35.06.15a3.84,3.84,0,0,0,3.79-3.87l.15-37.21a3.57,3.57,0,0,1,4.57-1.21,22.37,22.37,0,0,0,10.38,2.57c17.66,0,30.69-20.44,18-39.62a9.79,9.79,0,0,0-2.43-2.5c-9.18-6.54-18.58-6.6-25.82-2.84a3.62,3.62,0,0,1-4.48-1l.15-37a3.82,3.82,0,0,0-3.59-3.88l-1.21-.23-33.36,0a3.82,3.82,0,0,1-2.75-5.45,24.32,24.32,0,0,0,2.62-10.91c.06-13.31-10.54-24.1-23.53-23.82-13-.35-23.65,10.39-23.66,23.7a24.18,24.18,0,0,0,2.59,10.92,3.84,3.84,0,0,1-2.79,5.45L232,294.81l-1.2.22a3.75,3.75,0,0,0-3.23,2.23,5.73,5.73,0,0,1,.33,1.86l-.06,38.18-2.1-.41a3.44,3.44,0,0,1-3.06-.07l-.65-.28a26.32,26.32,0,0,0-3.48.26l-.3,0-.31,0a20.66,20.66,0,0,0-3.62-.45c-10.7,0-19.56,8.28-20.9,19a21.89,21.89,0,0,0-.2,2.82,25.75,25.75,0,0,0,3.26,12.14A30.26,30.26,0,0,0,198,373a7.89,7.89,0,0,0,1.95,2,24.45,24.45,0,0,0,14.23,4.89,22.93,22.93,0,0,0,3.53-.3l.3-.06.31.05c1,.16,1.73.32,2.44.4.59-.24,1.19-.49,1.76-.79a3.42,3.42,0,0,1,3.54.25l1.67-.33-.06,38.76a6.34,6.34,0,0,1-.2,1.45,3.72,3.72,0,0,0,3.35,2.2l35.07,0,.54-.07h.21a3.83,3.83,0,0,0,3-6c-4.63-7.52-5.23-17.9,1.28-28a23.66,23.66,0,0,1,4.87-4.45,23.67,23.67,0,0,1,26.09.06,23.75,23.75,0,0,1,4.86,4.48c6.46,10.16,5.79,20.54,1.12,28A3.84,3.84,0,0,0,310.92,421.61Z" fill="url(#linear-gradient)"/><path d="M186.83,290.22l-.08.21,0,.07-.2.8a2,2,0,0,0,1.52,1.87l33.11-.06a4.91,4.91,0,0,1,1.29.24h0a5.53,5.53,0,0,1,3.1,1.11l.21-1,.15-37.22a3.61,3.61,0,0,1,4.58-1.2,22.26,22.26,0,0,0,10.37,2.56c17.67,0,30.7-20.43,18-39.61a9.8,9.8,0,0,0-2.42-2.51c-9.18-6.54-18.59-6.6-25.83-2.83a3.62,3.62,0,0,1-4.48-1l.16-37a3.82,3.82,0,0,0-3.6-3.87l-1.21-.23-33.36,0a3.83,3.83,0,0,1-2.75-5.46A24.26,24.26,0,0,0,188,154.14c.06-13.31-10.54-24.09-23.54-23.82-13-.34-23.64,10.39-23.66,23.7A24.19,24.19,0,0,0,143.35,165a3.82,3.82,0,0,1-2.78,5.43l-33.37-.14-1.21.22a3.83,3.83,0,0,0-3.61,3.87l0,37a3.6,3.6,0,0,1-4.48.95C90.64,208.47,81.23,208.48,72,215a10,10,0,0,0-2.44,2.49c-12.83,19.11.12,39.63,17.78,39.7a22.15,22.15,0,0,0,10.38-2.52,3.57,3.57,0,0,1,4.57,1.24l0,37.21a4.07,4.07,0,0,0,.25,1.32,5.59,5.59,0,0,1,3.09-1.08h0a4.69,4.69,0,0,1,1.29-.24l33.11.06a2,2,0,0,0,1.51-1.86l-.19-.81,0-.09,0-.09,0-.12a26.09,26.09,0,0,1-2.69-11.35h0v-.19a25.88,25.88,0,0,1,1.13-7.24A25,25,0,0,1,163.48,253h1.1a25,25,0,0,1,23.83,18.38,26.26,26.26,0,0,1,1.12,7.25v.05A25.86,25.86,0,0,1,186.83,290.22Z" fill="url(#linear-gradient-2)"/><path d="M198.33,338.47a24.47,24.47,0,0,1,16.29-6.3v0a22.28,22.28,0,0,1,4.07.48,32.06,32.06,0,0,1,3.77-.29c.62,0,1.24,0,1.87.09l0-33.67a1.9,1.9,0,0,0-1.64-1.94l-.13,0h-.28l-.28-.1-.56-.11-33.52.06-.16,0a5.75,5.75,0,0,1-4.68-5.16L183,291a5.57,5.57,0,0,1,.56-2.39h0l.08-.19,0-.06a22.26,22.26,0,0,0,2.35-9.95v-.05a22.45,22.45,0,0,0-1-6.18,21.2,21.2,0,0,0-20.16-15.62h-1.1a20.3,20.3,0,0,0-12,4,22,22,0,0,0-8.14,11.65,24.79,24.79,0,0,0-.75,3.5,18.14,18.14,0,0,0-.24,2.66h0v.06a22.06,22.06,0,0,0,2.36,9.94l.05.08,0,.09,0,.11h0a5.69,5.69,0,0,1,.55,2.36l-.09.46a5.74,5.74,0,0,1-4.67,5.2l-.16,0-33.53-.06-.27.05-.29.06-.27.1h-.3a1.93,1.93,0,0,0-1.78,2l.07,37.67L104,337a5.64,5.64,0,0,1-4.3,2,5.47,5.47,0,0,1-2.54-.62,20.44,20.44,0,0,0-9.47-2.33,24.69,24.69,0,0,0-14.37,5,7.73,7.73,0,0,0-2,2,26.63,26.63,0,0,0-4.81,14.85c0,12.08,9.47,21.81,21.07,21.83h0a20.41,20.41,0,0,0,9.48-2.32,5.4,5.4,0,0,1,2.45-.6,5.65,5.65,0,0,1,4.56,2.4l.36.5.06,37.83a1.91,1.91,0,0,0,1.85,2l34.93-.06.55-.08h.35a1.63,1.63,0,0,0,1.24-.53,2.11,2.11,0,0,0,.5-1.37l-.34-1.16a26,26,0,0,1-3.86-13.69,30.4,30.4,0,0,1,5.07-16.39l.06-.1.07-.08a25.48,25.48,0,0,1,5.28-4.83l.05,0,0,0a28.11,28.11,0,0,1,14-4.2h.06a28.08,28.08,0,0,1,14,4.2l.05,0,.05,0a25.18,25.18,0,0,1,5.27,4.83l.07.09.07.09a30.41,30.41,0,0,1,5.07,16.4,25.92,25.92,0,0,1-3.87,13.69l-.34,1.15a2.06,2.06,0,0,0,.51,1.37,1.61,1.61,0,0,0,1.24.53h.34l.13,0,.42.06,34.93.06a1.92,1.92,0,0,0,1.86-2l.06-34.16a19.2,19.2,0,0,1-2.45.18h0a19.72,19.72,0,0,1-3.54-.49,25.48,25.48,0,0,1-3.73.31,28.19,28.19,0,0,1-15.85-5.22l-.6-.36a11.82,11.82,0,0,1-2.9-3,33,33,0,0,1-4.27-9.07c-.27-.94-.48-1.88-.66-2.81a28.13,28.13,0,0,1-.53-5.1A25.83,25.83,0,0,1,198.33,338.47Z" fill="url(#linear-gradient-3)"/></svg>