<svg id="Layer_1" data-name="Layer 1" xmlns="http://www.w3.org/2000/svg" xmlns:xlink="http://www.w3.org/1999/xlink" viewBox="0 0 500 500"><defs><linearGradient id="linear-gradient" x1="202.91" y1="295.67" x2="467.37" y2="295.67" gradientUnits="userSpaceOnUse"><stop offset="0" stop-color="#617abc"/><stop offset="1" stop-color="#8595cb"/></linearGradient><linearGradient id="linear-gradient-2" x1="166.53" y1="278.08" x2="246.71" y2="278.08" xlink:href="#linear-gradient"/><linearGradient id="linear-gradient-3" x1="251.05" y1="246.84" x2="313.95" y2="246.84" xlink:href="#linear-gradient"/><linearGradient id="linear-gradient-4" x1="247.72" y1="260.81" x2="328.89" y2="260.81" xlink:href="#linear-gradient"/><linearGradient id="linear-gradient-5" x1="201.14" y1="98.5" x2="371.4" y2="98.5" xlink:href="#linear-gradient"/><linearGradient id="linear-gradient-6" x1="154.28" y1="98.5" x2="248.01" y2="98.5" gradientUnits="userSpaceOnUse"><stop offset="0" stop-color="#fcdc58"/><stop offset="1" stop-color="#fde796"/></linearGradient><linearGradient id="linear-gradient-7" x1="339.09" y1="98.5" x2="371.4" y2="98.5" xlink:href="#linear-gradient-6"/><linearGradient id="linear-gradient-8" x1="113.44" y1="256.98" x2="195.13" y2="256.98" gradientTransform="translate(226.9 -33.83) rotate(45)" gradientUnits="userSpaceOnUse"><stop offset="0" stop-color="#dc3644"/><stop offset="1" stop-color="#e1645d"/></linearGradient></defs><title>gambar lain</title><path d="M500,91S346.23-33,265.74,81.54c-125,178-187.17,56.85-238,136.72-48,75.31-22,146.88,42.82,197.23C121.21,454.88,283,487.6,380.17,478.4S500,440.55,500,440.55Z" fill="#fff7ed"/><path d="M223.64,450c-11.09-.95-16.88-9.69-12.92-19.54L311.11,181.2c4-9.85,16.17-17.07,27.26-16.13l126.39,10.72c11.09.94,16.87,9.68,12.91,19.54L377.28,444.59c-4,9.85-16.16,17.07-27.26,16.13Z" fill="#b6def2"/><polygon points="477.21 182.79 468.53 165.91 202.39 425.91 211 442.67 477.21 182.79" fill="#b6def2"/><path d="M467.09,181.67l.28.19,1.48-3.67c3.95-9.85-1.82-18.59-12.92-19.53L329.55,147.93c-11.09-.93-23.3,6.28-27.26,16.14l-1,2.51,166.09,15.28C468.65,182,465.92,180.91,467.09,181.67Z" fill="#dfecf3"/><path d="M368.46,427.45l1.08-2.68c-1.37,0-2.74-.06-4.11-.18L202.91,410.81,252.1,288.69,201.89,413.32c-4,9.85,1.84,18.61,12.93,19.54L341.2,443.58C352.3,444.53,364.5,437.31,368.46,427.45Z" fill="#dfecf3"/><path d="M449.33,173.43c-2.6-.22-4-2.28-3-4.59a6.66,6.66,0,0,1,6.4-3.79c2.61.22,4,2.28,3,4.59A6.66,6.66,0,0,1,449.33,173.43Z" fill="#1c374f"/><path d="M429.24,170.88c-2.6-.22-4-2.28-3-4.59a6.66,6.66,0,0,1,6.4-3.79c2.6.23,4,2.28,3,4.59A6.65,6.65,0,0,1,429.24,170.88Z" fill="#1c374f"/><path d="M274.78,435.12c-4.72-.4-7.19-4.12-5.5-8.31s6.88-7.27,11.6-6.87,7.18,4.13,5.5,8.32S279.5,435.52,274.78,435.12Z" fill="#1c374f"/><polygon points="301.27 166.58 202.91 410.8 369.54 424.77 467.37 181.86 301.27 166.58" fill="url(#linear-gradient)"/><path d="M236.06,125,150,338.81a24.18,24.18,0,0,0,20.41,33.13l134,11.23,32.95,2.49-20.6-33.15,85.48-212.25Z" fill="#fdfefc"/><path d="M385.57,181.46l-68.89,171a24.18,24.18,0,0,0,20.6,33.15h0a24.18,24.18,0,0,0,24.25-15.07L435.94,186.1Z" fill="#99cfdd"/><polygon points="234.53 151.7 207.72 218.26 356.37 231.94 383.17 165.38 234.53 151.7" fill="#deeaf1"/><polygon points="163.08 332.12 161.56 336.32 310.21 349.99 311.73 345.8 163.08 332.12" fill="#d5e8f2"/><polygon points="240.31 136.98 238.79 141.18 387.44 154.85 388.96 150.65 240.31 136.98" fill="#d5e8f2"/><polygon points="203.54 230.14 166.53 322.06 209.69 326.03 246.71 234.11 203.54 230.14" fill="url(#linear-gradient-2)"/><polygon points="258.19 235.4 251.05 253.15 306.81 258.28 313.95 240.52 258.19 235.4" fill="url(#linear-gradient-3)"/><polygon points="251.05 253.15 247.72 261.31 325.57 268.47 328.89 260.31 251.05 253.15" fill="url(#linear-gradient-4)"/><polygon points="243.67 269.84 240.34 278 287.81 282.4 291.13 274.24 243.67 269.84" fill="#deeaf1"/><polygon points="239.03 283 235.71 291.15 270.1 294.3 273.42 286.14 239.03 283" fill="#deeaf1"/><polygon points="233.75 296.15 230.43 304.31 308.27 311.47 311.59 303.31 233.75 296.15" fill="#99cfdd"/><polygon points="229.47 308.83 226.15 316.99 303.99 324.15 307.31 315.99 229.47 308.83" fill="#99cfdd"/><polygon points="225.19 321.5 222.65 327.07 300.49 334.23 303.03 328.66 225.19 321.5" fill="#99cfdd"/><line x1="234.52" y1="151.7" x2="356.36" y2="231.94" fill="none" stroke="#1c374f" stroke-miterlimit="10" stroke-width="0.61"/><line x1="383.17" y1="165.38" x2="207.72" y2="218.26" fill="none" stroke="#1c374f" stroke-miterlimit="10" stroke-width="0.61"/><line x1="203.54" y1="230.14" x2="209.7" y2="326.03" fill="none" stroke="#1c374f" stroke-miterlimit="10" stroke-width="0.61"/><line x1="246.71" y1="234.11" x2="166.53" y2="322.06" fill="none" stroke="#1c374f" stroke-miterlimit="10" stroke-width="0.61"/><path d="M283.1,195.27A15.54,15.54,0,0,0,314,197.66l12.19-77.24-30.12-2.26-.22,1.28-12.51,73.18a15.72,15.72,0,0,0-.22,2.25C283.1,195,283.1,195.13,283.1,195.27Z" fill="#10263b"/><path d="M283.11,194.87a13.07,13.07,0,0,0,19.71-9.13l10.26-65-17.24-1.29-12.51,73.18A15.72,15.72,0,0,0,283.11,194.87Z" fill="#fdfefc" opacity="0.05"/><path d="M201.16,98.5h0V39.2s39.93,21.52,138,25.56A33.74,33.74,0,0,1,371.4,98.5h0a33.74,33.74,0,0,1-32.29,33.75c-98,4-137.95,25.55-137.95,25.55V98.5Z" fill="url(#linear-gradient-5)"/><ellipse cx="201.14" cy="98.5" rx="46.86" ry="59.3" fill="url(#linear-gradient-6)"/><path d="M163.85,98.5c0,26.07,16.7,47.19,37.29,47.19a31.84,31.84,0,0,0,20.62-7.86c10.05-8.45,16.68-22.9,16.68-39.33s-6.63-30.88-16.69-39.34a31.86,31.86,0,0,0-20.61-7.85C180.55,51.31,163.85,72.44,163.85,98.5Z" fill="#1c374f"/><path d="M185,98.5c0,22,14.12,39.89,31.53,39.89a25,25,0,0,0,5.27-.56c7.08-5.94,12.46-14.88,15-25.37a59.49,59.49,0,0,0,0-27.91c-2.56-10.5-7.94-19.43-15-25.39a25.52,25.52,0,0,0-5.26-.55C199.08,58.61,185,76.47,185,98.5Z" fill="#162f42"/><path d="M339.09,64.76v67.49h0A32.32,32.32,0,0,0,371.4,99.94V97.06a32.31,32.31,0,0,0-32.31-32.3Z" fill="url(#linear-gradient-7)"/><path d="M205.63,98.5a12.66,12.66,0,0,0,11.82,12.65l19.33,1.31a59.49,59.49,0,0,0,0-27.91l-19.33,1.3A12.69,12.69,0,0,0,205.63,98.5Z" fill="#deeaf1"/><path d="M212.33,106c2.82,0,5.1-3.36,5.1-7.5S215.15,91,212.33,91s-5.11,3.35-5.11,7.49S209.51,106,212.33,106Z" fill="#99cfdd"/><circle cx="154.28" cy="256.98" r="40.85" transform="translate(-136.52 184.36) rotate(-45)" fill="url(#linear-gradient-8)"/><path d="M167.31,252.87a4.73,4.73,0,0,1,0,8.21l-10.66,6.16L146,273.39a4.74,4.74,0,0,1-7.11-4.1V244.66a4.74,4.74,0,0,1,7.11-4.1l10.66,6.15Z" fill="#fdfefc"/><path d="M197.25,188a17.45,17.45,0,0,0-16.11-29.43l-2.77-4.76-2.52,6.91A17.45,17.45,0,1,0,197.25,188Z" fill="#deeaf1"/><path d="M106.9,162.28c.06-13.24,10.61-23.94,23.57-23.89a23.38,23.38,0,0,1,19.84,11.32l12.69-6.1L153.24,157a25,25,0,0,1,.61,5.52c-.06,13.25-10.61,24-23.58,23.89S106.85,175.53,106.9,162.28Z" fill="#deeaf1"/><path d="M118.9,161.87a3.7,3.7,0,1,1-3.69-3.69A3.7,3.7,0,0,1,118.9,161.87Z" fill="#fff"/><path d="M133.5,161.87a3.7,3.7,0,1,1-3.7-3.69A3.7,3.7,0,0,1,133.5,161.87Z" fill="#fff"/><path d="M148.09,161.87a3.7,3.7,0,1,1-3.7-3.69A3.7,3.7,0,0,1,148.09,161.87Z" fill="#fff"/></svg>