<svg id="Layer_1" data-name="Layer 1" xmlns="http://www.w3.org/2000/svg" xmlns:xlink="http://www.w3.org/1999/xlink" viewBox="0 0 500 500"><defs><clipPath id="clip-path"><path d="M223.06,463.92h0l-.91,0h-.06l-.61,0h-.07l-1.5.06h-.1l-.24,0h0l-1.33.05h0l-3.17.1q-10.11.24-19.48-.24a209.24,209.24,0,0,1-51.3-8.68A173.78,173.78,0,0,1,126.93,449c-1.34-.56-2.65-1.14-4-1.74l-.19-.08-.33-.16a160.35,160.35,0,0,1-39.4-25.62q-2.41-2.13-4.71-4.38c-.13-.11-.26-.24-.39-.37q-4.18-4.09-8-8.48a147.84,147.84,0,0,1-35.54-85.48c-3.89-49.74-4.62-147.18,43.51-185.23q2.18-1.72,4.53-3.42a4.44,4.44,0,0,1,.38-.27c1.15-.84,2.34-1.67,3.55-2.49a206.72,206.72,0,0,1,18.08-10.9h0l.58-.32,3.29-1.74.45-.23L109,118l1.14-.59.39-.19q3.87-2,7.92-3.87h0q5.89-2.77,12.12-5.41l.39-.16q3.93-1.66,8-3.25,2.4-.94,4.84-1.86l.54-.21q5-1.87,10.11-3.65c1.46-.51,2.93-1,4.41-1.49,0,0,0,0,0,0s0,0,0,0h0c3.38-1.14,6.75-2.23,10.19-3.28l.35-.11h0c4.22-1.28,8.48-2.5,12.75-3.65h0l.9-.24h0c1.66-.45,3.33-.89,5-1.3h0c1.71-.44,3.41-.86,5.12-1.27h0l4.24-1h0l.29-.07.47-.11,3.74-.82.52-.12c2.82-.6,5.65-1.18,8.46-1.72h0l3.42-.64.59-.11c62-11.16,119.08-4.77,121.8,36.53,5,75.81,113,19.16,129.06,139.13C481.86,377.55,371.87,456.72,223.06,463.92Z" fill="none"/></clipPath><linearGradient id="linear-gradient" x1="277.18" y1="261.75" x2="467.15" y2="261.75" gradientUnits="userSpaceOnUse"><stop offset="0" stop-color="#fcdc58"/><stop offset="1" stop-color="#fde796"/></linearGradient><linearGradient id="linear-gradient-2" x1="418.75" y1="300.38" x2="477.38" y2="300.38" xlink:href="#linear-gradient"/><linearGradient id="linear-gradient-3" x1="23.41" y1="279.8" x2="86.31" y2="279.8" gradientUnits="userSpaceOnUse"><stop offset="0" stop-color="#617abc"/><stop offset="1" stop-color="#8595cb"/></linearGradient><linearGradient id="linear-gradient-4" x1="28.9" y1="252.14" x2="204.87" y2="252.14" xlink:href="#linear-gradient-3"/></defs><title>new</title><path d="M223.06,463.92h0l-.91,0h-.06l-.61,0h-.07l-1.5.06h-.1l-.24,0h0l-1.33.05h0l-3.17.1q-10.11.24-19.48-.24a209.24,209.24,0,0,1-51.3-8.68A173.78,173.78,0,0,1,126.93,449c-1.34-.56-2.65-1.14-4-1.74l-.19-.08-.33-.16a160.35,160.35,0,0,1-39.4-25.62q-2.41-2.13-4.71-4.38c-.13-.11-.26-.24-.39-.37q-4.18-4.09-8-8.48a147.84,147.84,0,0,1-35.54-85.48c-3.89-49.74-4.62-147.18,43.51-185.23q2.18-1.72,4.53-3.42a4.44,4.44,0,0,1,.38-.27c1.15-.84,2.34-1.67,3.55-2.49a206.72,206.72,0,0,1,18.08-10.9h0l.58-.32,3.29-1.74.45-.23L109,118l1.14-.59.39-.19q3.87-2,7.92-3.87h0q5.89-2.77,12.12-5.41l.39-.16q3.93-1.66,8-3.25,2.4-.94,4.84-1.86l.54-.21q5-1.87,10.11-3.65c1.46-.51,2.93-1,4.41-1.49,0,0,0,0,0,0s0,0,0,0h0c3.38-1.14,6.75-2.23,10.19-3.28l.35-.11h0c4.22-1.28,8.48-2.5,12.75-3.65h0l.9-.24h0c1.66-.45,3.33-.89,5-1.3h0c1.71-.44,3.41-.86,5.12-1.27h0l4.24-1h0l.29-.07.47-.11,3.74-.82.52-.12c2.82-.6,5.65-1.18,8.46-1.72h0l3.42-.64.59-.11c62-11.16,119.08-4.77,121.8,36.53,5,75.81,113,19.16,129.06,139.13C481.86,377.55,371.87,456.72,223.06,463.92Z" fill="#fff7ed"/><g clip-path="url(#clip-path)"><path d="M293.86,328.2s-31.73-6.39-37-5.88-23.66,8.75-23.86,10.26.7,2.72,3.91,2.85,13.74-1.5,13.11-.2-30.9,8.07-31.08,14.2,16.79,17.07,30.89,17.46,41.35-16.69,43.72-17C313.6,347.65,293.86,328.2,293.86,328.2Z" fill="#fbbd9d"/><path d="M467.15,257.69c-12.39,15.43-22.73,27.4-28.17,31.75A122.63,122.63,0,0,1,422.9,300C377.67,325.5,290.67,351.4,290.67,351.4l-.17-.12a37.84,37.84,0,0,1-10.86-13.06c-3.31-6.7-2.63-10.85-1.65-13a5.77,5.77,0,0,1,1.31-1.93s104.25-66.62,112.59-73.56c4.73-3.94,21.85-43.8,35.8-77.6q2.93,4.25,5.66,8.62A294.44,294.44,0,0,1,467.15,257.69Z" fill="url(#linear-gradient)"/><path d="M467.86,375.67q-1,2.81-2.07,5.56a174.43,174.43,0,0,1-12.17,25h0q-4.2,7.13-9.07,13.86a185,185,0,0,1-24.88,28c.05-.69.11-1.39.16-2.09.07-1.07.15-2.14.22-3.2.17-2.34.33-4.65.49-6.91.07-.88.13-1.75.19-2.61q.6-8.4,1.13-15.88c.1-1.43.2-2.84.3-4.21l.09-1.23c.06-.81.11-1.61.17-2.4s.1-1.43.15-2.13a1.49,1.49,0,0,1,0-.21c.05-.72.09-1.42.14-2.12.09-1.18.17-2.32.25-3.45,0-.71.1-1.39.15-2.08.07-1.06.15-2.09.22-3.1,0-.24,0-.49,0-.73,0-.48.07-1,.1-1.43,0-.24,0-.47.05-.7v-.09c.07-.9.13-1.78.19-2.64a.57.57,0,0,0,0-.13c.05-.63.09-1.24.13-1.83,0-.2,0-.4,0-.59s.05-.68.07-1,.05-.54.06-.81c.13-1.86.26-3.57.36-5.09,0-.22,0-.44,0-.65s0-.43,0-.64c0-.4.06-.79.08-1.16.2-2.7.33-4.66.42-5.82a3.25,3.25,0,0,1,0-.33.34.34,0,0,1,0-.1c0-.1,0-.2,0-.28,0-.33,0-.49,0-.49Z" fill="#20b8c0"/><path d="M467.86,375.67q-1,2.81-2.07,5.56a174.43,174.43,0,0,1-12.17,25h0q-4.2,7.13-9.07,13.86a185,185,0,0,1-24.88,28c.05-.69.11-1.39.16-2.09.07-1.07.15-2.14.22-3.2.17-2.34.33-4.65.49-6.91.07-.88.13-1.75.19-2.61q.6-8.4,1.13-15.88c.1-1.43.2-2.84.3-4.21l.09-1.23c.06-.81.11-1.61.17-2.4s.1-1.43.15-2.13a1.49,1.49,0,0,1,0-.21c.05-.72.09-1.42.14-2.12.09-1.18.17-2.32.25-3.45,0-.71.1-1.39.15-2.08.07-1.06.15-2.09.22-3.1,0-.24,0-.49,0-.73,0-.48.07-1,.1-1.43,0-.24,0-.47.05-.7v-.09c.07-.9.13-1.78.19-2.64a.57.57,0,0,0,0-.13c.05-.63.09-1.24.13-1.83,0-.2,0-.4,0-.59s.05-.68.07-1,.05-.54.06-.81c.13-1.86.26-3.57.36-5.09,0-.22,0-.44,0-.65s0-.43,0-.64c0-.4.06-.79.08-1.16.2-2.7.33-4.66.42-5.82a3.25,3.25,0,0,1,0-.33.34.34,0,0,1,0-.1c0-.1,0-.2,0-.28,0-.33,0-.49,0-.49Z" fill="#0e9fb0"/><path d="M474.74,290.75a165.91,165.91,0,0,1-6.88,84.92q-1,2.81-2.07,5.56a174.43,174.43,0,0,1-12.17,25h0q-4.2,7.13-9.07,13.86c-9.3-1.34-16.86-2.44-21.52-2.56a6.23,6.23,0,0,1-1.17-.16,6,6,0,0,1-2.76-1.5c-.92-.8-.05-43.74,2.78-97.83.08-2.08.16-4.38.44-6.45l0-.76c.17-3.57.36-7.18.56-10.81.12-2.1.24-4.2.36-6.32.88-14.43,2-29.18,3.14-43.9l.33-4.22c1.86-22.65,4-44.91,6.62-64.82a294.44,294.44,0,0,1,33.8,77Q471.73,273.83,474.74,290.75Z" fill="url(#linear-gradient-2)"/><path d="M85.48,370.66C85,355.52,84.19,337.48,83.17,318c-.08-2.08-.17-4.38-.43-6.45l0-.76c-.08-1.73-.16-3.46-.25-5.21,0-1-.1-2-.16-3-.15-3-.33-5.95-.51-9-.87-14.43-2-29.18-3.13-43.9-.12-1.41-.23-2.82-.35-4.22-1.71-21-3.71-41.63-6-60.39h0c0-.1,0-.21,0-.31-.29-2.36-.6-4.7-.9-7-.61-4.62-8.24-30.94-8.91-35.27-.9,1.48-19.55,16.55-20.42,18.05-5.17,8.84,14.77,26.37,10.29,36A443.58,443.58,0,0,0,28.9,260.1l-.12.43a138,138,0,0,0-4.43,21.7h0c-.13,1-.24,2-.34,3h0c-3.11,32.28,6.08,62.48,23.55,89.47.59.93,1.21,1.86,1.83,2.79,1.23,1.83,2.51,3.65,3.82,5.45.93,1.28,1.87,2.55,2.84,3.81.2.26.4.53.61.79a220.42,220.42,0,0,0,22.39,24.73q2,1.9,4,3.78l1,.93a6.63,6.63,0,0,0,1.84-1.2C86.54,415.31,86.4,397.55,85.48,370.66Z" fill="url(#linear-gradient-3)"/><path d="M85.48,370.66c-24.32-25.49-44.59-56.77-61.13-88.43h0a138,138,0,0,1,4.43-21.7l.12-.43a443.58,443.58,0,0,1,23.37-63.45c14.93,21.34,25.39,41,26,48.89.12,1.4.23,2.81.35,4.22,1.17,14.72,2.26,29.47,3.13,43.9.18,3,.36,6,.51,9,.06,1,.11,2,.16,3,.09,1.75.17,3.48.25,5.21l0,.76c.26,2.07.35,4.37.43,6.45C84.19,337.48,85,355.52,85.48,370.66Z" fill="#1a3f6f"/><path d="M195.92,330.1s32.36,0,37.45,1.58,21.46,13.27,21.36,14.8-1.23,2.51-4.4,2-13.17-4.2-12.8-2.8,28.68,14,27.63,20.08-19.83,13.4-33.73,11-37.23-24.55-39.49-25.29C172.71,345.25,195.92,330.1,195.92,330.1Z" fill="#fbbd9d"/><path d="M201.78,341.15a38,38,0,0,1-9.36,10.58,26.64,26.64,0,0,1-2.56,1.81s-62.27-23.32-107.41-48c-14.92-8.14-28-16.43-36.28-24.07-3.75-3.45-9.84-11.15-17.27-21.41,6.48-22.43-5.24-43,3.9-62.72,4.48-9.66,12.18-37.8,17.35-46.64,1.8,5.37,20.24,29,22.1,34.4h0c9.89,28.85,20,56.5,23.64,59.95,7.83,7.5,107.25,81.15,107.25,81.15a6.87,6.87,0,0,1,1.64,3.92C205.1,332.6,204.66,336.21,201.78,341.15Z" fill="url(#linear-gradient-4)"/><rect x="154.45" y="112.33" width="169.79" height="154.01" rx="7.1" fill="#fff"/><rect x="154.45" y="111.17" width="169.79" height="9.24" fill="#bcbec0"/><path d="M160.15,113.94a1.85,1.85,0,1,0,1.84,1.85A1.85,1.85,0,0,0,160.15,113.94Z" fill="#daebf9"/><path d="M167.38,113.94a1.85,1.85,0,1,0,1.85,1.85A1.85,1.85,0,0,0,167.38,113.94Z" fill="#daebf9"/><path d="M174.67,113.94a1.85,1.85,0,1,0,1.85,1.85A1.85,1.85,0,0,0,174.67,113.94Z" fill="#daebf9"/><path d="M205.44,132.39h64.87a3.09,3.09,0,0,0,3.08-3.08h0a3.09,3.09,0,0,0-3.08-3.08H205.44a3.09,3.09,0,0,0-3.08,3.08h0A3.09,3.09,0,0,0,205.44,132.39Z" fill="#e6e7e8"/><path d="M190.66,143h94.43a3.08,3.08,0,1,0,0-6.16H190.66a3.08,3.08,0,1,0,0,6.16Z" fill="#e6e7e8"/><path d="M182.68,170.78H296.49a2.26,2.26,0,0,0,0-4.52H182.68a2.26,2.26,0,0,0,0,4.52Z" fill="#e6e7e8"/><rect x="180.42" y="176.68" width="118.33" height="4.52" rx="2.26" fill="#e6e7e8"/><path d="M296.49,187.1H182.68a2.26,2.26,0,1,0,0,4.51H296.49a2.26,2.26,0,0,0,0-4.51Z" fill="#e6e7e8"/><path d="M194.1,225H182.68a2.26,2.26,0,1,0,0,4.52H194.1a2.26,2.26,0,1,0,0-4.52Z" fill="#e6e7e8"/><path d="M213.19,225H201.77a2.26,2.26,0,1,0,0,4.52h11.42a2.26,2.26,0,0,0,0-4.52Z" fill="#e6e7e8"/><path d="M277.39,225H266a2.26,2.26,0,0,0,0,4.52h11.42a2.26,2.26,0,1,0,0-4.52Z" fill="#e6e7e8"/><path d="M296.49,225H285.06a2.26,2.26,0,1,0,0,4.52h11.43a2.26,2.26,0,0,0,0-4.52Z" fill="#e6e7e8"/><path d="M197.27,232.23a12,12,0,1,0,12,12A12.05,12.05,0,0,0,197.27,232.23Zm0,23.47a11.43,11.43,0,1,1,11.43-11.43A11.45,11.45,0,0,1,197.27,255.7Z" fill="#a2c3e7"/><path d="M197.27,234.57a9.7,9.7,0,1,0,9.7,9.7A9.71,9.71,0,0,0,197.27,234.57Zm0,18.79a9.09,9.09,0,1,1,9.09-9.09A9.1,9.1,0,0,1,197.27,253.36Z" fill="#a2c3e7"/><path d="M194,248.24c-1.29-.11-2-.72-2-1.81a2.86,2.86,0,0,1,.91-2.17,3.31,3.31,0,0,0,1.65,2.55,1,1,0,0,0,1.13-.4,7.24,7.24,0,0,0,.87-1.43.75.75,0,0,0,.48.21c.45,0,.89-.33,1.29-1a4.62,4.62,0,0,0,.29-.59l.09.07a.38.38,0,0,0,.45-.06,4,4,0,0,0,.74-1.11.57.57,0,0,0,.2.23c.1.06.3.11.56-.12a.28.28,0,0,0,.07-.35c-.06-.13-.28-.21-.59-.26h0a3.61,3.61,0,0,0,.44-1.87.28.28,0,0,0-.3-.18c-.22,0-.38.24-.47.68a4,4,0,0,0-.06,1.31v0c-.22,0-.48,0-.75,0a.89.89,0,0,0-.12-.46c-.11-.17-.24-.17-.3-.15s-.24.24-.26.42a1.4,1.4,0,0,0,0,.23,15,15,0,0,0-2.47.42,8.17,8.17,0,0,0-2.62,1.17c0-.38,0-.84.28-1s.88,0,1.07.15l.2-.32s-.89-.51-1.47-.15q-.54.33-.45,1.41a1.49,1.49,0,0,0,0,.21,3.29,3.29,0,0,0-1.23,2.62c0,1.28.87,2.05,2.34,2.17a9.33,9.33,0,0,0,3.46-.54c2.8-.9,5.4-2.84,5.92-4.6C202.57,245.68,197.12,248.5,194,248.24Zm6.25-7.81c0,.1-.05.24-.09.4A1.59,1.59,0,0,1,200.22,240.43ZM199,242.29h.6a3.5,3.5,0,0,1-.67,1s0,0-.11-.21A4.41,4.41,0,0,0,199,242.29Zm-2,.21c.47-.09.93-.14,1.35-.18a3.77,3.77,0,0,0,.1.77,4.55,4.55,0,0,1-.39.88c-.31.55-.65.86-.94.84a.4.4,0,0,1-.33-.22A2.91,2.91,0,0,0,196.92,242.5Zm-.37.11a1.88,1.88,0,0,1-.05,1.42A2.83,2.83,0,0,1,196.55,242.61Zm-2.2.68a9.15,9.15,0,0,1,1.78-.62,3.72,3.72,0,0,0,0,1.45,2.17,2.17,0,0,0,.16.49,6.71,6.71,0,0,1-.91,1.56.67.67,0,0,1-.73.28,3.14,3.14,0,0,1-1.42-2.48A5.46,5.46,0,0,1,194.35,243.29Z" fill="#a2c3e7"/><path d="M203.32,243.47a1.8,1.8,0,0,0,.06-.22A1.8,1.8,0,0,1,203.32,243.47Z" fill="#a2c3e7"/><path d="M280.9,232.55a12.33,12.33,0,1,0,12.33,12.33A12.34,12.34,0,0,0,280.9,232.55Zm0,24a11.71,11.71,0,1,1,11.71-11.71A11.72,11.72,0,0,1,280.9,256.59Z" fill="#a2c3e7"/><path d="M280.9,235a9.94,9.94,0,1,0,9.93,9.93A9.94,9.94,0,0,0,280.9,235Zm0,19.24a9.31,9.31,0,1,1,9.31-9.31A9.31,9.31,0,0,1,280.9,254.19Z" fill="#a2c3e7"/><path d="M287.1,244.07l.06-.23Z" fill="#a2c3e7"/><path d="M277.52,249c-1.32-.11-2-.74-2-1.85a2.88,2.88,0,0,1,.93-2.23,3.34,3.34,0,0,0,1.69,2.61,1,1,0,0,0,1.15-.41,6.83,6.83,0,0,0,.89-1.46.79.79,0,0,0,.5.22c.46,0,.91-.35,1.32-1.06a4.92,4.92,0,0,0,.29-.61l.1.08a.37.37,0,0,0,.45-.07,4,4,0,0,0,.77-1.13.6.6,0,0,0,.2.24.48.48,0,0,0,.57-.13.28.28,0,0,0,.08-.36c-.07-.12-.29-.21-.61-.27h0a3.62,3.62,0,0,0,.45-1.92.29.29,0,0,0-.3-.19c-.23,0-.39.25-.49.7a4.22,4.22,0,0,0-.06,1.35v0a6.31,6.31,0,0,0-.77,0,.88.88,0,0,0-.12-.47c-.11-.18-.24-.18-.31-.16s-.24.25-.27.43,0,.15,0,.24a14.09,14.09,0,0,0-2.53.43,8.33,8.33,0,0,0-2.68,1.2c0-.39,0-.87.29-1s.9,0,1.1.16l.2-.34s-.92-.52-1.51-.15c-.36.23-.52.71-.46,1.45a1.49,1.49,0,0,0,0,.21,3.34,3.34,0,0,0-1.25,2.69c0,1.31.88,2.1,2.39,2.22a9.58,9.58,0,0,0,3.54-.55c2.87-.93,5.53-2.92,6.07-4.71C286.33,246.32,280.75,249.21,277.52,249Zm6.4-8c0,.11-.05.25-.09.41A1.68,1.68,0,0,1,283.92,241Zm-1.3,1.9h.62a3.57,3.57,0,0,1-.69,1.05s-.05,0-.11-.22A4.43,4.43,0,0,0,282.62,242.85Zm-2.08.22a12.17,12.17,0,0,1,1.38-.18,4.18,4.18,0,0,0,.11.79,4.76,4.76,0,0,1-.4.9c-.32.56-.67.87-1,.86a.46.46,0,0,1-.34-.23A2.9,2.9,0,0,0,280.54,243.07Zm-.38.12a1.86,1.86,0,0,1-.05,1.45A2.94,2.94,0,0,1,280.16,243.19Zm-2.25.69a9.68,9.68,0,0,1,1.83-.64,3.73,3.73,0,0,0,0,1.49,2.65,2.65,0,0,0,.17.5,6.93,6.93,0,0,1-.94,1.6.65.65,0,0,1-.74.28,3.16,3.16,0,0,1-1.46-2.54A6.25,6.25,0,0,1,277.91,243.88Z" fill="#a2c3e7"/><path d="M331.59,356l-14.77,19.93-1.45,2-.71.95-1.82,2.46-1,1.33L310,385.11l-1.92,2.58-1.79,2.42,0,0h0l-1.68,2.27,0,0-.25.33,0,0h0l-.31.42h0l-1.82,2.25v.2l-1.7,2.29h0l-2.2,3h0l-1.66,2.24h0l-1.82,2.45h0l-3,4.1h0l-.3.4-1,1.4h0L288,414.8l-3.17,4.08v.2l-1.65,2.22-.17.23h0l-2.28,3.09h0l-2.13,2.88,0,0h0l-5.28,7.13h0l-7.86,10.6L252.29,463l-1.63,2.21-1,1.3,1.51.21h0c1.75.24,3.5.45,5.24.63l1.47.16c.31,0,.61.07.92.09.74.08,1.47.14,2.21.2l.93.09.44,0c.48.05,1,.08,1.47.12l.27,0c1.08.08,2.16.14,3.23.2l1.47.08,1.14.06h.22l1.9.08,1.47,0,1.67,0,1.46,0H284l.59,0c3.8-.1,7.58-.31,11.32-.62h0q6.46-.54,12.8-1.48c4.57-.67,9.08-1.51,13.53-2.49l.23-.05s0,0,0,.06l4.19-1,1.75-.43q8.25-2.1,16.19-4.86c.88-.31,1.77-.62,2.64-.94l.66-.24q2.47-.9,4.9-1.87l1.31-.53h0l.27-.1h0l1.54-.63,1.15-.49,1.34-.58.86-.37h0l1.5-.67h0q7.38-3.31,14.38-7.2l1.47-.83h0l25.71-34.7Z" fill="#96d09d"/><path d="M292.71,427.5v2.06l1.49-2,0,0h-1.52Zm-2.82,2.71a11.33,11.33,0,0,0-1.52.75l-3.29,4.43-2.51,3.39v4.46l3-4,7.16-9.66A8.46,8.46,0,0,0,289.89,430.21Zm-12.12,15.05-.38.5L276,447.7l-6.47,8.72v4.46l4.57-6.17,3.66-4.94,1.92-2.58,1.42-1.93h-3.29Zm54.67-73.78-15.38,20.77-.14.18-.93,1.26-1.2,1.61-.62.83h0L311.32,400l-1.19,1.41v.19l-.78,1.05-1,1.4-4.24,5.73h0l-.09.12-.22.28h0L302.41,412v.19l-4,5.25-1.56,2.11-.26.35-4.33,5.85-1.29,1.74,0,0L288.37,431l-3.29,4.43-2.51,3.39-1.82,2.46-3,4-.38.5L276,447.7l-6.47,8.72-1.81,2.45L264.61,463l-3.56,4.8.93.09.44,0c.48.05,1,.08,1.47.12l.27,0L267.9,463h0l1.58-2.14,4.57-6.17,3.66-4.94,1.92-2.58,1.42-1.93h0l1.49-2,3-4,7.16-9.66h0l1.49-2,0,0h0l2.32-2.94v-.19l1.82-2.46,1.45-2,2.59-3.49,1.82-2.46,2-2.76.78-1.06.3-.41h0l.95-1.28,1.82-2.45,1.92-2.6,1.93-2.59.19-.25h0l1.82-2.46,1.39-1.88.65-.87h0l1.67-2.26.15-.2.36-.49,7-9.46a9.68,9.68,0,0,1,13.54-2l35.83,26.56a10.66,10.66,0,0,1,2.22,14.91L357.2,451.59l-1.27,1.72,1.15-.49,1.34-.58.86-.37h0l1.5-.67h0l28.08-37.88Zm-54.67,73.78-.38.5L276,447.7l-6.47,8.72v4.46l4.57-6.17,3.66-4.94,1.92-2.58,1.42-1.93h-3.29Zm12.12-15.05a11.33,11.33,0,0,0-1.52.75l-3.29,4.43-2.51,3.39v4.46l3-4,7.16-9.66A8.46,8.46,0,0,0,289.89,430.21Zm2.82-2.71v2.06l1.49-2,0,0h-1.52Z" fill="#67b476"/><path d="M322.48,464s0,0,0-.06l-.23.05c-4.45,1-9,1.82-13.53,2.49q-6.33.94-12.8,1.48h0c-3.74.31-7.52.52-11.32.62l-.59,0h-.62c0-.55,0-1.1,0-1.65a21.91,21.91,0,0,1,4.3-12.74l0-.06a20.92,20.92,0,0,1,5-4.88,21.48,21.48,0,0,1,5.56-2.79,18.86,18.86,0,0,1,1.82-.51,21,21,0,0,1,4.33-.59c.6,0,1.21,0,1.81,0a22.11,22.11,0,0,1,4,.58,18.67,18.67,0,0,1,1.81.51c.7.23,1.38.5,2.06.8s1.21.59,1.81.92,1.29.78,1.91,1.22l.35.25c.48.36.94.73,1.39,1.12h0l.08.06c.34.31.67.62,1,.94a23.46,23.46,0,0,1,1.82,2v0c.25.32.48.64.7,1v0a21.31,21.31,0,0,1,1.82,3.12v0c.23.51.45,1,.64,1.55h0a21.63,21.63,0,0,1,1,3.43Z" fill="#67b476"/><path d="M304,393.25h0l-1.82,2.28v.17l-1.7,2.29-2.2,3h0l-1.66,2.24h0l-1.82,2.45h0l-3,4.1h0l-.3.4-1,1.4h0L288,414.8l-3.17,4.11v.17l-1.65,2.22-.17.23h0l-2.29,3.09-2.13,2.88,0,0h0l-5.28,7.13h0l-7.86,10.6L252.29,463l-1.63,2.21-1,1.3,1.51.21h0c1.75.24,3.5.45,5.24.63l1.47.16c.31,0,.61.07.92.09.74.08,1.47.14,2.21.2l.93.09.44,0c.48.05,1,.08,1.47.12l.27,0c1.08.08,2.16.14,3.23.2l1.47.08,1.14.06h.22q.57-2.67,1.3-5.39c.74-2.75,1.59-5.53,2.54-8.31q1.1-3.21,2.34-6.42c.32-.84.65-1.68,1-2.53.07-.16.14-.33.2-.5h0c1-2.49,2.06-4.95,3.15-7.39v-.16c.6-1.34,1.21-2.5,1.82-3.81q1.53-3.25,3.08-6.37v0c1.41-2.82,2.82-5.56,4.2-8.17a10,10,0,0,1,.55-.87v-.16c.61-1.16,1.22-2.29,1.82-3.39q1.33-2.46,2.6-4.73c.08-.14.15-.28.23-.41.53-.95,1.05-1.72,1.55-2.61V407c1.22-2.18,2.35-4.17,3.35-5.94.6-1.07,1.16-2.05,1.66-3,.19-.34.38-.67.55-1,.8-1.47,1.42-2.65,1.82-3.52a7.67,7.67,0,0,0,.31-.76Z" fill="#67b476" opacity="0.5"/><path d="M333.29,462v10a2.81,2.81,0,0,1,0,.3h0a3.85,3.85,0,0,1-.65,1.85,3.94,3.94,0,0,1-1.82,1.45,3.24,3.24,0,0,1-.53.16l-.17,0-.34,0a2.06,2.06,0,0,1-.35,0H238c-2.05-.44-4.11-.91-6.16-1.4l-1.47-.35-4.11-1-1.81-.47c-1-.27-2.08-.54-3.12-.83l-3.37-.92-1.47-.42q-4.19-1.2-8.35-2.5h0l-.32-.1-2.52-.8-1.47-.48q-11.78-3.82-23.38-8.51h2.23l41.79,0H329.6a2.22,2.22,0,0,1,.51.06,3.29,3.29,0,0,1,.7.19,3.89,3.89,0,0,1,1.82,1.45A3.83,3.83,0,0,1,333.29,462Z" fill="#fcb53f"/><path d="M254.81,475.88H238c-2.05-.44-4.11-.91-6.16-1.4l-1.47-.35-4.11-1-1.81-.47c-1-.27-2.08-.54-3.12-.83l-3.37-.92-1.47-.42q-4.19-1.2-8.35-2.5h0l-.32-.1-2.52-.8-1.47-.48q-11.78-3.82-23.38-8.51h2.23l41.79,0h19.83a36.61,36.61,0,0,0,3.07,8.52,29.26,29.26,0,0,0,6.28,8.26l.52.46a1.09,1.09,0,0,0,.11.1Z" fill="#f9a01b"/><rect x="312.02" y="458.15" width="1.82" height="17.76" fill="#f9a01b"/><rect x="305.88" y="458.15" width="1.82" height="17.76" fill="#f9a01b"/><rect x="298.51" y="458.14" width="1.82" height="17.76" fill="#f9a01b"/><rect x="287.2" y="458.14" width="1.82" height="17.76" fill="#f9a01b"/><rect x="275.26" y="458.13" width="1.82" height="17.76" fill="#f9a01b"/><rect x="256.94" y="458.12" width="1.82" height="17.76" fill="#f9a01b"/><rect x="239.79" y="458.1" width="1.82" height="17.76" fill="#f9a01b"/><path d="M226.29,458.09v15l-1.81-.47V458.09Z" fill="#f9a01b"/><rect x="317.88" y="458.16" width="1.82" height="17.76" fill="#f9a01b"/><rect x="321.74" y="458.16" width="1.82" height="17.76" fill="#f9a01b"/><rect x="325.48" y="458.16" width="1.82" height="17.76" transform="translate(0.48 -0.33) rotate(0.06)" fill="#f9a01b"/><path d="M330.11,458.23l0,17.64a3.74,3.74,0,0,1-.68.06h-1.13V458.16h1.13A3.94,3.94,0,0,1,330.11,458.23Z" fill="#f9a01b"/><path d="M332.63,459.87v14.35a3.94,3.94,0,0,1-1.82,1.45V458.43A3.81,3.81,0,0,1,332.63,459.87Z" fill="#f9a01b"/><path d="M346.36,444.28v10a3.84,3.84,0,0,1-2.48,3.6,3.23,3.23,0,0,1-.71.2,3.74,3.74,0,0,1-.68.06l-159.79-.11a3.87,3.87,0,0,1-3.86-3.67V444.16a1.41,1.41,0,0,1,0-.2,3.85,3.85,0,0,1,3.4-3.63,3.55,3.55,0,0,1,.46,0l159.8.11a3.91,3.91,0,0,1,.68.06,3.31,3.31,0,0,1,.7.2,3.89,3.89,0,0,1,1.82,1.45A3.83,3.83,0,0,1,346.36,444.28Z" fill="#fcb53f"/><path d="M267.88,458.12l-85.61-.06a3.66,3.66,0,0,1-3.44-3.67V444.16a1.41,1.41,0,0,1,0-.2,3.71,3.71,0,0,1,3-3.63,2.73,2.73,0,0,1,.41,0l75.09.05v0C258.59,445.61,261.38,452.82,267.88,458.12Z" fill="#f9a01b"/><rect x="325.1" y="440.4" width="1.82" height="17.76" fill="#f9a01b"/><rect x="318.95" y="440.39" width="1.82" height="17.76" fill="#f9a01b"/><rect x="311.58" y="440.39" width="1.82" height="17.76" fill="#f9a01b"/><rect x="300.28" y="440.38" width="1.82" height="17.76" fill="#f9a01b"/><rect x="288.33" y="440.37" width="1.82" height="17.76" fill="#f9a01b"/><rect x="270.01" y="440.36" width="1.82" height="17.76" fill="#f9a01b"/><rect x="252.86" y="440.35" width="1.82" height="17.76" fill="#f9a01b"/><rect x="237.54" y="440.34" width="1.82" height="17.76" fill="#f9a01b"/><rect x="330.95" y="440.4" width="1.82" height="17.76" fill="#f9a01b"/><rect x="334.81" y="440.4" width="1.82" height="17.76" fill="#f9a01b"/><rect x="338.55" y="440.41" width="1.82" height="17.76" fill="#f9a01b"/><path d="M343.18,440.47v17.64a3.93,3.93,0,0,1-.69.06h-1.13V440.41h1.14A3.82,3.82,0,0,1,343.18,440.47Z" fill="#f9a01b"/><path d="M345.7,442.12v14.35a3.86,3.86,0,0,1-1.82,1.44l0-17.24A3.91,3.91,0,0,1,345.7,442.12Z" fill="#f9a01b"/><path d="M325.39,426.53v10a3.85,3.85,0,0,1-2.47,3.6,3.58,3.58,0,0,1-.71.2,1.81,1.81,0,0,1-.23,0l-.18,0h-.27l-159.8-.11a3.88,3.88,0,0,1-3.86-3.67V426.41a1.34,1.34,0,0,0,0-.2,3.88,3.88,0,0,1,3.86-3.66l159.8.11h.2a3.7,3.7,0,0,1,.48.06,3.58,3.58,0,0,1,.71.2,2,2,0,0,1,.33.15l.2.11h0l.2.12,0,0a1.09,1.09,0,0,1,.17.13,3.09,3.09,0,0,1,.39.33l.11.12,0,0,.06.07v0l.12.14.15.21A3.8,3.8,0,0,1,325.39,426.53Z" fill="#fcb53f"/><path d="M246.91,440.37l-85.6-.06a3.67,3.67,0,0,1-3.45-3.67V426.41a1.34,1.34,0,0,0,0-.2,3.67,3.67,0,0,1,3.45-3.66l75.09.05c0,.13.07.27.1.41,1.24,5.18,4.05,12.16,10.37,17.33Z" fill="#f9a01b"/><rect x="304.13" y="422.65" width="1.82" height="17.76" fill="#f9a01b"/><rect x="297.98" y="422.64" width="1.82" height="17.76" fill="#f9a01b"/><rect x="290.61" y="422.64" width="1.82" height="17.76" fill="#f9a01b"/><rect x="279.31" y="422.63" width="1.82" height="17.76" fill="#f9a01b"/><rect x="267.36" y="422.62" width="1.82" height="17.76" fill="#f9a01b"/><rect x="249.04" y="422.61" width="1.82" height="17.76" fill="#f9a01b"/><rect x="231.89" y="422.6" width="1.82" height="17.76" fill="#f9a01b"/><rect x="216.57" y="422.59" width="1.82" height="17.76" transform="translate(0.45 -0.23) rotate(0.06)" fill="#f9a01b"/><rect x="309.98" y="422.65" width="1.82" height="17.76" fill="#f9a01b"/><rect x="313.85" y="422.65" width="1.82" height="17.76" fill="#f9a01b"/><rect x="317.58" y="422.66" width="1.82" height="17.76" fill="#f9a01b"/><path d="M322.21,422.72v17.64a3.82,3.82,0,0,1-.68.06h-1.14V422.66h1.14A3.82,3.82,0,0,1,322.21,422.72Z" fill="#f9a01b"/><path d="M324.73,424.37v14.35a3.83,3.83,0,0,1-1.81,1.44V422.92A3.91,3.91,0,0,1,324.73,424.37Z" fill="#f9a01b"/><path d="M337.15,409.18v10a3.84,3.84,0,0,1-.67,2.16,3.91,3.91,0,0,1-1.81,1.45,4.38,4.38,0,0,1-.71.19,3.82,3.82,0,0,1-.68.07L173.48,423a3.68,3.68,0,0,1-1.72-.42,3.87,3.87,0,0,1-2.13-3.1c0-.05,0-.1,0-.15V408.87a3.88,3.88,0,0,1,3.41-3.64,3.4,3.4,0,0,1,.45,0l159.8.11a3.82,3.82,0,0,1,.68.06,4.41,4.41,0,0,1,.71.2,3.91,3.91,0,0,1,1.81,1.45A3.83,3.83,0,0,1,337.15,409.18Z" fill="#fcb53f"/><path d="M258.68,423l-85.61,0a3,3,0,0,1-1.54-.42,3.92,3.92,0,0,1-1.9-3.1c0-.05,0-.1,0-.15V408.87a3.73,3.73,0,0,1,3-3.64,2.73,2.73,0,0,1,.41,0l75.09.05v0c1.17,5.09,3.85,12.08,10,17.33Z" fill="#f9a01b"/><rect x="315.89" y="405.3" width="1.82" height="17.76" fill="#f9a01b"/><rect x="309.74" y="405.3" width="1.82" height="17.76" fill="#f9a01b"/><rect x="302.37" y="405.29" width="1.82" height="17.76" fill="#f9a01b"/><rect x="291.07" y="405.28" width="1.82" height="17.76" fill="#f9a01b"/><rect x="279.12" y="405.27" width="1.82" height="17.76" fill="#f9a01b"/><rect x="260.8" y="405.26" width="1.82" height="17.76" fill="#f9a01b"/><rect x="243.65" y="405.25" width="1.82" height="17.76" fill="#f9a01b"/><rect x="228.33" y="405.24" width="1.82" height="17.76" fill="#f9a01b"/><rect x="321.74" y="405.3" width="1.82" height="17.76" fill="#f9a01b"/><rect x="325.61" y="405.31" width="1.82" height="17.76" fill="#f9a01b"/><rect x="329.34" y="405.31" width="1.82" height="17.76" fill="#f9a01b"/><path d="M334,405.37V423a3.82,3.82,0,0,1-.68.06h-1.14V405.31h1.14A3.82,3.82,0,0,1,334,405.37Z" fill="#f9a01b"/><path d="M336.49,407v14.35a3.83,3.83,0,0,1-1.81,1.44V405.57A3.91,3.91,0,0,1,336.49,407Z" fill="#f9a01b"/><path d="M325.42,391.44v10a3.91,3.91,0,0,1-.66,2.16,4,4,0,0,1-1.82,1.44,3.4,3.4,0,0,1-.71.2l-.22,0-.13,0h-.33l-159.79-.11a3.87,3.87,0,0,1-3.86-3.67,1.34,1.34,0,0,1,0-.2V391.12a3.89,3.89,0,0,1,3.87-3.66l159.79.11a3.74,3.74,0,0,1,.68.06,3.4,3.4,0,0,1,.71.2,3.87,3.87,0,0,1,2.48,3.61Z" fill="#fcb53f"/><path d="M246.94,405.28l-85.61-.06a3.65,3.65,0,0,1-3.44-3.67,1.34,1.34,0,0,1,0-.2V391.12a3.67,3.67,0,0,1,3.45-3.66l75.1.05c1.19,5.22,4,12.44,10.46,17.74Z" fill="#f9a01b"/><rect x="304.15" y="387.56" width="1.82" height="17.76" transform="translate(0.41 -0.32) rotate(0.06)" fill="#f9a01b"/><rect x="298" y="387.55" width="1.82" height="17.76" fill="#f9a01b"/><rect x="290.63" y="387.55" width="1.82" height="17.76" fill="#f9a01b"/><rect x="279.33" y="387.54" width="1.82" height="17.76" fill="#f9a01b"/><rect x="267.38" y="387.53" width="1.82" height="17.76" fill="#f9a01b"/><rect x="249.06" y="387.52" width="1.82" height="17.76" fill="#f9a01b"/><rect x="231.91" y="387.51" width="1.82" height="17.76" fill="#f9a01b"/><rect x="216.6" y="387.49" width="1.82" height="17.76" fill="#f9a01b"/><rect x="310" y="387.56" width="1.82" height="17.76" fill="#f9a01b"/><rect x="313.87" y="387.56" width="1.82" height="17.76" fill="#f9a01b"/><rect x="317.6" y="387.56" width="1.82" height="17.76" fill="#f9a01b"/><path d="M322.23,387.63v17.64a3.82,3.82,0,0,1-.68.06h-1.13V387.57h1.13A3.74,3.74,0,0,1,322.23,387.63Z" fill="#f9a01b"/><path d="M324.76,389.28v14.34a4,4,0,0,1-1.82,1.45V387.83A3.88,3.88,0,0,1,324.76,389.28Z" fill="#f9a01b"/><path d="M347,490c-3.62,1.16-7.3,2.2-11,3.15l-1.75.43c-1.38.34-2.77.66-4.17,1l-.22.05q-6.69,1.47-13.54,2.49c-4.22.62-8.49,1.12-12.8,1.47h0c-3.74.32-7.52.52-11.32.63H284.3l-1.47,0-1.66,0-1.47,0-1.91-.08h-.21l-1.15-.05-1.47-.08c-1.07-.06-2.15-.12-3.22-.21l-.28,0-1.47-.11-.44,0-.93-.09c-.73-.06-1.47-.12-2.21-.2l-.92-.09L264,498c-1.74-.18-3.48-.4-5.23-.63h0l-1.5-.21-.51-.08-.41-.05-1-.16-.29,0H255l-.08,0c-1.31-.19-2.61-.4-3.92-.63l-1.37-.24-1.37-.25-1.54-.29-1.47-.28c-2.39-.46-4.79-1-7.18-1.48h0c-2.05-.45-4.11-.91-6.16-1.4l-1.47-.36-.71-.17a56.73,56.73,0,0,1,29.17-54.57c.73-.4,1.46-.78,2.19-1.15s1.42-.84,2.15-1.24A56.73,56.73,0,0,1,347,490Z" fill="#f58220"/><path d="M358,449.84a56.38,56.38,0,0,0-20.8-21.47l-.66-.38c-.6-.35-1.2-.68-1.81-1l-.71-.36c-.6-.31-1.21-.61-1.82-.88-.33-.16-.65-.31-1-.45-.6-.27-1.2-.52-1.81-.76s-1.28-.5-1.92-.74l-.15,0c-.55-.2-1.11-.39-1.67-.57l-.38-.12h-.17a1.74,1.74,0,0,0-.43-.18c-.37-.12-.75-.23-1.13-.33l-.57-.16c-.24-.06-.47-.13-.71-.18-.6-.16-1.21-.3-1.82-.43-.32-.08-.65-.15-1-.21-.61-.12-1.22-.24-1.82-.34l-1.92-.29-1.79-.2h0c-.68-.07-1.36-.12-2-.16s-1.21-.07-1.82-.09c-1.34,0-2.69,0-4,0-.6,0-1.21.05-1.81.1-1.45.1-2.89.26-4.34.48-.6.09-1.21.19-1.81.3a54.68,54.68,0,0,0-5.56,1.32l-1.1.34h0l-.09,0-.17.06a56.8,56.8,0,0,0-10.13,4.36l0,0c-.6.33-1.2.67-1.78,1l-.32.19a56.37,56.37,0,0,0-13.71,11.66l-.35.41a56.7,56.7,0,0,0-9.9,17.32,0,0,0,0,0,0,0l-.15.42a58,58,0,0,0-1.82,6.43v.17a54.19,54.19,0,0,0-1.32,10.71h0a56.25,56.25,0,0,0,2.12,16.77c.09.33.19.66.29,1,.32,1.07.68,2.13,1.07,3.19l.29,0,1,.16.41.05.51.08,1.5.21h0c1.75.23,3.49.45,5.23.63l1.47.16.92.09c.74.08,1.48.14,2.21.2l.93.09.44,0,1.47.11.28,0c1.07.09,2.15.15,3.22.21l1.47.08,1.15.05h.21l1.91.08,1.47,0,1.66,0,1.47,0h7.88c3.8-.11,7.58-.31,11.32-.63h0c4.31-.35,8.58-.85,12.8-1.47q6.85-1,13.54-2.49l.22-.05s0,0,0,.06l4.18-1,1.75-.43q8.25-2.1,16.19-4.86l2.65-.94.65-.24c1.65-.6,3.28-1.23,4.9-1.87l1.32-.53h0l.26-.11h0l1.54-.64,1.15-.48c.05-.41.09-.82.12-1.24A56.38,56.38,0,0,0,358,449.84Z" fill="#f58220"/><path d="M353.62,452.22a56.47,56.47,0,0,0-16.47-18.63l-.66-.47c-.6-.42-1.2-.83-1.81-1.22l-.71-.45c-.6-.37-1.21-.73-1.82-1.08l-1-.55c-.6-.33-1.21-.65-1.82-1s-1.27-.62-1.92-.91-1.2-.53-1.81-.78l-.66-.27c-.46-.19-.92-.36-1.39-.53l-1.19-.43-.62-.21c-1.33-.44-2.68-.83-4-1.17-.6-.15-1.21-.29-1.82-.42-1.31-.29-2.64-.53-4-.72l-.35-.05c-.6-.08-1.21-.15-1.81-.21l-.72-.07h-.18a.42.42,0,0,0-.13,0h-.36c-.77-.08-1.65-.14-2.4-.17-.6,0-1.21,0-1.81,0-1.44,0-2.89,0-4.34.15l-.68.05h-.23l-.1,0h-.22a53.16,53.16,0,0,0-5.69.85c-.61.12-1.21.25-1.82.39a56.91,56.91,0,0,0-10.13,3.4c-.61.27-1.22.55-1.82.85l-.32.15c-.75.37-1.5.76-2.24,1.17a56.77,56.77,0,0,0-13.66,10.49l-.29.31-.1.1h0a56.51,56.51,0,0,0-11.09,17.32,0,0,0,0,0,0,0,56.84,56.84,0,0,0-4.1,17.73A56.1,56.1,0,0,0,249,493.64c.19.77.4,1.53.64,2.29l1.37.24c1.31.23,2.61.44,3.92.63l.08,0H255l.29,0,1,.16.41.05.51.08,1.5.21h0c1.75.23,3.49.45,5.23.63l1.47.16.92.09c.74.08,1.48.14,2.21.2l.93.09.44,0,1.47.11.28,0c1.07.09,2.15.15,3.22.21l1.47.08,1.15.05h.21l1.91.08,1.47,0,1.66,0,1.47,0h7.88c3.8-.11,7.58-.31,11.32-.63h0c4.31-.35,8.58-.85,12.8-1.47q6.85-1,13.54-2.49l.22-.05s0,0,0,.06l4.18-1,1.75-.43q8.25-2.1,16.19-4.86l2.65-.94.65-.24c1.65-.6,3.28-1.23,4.9-1.87A56.49,56.49,0,0,0,353.62,452.22Z" fill="#fcb53f"/><path d="M349.53,455.24a51.44,51.44,0,0,0-13.36-15.71q-.74-.58-1.5-1.14l-.71-.5c-.6-.42-1.21-.83-1.82-1.22-.32-.21-.65-.41-1-.61-.6-.37-1.21-.72-1.82-1.06s-1.28-.69-1.92-1-1.21-.59-1.82-.86-1.36-.6-2-.87-1.21-.48-1.82-.7l-.19-.07c-.88-.31-1.77-.59-2.66-.86-.39-.12-.79-.23-1.18-.33-.61-.17-1.21-.32-1.82-.46-1.43-.33-2.88-.6-4.33-.82-.61-.08-1.21-.16-1.82-.22l-.55-.06-1.15-.1h0c-1.28-.1-2.56-.15-3.85-.15-.61,0-1.22,0-1.82,0a50.13,50.13,0,0,0-9.48,1.22c-.61.13-1.22.28-1.82.44a51.76,51.76,0,0,0-10.14,3.86c-.54.27-1.08.55-1.61.85a1.32,1.32,0,0,0-.2.12,50.09,50.09,0,0,0-7.87,5.37,6.4,6.4,0,0,0-.5.41c-.53.44-1.06.91-1.57,1.38s-1.23,1.15-1.82,1.76a51.16,51.16,0,0,0-9.87,14.17v0l-.06.13a50,50,0,0,0-2.74,7.28v.1a.87.87,0,0,0-.08.14,47.65,47.65,0,0,0-1.75,8.41h0c0,.42-.09.86-.13,1.29-.12,1.46-.19,2.92-.19,4.37a50.8,50.8,0,0,0,1.65,12.86c0,.18.09.35.14.53.29,1.09.63,2.16,1,3.23l1,.16.41.05.51.08,1.5.21c-.19-.5-.37-1-.54-1.51-.26-.73-.49-1.47-.71-2.22s-.41-1.29-.59-2v-.2a47.89,47.89,0,0,1-1.11-15.52,49.37,49.37,0,0,1,1.74-9.23c.37-1.27.79-2.52,1.25-3.74h0a48.35,48.35,0,0,1,2.1-4.76l0,0a47.71,47.71,0,0,1,6.43-9.63c.58-.68,1.19-1.34,1.82-2a47.73,47.73,0,0,1,6.56-5.7h0c.19-.14.38-.28.58-.41h0c.9-.64,1.79-1.24,2.74-1.81.56-.34,1.12-.66,1.69-1l.13-.07a48.09,48.09,0,0,1,10.13-4.14l1.82-.48a48,48,0,0,1,9.49-1.29c.6,0,1.2,0,1.8,0h0q.82,0,1.65,0h0l1.69.09c.73.05,1.47.12,2.2.2s1.21.15,1.81.25c1.46.22,2.91.51,4.34.86l1,.27.77.22c.65.18,1.29.38,1.92.59s1.42.49,2.12.76l1.82.74c.68.3,1.37.61,2,.94s1.22.61,1.82.94,1.28.71,1.91,1.09,1.22.75,1.82,1.15l1,.67.64.46h0a48.55,48.55,0,0,1,19.4,47.43l2.65-.94.65-.24A51.35,51.35,0,0,0,349.53,455.24Z" fill="#f9a01b"/><path d="M302.77,497.87a12.36,12.36,0,0,1-2.53-4.1l-9.3,3.78c0,.55,0,1.1,0,1.65h1.2c3.8-.11,7.58-.31,11.32-.63A7.51,7.51,0,0,1,302.77,497.87Zm0,0a12.36,12.36,0,0,1-2.53-4.1l-9.3,3.78c0,.55,0,1.1,0,1.65h1.2c3.8-.11,7.58-.31,11.32-.63A7.51,7.51,0,0,1,302.77,497.87Zm0,0a12.36,12.36,0,0,1-2.53-4.1l-9.3,3.78c0,.55,0,1.1,0,1.65h1.2c3.8-.11,7.58-.31,11.32-.63A7.51,7.51,0,0,1,302.77,497.87Zm0,0a12.36,12.36,0,0,1-2.53-4.1l-9.3,3.78c0,.55,0,1.1,0,1.65h1.2c3.8-.11,7.58-.31,11.32-.63A7.51,7.51,0,0,1,302.77,497.87Zm0,0a12.36,12.36,0,0,1-2.53-4.1l-9.3,3.78c0,.55,0,1.1,0,1.65h1.2c3.8-.11,7.58-.31,11.32-.63A7.51,7.51,0,0,1,302.77,497.87Zm0,0a12.36,12.36,0,0,1-2.53-4.1l-9.3,3.78c0,.55,0,1.1,0,1.65h1.2c3.8-.11,7.58-.31,11.32-.63A7.51,7.51,0,0,1,302.77,497.87ZM330.1,487.8a17.9,17.9,0,0,0-.85-2.67,21.51,21.51,0,0,0-1-2c-.32-.57-.65-1.1-1-1.6a.76.76,0,0,0-.08-.11h0a12.69,12.69,0,0,0-1.73-2l0,0a15.88,15.88,0,0,0-1.9-1.48,17.62,17.62,0,0,0-1.81-1c-.55-.26-1.12-.49-1.71-.7l-.34-.11-.55-.17h0l-.2-.06a26.77,26.77,0,0,0-5.55-.94h-.23l-1.59-.08c-2.09-.09-4.31-.1-6.68,0-1,0-1.95,0-2.8,0-.66,0-1.26-.05-1.82-.1h-.1a11.75,11.75,0,0,1-3.32-.73,6,6,0,0,1-2.22-1.5,8.09,8.09,0,0,1-1.41-2.33c0-.09-.07-.18-.1-.28a8.72,8.72,0,0,1-.54-2.44,5.81,5.81,0,0,1,.08-1.39,6.09,6.09,0,0,1,.33-1.18,6.26,6.26,0,0,1,1.58-2.24,7.84,7.84,0,0,1,1.37-1,12.11,12.11,0,0,1,1.53-.75,8.46,8.46,0,0,1,2.8-.65h0a6.94,6.94,0,0,1,1.82.16,7.08,7.08,0,0,1,1.56.55q2.88,1.41,4.69,5.87l3.23-1.31,1.82-.74,5.55-2.25.95-.39c-.29-.72-.61-1.42-.94-2.08v-.19c-.33-.62-.68-1.06-1-1.64l0,0c-.1-.16-.21-.32-.32-.48a19.15,19.15,0,0,0-1.44-1.86l-.47-.5h0a17.61,17.61,0,0,0-1.82-1.66,16.16,16.16,0,0,0-2-1.37c-.26-.15-.53-.29-.8-.42s-.68-.32-1-.46a16.2,16.2,0,0,0-2.59-.8c-.47-.11-.95-.19-1.45-.26s-.76-.09-1.14-.12l-.42,0h-.25a20.65,20.65,0,0,0-4.33.31c-.6.1-1.21.23-1.82.39l-.16,0-.39-1-1.84-4.52-1-2.57-2.12.86-1.82.73-2.46,1,2.46,6.05.17.43.6,1.47-.77.42a22.27,22.27,0,0,0-2.29,1.43h0a21.7,21.7,0,0,0-2.82,2.33l-.52.54,0,0a17.57,17.57,0,0,0-3.15,4.59,14.56,14.56,0,0,0-.92,2.54h0a15.07,15.07,0,0,0-.45,3.29,15.64,15.64,0,0,0,1.22,6.21c.16.38.32.75.49,1.1h0a15.77,15.77,0,0,0,1.4,2.43,6.51,6.51,0,0,0,.43.6,11.78,11.78,0,0,0,1.33,1.48l.16.15a14.46,14.46,0,0,0,1.75,1.37A14.72,14.72,0,0,0,289,483a14.17,14.17,0,0,0,1.84.75,24.44,24.44,0,0,0,4.42,1c.79.11,1.62.19,2.47.23l.75,0,1.82.05c1.75,0,3.6,0,5.55-.08H306c.57,0,1.13-.06,1.65-.06a25.72,25.72,0,0,1,2.86.09q.78.08,1.47.21a10,10,0,0,1,1.82.52h0a6,6,0,0,1,2.31,1.57,8.54,8.54,0,0,1,1.56,2.57,1.34,1.34,0,0,0,.16.23v.19a7.2,7.2,0,0,1,.39,2.32,5.44,5.44,0,0,1-.1,1.06,6,6,0,0,1-.52,1.55,7.09,7.09,0,0,1-1.34,1.83q6.85-1,13.54-2.49l.22-.05c.08-.31.15-.62.2-.93a15.21,15.21,0,0,0,.22-2.14A14.44,14.44,0,0,0,330.1,487.8Zm-27.33,10.07a12.36,12.36,0,0,1-2.53-4.1l-9.3,3.78c0,.55,0,1.1,0,1.65h1.2c3.8-.11,7.58-.31,11.32-.63A7.51,7.51,0,0,1,302.77,497.87Zm0,0a12.36,12.36,0,0,1-2.53-4.1l-9.3,3.78c0,.55,0,1.1,0,1.65h1.2c3.8-.11,7.58-.31,11.32-.63A7.51,7.51,0,0,1,302.77,497.87Zm0,0a12.36,12.36,0,0,1-2.53-4.1l-9.3,3.78c0,.55,0,1.1,0,1.65h1.2c3.8-.11,7.58-.31,11.32-.63A7.51,7.51,0,0,1,302.77,497.87Zm0,0a12.36,12.36,0,0,1-2.53-4.1l-9.3,3.78c0,.55,0,1.1,0,1.65h1.2c3.8-.11,7.58-.31,11.32-.63A7.51,7.51,0,0,1,302.77,497.87Zm0,0a12.36,12.36,0,0,1-2.53-4.1l-9.3,3.78c0,.55,0,1.1,0,1.65h1.2c3.8-.11,7.58-.31,11.32-.63A7.51,7.51,0,0,1,302.77,497.87Zm0,0a12.36,12.36,0,0,1-2.53-4.1l-9.3,3.78c0,.55,0,1.1,0,1.65h1.2c3.8-.11,7.58-.31,11.32-.63A7.51,7.51,0,0,1,302.77,497.87Zm0,0a12.36,12.36,0,0,1-2.53-4.1l-9.3,3.78-2.26.91.33.77h3.17c3.8-.11,7.58-.31,11.32-.63A7.51,7.51,0,0,1,302.77,497.87Z" fill="#f9a01b"/></g><path d="M414.37,22.87a60.86,60.86,0,0,0-50.19,24.51c-10.38,14-18.58,32.8-7.31,52.13,21.45,36.77,45.45,64.34,76.09,54.13s54.13-29.62,43.91-66.9S472.28,31.6,445.21,26A172.85,172.85,0,0,0,414.37,22.87Z" fill="#fff7ed"/></svg>