<svg id="Layer_1" data-name="Layer 1" xmlns="http://www.w3.org/2000/svg" xmlns:xlink="http://www.w3.org/1999/xlink" viewBox="0 0 500 500"><defs><linearGradient id="linear-gradient" x1="132.27" y1="345.14" x2="242.87" y2="345.14" gradientUnits="userSpaceOnUse"><stop offset="0" stop-color="#fcdc58"/><stop offset="1" stop-color="#fde796"/></linearGradient><linearGradient id="linear-gradient-2" x1="132.27" y1="345.14" x2="237.41" y2="345.14" xlink:href="#linear-gradient"/><linearGradient id="linear-gradient-3" x1="225.34" y1="345.14" x2="242.87" y2="345.14" xlink:href="#linear-gradient"/><linearGradient id="linear-gradient-4" x1="329.03" y1="345.82" x2="424.76" y2="345.82" gradientUnits="userSpaceOnUse"><stop offset="0" stop-color="#dc3644"/><stop offset="1" stop-color="#e1645d"/></linearGradient><linearGradient id="linear-gradient-5" x1="376.9" y1="376.96" x2="376.9" y2="314.68" xlink:href="#linear-gradient-4"/><linearGradient id="linear-gradient-6" x1="327.98" y1="333.18" x2="425.82" y2="333.18" xlink:href="#linear-gradient-4"/></defs><title>new</title><rect x="27.51" y="377.28" width="433.53" height="5.12" rx="2.56" fill="#3e3b3a"/><path d="M264.39,373.84c-24.06-.23-169.87,30-180-92.86s43.35-133,75.08-139.82C232.3,125.52,295,50.65,367.22,90.92c28.36,15.81,6,84.2,30.29,154.15,17.79,51.2-15,105.64-36.86,118.59S264.39,373.84,264.39,373.84Z" fill="#fff7ed"/><rect x="234.6" y="205.65" width="80.15" height="11.8" rx="4.36" fill="#333"/><rect x="248.74" y="205.65" width="80.15" height="11.8" rx="4.36" fill="#5d5d5d"/><rect x="314.49" y="305.96" width="10.49" height="47.38" fill="#b5b5b6"/><polygon points="312.66 348.3 326.81 348.3 326.81 354.95 380.96 358.1 380.96 364.32 326.81 364.32 322.6 364.32 316.88 364.32 316.88 364.32 258.51 364.32 258.51 358.1 312.66 354.95 312.66 348.3" fill="#3e3b3a" fill-rule="evenodd"/><rect x="311.26" y="294.97" width="16.95" height="16.03" fill="#3e3b3a"/><rect x="307.07" y="276.03" width="25.34" height="22.04" fill="#3e3b3a"/><path d="M300.92,278.44a7.55,7.55,0,0,1-7,1.52l-5.3-1.52a8.2,8.2,0,0,1-5.64-9.77l33.7-134.37c1-4.18,4.5-5.19,9.44-5.44l84.46-.3L375.19,278.44Z" fill="#464646" fill-rule="evenodd"/><rect x="214.24" y="257.28" width="138.64" height="23.59" rx="8.73" fill="#333"/><path d="M423.63,140.16,389.94,274.53a7.54,7.54,0,0,1-9.45,5.43l-5.3-1.52a8.21,8.21,0,0,1-5.64-9.77l33.7-134.37a7.55,7.55,0,0,1,9.44-5.44l5.31,1.53A8.19,8.19,0,0,1,423.63,140.16Z" fill="#5d5d5d" fill-rule="evenodd"/><rect x="316.28" y="257.28" width="80.15" height="23.59" rx="8.73" fill="#676767"/><path d="M262.77,374.4a5.94,5.94,0,1,0-5.94-5.94A6,6,0,0,0,262.77,374.4Z" fill="#3e3b3a" fill-rule="evenodd"/><path d="M316.37,374.4a5.94,5.94,0,1,0-5.94-5.94A6,6,0,0,0,316.37,374.4Z" fill="#3e3b3a" fill-rule="evenodd"/><path d="M378.1,374.4a5.94,5.94,0,1,0-5.94-5.94A6,6,0,0,0,378.1,374.4Z" fill="#3e3b3a" fill-rule="evenodd"/><rect x="327.03" y="205.65" width="80.15" height="11.8" rx="4.36" fill="#333"/><rect x="341.17" y="205.65" width="80.15" height="11.8" rx="4.36" fill="#5d5d5d"/><rect x="321.43" y="311.73" width="2.83" height="35.79" fill="#c8c9ca"/><rect x="319.86" y="299.41" width="7.39" height="10.58" fill="#474545"/><rect x="318.89" y="281.71" width="12.24" height="15.59" fill="#474545"/><path d="M327.41,132.73h65.93a2.67,2.67,0,0,1,2.63,3.55h0a5,5,0,0,1-4.49,3.56H325.56a2.66,2.66,0,0,1-2.63-3.56h0A4.94,4.94,0,0,1,327.41,132.73Z" fill="#4b4b4b" fill-rule="evenodd"/><path d="M320.3,155.27h65.93a2.67,2.67,0,0,1,2.63,3.56h0a5,5,0,0,1-4.49,3.55H318.45a2.66,2.66,0,0,1-2.63-3.55h0A4.94,4.94,0,0,1,320.3,155.27Z" fill="#4b4b4b" fill-rule="evenodd"/><path d="M314.64,175h65.93a2.66,2.66,0,0,1,2.63,3.56h0a5,5,0,0,1-4.48,3.55H312.79a2.66,2.66,0,0,1-2.63-3.55h0A5,5,0,0,1,314.64,175Z" fill="#4b4b4b" fill-rule="evenodd"/><path d="M309.79,197.77h65.93a2.66,2.66,0,0,1,2.63,3.55h0a4.94,4.94,0,0,1-4.48,3.56H307.94a2.67,2.67,0,0,1-2.63-3.56h0A5,5,0,0,1,309.79,197.77Z" fill="#4b4b4b" fill-rule="evenodd"/><path d="M302.36,222.89h65.93a2.66,2.66,0,0,1,2.63,3.56h0a5,5,0,0,1-4.48,3.55H300.51a2.66,2.66,0,0,1-2.63-3.55h0A5,5,0,0,1,302.36,222.89Z" fill="#4b4b4b" fill-rule="evenodd"/><path d="M298.32,244.3h65.93a2.66,2.66,0,0,1,2.63,3.56h0a5,5,0,0,1-4.48,3.55H296.47a2.66,2.66,0,0,1-2.63-3.55h0A5,5,0,0,1,298.32,244.3Z" fill="#4b4b4b" fill-rule="evenodd"/><path d="M241.19,271.27l-43.92,56.39s-7.67-2.13-9.62-5.86.45-5-1.16-6.15S228.6,261,228.6,261Z" fill="#e6e7e7" fill-rule="evenodd"/><path d="M236.16,262.28c3.65,2.48,6.06,6.16,5.4,8.21s-4.16,1.72-7.8-.76-6.06-6.16-5.4-8.22S232.52,259.8,236.16,262.28Z" fill="#a7a9ac" fill-rule="evenodd"/><path d="M241.12,271.21a.67.67,0,0,0,.14-.15c.12-.18.22-.37.22-.37-1-4-7.07-8.66-8.61-7.75a.66.66,0,0,0-.19.18,37.4,37.4,0,0,1-2.92,2.81,16.42,16.42,0,0,0,4,3.8c2.92,2,5.75,2.6,7.09,1.71A1.49,1.49,0,0,0,241.12,271.21Z" fill="#d0d2d3" fill-rule="evenodd"/><path d="M237.91,268.27c-1.9-.46-4.5-3.39-5.15-5.25l-3,2.91a16.42,16.42,0,0,0,4,3.8,14.42,14.42,0,0,0,2.63,1.44l1.4-2.67Z" fill="#bbbdbf" fill-rule="evenodd"/><path d="M217.4,260.68l-24.46,67.16s-7.95.34-10.95-2.62-1.1-4.86-3-5.5,23.29-64.92,23.29-64.92Z" fill="#e6e7e7" fill-rule="evenodd"/><path d="M209.86,253.67c4.23,1.24,7.66,4,7.66,6.16s-3.43,2.91-7.66,1.67-7.66-4-7.66-6.16S205.63,252.43,209.86,253.67Z" fill="#a7a9ac" fill-rule="evenodd"/><path d="M217.33,260.65a1.42,1.42,0,0,0,.08-.18c.06-.22.1-.42.1-.42-2.19-3.48-9.4-6.08-10.58-4.73a.71.71,0,0,0-.13.22,34.58,34.58,0,0,1-1.91,3.57,16.17,16.17,0,0,0,5,2.39c3.39,1,6.27.72,7.28-.55A1.89,1.89,0,0,0,217.33,260.65Z" fill="#d0d2d3" fill-rule="evenodd"/><path d="M213.36,258.84c-2,.14-5.32-1.85-6.51-3.41l-2,3.68a16.17,16.17,0,0,0,5,2.39,14.4,14.4,0,0,0,2.95.57l.51-3Z" fill="#bbbdbf" fill-rule="evenodd"/><path d="M134.41,299c.64.05,21.2-10,24.5-11.89s5.63-4.17,5.48-3.78,8,20.83,8,20.83Z" fill="#fff" fill-rule="evenodd"/><path d="M189.25,339c-1-2.5-6.81-20.09-11.39-34.11.91-.9,1.77-1.95,1.77-1.95s-3.89-12.07-4.38-12.23a17.92,17.92,0,0,0-2.08-.26l-1.1-3.37L131.6,298.78s14,43.18,14.31,42.85S189.25,339,189.25,339Z" fill="#52a176" fill-rule="evenodd"/><path d="M172.17,318.53c-1.29-4.21-5.67-16.17-5.67-16.17l32.42-7.82s4.65,28.17,5.83,27.56-27.07,8.1-27.07,8.1Z" fill="#fff" fill-rule="evenodd"/><path d="M141.63,346.94c1-2.5,6.81-20.1,11.39-34.12-.9-.9-1.77-1.94-1.77-1.94s3.89-12.08,4.38-12.24a17.92,17.92,0,0,1,2.08-.26l1.1-3.37,40.47,11.76s-14,43.17-14.31,42.85S141.63,346.94,141.63,346.94Z" fill="#f9aa8f" fill-rule="evenodd"/><path d="M236,312.45c0-.4,3.18-7.82,3.18-7.82l-31.14-12.76s-4.54,18.07-4.38,17.67S236,312.45,236,312.45Z" fill="#fff" fill-rule="evenodd"/><path d="M186.7,346.29c1-2.5,6.8-20.1,11.38-34.12-.9-.9-1.77-1.94-1.77-1.94s3.89-12.08,4.38-12.24a17.88,17.88,0,0,1,2.09-.26l1.09-3.37,40.48,11.76S230.35,349.29,230,349,186.7,346.29,186.7,346.29Z" fill="#a37376" fill-rule="evenodd"/><path d="M132.27,313h110.6v64.28H132.27V313Zm39.8,8.66a2.47,2.47,0,0,0-2.47,2.46v1.26a2.48,2.48,0,0,0,2.47,2.47h17.5a2.47,2.47,0,0,0,2.46-2.47v-1.26a2.47,2.47,0,0,0-2.46-2.46Z" fill-rule="evenodd" fill="url(#linear-gradient)"/><path d="M211.14,313h25.28c.33,19,.84,48.82,1,64.28H141.62L132.27,376V371.2c20.81-6.83,65.15-23.39,75-43.32A34.75,34.75,0,0,0,211.14,313Z" fill-rule="evenodd" fill="url(#linear-gradient-2)"/><rect x="225.34" y="313" width="17.53" height="64.28" fill="url(#linear-gradient-3)"/><path d="M60.35,270h89V377.28h-89V360.44c1.41-2.56,2.35-7.3,2.35-12.72s-.94-10.16-2.35-12.72V283.9a14.32,14.32,0,0,0,0-13Z" fill="#e6e7e7" fill-rule="evenodd"/><polygon points="60.35 330.96 81.42 315.82 60.35 315.82 60.35 330.96" fill="#d0d2d3" fill-rule="evenodd"/><polygon points="60.35 286.49 74.2 287.2 60.35 296 60.35 286.49" fill="#d0d2d3" fill-rule="evenodd"/><path d="M127.17,270H149.3v3.11a32,32,0,0,1,4.59,2.82l-4.59-.66v18.92c.32.17.64.35,1,.56a22.73,22.73,0,0,1,5.83,4.93l-6.8-1.59V324.6c2.35.91,4.49,1.84,4.49,1.84l-4.49-.71v25.41a22,22,0,0,0,3.58.86c2.72.3,5.13-.1,4.53.2s-4.73,2.51-5.43,2.71c-.29.09-1.43.3-2.68.53v21.84H127.17s-1.76-27.39-2-29.1a33.43,33.43,0,0,1,.7-10.87c.55-2,.53-10.67.41-19.33A39.49,39.49,0,0,1,125,307.21a40.8,40.8,0,0,1,1.22-10.48C126.58,289.93,127.17,270,127.17,270Z" fill="#d0d2d3" fill-rule="evenodd"/><path d="M81.42,315.82h-20s-3.53-.54-6.74,3.13a18.59,18.59,0,0,0-3.94,8.5Z" fill="#e6e7e7" fill-rule="evenodd"/><path d="M74.2,287.2c-2.82.5-17.51,5.33-17.51,5.33l3.66-6Z" fill="#e6e7e7" fill-rule="evenodd"/><path d="M117.57,267.67C114.55,270,93,270,92.5,270a96.28,96.28,0,0,1-11.66-.72c-4.73-.71-10.57-5.13-10.57-5.13l33.41-.71s.34,1,4,2.32A50.19,50.19,0,0,0,117.57,267.67Z" fill="#e6e7e7" fill-rule="evenodd"/><path d="M92,270a71,71,0,0,0,22.54-3.94,44.81,44.81,0,0,0,17.5-11.27l25.56-.5c-5.72,7.18-9.91,13.67-19.38,15.71Z" fill="#d0d2d3" fill-rule="evenodd"/><rect x="65.29" y="274.81" width="55.34" height="0.8" fill="#d0d2d3"/><rect x="66.7" y="278.23" width="55.34" height="0.8" fill="#d0d2d3"/><rect x="65.9" y="293.73" width="55.34" height="0.8" fill="#d0d2d3"/><rect x="67.31" y="297.15" width="55.34" height="0.8" fill="#d0d2d3"/><rect x="64.49" y="325.93" width="55.34" height="0.8" fill="#d0d2d3"/><rect x="65.9" y="329.35" width="55.34" height="0.8" fill="#d0d2d3"/><rect x="64.49" y="340.21" width="55.34" height="0.8" fill="#d0d2d3"/><rect x="65.9" y="343.63" width="55.34" height="0.8" fill="#d0d2d3"/><rect x="66.1" y="334.38" width="55.34" height="0.8" fill="#d0d2d3"/><rect x="67.51" y="337.8" width="55.34" height="0.8" fill="#d0d2d3"/><rect x="64.49" y="308.62" width="55.34" height="0.8" fill="#d0d2d3"/><rect x="65.9" y="312.04" width="55.34" height="0.8" fill="#d0d2d3"/><rect x="65.9" y="301.78" width="55.34" height="0.8" fill="#d0d2d3"/><rect x="67.31" y="305.2" width="55.34" height="0.8" fill="#d0d2d3"/><rect x="68.72" y="285.27" width="55.34" height="0.8" fill="#d0d2d3"/><rect x="70.12" y="288.7" width="55.34" height="0.8" fill="#d0d2d3"/><rect x="73.75" y="320.49" width="48" height="0.8" fill="#d0d2d3"/><rect x="67.81" y="349.77" width="55.34" height="0.8" fill="#d0d2d3"/><rect x="128.68" y="273.25" width="19.47" height="0.55" fill="#bbbdbf"/><rect x="128.38" y="277.93" width="19.47" height="0.55" fill="#bbbdbf"/><rect x="129.39" y="283.91" width="19.47" height="0.55" fill="#bbbdbf"/><rect x="127.38" y="288.24" width="19.47" height="0.55" fill="#bbbdbf"/><rect x="128.48" y="304.14" width="19.47" height="0.55" fill="#bbbdbf"/><rect x="127.58" y="298.4" width="19.47" height="0.55" fill="#bbbdbf"/><rect x="127.38" y="293.12" width="19.47" height="0.55" fill="#bbbdbf"/><rect x="126.87" y="329.04" width="19.47" height="0.55" fill="#bbbdbf"/><rect x="127.68" y="316.92" width="19.47" height="0.55" fill="#bbbdbf"/><rect x="127.68" y="312.14" width="19.47" height="0.55" fill="#bbbdbf"/><rect x="128.28" y="322.95" width="19.47" height="0.55" fill="#bbbdbf"/><rect x="128.03" y="308.11" width="19.47" height="0.55" fill="#bbbdbf"/><rect x="128.03" y="327.58" width="19.47" height="0.55" fill="#bbbdbf"/><rect x="129.54" y="325.32" width="19.47" height="0.55" fill="#bbbdbf"/><rect x="128.38" y="319.78" width="19.47" height="0.55" fill="#bbbdbf"/><rect x="127.81" y="341.21" width="19.47" height="0.55" fill="#bbbdbf"/><rect x="127.2" y="334.67" width="19.47" height="0.55" fill="#bbbdbf"/><rect x="129.32" y="352.08" width="19.47" height="0.55" fill="#bbbdbf"/><rect x="128.21" y="345.94" width="19.47" height="0.55" fill="#bbbdbf"/><rect x="128.31" y="349.36" width="19.47" height="0.55" fill="#bbbdbf"/><rect x="127.81" y="361.14" width="19.47" height="0.55" fill="#bbbdbf"/><rect x="127" y="356.01" width="19.47" height="0.55" fill="#bbbdbf"/><rect x="129.01" y="365.36" width="19.47" height="0.55" fill="#bbbdbf"/><path d="M419.33,312.41l-85.09-.16a2.32,2.32,0,0,0-2.27,2.28L329,377.11a2.25,2.25,0,0,0,2.28,2.27h91.18a2.23,2.23,0,0,0,2.27-2.27l-3.16-62.43A2.31,2.31,0,0,0,419.33,312.41Z" fill-rule="evenodd" fill="url(#linear-gradient-4)"/><polygon points="419.18 314.83 422.33 376.96 331.47 376.96 334.39 314.68 419.18 314.83" fill-rule="evenodd" fill="url(#linear-gradient-5)"/><path d="M388.57,303a2.7,2.7,0,0,1,2.7,2.7v7.16a2.7,2.7,0,0,1-2.7,2.7H365.23a2.71,2.71,0,0,1-2.71-2.7v-7.16a2.71,2.71,0,0,1,2.71-2.7Zm-23.34,4.13h0a.22.22,0,0,0-.22.23v5.5a.22.22,0,0,0,.22.22h23.34a.22.22,0,0,0,.22-.22v-5.5a.22.22,0,0,0-.22-.23Z" fill="#291e25" fill-rule="evenodd"/><path d="M423.49,311.64H330.3A2.33,2.33,0,0,0,328,314v28.55c11.27,7.42,29,12.2,48.92,12.2s37.65-4.78,48.92-12.2V314A2.34,2.34,0,0,0,423.49,311.64Z" fill-rule="evenodd" fill="url(#linear-gradient-6)"/><path d="M329.35,341.08l-.17-.12v-29a2.64,2.64,0,0,1,.79-.27v28.88c11.45,7.74,28.54,12.18,46.93,12.18s35.47-4.44,46.92-12.18V311.66a2.61,2.61,0,0,1,.8.27v29l-.17.11c-11.59,7.9-28.92,12.43-47.55,12.43S340.93,349,329.35,341.08Z" fill="#414142" fill-rule="evenodd"/><rect x="372.91" y="349.52" width="10.38" height="10.97" rx="0.97" fill="#fff"/><rect x="374.33" y="351.4" width="7.54" height="7.2" rx="0.57" fill="#fff"/></svg>