<svg id="Layer_1" data-name="Layer 1" xmlns="http://www.w3.org/2000/svg" xmlns:xlink="http://www.w3.org/1999/xlink" viewBox="0 0 500 500"><defs><linearGradient id="linear-gradient" x1="85.94" y1="263.46" x2="449.15" y2="263.46" gradientUnits="userSpaceOnUse"><stop offset="0" stop-color="#fcdc58"/><stop offset="1" stop-color="#fde796"/></linearGradient><linearGradient id="linear-gradient-2" x1="176.17" y1="182.78" x2="191.23" y2="182.78" gradientUnits="userSpaceOnUse"><stop offset="0" stop-color="#fee0c2"/><stop offset="1" stop-color="#f48167"/></linearGradient><linearGradient id="linear-gradient-3" x1="176.17" y1="179.76" x2="190" y2="179.76" xlink:href="#linear-gradient-2"/><linearGradient id="linear-gradient-4" x1="173.18" y1="168.41" x2="192.56" y2="168.41" xlink:href="#linear-gradient-2"/><linearGradient id="linear-gradient-5" x1="148.94" y1="309.32" x2="189.17" y2="309.32" gradientUnits="userSpaceOnUse"><stop offset="0" stop-color="#617abc"/><stop offset="1" stop-color="#8595cb"/></linearGradient><linearGradient id="linear-gradient-6" x1="157.78" y1="281.95" x2="189.17" y2="281.95" xlink:href="#linear-gradient-5"/><linearGradient id="linear-gradient-7" x1="170.63" y1="310.04" x2="202.98" y2="310.04" xlink:href="#linear-gradient-5"/><linearGradient id="linear-gradient-8" x1="182.87" y1="227.62" x2="208.61" y2="227.62" xlink:href="#linear-gradient-5"/><linearGradient id="linear-gradient-9" x1="137.63" y1="226.72" x2="174.59" y2="226.72" xlink:href="#linear-gradient-5"/><linearGradient id="linear-gradient-10" x1="170.37" y1="219.3" x2="180.15" y2="219.3" gradientUnits="userSpaceOnUse"><stop offset="0" stop-color="#dc3644"/><stop offset="1" stop-color="#e1645d"/></linearGradient><linearGradient id="linear-gradient-11" x1="170.37" y1="229.44" x2="180.15" y2="229.44" xlink:href="#linear-gradient-10"/><linearGradient id="linear-gradient-12" x1="154.35" y1="241.76" x2="160.8" y2="241.76" xlink:href="#linear-gradient-2"/><linearGradient id="linear-gradient-13" x1="194.49" y1="238.15" x2="206.18" y2="238.15" xlink:href="#linear-gradient-5"/><linearGradient id="linear-gradient-14" x1="192.47" y1="246.83" x2="206.68" y2="246.83" xlink:href="#linear-gradient-2"/><linearGradient id="linear-gradient-15" x1="194.27" y1="216.54" x2="226.24" y2="216.54" xlink:href="#linear-gradient-5"/><linearGradient id="linear-gradient-16" x1="150.42" y1="214.51" x2="159.2" y2="214.51" xlink:href="#linear-gradient-5"/><linearGradient id="linear-gradient-17" x1="182.71" y1="209.92" x2="195.83" y2="209.92" xlink:href="#linear-gradient-5"/><linearGradient id="linear-gradient-18" x1="166.4" y1="209.55" x2="176.22" y2="209.55" xlink:href="#linear-gradient-5"/></defs><title>new</title><path d="M59.27,371.84S11,321.38,51.1,266.75c35.59-48.47,77.08-45.16,107.53-25.49,13,8.38,61.4,1.52,103.75-39.62,45.09-43.79,165.7-22.28,144.78,68.35-11.65,50.46,40.39,51.9,13,102Z" fill="#fff7ed"/><rect x="24.69" y="371.2" width="450.63" height="1.2" rx="0.42" fill="#273252"/><polygon points="449.15 155.71 382.51 177.75 395.89 188.9 395.89 188.9 338.23 249.26 287.69 205.86 85.94 371.17 87.71 371.2 137.97 371.2 287.19 248.94 340.48 294.69 421.3 210.08 421.3 210.08 435.74 222.11 449.15 155.71" fill="url(#linear-gradient)"/><path d="M212.84,331l-15.31-1.32a80.28,80.28,0,0,0-1.8-22,77.48,77.48,0,0,0-13.62-30.52C169,259.72,130.06,250,130.06,250v-2.25l1.4-.16a5.44,5.44,0,0,0-1.4-.66v-5.33a19.31,19.31,0,0,1,4.43.44,29.66,29.66,0,0,0-4.43-.8v-2.8c56.41,1.51,74.81,35.58,80.57,61.95A105.71,105.71,0,0,1,212.84,331Z" fill="#67b476"/><path d="M279.84,326l-67,5c-.35-10.32-3-21-5.64-29.08a137.85,137.85,0,0,0-5.13-13.6c-20-43.92-72-49.87-72-49.87l57.68-23.62c27.87,2.1,47.42,15.48,61.09,32.28C275.61,280,279.84,326,279.84,326Z" fill="#96d09d"/><path d="M279.84,326l-67,5-15.31-1.32a80.28,80.28,0,0,0-1.8-22,91.14,91.14,0,0,1,11.47-5.74c1.17-.5,2.32-1,3.43-1.52,42.66-19.69,38.68-50.35,38.2-53.29C275.61,280,279.84,326,279.84,326Z" fill="#67b476" opacity="0.5"/><path d="M274.57,331.19,214.86,330l.21-1.15A80.35,80.35,0,0,0,211,291.3,74.92,74.92,0,0,0,190.69,261c-11.64-10.59-27.19-18.48-46.22-23.44l-2.94-.76,46.6-18.55h.18c.5,0,12.51-.19,27.93,7.1A86.63,86.63,0,0,1,241,243.09c9.2,9.37,16.94,21.16,23,35,.48,1.07,11.82,26.53,11.22,41.82v0Zm-57.37-3.1,55.49,1.07.55-9.29c.23-6.1-1.6-15.11-5.3-26-2.81-8.3-5.73-14.83-5.76-14.89-6-13.65-13.55-25.22-22.55-34.41a84.8,84.8,0,0,0-24.14-17.37,73.29,73.29,0,0,0-22.73-6.67,15.62,15.62,0,0,0-7.47,1L153,234.35a1.94,1.94,0,0,0,.12,3.64c15.71,5,28.78,12.29,39,21.56a76.87,76.87,0,0,1,20.83,31.16,85,85,0,0,1,4.84,27A71.65,71.65,0,0,1,217.2,328.09Z" fill="#67b476"/><path d="M242.44,262.59c0,9.83-5.76,15.77-15.6,15.77s-20-5.94-20-15.77,5.45-15.72,15.29-15.72S242.44,252.75,242.44,262.59Z" fill="#67b476"/><path d="M331.87,363v5.88a2.26,2.26,0,0,1-.39,1.26,2.33,2.33,0,0,1-1.06.85,3.31,3.31,0,0,1-.42.12,2.6,2.6,0,0,1-.4,0H236a2.26,2.26,0,0,1-2.26-2.14v-6.11a2.26,2.26,0,0,1,2.26-2.15H329.6a2.6,2.6,0,0,1,.4,0,3.31,3.31,0,0,1,.42.12,2.33,2.33,0,0,1,1.06.85A2.26,2.26,0,0,1,331.87,363Z" fill="#fcb53f"/><path d="M285.9,371.17H235.75a2.13,2.13,0,0,1-2-2.14v-6.11a2.14,2.14,0,0,1,2-2.15h44A18.6,18.6,0,0,0,285.9,371.17Z" fill="#f9a01b"/><rect x="319.41" y="360.77" width="1.06" height="10.41" fill="#f9a01b"/><rect x="315.81" y="360.77" width="1.06" height="10.41" fill="#f9a01b"/><rect x="311.49" y="360.77" width="1.06" height="10.41" fill="#f9a01b"/><rect x="304.87" y="360.77" width="1.06" height="10.41" fill="#f9a01b"/><rect x="297.87" y="360.77" width="1.06" height="10.41" fill="#f9a01b"/><rect x="287.14" y="360.77" width="1.06" height="10.41" fill="#f9a01b"/><rect x="277.09" y="360.77" width="1.06" height="10.41" fill="#f9a01b"/><rect x="268.12" y="360.77" width="1.06" height="10.41" fill="#f9a01b"/><rect x="322.84" y="360.77" width="1.06" height="10.41" fill="#f9a01b"/><rect x="325.1" y="360.77" width="1.06" height="10.41" fill="#f9a01b"/><rect x="327.29" y="360.77" width="1.06" height="10.41" fill="#f9a01b"/><path d="M330,360.8v10.34a2.6,2.6,0,0,1-.4,0h-.66v-10.4h.66A2.6,2.6,0,0,1,330,360.8Z" fill="#f9a01b"/><path d="M331.48,361.77v8.4a2.33,2.33,0,0,1-1.06.85v-10.1A2.33,2.33,0,0,1,331.48,361.77Z" fill="#f9a01b"/><path d="M321.86,352.63v5.87a2.22,2.22,0,0,1-.39,1.27,2.25,2.25,0,0,1-1.06.84,1.55,1.55,0,0,1-.42.12,2.58,2.58,0,0,1-.4,0H226a2.27,2.27,0,0,1-2.26-2.15v-6.11a2.27,2.27,0,0,1,2.26-2.15h94a2,2,0,0,1,.42.11l.06,0,0,0,.12.06.06,0,.06,0,.11.06.11.09.09.07h0l.05.05a1.37,1.37,0,0,1,.17.17l0,.05.05.06.08.11A2.22,2.22,0,0,1,321.86,352.63Z" fill="#fcb53f"/><path d="M275.89,360.77H225.74a2.14,2.14,0,0,1-2-2.15v-6.11a2.14,2.14,0,0,1,2-2.15h44l.06.26A18.61,18.61,0,0,0,275.89,360.77Z" fill="#f9a01b"/><rect x="309.4" y="350.36" width="1.06" height="10.41" fill="#f9a01b"/><rect x="305.8" y="350.36" width="1.06" height="10.41" fill="#f9a01b"/><rect x="301.48" y="350.36" width="1.06" height="10.41" fill="#f9a01b"/><rect x="294.86" y="350.36" width="1.06" height="10.41" fill="#f9a01b"/><rect x="287.86" y="350.36" width="1.06" height="10.41" fill="#f9a01b"/><rect x="277.13" y="350.36" width="1.06" height="10.41" fill="#f9a01b"/><rect x="267.08" y="350.36" width="1.06" height="10.41" fill="#f9a01b"/><rect x="258.11" y="350.36" width="1.06" height="10.41" fill="#f9a01b"/><rect x="312.83" y="350.36" width="1.06" height="10.41" fill="#f9a01b"/><rect x="315.1" y="350.36" width="1.06" height="10.41" fill="#f9a01b"/><rect x="317.28" y="350.36" width="1.06" height="10.41" fill="#f9a01b"/><path d="M320,350.4v10.33a2.58,2.58,0,0,1-.4,0h-.66V350.36h.66A1.75,1.75,0,0,1,320,350.4Z" fill="#f9a01b"/><path d="M321.47,351.36v8.41a2.25,2.25,0,0,1-1.06.84v-10.1A2.33,2.33,0,0,1,321.47,351.36Z" fill="#f9a01b"/><path d="M326.69,342.48v5.87a2.31,2.31,0,0,1-.38,1.27,2.22,2.22,0,0,1-1.07.84,1.48,1.48,0,0,1-.41.12,2.58,2.58,0,0,1-.4,0H230.82a2.33,2.33,0,0,1-1-.26,2.29,2.29,0,0,1-1.21-1.79v-.1a.49.49,0,0,1,0-.12v-5.87a.49.49,0,0,1,0-.12,2.27,2.27,0,0,1,2.26-2.15h93.61a1.75,1.75,0,0,1,.4,0,1.91,1.91,0,0,1,.41.11,2.25,2.25,0,0,1,1.45,2.12Z" fill="#fcb53f"/><path d="M280.73,350.62H230.58a1.89,1.89,0,0,1-.94-.26,2.31,2.31,0,0,1-1.08-1.79v-.1a.49.49,0,0,1,0-.12v-5.87a.49.49,0,0,1,0-.12,2.14,2.14,0,0,1,2-2.15h44a18.74,18.74,0,0,0,5.85,10.15Z" fill="#f9a01b"/><rect x="314.24" y="340.21" width="1.06" height="10.41" fill="#f9a01b"/><rect x="310.64" y="340.21" width="1.06" height="10.41" fill="#f9a01b"/><rect x="306.32" y="340.21" width="1.06" height="10.41" fill="#f9a01b"/><rect x="299.7" y="340.21" width="1.06" height="10.41" fill="#f9a01b"/><rect x="292.7" y="340.21" width="1.06" height="10.41" fill="#f9a01b"/><rect x="281.97" y="340.21" width="1.06" height="10.41" fill="#f9a01b"/><rect x="271.92" y="340.21" width="1.06" height="10.41" fill="#f9a01b"/><rect x="262.95" y="340.21" width="1.06" height="10.41" fill="#f9a01b"/><rect x="317.67" y="340.21" width="1.06" height="10.41" fill="#f9a01b"/><rect x="319.93" y="340.21" width="1.06" height="10.41" fill="#f9a01b"/><rect x="322.12" y="340.21" width="1.06" height="10.41" fill="#f9a01b"/><path d="M324.83,340.25v10.33a2.58,2.58,0,0,1-.4,0h-.66V340.21h.66A1.75,1.75,0,0,1,324.83,340.25Z" fill="#f9a01b"/><path d="M326.31,341.21v8.41a2.22,2.22,0,0,1-1.07.84v-10.1A2.3,2.3,0,0,1,326.31,341.21Z" fill="#f9a01b"/><path d="M328.94,332.07V338a2.29,2.29,0,0,1-.39,1.26,2.33,2.33,0,0,1-1.06.85,2.17,2.17,0,0,1-.42.11,1.75,1.75,0,0,1-.4,0H233.06a2.27,2.27,0,0,1-2.26-2.15V332a2.27,2.27,0,0,1,2-2.13l.27,0h93.61a2.58,2.58,0,0,1,.4,0,1.66,1.66,0,0,1,.42.12,2.25,2.25,0,0,1,1.06.84A2.32,2.32,0,0,1,328.94,332.07Z" fill="#fcb53f"/><path d="M283,340.21H232.82a2.14,2.14,0,0,1-2-2.15V332a2.18,2.18,0,0,1,1.78-2.13l.24,0h44v0A18.7,18.7,0,0,0,283,340.21Z" fill="#f9a01b"/><rect x="316.48" y="329.8" width="1.06" height="10.41" fill="#f9a01b"/><rect x="312.88" y="329.8" width="1.06" height="10.41" fill="#f9a01b"/><rect x="308.56" y="329.8" width="1.06" height="10.41" fill="#f9a01b"/><rect x="301.94" y="329.8" width="1.06" height="10.41" fill="#f9a01b"/><rect x="294.94" y="329.8" width="1.06" height="10.41" fill="#f9a01b"/><rect x="284.21" y="329.8" width="1.06" height="10.41" fill="#f9a01b"/><rect x="274.16" y="329.8" width="1.06" height="10.41" fill="#f9a01b"/><rect x="265.19" y="329.8" width="1.06" height="10.41" fill="#f9a01b"/><rect x="319.91" y="329.8" width="1.06" height="10.41" fill="#f9a01b"/><rect x="322.18" y="329.8" width="1.06" height="10.41" fill="#f9a01b"/><rect x="324.36" y="329.8" width="1.06" height="10.41" fill="#f9a01b"/><path d="M327.07,329.84v10.33a1.75,1.75,0,0,1-.4,0H326V329.8h.66A2.58,2.58,0,0,1,327.07,329.84Z" fill="#f9a01b"/><path d="M328.55,330.8v8.41a2.33,2.33,0,0,1-1.06.85V330A2.25,2.25,0,0,1,328.55,330.8Z" fill="#f9a01b"/><path d="M322.05,321.68v5.87a2.25,2.25,0,0,1-1.45,2.12,1.91,1.91,0,0,1-.41.11l-.13,0H226.18a2.27,2.27,0,0,1-2.26-2.15.49.49,0,0,1,0-.12v-5.87a.49.49,0,0,1,0-.12v-.09a2.3,2.3,0,0,1,1.7-2h.07a2,2,0,0,1,.49-.06h93.9l.11,0a1.48,1.48,0,0,1,.41.12,2.22,2.22,0,0,1,1.07.84A2.31,2.31,0,0,1,322.05,321.68Z" fill="#fcb53f"/><path d="M276.09,329.82H225.94a2.14,2.14,0,0,1-2-2.15.49.49,0,0,1,0-.12v-5.87a.49.49,0,0,1,0-.12v-.09a2.21,2.21,0,0,1,1.57-2l.09,0a2,2,0,0,1,.36,0h44a.24.24,0,0,0,0,.08,18.58,18.58,0,0,0,6.12,10.31Z" fill="#f9a01b"/><rect x="309.6" y="319.41" width="1.06" height="10.41" fill="#f9a01b"/><rect x="306" y="319.41" width="1.06" height="10.41" fill="#f9a01b"/><rect x="301.68" y="319.41" width="1.06" height="10.41" fill="#f9a01b"/><rect x="295.06" y="319.41" width="1.06" height="10.41" fill="#f9a01b"/><rect x="288.06" y="319.41" width="1.06" height="10.41" fill="#f9a01b"/><rect x="277.33" y="319.41" width="1.06" height="10.41" fill="#f9a01b"/><rect x="267.28" y="319.41" width="1.06" height="10.41" fill="#f9a01b"/><rect x="258.31" y="319.41" width="1.06" height="10.41" fill="#f9a01b"/><rect x="313.03" y="319.41" width="1.06" height="10.41" fill="#f9a01b"/><rect x="315.29" y="319.41" width="1.06" height="10.41" fill="#f9a01b"/><rect x="317.48" y="319.41" width="1.06" height="10.41" fill="#f9a01b"/><path d="M320.19,319.45v10.33a1.75,1.75,0,0,1-.4,0h-.67V319.41h.67A1.75,1.75,0,0,1,320.19,319.45Z" fill="#f9a01b"/><path d="M321.67,320.41v8.41a2.3,2.3,0,0,1-1.07.85v-10.1A2.22,2.22,0,0,1,321.67,320.41Z" fill="#f9a01b"/><path d="M321.86,311.34v5.88a2.26,2.26,0,0,1-1.45,2.11,1.39,1.39,0,0,1-.33.1h0l-.09,0a2.58,2.58,0,0,1-.4,0H226l-.29,0-.11,0a2.27,2.27,0,0,1-1.86-2.11v-6.11a2.27,2.27,0,0,1,2.26-2.15h93.87l.08,0H320a2,2,0,0,1,.42.11l.06,0,0,0,.12.06.12.07.11.06.11.09.09.07h0l.05.05.17.17,0,.05.05.06.08.11A2.21,2.21,0,0,1,321.86,311.34Z" fill="#fcb53f"/><path d="M275.89,319.49h-50.4a2.18,2.18,0,0,1-1.77-2.13v-6.11a2.14,2.14,0,0,1,2-2.15h44l.06.26a18.59,18.59,0,0,0,6,10.07Z" fill="#f9a01b"/><rect x="309.4" y="309.08" width="1.06" height="10.41" fill="#f9a01b"/><rect x="305.8" y="309.08" width="1.06" height="10.41" fill="#f9a01b"/><rect x="301.48" y="309.08" width="1.06" height="10.41" fill="#f9a01b"/><rect x="294.86" y="309.08" width="1.06" height="10.41" fill="#f9a01b"/><rect x="287.86" y="309.08" width="1.06" height="10.41" fill="#f9a01b"/><rect x="277.13" y="309.08" width="1.06" height="10.41" fill="#f9a01b"/><rect x="267.08" y="309.08" width="1.06" height="10.41" fill="#f9a01b"/><rect x="258.11" y="309.08" width="1.06" height="10.41" fill="#f9a01b"/><rect x="312.83" y="309.08" width="1.06" height="10.41" fill="#f9a01b"/><rect x="315.1" y="309.08" width="1.06" height="10.41" fill="#f9a01b"/><rect x="317.28" y="309.08" width="1.06" height="10.41" fill="#f9a01b"/><path d="M320,309.12v10.33a2.58,2.58,0,0,1-.4,0h-.66V309.08h.66A1.75,1.75,0,0,1,320,309.12Z" fill="#f9a01b"/><path d="M321.47,310.08v8.41a2.25,2.25,0,0,1-1.06.84v-10.1A2.33,2.33,0,0,1,321.47,310.08Z" fill="#f9a01b"/><path d="M326.69,301.19v5.88a2.31,2.31,0,0,1-.38,1.27,2.22,2.22,0,0,1-1.07.84,1.48,1.48,0,0,1-.41.12,2.58,2.58,0,0,1-.4,0H230.82a2.33,2.33,0,0,1-1-.26,2.29,2.29,0,0,1-1.21-1.79v-.1a.49.49,0,0,1,0-.12v-5.88a.45.45,0,0,1,0-.11,2.27,2.27,0,0,1,2.26-2.15h93.61a1.75,1.75,0,0,1,.4,0,1.91,1.91,0,0,1,.41.11,2.3,2.3,0,0,1,1.07.85A2.28,2.28,0,0,1,326.69,301.19Z" fill="#fcb53f"/><path d="M280.73,309.34H230.58a1.89,1.89,0,0,1-.94-.26,2.31,2.31,0,0,1-1.08-1.79v-.1a.49.49,0,0,1,0-.12v-5.88a.45.45,0,0,1,0-.11,2.14,2.14,0,0,1,2-2.15h44a18.74,18.74,0,0,0,5.85,10.15Z" fill="#f9a01b"/><rect x="314.24" y="298.93" width="1.06" height="10.41" fill="#f9a01b"/><rect x="310.64" y="298.93" width="1.06" height="10.41" fill="#f9a01b"/><rect x="306.32" y="298.93" width="1.06" height="10.41" fill="#f9a01b"/><rect x="299.7" y="298.93" width="1.06" height="10.41" fill="#f9a01b"/><rect x="292.7" y="298.93" width="1.06" height="10.41" fill="#f9a01b"/><rect x="281.97" y="298.93" width="1.06" height="10.41" fill="#f9a01b"/><rect x="271.92" y="298.93" width="1.06" height="10.41" fill="#f9a01b"/><rect x="262.95" y="298.93" width="1.06" height="10.41" fill="#f9a01b"/><rect x="317.67" y="298.93" width="1.06" height="10.41" fill="#f9a01b"/><rect x="319.93" y="298.93" width="1.06" height="10.41" fill="#f9a01b"/><rect x="322.12" y="298.93" width="1.06" height="10.41" fill="#f9a01b"/><path d="M324.83,299V309.3a2.58,2.58,0,0,1-.4,0h-.66V298.93h.66A1.75,1.75,0,0,1,324.83,299Z" fill="#f9a01b"/><path d="M326.31,299.93v8.41a2.22,2.22,0,0,1-1.07.84v-10.1A2.3,2.3,0,0,1,326.31,299.93Z" fill="#f9a01b"/><path d="M334.34,290.79v5.87a2.25,2.25,0,0,1-1.45,2.12,1.91,1.91,0,0,1-.41.11,1.75,1.75,0,0,1-.4,0H238.47a2.27,2.27,0,0,1-2.26-2.15.49.49,0,0,1,0-.12v-5.87a.49.49,0,0,1,0-.12,2.27,2.27,0,0,1,2-2.13l.27,0h93.61a2.58,2.58,0,0,1,.4,0,1.48,1.48,0,0,1,.41.12,2.22,2.22,0,0,1,1.07.84A2.31,2.31,0,0,1,334.34,290.79Z" fill="#fcb53f"/><path d="M288.38,298.93H238.23a2.14,2.14,0,0,1-2-2.15.49.49,0,0,1,0-.12v-5.87a.49.49,0,0,1,0-.12,2.18,2.18,0,0,1,1.78-2.13l.24,0h44v0A18.64,18.64,0,0,0,288.38,298.93Z" fill="#f9a01b"/><rect x="321.89" y="288.52" width="1.06" height="10.41" fill="#f9a01b"/><rect x="318.29" y="288.52" width="1.06" height="10.41" fill="#f9a01b"/><rect x="313.97" y="288.52" width="1.06" height="10.41" fill="#f9a01b"/><rect x="307.35" y="288.52" width="1.06" height="10.41" fill="#f9a01b"/><rect x="300.35" y="288.52" width="1.06" height="10.41" fill="#f9a01b"/><rect x="289.62" y="288.52" width="1.06" height="10.41" fill="#f9a01b"/><rect x="279.57" y="288.52" width="1.06" height="10.41" fill="#f9a01b"/><rect x="270.6" y="288.52" width="1.06" height="10.41" fill="#f9a01b"/><rect x="325.32" y="288.52" width="1.06" height="10.41" fill="#f9a01b"/><rect x="327.58" y="288.52" width="1.06" height="10.41" fill="#f9a01b"/><rect x="329.77" y="288.52" width="1.06" height="10.41" fill="#f9a01b"/><path d="M332.48,288.56v10.33a1.75,1.75,0,0,1-.4,0h-.66V288.52h.66A2.58,2.58,0,0,1,332.48,288.56Z" fill="#f9a01b"/><path d="M334,289.52v8.41a2.3,2.3,0,0,1-1.07.85v-10.1A2.22,2.22,0,0,1,334,289.52Z" fill="#f9a01b"/><path d="M322.05,280.4v5.87a2.25,2.25,0,0,1-1.45,2.12,1.91,1.91,0,0,1-.41.11l-.13,0H226.18a2.27,2.27,0,0,1-2.26-2.15.49.49,0,0,1,0-.12V280.4a.49.49,0,0,1,0-.12,2.27,2.27,0,0,1,2.26-2.15h93.73a1.33,1.33,0,0,1,.28,0,1.48,1.48,0,0,1,.41.12l.2.08.12.07h0l.11.07,0,0,.1.07.23.2.06.06v0a.08.08,0,0,1,0,0h0l.07.08.09.12A2.29,2.29,0,0,1,322.05,280.4Z" fill="#fcb53f"/><path d="M276.09,288.54H225.94a2.14,2.14,0,0,1-2-2.15.49.49,0,0,1,0-.12V280.4a.49.49,0,0,1,0-.12,2.14,2.14,0,0,1,2-2.15h44a2.1,2.1,0,0,0,.06.24,18.5,18.5,0,0,0,6.08,10.15Z" fill="#f9a01b"/><rect x="309.6" y="278.13" width="1.06" height="10.41" fill="#f9a01b"/><rect x="306" y="278.13" width="1.06" height="10.41" fill="#f9a01b"/><rect x="301.68" y="278.13" width="1.06" height="10.41" fill="#f9a01b"/><rect x="295.06" y="278.13" width="1.06" height="10.41" fill="#f9a01b"/><rect x="288.06" y="278.13" width="1.06" height="10.41" fill="#f9a01b"/><rect x="277.33" y="278.13" width="1.06" height="10.41" fill="#f9a01b"/><rect x="267.28" y="278.13" width="1.06" height="10.41" fill="#f9a01b"/><rect x="258.31" y="278.13" width="1.06" height="10.41" fill="#f9a01b"/><rect x="313.03" y="278.13" width="1.06" height="10.41" fill="#f9a01b"/><rect x="315.29" y="278.13" width="1.06" height="10.41" fill="#f9a01b"/><rect x="317.48" y="278.13" width="1.06" height="10.41" fill="#f9a01b"/><path d="M320.19,278.17V288.5a1.75,1.75,0,0,1-.4,0h-.67V278.13h.67A1.75,1.75,0,0,1,320.19,278.17Z" fill="#f9a01b"/><path d="M321.67,279.13v8.41a2.3,2.3,0,0,1-1.07.85v-10.1A2.22,2.22,0,0,1,321.67,279.13Z" fill="#f9a01b"/><path d="M328.94,270.23v5.88a2.26,2.26,0,0,1-.39,1.26,2.33,2.33,0,0,1-1.06.85l-.42.12a2.6,2.6,0,0,1-.4,0H233.06a2.15,2.15,0,0,1-1-.24,2.29,2.29,0,0,1-1.25-1.81v-6.21a2.27,2.27,0,0,1,2-2.13h93.88a2.6,2.6,0,0,1,.4,0,3.31,3.31,0,0,1,.42.12,2.33,2.33,0,0,1,1.06.85A2.26,2.26,0,0,1,328.94,270.23Z" fill="#fcb53f"/><path d="M283,278.37H232.82a1.73,1.73,0,0,1-.9-.24,2.3,2.3,0,0,1-1.12-1.81v-6.21a2.18,2.18,0,0,1,1.78-2.13h44.23a18.72,18.72,0,0,0,5.87,10.15Z" fill="#f9a01b"/><rect x="316.48" y="267.97" width="1.06" height="10.41" fill="#f9a01b"/><rect x="312.88" y="267.97" width="1.06" height="10.41" fill="#f9a01b"/><rect x="308.56" y="267.97" width="1.06" height="10.41" fill="#f9a01b"/><rect x="301.94" y="267.97" width="1.06" height="10.41" fill="#f9a01b"/><rect x="294.94" y="267.97" width="1.06" height="10.41" fill="#f9a01b"/><rect x="284.21" y="267.97" width="1.06" height="10.41" fill="#f9a01b"/><rect x="274.16" y="267.97" width="1.06" height="10.41" fill="#f9a01b"/><rect x="265.19" y="267.97" width="1.06" height="10.41" fill="#f9a01b"/><rect x="319.91" y="267.97" width="1.06" height="10.41" fill="#f9a01b"/><rect x="322.18" y="267.97" width="1.06" height="10.41" fill="#f9a01b"/><rect x="324.36" y="267.97" width="1.06" height="10.41" fill="#f9a01b"/><path d="M327.07,268v10.34a2.6,2.6,0,0,1-.4,0H326V268h.66A2.6,2.6,0,0,1,327.07,268Z" fill="#f9a01b"/><path d="M328.55,269v8.4a2.33,2.33,0,0,1-1.06.85v-10.1A2.33,2.33,0,0,1,328.55,269Z" fill="#f9a01b"/><path d="M322.05,259.84v5.88a2.26,2.26,0,0,1-.38,1.26,2.3,2.3,0,0,1-1.07.85,2.77,2.77,0,0,1-.41.12l-.13,0H226.18a2.26,2.26,0,0,1-2.26-2.15.41.41,0,0,1,0-.11v-5.88a.49.49,0,0,1,0-.12,2.26,2.26,0,0,1,2.26-2.14h93.61a2.6,2.6,0,0,1,.4,0,2.77,2.77,0,0,1,.41.12,2.3,2.3,0,0,1,1.07.85A2.26,2.26,0,0,1,322.05,259.84Z" fill="#fcb53f"/><path d="M276.09,268H225.94a2.14,2.14,0,0,1-2-2.15.41.41,0,0,1,0-.11v-5.88a.49.49,0,0,1,0-.12,2.13,2.13,0,0,1,2-2.14h44A18.66,18.66,0,0,0,276.07,268Z" fill="#f9a01b"/><rect x="309.6" y="257.58" width="1.06" height="10.41" fill="#f9a01b"/><rect x="306" y="257.58" width="1.06" height="10.41" fill="#f9a01b"/><rect x="301.68" y="257.58" width="1.06" height="10.41" fill="#f9a01b"/><rect x="295.06" y="257.58" width="1.06" height="10.41" fill="#f9a01b"/><rect x="288.06" y="257.58" width="1.06" height="10.41" fill="#f9a01b"/><rect x="277.33" y="257.58" width="1.06" height="10.41" fill="#f9a01b"/><rect x="267.28" y="257.58" width="1.06" height="10.41" fill="#f9a01b"/><rect x="258.31" y="257.58" width="1.06" height="10.41" fill="#f9a01b"/><rect x="313.03" y="257.58" width="1.06" height="10.41" fill="#f9a01b"/><rect x="315.29" y="257.58" width="1.06" height="10.41" fill="#f9a01b"/><rect x="317.48" y="257.58" width="1.06" height="10.41" fill="#f9a01b"/><path d="M320.19,257.61V268a2.6,2.6,0,0,1-.4,0h-.67v-10.4h.67A2.6,2.6,0,0,1,320.19,257.61Z" fill="#f9a01b"/><path d="M321.67,258.58V267a2.3,2.3,0,0,1-1.07.85v-10.1A2.24,2.24,0,0,1,321.67,258.58Z" fill="#f9a01b"/><circle cx="236.04" cy="318.22" r="52.98" transform="translate(-110.9 509.56) rotate(-82.31)" fill="#f58220"/><circle cx="231.41" cy="318.22" r="52.98" transform="translate(-122.36 490.44) rotate(-79.93)" fill="#fcb53f"/><path d="M231.41,367.12A48.26,48.26,0,1,1,265.55,353,47.95,47.95,0,0,1,231.41,367.12Zm0-93.66a45.39,45.39,0,1,0,32.1,13.29A45.09,45.09,0,0,0,231.41,273.46Z" fill="#f9a01b"/><path d="M238.06,332.86a8.08,8.08,0,0,0-.11-2.81,5.84,5.84,0,0,0-1.19-2.32,11.06,11.06,0,0,0-2.37-2.1,30.18,30.18,0,0,0-3.67-2.05,74.6,74.6,0,0,1-6.78-3.73,23.71,23.71,0,0,1-5.07-4.13,14,14,0,0,1-3-5,16,16,0,0,1,1.29-12.06,13.38,13.38,0,0,1,3.74-4.15,16.52,16.52,0,0,1,5.36-2.55,22.2,22.2,0,0,1,6.68-.78l.95-7.95,6.4.76-1,8.07a20,20,0,0,1,6,2.56,15.13,15.13,0,0,1,6.75,9.68,20.23,20.23,0,0,1,.26,6.83l-11.57-1.37c.36-3,0-5.28-1.19-6.91a6.79,6.79,0,0,0-5-2.84,8.54,8.54,0,0,0-3.16.14,5.82,5.82,0,0,0-2.3,1.12,5.4,5.4,0,0,0-1.49,1.91,8.16,8.16,0,0,0-.7,2.52,7.34,7.34,0,0,0,.1,2.54,5.52,5.52,0,0,0,1.14,2.23,11,11,0,0,0,2.39,2.09,36.06,36.06,0,0,0,3.82,2.21q3.7,1.9,6.71,3.81a24.1,24.1,0,0,1,5,4.16,14.41,14.41,0,0,1,3,5.05,16,16,0,0,1-1.32,12.13A13.25,13.25,0,0,1,244,344a16.08,16.08,0,0,1-5.38,2.45,24,24,0,0,1-6.72.71l-.88,7.4-6.36-.75.87-7.36a27.18,27.18,0,0,1-6.25-2.22,17.1,17.1,0,0,1-5.12-3.87,15.26,15.26,0,0,1-3.22-5.75,18.67,18.67,0,0,1-.53-7.83L222,328.16a11.62,11.62,0,0,0,.21,4.5,7.63,7.63,0,0,0,1.65,3.06,7.18,7.18,0,0,0,2.65,1.82,12.31,12.31,0,0,0,3.17.81,10.3,10.3,0,0,0,3.36-.09,6.86,6.86,0,0,0,2.54-1.06,5.62,5.62,0,0,0,1.68-1.85A6.85,6.85,0,0,0,238.06,332.86Z" fill="#f9a01b"/><path d="M389.6,335.38s-5.75-6.71-.36-11c0,0,3.94-2.38,7.16-2.19,0,0-4.56,7.64-3.08,8.39s4.45-8.87,4.45-8.87,9-.86,11.85.52c0,0-7.66,6.27-6.05,6.65s9.9-5.79,9.9-5.79,8.34,1.42,7.89,6.51-3.32,6.67-4.58,6.53-8.65-3-8.82-1.92,4.29,4.42,7.41,4.58c0,0-5.88,6.48-9.79,4.61s-4.25-4.84-6.68-5.95-4.52-1.11-3.51,0,5.41,2.24,6.81,4.71,2.64,4.12-1.41,3.52-10.61-3.57-10.9-7Z" fill="#67b476"/><path d="M417.26,329.77s-22.66-.87-27.66,5.61a16.46,16.46,0,0,1-4.51,6.33l-.53,1.45s3.92-4.14,5.33-4.39C389.89,338.77,387.69,330.74,417.26,329.77Z" fill="#67b476"/><path d="M385.09,341.71a14.24,14.24,0,0,0-5.21,10l.89.08s1.55-6.65,4.36-9.25S385.09,341.71,385.09,341.71Z" fill="#67b476"/><path d="M369.5,327s9.15-5.12,4.88-12.07c0,0-3.41-4.27-7.07-5.37,0,0,1.95,10.37,0,10.61s-1.34-11.7-1.34-11.7-9.63-4.64-13.41-4.27c0,0,6,10.12,4,9.87s-8.65-10.48-8.65-10.48-9.88-1.83-11.46,4,1,8.78,2.44,9.15,10.84.24,10.6,1.46-6.58,3.17-10.12,2.07c0,0,3.9,9.63,9,9.14s6.71-3.65,9.88-3.9,5.48.61,3.9,1.47-6.95.28-9.51,2.45-4.63,3.52.12,4.49,13.29.37,15-3.29Z" fill="#96d09d"/><path d="M341,309.39s25.6,8.29,28.52,17.56a19.48,19.48,0,0,0,2.44,8.9v1.82s-2.68-6.21-4.14-7.07C367.8,330.6,373.53,322.56,341,309.39Z" fill="#67b476"/><path d="M371.94,335.85a16.87,16.87,0,0,1,1.7,13.29l-1-.27s1-8-1.08-12.09S371.94,335.85,371.94,335.85Z" fill="#67b476"/><path d="M384.05,319.89S372,313.14,377.62,304c0,0,4.5-5.63,9.32-7.07,0,0-2.57,13.66,0,14s1.77-15.43,1.77-15.43,12.69-6.11,17.67-5.62c0,0-7.87,13.33-5.3,13S412.49,289,412.49,289s13-2.41,15.11,5.3-1.29,11.57-3.22,12.06-14.3.32-14,1.93,8.68,4.17,13.34,2.73c0,0-5.14,12.69-11.89,12.05s-8.84-4.82-13-5.14-7.23.8-5.14,1.93,9.16.36,12.53,3.23,6.11,4.64-.16,5.92-17.51.49-19.76-4.33Z" fill="#96d09d"/><path d="M421.65,296.75s-33.75,10.92-37.6,23.14a25.62,25.62,0,0,1-3.22,11.73V334s3.54-8.2,5.47-9.32C386.3,324.71,378.75,314.1,421.65,296.75Z" fill="#67b476"/><path d="M380.83,331.62a22.25,22.25,0,0,0-2.23,17.52l1.34-.36s-1.3-10.6,1.42-15.93S380.83,331.62,380.83,331.62Z" fill="#67b476"/><path d="M383.64,370a23.61,23.61,0,0,0,23.61-23.61H360A23.61,23.61,0,0,0,383.64,370Z" fill="#f9a24e"/><path d="M389.45,369.82a23.63,23.63,0,0,1-26.54-23.43h5.87A23.61,23.61,0,0,0,389.45,369.82Z" fill="#fbb576"/><path d="M407.58,371.2H359.71a2.91,2.91,0,0,1,2.91-2.91h42a2.91,2.91,0,0,1,2.92,2.91Z" fill="#f9a24e"/><rect x="359.26" y="346.39" width="48.53" height="0.72" fill="#f26a21"/><path d="M176.21,183.47v1.43s-.39,4.47,5.12,5.13,10,.57,9.88-2.89a74.43,74.43,0,0,1-1.42-9,15.34,15.34,0,0,1,.2-2.68l-10.69-.21-3.14.51Z" fill="url(#linear-gradient-2)"/><path d="M176.17,175.72l0,7.75a9.11,9.11,0,0,0,3.85.85c4.91,0,8.08-3.6,9.74-6.22a15.34,15.34,0,0,1,.2-2.68l-10.69-.21Z" fill="url(#linear-gradient-3)"/><path d="M190.81,173.7c-1.24,6.67-9.84,6.45-13.56,6-1.05-.11-1.71-.25-1.71-.25-1.18-.31-1.83-2.17-2.14-4.6-.61-4.82.16-11.9,1-13.71,1.23-2.72,3.54-5.66,12.2-3.54S192.4,165.16,190.81,173.7Z" fill="url(#linear-gradient-4)"/><path d="M197.86,371.18h-12.2a29.26,29.26,0,0,1,1-4.38,13.44,13.44,0,0,1,.69-1.76c1.19-2.36,8.72-.86,8.72-.86s.7.6,1.25,2.89A24.38,24.38,0,0,1,197.86,371.18Z" fill="#193763"/><path d="M161,367.33c0,1.66-.24,3.23-.84,3.85H136c.3-.87,1.17-2.19,3.65-2.59,2.81-.45,7.2-1.81,9.76-4.52a7.27,7.27,0,0,0,1.89-3.42c1.13-5,9.38,1.55,9.38,1.55A39.43,39.43,0,0,1,161,367.33Z" fill="#193763"/><path d="M177.05,312.71a38.09,38.09,0,0,0-.61,4.46c-.76,14.95-12.59,49.16-14.7,49.95-3.28,1.24-8.43-1.39-11.13-2.25a2.31,2.31,0,0,1-1.62-2.62c5.86-26.92,8-65.69,8.79-88.64a104.64,104.64,0,0,1,2.38-19.54s28.84-7.69,29,2C189.32,264.72,179.62,298.5,177.05,312.71Z" fill="url(#linear-gradient-5)"/><path d="M177.05,312.71l-19.27-39.1a104.64,104.64,0,0,1,2.38-19.54s28.84-7.69,29,2C189.32,264.72,179.62,298.5,177.05,312.71Z" fill="url(#linear-gradient-6)"/><path d="M170.63,256.14l15.25,110.5s6.69,1.61,11.9.32c0,0,4.46-58.77,4.09-73s3.2-38-.82-40.64S170.63,256.14,170.63,256.14Z" fill="url(#linear-gradient-7)"/><path d="M171.71,154.83a28.94,28.94,0,0,0,8.32-2.25c3.65-1.59,8.26.16,9.75.94a2.19,2.19,0,0,0-.36-.9,2,2,0,0,1,.77,1.15c.07,0,.1.08.08.09a2.57,2.57,0,0,1,1.25.08s-.34,0-.46.18l-.06.06c5.7,2.75,6.22,11.75,4.39,13.84-2.2,2.5-4.85,8.15-4.85,8.15a4.87,4.87,0,0,1-.56-3.54c.4-2.21-1.51-2.21-3.91-3.21s-.4-3.81-2.51-5.51-9.82-.71-9.72-2C171,160.86,171.71,155.12,171.71,154.83Z" fill="#17162d"/><path d="M192.52,189.06,189,264.38s-29.29.47-28.46-6.16,10.56-66.85,10.56-66.85l21.41-2.31Z" fill="#e7f3fc"/><path d="M203,231.75c-1.74,5.23,1.55,22.77,2.72,28.72.25,1.26.43,2,.43,2-4.06,6.6-18.92,6.51-18.92,6.51-2.86-12.63-4.34-32.74-4.34-32.74l11.4-50,14.34,13.26s-1.08,8.09-2.43,16.32C205.12,222.35,203.92,229,203,231.75Z" fill="url(#linear-gradient-8)"/><path d="M178.6,174.8s-.28.86-2.45.55c0,0-1.82-.27-1.69-1.23A5.92,5.92,0,0,1,178.6,174.8Z" fill="#fff"/><path d="M162.14,190.14v0c-.69.67-20.25,19.66-24,27.09s17.63,22.58,17.63,22.58a5.05,5.05,0,0,0,2.34.33c-1,8.34-2.15,16-1.47,19.32,1.21,5.94,6.71,7.93,6.71,7.48,0-.15,1.41-21.65,3.1-32.76,3.74-24.66,8.19-47.8,8.19-47.8A41.25,41.25,0,0,0,162.14,190.14Zm-11.65,30.38a.15.15,0,0,1,0-.11c0-1.09,4.15-3.49,8.63-6.32l.09-.08h0c-.08,2.31-.07,4.58.06,6.69a85.36,85.36,0,0,1-.5,13.36C156.61,230.71,150.91,221.75,150.49,220.52Z" fill="url(#linear-gradient-9)"/><path d="M193.35,186.17c0-.72-3.37-1.71-3.37-1.71s-3.89,5.4-10.31,5.5c0,0,1.83,3.56,4,4.48C183.65,194.44,193.14,190.44,193.35,186.17Z" fill="#d3e9f9"/><path d="M170.65,240.86a7.12,7.12,0,0,0,2.27,4.59l2,1.88a1.19,1.19,0,0,0,1.75-.14l2.53-3.21a4.22,4.22,0,0,0,.89-3c-.23-2.44-.67-7.12-1-11.64-.28-3.67-.51-7.23-.53-9.39-.06-6.91,1.31-29,1.31-29l-1.65.09a88.63,88.63,0,0,0-6.28,20.2,76.38,76.38,0,0,0-1.14,9.07S169.94,232.91,170.65,240.86Z" fill="url(#linear-gradient-10)"/><path d="M170.65,240.86a7.12,7.12,0,0,0,2.27,4.59l2,1.88a1.19,1.19,0,0,0,1.75-.14l2.53-3.21a4.22,4.22,0,0,0,.89-3c-.23-2.44-.67-7.12-1-11.64-4.58-5.15-6.43-12.26-7.15-18.06a76.38,76.38,0,0,0-1.14,9.07S169.94,232.91,170.65,240.86Z" fill="url(#linear-gradient-11)"/><path d="M179.67,189.83s-3.4-2-3.41-4.2c0,0-2.2-.28-3.16.79,0,0-.81,3.74.26,5.92C173.36,192.34,178.26,191.59,179.67,189.83Z" fill="#d3e9f9"/><path d="M182,189.5l-4.62-1.1a.69.69,0,0,0-.58.8c0,.75,1.3,3,1.87,3.12S183.07,191,182,189.5Z" fill="#d64c42"/><path d="M192.82,185.8c0-.72-2.27-2.2-2.27-2.2s-4.46,5.21-10.88,5.31c0,0,1.83,3.56,4,4.48C183.65,193.39,192.6,190.07,192.82,185.8Z" fill="#e7f3fc"/><path d="M179.67,188.91s-3.44-1.83-3.45-4a10.89,10.89,0,0,0-3,2,6.3,6.3,0,0,0,.18,4.54S178.26,190.67,179.67,188.91Z" fill="#e7f3fc"/><path d="M154.35,241.06a3.17,3.17,0,0,1,3.59-3.17,2,2,0,0,1,1.33.73c1.3,1.74,2.55,6.8.23,7a5.11,5.11,0,0,1-3.08-1.28c-.95-.72-2.07-1.84-2.07-3Z" fill="url(#linear-gradient-12)"/><path d="M205.7,260.47c-4.2-4.37-11.46-13-11.2-20,.34-9.89,11.68-24.6,11.68-24.6-1.06,6.51-2.26,13.14-3.2,15.91C201.24,237,204.53,254.52,205.7,260.47Z" fill="url(#linear-gradient-13)"/><path d="M205.56,243.27s-3,1.51-4.85.76-4-1.33-6,1-2.48,4-2,4.81,5.21.54,6,0,2-1.87,2.84-1.64c2.19.64,4-1,5.07-2.36C207.17,245,205.48,244.65,205.56,243.27Z" fill="url(#linear-gradient-14)"/><path d="M194.27,186.26s12,1.33,14.86,6.57,17.59,26.46,17.1,35.28-20.12,18.72-20.12,18.72S201.76,245,201.7,243s13.57-13.79,12.75-16-15.85-19.65-17.3-25.4S194.27,186.26,194.27,186.26Z" fill="url(#linear-gradient-15)"/><path d="M159.18,214l-.09.08c-4.48,2.83-8.63,5.23-8.63,6.32-.6-1.92,5.23-9.92,7.12-11.55S159.18,214,159.18,214Z" fill="url(#linear-gradient-16)"/><path d="M190.55,183.6s-9.13,38.24-7.68,52.65c0,0,3.36-15.4,11.44-28,0,0-2.95-2.59-2.79-3.54a10.15,10.15,0,0,1,4.31-.22s-.24-16.48-1.56-18.22A9.66,9.66,0,0,0,190.55,183.6Z" fill="url(#linear-gradient-17)"/><path d="M176.22,184.9c.12.06-9.05,37.37-9.82,49.31,0,0,.91-21.31.82-27.45,0,0,3.79-2,3.79-2.72s-4-2.61-4-2.61,2.56-13.12,4-14.57S176.22,184.9,176.22,184.9Z" fill="url(#linear-gradient-18)"/><rect x="275.92" y="234.9" width="36.84" height="22.67" rx="5.92" transform="translate(-0.29 0.35) rotate(-0.07)" fill="#193763"/><path d="M308.66,237.71h0a5.93,5.93,0,0,0-4.57-3h0a5.63,5.63,0,0,0-.58,0h-5v-2.33a1.95,1.95,0,0,0-2-2h-7.47a2,2,0,0,0-1.95,2v2.34h-8.59a6,6,0,0,0-5.94,5.94l0,11a6,6,0,0,0,5.94,5.93l25,0a5.4,5.4,0,0,0,1.28-.15h0a5.71,5.71,0,0,0,1.84-.75,6,6,0,0,0,2.8-5.05v-11A5.88,5.88,0,0,0,308.66,237.71Zm-20.29-5.31a.72.72,0,0,1,.51-.7.78.78,0,0,1,.22,0h7.46a.73.73,0,0,1,.74.73v2.34h-8.93Z" fill="#18488d"/></svg>