<svg id="Layer_1" data-name="Layer 1" xmlns="http://www.w3.org/2000/svg" xmlns:xlink="http://www.w3.org/1999/xlink" viewBox="0 0 500 500"><defs><linearGradient id="linear-gradient" x1="35.4" y1="354.15" x2="202" y2="354.15" gradientUnits="userSpaceOnUse"><stop offset="0" stop-color="#fcdc58"/><stop offset="1" stop-color="#fde796"/></linearGradient><linearGradient id="linear-gradient-2" x1="300.26" y1="354.83" x2="466.86" y2="354.83" gradientUnits="userSpaceOnUse"><stop offset="0" stop-color="#617abc"/><stop offset="1" stop-color="#8595cb"/></linearGradient><linearGradient id="linear-gradient-3" x1="323.88" y1="306.6" x2="355.4" y2="306.6" gradientUnits="userSpaceOnUse"><stop offset="0" stop-color="#fee0c2"/><stop offset="1" stop-color="#f48167"/></linearGradient><linearGradient id="linear-gradient-4" x1="330.67" y1="311.98" x2="353.6" y2="311.98" xlink:href="#linear-gradient-3"/><linearGradient id="linear-gradient-5" x1="325.72" y1="288.58" x2="350.82" y2="288.58" xlink:href="#linear-gradient-3"/><linearGradient id="linear-gradient-6" x1="140.32" y1="306.6" x2="171.84" y2="306.6" xlink:href="#linear-gradient-3"/><linearGradient id="linear-gradient-7" x1="142.11" y1="311.98" x2="165.04" y2="311.98" xlink:href="#linear-gradient-3"/><linearGradient id="linear-gradient-8" x1="144.95" y1="288" x2="168.23" y2="288" xlink:href="#linear-gradient-3"/><linearGradient id="linear-gradient-9" x1="249.32" y1="369.17" x2="405.17" y2="369.17" gradientUnits="userSpaceOnUse"><stop offset="0" stop-color="#dc3644"/><stop offset="1" stop-color="#e1645d"/></linearGradient><linearGradient id="linear-gradient-10" x1="312.08" y1="369.9" x2="377.45" y2="369.9" xlink:href="#linear-gradient-9"/><linearGradient id="linear-gradient-11" x1="218.85" y1="358.89" x2="241.53" y2="358.89" xlink:href="#linear-gradient-3"/><linearGradient id="linear-gradient-12" x1="227.2" y1="358.14" x2="250.58" y2="358.14" xlink:href="#linear-gradient-3"/><linearGradient id="linear-gradient-13" x1="247.5" y1="344.76" x2="327.92" y2="344.76" xlink:href="#linear-gradient-9"/><linearGradient id="linear-gradient-14" x1="178.34" y1="391.58" x2="192.6" y2="391.58" xlink:href="#linear-gradient-3"/><linearGradient id="linear-gradient-15" x1="168.29" y1="351.55" x2="203.08" y2="351.55" xlink:href="#linear-gradient-2"/><linearGradient id="linear-gradient-16" x1="108.88" y1="358.81" x2="184.33" y2="358.81" xlink:href="#linear-gradient-2"/><linearGradient id="linear-gradient-17" x1="125.9" y1="352.23" x2="221.72" y2="352.23" xlink:href="#linear-gradient-2"/><linearGradient id="linear-gradient-18" x1="77.33" y1="427.36" x2="145.37" y2="427.36" xlink:href="#linear-gradient-9"/><linearGradient id="linear-gradient-19" x1="78.46" y1="414.19" x2="146.33" y2="414.19" xlink:href="#linear-gradient-9"/><linearGradient id="linear-gradient-20" x1="376.31" y1="435" x2="391.96" y2="435" xlink:href="#linear-gradient-3"/><linearGradient id="linear-gradient-21" x1="363.19" y1="376.93" x2="405.44" y2="376.93" xlink:href="#linear-gradient-9"/></defs><title>new</title><path d="M281.13,426.25c-28.5-.28-201.23,35.49-213.23-110s51.36-157.56,88.94-165.63c86.28-18.53,160.5-107.22,246.1-59.52,33.6,18.73,7.11,99.75,35.88,182.6,21.07,60.66-17.73,125.15-43.67,140.49S281.13,426.25,281.13,426.25Z" fill="#fff7ed"/><path d="M140.12,417.89c-13.76-8.66-129.25-135-103.26-207.24s87.19,39.85,87.19,39.85-27.73-99-4.69-128,81.6,11,84.75,134.24S193.17,426,193.17,426,168.43,435.73,140.12,417.89Z" fill="#fcd3cb"/><g opacity="0.5"><path d="M57.32,196.46q12.54,25.89,24.94,51.84l12.39,25.95,12.37,26,12.33,26,12.3,26,12.28,26,12.25,26-2.26.57q-2.07-34.71-4-69.44L148,300.61l-1.91-34.73-1.86-34.73-1.8-34.73q-1.75-34.74-3.39-69.48,2.44,34.69,4.65,69.4l2.22,34.71,2.17,34.72,2.11,34.71,2.08,34.72q2,34.73,4,69.45l.35,6.13L154,405.22l-12.2-26-12.16-26.06-12.15-26.07L105.41,301l-12.08-26.1L81.27,248.76Q69.26,222.63,57.32,196.46Z" fill="#fff"/></g><g opacity="0.5"><path d="M91,212.85c-.41,3.27-.91,6.52-1.42,9.77-.25,1.62-.53,3.24-.79,4.86s-.55,3.25-.83,4.86q-.84,4.86-1.76,9.7t-1.87,9.67L84,253.12l-1.33-.53-5.36-2.12c-1.78-.7-3.56-1.42-5.34-2.14q-5.34-2.18-10.64-4.41l-5.29-2.26-5.28-2.32c-3.51-1.57-7-3.14-10.48-4.82,3.68,1.15,7.31,2.4,10.94,3.66l5.43,1.92q2.72,1,5.41,2,5.4,2,10.77,4.07c1.8.69,3.58,1.38,5.37,2.09l5.35,2.12-1.62.88q1-4.83,2-9.64T86.19,232c.37-1.6.75-3.2,1.14-4.79s.76-3.2,1.17-4.79C89.3,219.21,90.11,216,91,212.85Z" fill="#fff"/></g><g opacity="0.5"><path d="M116.55,254.64c-.48,4.15-1,8.28-1.62,12.41s-1.2,8.26-1.86,12.37-1.32,8.24-2,12.35S109.67,300,109,304.1l-.24,1.32-1.29-.38-6.12-1.78-6.12-1.81-6.1-1.85L86,298.67l-3-1c-2-.63-4.06-1.26-6.09-1.91l-6.07-2c-4-1.34-8.09-2.68-12.1-4.12,4.17.92,8.3,1.95,12.43,3l6.18,1.58c2.06.53,4.12,1.08,6.17,1.62l3.09.82,3.08.84,6.15,1.69L102,301l6.13,1.76-1.52.95c.74-4.1,1.48-8.2,2.27-12.3s1.55-8.19,2.39-12.27,1.67-8.17,2.54-12.25S115.55,258.7,116.55,254.64Z" fill="#fff"/></g><g opacity="0.5"><path d="M161.48,134.79c-1.43,2.8-3,5.53-4.5,8.26s-3.13,5.42-4.74,8.1-3.23,5.35-4.89,8-3.34,5.29-5,7.92l-.74,1.15-1-.88L137.75,165,135,162.59c-1.84-1.6-3.68-3.2-5.49-4.83s-3.63-3.27-5.42-4.94-3.56-3.35-5.29-5.08c2,1.38,4,2.81,6,4.26s3.92,2.92,5.86,4.4,3.85,3,5.77,4.51l2.86,2.29,2.84,2.3-1.77.28q2.5-4,5-7.9c1.7-2.62,3.44-5.22,5.19-7.81s3.54-5.16,5.35-7.72S159.55,137.27,161.48,134.79Z" fill="#fff"/></g><g opacity="0.5"><path d="M182.69,195.88c-2.91,3.48-5.9,6.87-8.89,10.25-1.51,1.68-3,3.37-4.53,5.05l-4.56,5-4.6,5q-2.3,2.49-4.62,5-4.63,4.94-9.34,9.82l-1.07,1.12-.81-1.31-2.83-4.6-2.8-4.61-2.79-4.62-2.76-4.64q-1.38-2.33-2.73-4.66c-.9-1.56-1.82-3.11-2.7-4.68-1.79-3.13-3.56-6.26-5.27-9.44,2.11,2.93,4.15,5.9,6.18,8.87,1,1.48,2,3,3,4.48s2,3,3,4.49l3,4.51,2.93,4.54,2.93,4.53,2.89,4.56-1.88-.19q4.67-4.92,9.36-9.79,2.35-2.44,4.73-4.86l4.75-4.83,4.79-4.79c1.6-1.6,3.22-3.17,4.82-4.76C176.11,202.1,179.36,199,182.69,195.88Z" fill="#fff"/></g><path d="M307,373.09s34.51-139.91,99.89-127.17c37.2,7.24,17.8,68.1,37.2,84.37s34.55,45.7,0,74S326.81,425,326.81,425Z" fill="#ebebeb"/><path d="M340.52,419.45S452,399.39,444.18,369.08,342.57,403,342.57,403,455.66,322.26,424.28,282s-86.9,107.34-86.9,107.34S343,282.59,307.53,283,325.36,425.7,325.36,425.7Z" fill="#ebebeb"/><path d="M159.33,400.68s8.28-96.38,34.68-92.14-20.83,89.09-20.83,89.09,59.74-102.55,96.44-79S185.16,401,185.16,401s90.39-13.17,92.8,17-122.75-3.93-122.75-3.93Z" fill="#fcd3cb"/><g opacity="0.5"><path d="M262.21,329.63c-8,6.76-16.09,13.42-24.19,20.07S221.79,363,213.65,369.54s-16.31,13.15-24.51,19.67L176.85,399l-12.32,9.75L161.65,411l1-3.53c2.07-7.12,4.22-14.22,6.33-21.33l1.6-5.33,1.61-5.33,3.22-10.65,3.27-10.64,1.63-5.32L182,343.6q3.3-10.64,6.71-21.22-2.81,10.77-5.74,21.5l-1.46,5.38L180,354.62l-3,10.73-3,10.71-1.5,5.36L171,386.77c-2,7.14-4,14.28-6.11,21.4l-1.86-1.24,12.28-9.81,12.32-9.75c8.2-6.52,16.45-13,24.69-19.44s16.53-12.88,24.84-19.26S253.82,335.91,262.21,329.63Z" fill="#fff"/></g><g opacity="0.5"><path d="M261.31,413.82c-8-.19-15.91-.62-23.86-1.12s-15.87-1.1-23.8-1.79-15.84-1.46-23.76-2.32-15.81-1.81-23.69-3c8,.19,15.91.61,23.86,1.12s15.87,1.1,23.8,1.79,15.84,1.46,23.76,2.32S253.43,412.63,261.31,413.82Z" fill="#fff"/></g><polygon points="202 406.14 73.56 406.14 35.4 302.15 169.32 302.15 202 406.14" fill="url(#linear-gradient)"/><polygon points="169.32 302.21 202 406.14 194.81 400.58 165.07 307.77 45.45 307.77 79.12 403.2 73.56 406.14 35.32 302.21 169.32 302.21" fill="#191347"/><polygon points="300.26 406.82 428.7 406.82 466.86 302.84 332.94 302.84 300.26 406.82" fill="url(#linear-gradient-2)"/><polygon points="332.94 302.89 300.26 406.82 307.45 401.26 337.19 308.45 456.81 308.45 423.14 403.88 428.7 406.82 466.94 302.89 332.94 302.89" fill="#191347"/><polygon points="333.5 298.77 335.5 306.62 323.88 312.46 339.96 322.24 355.4 316.37 352.22 306.78 347.69 305 349.16 290.97 337.91 292.46 333.5 298.77" fill="url(#linear-gradient-3)"/><path d="M345.17,302.23c-3-1.46-7.5,1.17-10.1,2.69l.43,1.7L330.67,309l5.09,10.64,4.05,2.47,13.79-6.73a44.89,44.89,0,0,0-5.13-10.11l-.78-.31.06-.6A8.48,8.48,0,0,0,345.17,302.23Z" fill="url(#linear-gradient-4)"/><path d="M325.78,288.12c.71-11,8.69-16,14.26-13.43,4.56,2.07,10.48,9.18,8.52,16.44a2.29,2.29,0,0,1,2.21,2.3c.48,3.64-2.35,4-3.67,3.37a3.4,3.4,0,0,1-1.1-.87,24.57,24.57,0,0,1-8.88,6.32C328.76,306.09,325.24,296.42,325.78,288.12Z" fill="url(#linear-gradient-5)"/><polygon points="162.22 298.77 160.22 306.62 171.84 312.46 155.75 322.24 140.32 316.37 143.5 306.78 148.03 305 146.56 290.97 157.81 292.46 162.22 298.77" fill="url(#linear-gradient-6)"/><path d="M150.55,302.23c3-1.46,7.5,1.17,10.1,2.69l-.43,1.7L165,309,160,319.68l-4.05,2.47-13.8-6.73a45.36,45.36,0,0,1,5.13-10.11L148,305l-.06-.6A8.37,8.37,0,0,1,150.55,302.23Z" fill="url(#linear-gradient-7)"/><path d="M167.86,288.82c2.29-13.43-6.61-16.66-12.18-14.13-4.56,2.07-10.48,9.18-8.53,16.44a2.12,2.12,0,0,0-2.2,2.3c.06,1.68,2.35,4,3.67,3.37a3.36,3.36,0,0,0,1.09-.87c1.87,2.25,2.29,3.27,6.44,5.18C164.51,305,166.47,297,167.86,288.82Z" fill="url(#linear-gradient-8)"/><path d="M165.42,277.05a8.33,8.33,0,0,1-2,1.15,17.35,17.35,0,0,1-12.61.27c-2.87,3.24-5,7.92-3.68,12.66-1,.07-1.07-.05-1,1.69,0,1.39,1.15,4.63,2.47,4a3.25,3.25,0,0,0,1.09-.87,15.59,15.59,0,0,0,1.12,1.21h0a2,2,0,0,1-1.63,1.93,24.68,24.68,0,0,1-3,.3c-2.48.08-3.62-4.21-5.32-7.49-1.17-2.28-5.61-3-3.72-14.46,1.83-11.13,22.22-20.4,29.54-19.74C168.6,257.85,170.73,273,165.42,277.05Z" fill="#17162d"/><path d="M352.16,306.54s-9.43,10.85-14,10.57-4.94-9.35-4.94-9.35c-30.63,9.78-40.2,56.5-83.78,45.21a33.09,33.09,0,0,0,1,11.86c14.77,16.05,39,20.43,59.58,6.14-3.41,12.18-2.57,34,8.85,38.86,10.72,9.29,50.29,3.14,58.44-3.57l1.57,25c3.14,1.43,10,.57,11.14-3.14,0,0,15-17.86,15.15-53.15C405.45,300.68,352.16,306.54,352.16,306.54Z" fill="url(#linear-gradient-9)"/><path d="M377.45,406.12c-.27-21.83-3.4-47.48-12.29-80.87,0,0,.58,38.58-6.28,60-5.09,15.9-32.82,17.95-46.8,18a14.25,14.25,0,0,0,6.79,6.61c10.72,9.29,50.29,3.14,58.44-3.57v.12Z" fill="url(#linear-gradient-10)"/><path d="M219,352.86s15.23-6.72,15.9-1.53c.35,2.67.75,5.37.75,5.37l5.51,6.86s1.21,1.61-.81,3.22-9.63,3.38-16.2-1.83a17.39,17.39,0,0,1-3.6-3.88C218.69,359.25,218.7,356.16,219,352.86Z" fill="url(#linear-gradient-11)"/><path d="M250.58,353.53s-20.8-6.83-23.28,1.12c-1.07,3.42,6.94,1.35,6.94,1.35,1.73,2.85,3.12,7.54,6.86,9.47l9.48-3.2Z" fill="url(#linear-gradient-12)"/><path d="M327.92,309.9c-23.29,10.54-39.47,50.84-78.49,43.28-4.43-.86,0,8.38,1,11.65,14.77,16.05,39,20.43,59.58,6.14,4-24,7.71-50.57,17.9-61.07Z" fill="url(#linear-gradient-13)"/><path d="M183.59,385.42s-5.41.95-5.21,2.36a3.09,3.09,0,0,0,1.46,2.1s-3.77,5.1.65,6.55,6.7,2,8.82-.06,3.29-7.83,3.29-7.83A10.76,10.76,0,0,1,183.59,385.42Z" fill="url(#linear-gradient-14)"/><path d="M173.81,314.13c27.34,17.41,39.63,50.27,18.77,74.84-3.65-.32-7.42-.41-8.86-3.43,4.57-23.71-4.22-49.56-15.43-63.43Z" fill="url(#linear-gradient-15)"/><path d="M145,306.21s10.34,12.61,14.06,10,4.24-8.11,4.24-8.11,17.76,1,20.33,34.11-2.29,56.29-2.29,56.29c-9.43,10.86-43,16.15-63.57,10.72-11.69-7.26-11-28.11-2.57-64.58C122.94,310.88,145,306.21,145,306.21Z" fill="url(#linear-gradient-16)"/><path d="M181.29,398.54s3.81-18.16,2.9-45.34c-15.75,1-30.56-4.27-43.87-19.56l-10.89-1.82s-8.57,42.29,10.86,59.72c10.23,9.18,25.68,10.59,38,9.88A23.28,23.28,0,0,0,181.29,398.54Z" fill="#456eb6"/><polygon points="77.81 400.58 194.81 400.58 202 406.14 73.56 406.14 77.81 400.58" fill="#191347"/><path d="M73.56,406.14v2.44a6.65,6.65,0,0,0,5.29,6.51l74.83,15.69a6.6,6.6,0,0,0,1.88.12l85.4-6.64a6.66,6.66,0,0,0,6.14-6.63v-2L202,406.14Z" fill="#13112f"/><path d="M126.86,325.25c-10.57,75.44,68.86,70.29,94.86,37.35-2.21-2.15-2.71-8.06,0-10.83-41.67,15-73.43,9.16-88-32.8Z" fill="url(#linear-gradient-17)"/><path d="M125.37,403.86c2.16-9.82-19.89-17-23.38-2.75,0,2.69,3.59.19,4.84,2.69-.81-5.37,10.75-11.82,14.16-.25Z" fill="#27a64a"/><path d="M142,406.05c-1.34-3.3-54.74-5.63-56.93-3.12s-9.69,43.47-7.19,45,62.87,6.89,65.68,4.07S146.05,416.21,142,406.05Z" fill="url(#linear-gradient-18)"/><path d="M146.33,427.32l-67.87-3.13S81.58,403.86,85,402s55.68-.94,57.55,2.81S146.33,427.32,146.33,427.32Z" fill="url(#linear-gradient-19)"/><path d="M115.77,424.14s-1.62,9.36-4.88,8.95-4.07-9.36-4.07-9.36Z" fill="#fdc372"/><path d="M158.25,316.56l-4.82,8c-4.26-4.79-8.56-18.34-8.56-18.34l.14-.05S153.17,313.91,158.25,316.56Z" fill="#cceafa"/><path d="M163.13,309a16.22,16.22,0,0,1-4.88,7.7l4.13,3.79C163.63,317,163.23,308.65,163.13,309Z" fill="#cceafa"/><path d="M360.09,282.55s5.16-5.85,2.06-11.71-8.61-1.72-8.61-1.72-.68-3.79-5.85-6.2-7.92,1.72-7.92,1.72-3.1-4.13-6.89,0c-1.37,1.5-1.25,2.72-.55,3.67l-.48.05c-1.88.17-6.86,4.59-1.56,8.69a8.39,8.39,0,0,0,2,1.15,17.35,17.35,0,0,0,12.61.27c2.87,3.24,4.95,7.92,3.67,12.66a2.29,2.29,0,0,1,2.21,2.3c.48,3.64-2.35,4-3.67,3.37a3.4,3.4,0,0,1-1.1-.87,15.41,15.41,0,0,1-1.11,1.21,2,2,0,0,0,1.63,1.93,24.68,24.68,0,0,0,3,.3c1.91.06,3-2.49,4.22-5.16,1.94,1,5.32,2,8.09-1C365.94,288.75,360.09,282.55,360.09,282.55Z" fill="#17162d"/><polygon points="424.45 401.26 307.45 401.26 300.26 406.82 428.7 406.82 424.45 401.26" fill="#191347"/><path d="M428.7,406.82v2.44a6.65,6.65,0,0,1-5.29,6.51l-74.83,15.69a6.6,6.6,0,0,1-1.88.12L261.3,425a6.66,6.66,0,0,1-6.14-6.64v-2l45.1-9.48Z" fill="#13112f"/><polygon points="382.07 370.78 331.22 389.49 362.13 446.28 385.33 376.67 382.07 370.78" fill="#4a83c4"/><polygon points="388.6 370.78 340.23 393.33 362.13 446.28 408.54 430.26 388.6 370.78" fill="#55a4db"/><path d="M379.78,430.26s-4.37,4.24-3.3,5.41a3.42,3.42,0,0,0,2.64,1s-.28,7,4.67,5.6,7.42-2.3,8.06-5.54-1.85-9.23-1.85-9.23A12,12,0,0,1,379.78,430.26Z" fill="url(#linear-gradient-20)"/><path d="M363.19,321.47c11.46,26.85,14.37,67.07,15.69,109.79,0,0,8.76,3,11.86-.86s16.8-26.26,14.43-53.47S363.19,321.47,363.19,321.47Z" fill="url(#linear-gradient-21)"/></svg>