<svg xmlns="http://www.w3.org/2000/svg" width="311.078" height="92.179" viewBox="0 0 311.078 92.179"><defs><style>.a{fill:#fff;}</style></defs><path class="a" d="M310.527,82.8a8.829,8.829,0,0,1-8.838,8.828H12.413A8.841,8.841,0,0,1,3.562,82.8V12.4a8.852,8.852,0,0,1,8.851-8.839H301.684a8.838,8.838,0,0,1,8.839,8.841V82.8Z" transform="translate(-1.509 -1.51)"/><path d="M300.177,92.171H10.9A10.9,10.9,0,0,1,0,81.3v-70.4A10.911,10.911,0,0,1,10.9,0H300.175a10.914,10.914,0,0,1,10.9,10.893V81.3a10.9,10.9,0,0,1-10.9,10.882Z"/><path d="M310.527,82.8a8.829,8.829,0,0,1-8.838,8.828H12.413A8.841,8.841,0,0,1,3.562,82.8V12.4a8.852,8.852,0,0,1,8.851-8.839H301.684a8.838,8.838,0,0,1,8.839,8.841V82.8Z" transform="translate(-1.509 -1.51)"/><path class="a" d="M91.164,56.146A13.361,13.361,0,0,1,97.53,44.934a13.69,13.69,0,0,0-10.78-5.827c-4.535-.485-8.935,2.714-11.244,2.714-2.356,0-5.914-2.667-9.748-2.586A14.354,14.354,0,0,0,53.677,46.6c-5.224,9.043-1.329,22.33,3.677,29.639,2.5,3.582,5.429,7.577,9.259,7.435,3.746-.152,5.146-2.386,9.667-2.386,4.48,0,5.794,2.386,9.7,2.3,4.021-.063,6.552-3.6,8.969-7.207a29.543,29.543,0,0,0,4.1-8.353A12.93,12.93,0,0,1,91.164,56.146ZM83.786,34.3A13.15,13.15,0,0,0,86.8,24.875a13.4,13.4,0,0,0-8.665,4.48,12.515,12.515,0,0,0-3.089,9.077A11.07,11.07,0,0,0,83.786,34.3Z" transform="translate(-21.703 -10.545)"/><g transform="translate(97.825 41.469)"><path class="a" d="M195.714,103.15h-5.233l-2.87-9.011h-9.969l-2.731,9.011h-5.1l9.878-30.668h6.1ZM186.745,90.36l-2.586-8.01q-.412-1.227-1.547-5.778h-.092q-.456,1.957-1.455,5.778l-2.55,8.01Zm34.326,1.455A12.523,12.523,0,0,1,218,100.733a8.991,8.991,0,0,1-6.821,2.909,6.827,6.827,0,0,1-6.318-3.137v11.6h-4.91V88.3q0-3.544-.183-7.273h4.323l.275,3.506h.092a8.745,8.745,0,0,1,14-.87,12.228,12.228,0,0,1,2.615,8.151Zm-5.01.179a9.116,9.116,0,0,0-1.455-5.334,5.036,5.036,0,0,0-4.28-2.184,5.113,5.113,0,0,0-3.3,1.206,5.591,5.591,0,0,0-1.939,3.164,6.416,6.416,0,0,0-.228,1.5v3.69a5.917,5.917,0,0,0,1.48,4.075,4.913,4.913,0,0,0,3.845,1.661,5.038,5.038,0,0,0,4.323-2.138A9.411,9.411,0,0,0,216.062,92Zm30.453-.179a12.523,12.523,0,0,1-3.071,8.918,9,9,0,0,1-6.822,2.909,6.827,6.827,0,0,1-6.318-3.137v11.6h-4.912V88.3q0-3.544-.183-7.273h4.323l.275,3.506h.092a8.749,8.749,0,0,1,14-.87A12.242,12.242,0,0,1,246.514,91.815Zm-5.01.179a9.117,9.117,0,0,0-1.455-5.334,5.028,5.028,0,0,0-4.275-2.184,5.133,5.133,0,0,0-3.3,1.206,5.587,5.587,0,0,0-1.94,3.165,6.568,6.568,0,0,0-.231,1.5v3.69a5.936,5.936,0,0,0,1.477,4.075,4.925,4.925,0,0,0,3.85,1.661,5.033,5.033,0,0,0,4.323-2.138A9.413,9.413,0,0,0,241.507,92Zm33.456,2.547a8.193,8.193,0,0,1-2.728,6.373,12.091,12.091,0,0,1-8.358,2.685,14.591,14.591,0,0,1-7.945-1.91l1.131-4.1a13.678,13.678,0,0,0,7.1,1.914,6.7,6.7,0,0,0,4.323-1.251,4.088,4.088,0,0,0,1.552-3.342,4.283,4.283,0,0,0-1.277-3.142,11.842,11.842,0,0,0-4.233-2.365q-8.059-3-8.06-8.786a7.758,7.758,0,0,1,2.845-6.189,11.253,11.253,0,0,1,7.535-2.413,14.892,14.892,0,0,1,6.964,1.455l-1.225,4.018a12.18,12.18,0,0,0-5.9-1.411,6,6,0,0,0-4.066,1.275,3.646,3.646,0,0,0-1.233,2.78,3.756,3.756,0,0,0,1.413,3,15.921,15.921,0,0,0,4.459,2.365,15.117,15.117,0,0,1,5.818,3.729,7.771,7.771,0,0,1,1.875,5.319Zm16.293-9.825h-5.414V95.455q0,4.1,2.869,4.094a8.637,8.637,0,0,0,2.184-.228l.136,3.732a11.139,11.139,0,0,1-3.822.545,5.893,5.893,0,0,1-4.553-1.778,8.713,8.713,0,0,1-1.639-5.962V84.705H277.78V81.023h3.232v-4.05l4.828-1.455v5.507h5.418v3.7Zm24.405,7.189a12.131,12.131,0,0,1-2.909,8.374,10.389,10.389,0,0,1-8.1,3.368,9.9,9.9,0,0,1-7.758-3.232A11.763,11.763,0,0,1,294,92.269a12.033,12.033,0,0,1,2.98-8.417,10.334,10.334,0,0,1,8.038-3.278,10.111,10.111,0,0,1,7.827,3.232,11.61,11.61,0,0,1,2.814,8.1Zm-5.1.113a9.9,9.9,0,0,0-1.317-5.219,4.865,4.865,0,0,0-4.417-2.634A4.936,4.936,0,0,0,300.32,86.8,10.066,10.066,0,0,0,299,92.111a9.872,9.872,0,0,0,1.319,5.22,5.041,5.041,0,0,0,8.889-.044,9.942,9.942,0,0,0,1.358-5.266Zm21.079-6.669a8.554,8.554,0,0,0-1.55-.136,4.64,4.64,0,0,0-4.007,1.959,7.378,7.378,0,0,0-1.227,4.364v11.6h-4.917V88q0-3.483-.142-6.963h4.281l.179,4.231h.136a7.586,7.586,0,0,1,2.458-3.506,5.944,5.944,0,0,1,3.556-1.185,7.892,7.892,0,0,1,1.228.091Zm21.981,5.691a11.521,11.521,0,0,1-.179,2.229H338.7a6.413,6.413,0,0,0,2.14,5.01,7.317,7.317,0,0,0,4.823,1.544,16.315,16.315,0,0,0,5.967-1.044l.769,3.409a18.451,18.451,0,0,1-7.417,1.367,10.753,10.753,0,0,1-8.081-3.024,11.18,11.18,0,0,1-2.935-8.123,12.667,12.667,0,0,1,2.735-8.325,9.421,9.421,0,0,1,7.735-3.548,8.243,8.243,0,0,1,7.242,3.548,11.934,11.934,0,0,1,1.951,6.961Zm-4.687-1.275a6.65,6.65,0,0,0-.955-3.777,4.293,4.293,0,0,0-3.914-2.051,4.661,4.661,0,0,0-3.913,2,7.34,7.34,0,0,0-1.455,3.821h10.237Z" transform="translate(-169.812 -72.006)"/></g><g transform="translate(100.702 15.104)"><path class="a" d="M178.341,42.212a31.392,31.392,0,0,1-3.535-.184V27.2a26.763,26.763,0,0,1,4.162-.314c5.637,0,8.233,2.773,8.233,7.292C187.2,39.395,184.135,42.212,178.341,42.212Zm.826-13.415a9.859,9.859,0,0,0-1.94.162V40.232a12.767,12.767,0,0,0,1.632.066c3.693,0,5.8-2.1,5.8-6.038a4.918,4.918,0,0,0-5.5-5.471Zm16.125,13.534a5.172,5.172,0,0,1-5.237-5.592,5.295,5.295,0,0,1,5.416-5.749,5.133,5.133,0,0,1,5.237,5.571,5.334,5.334,0,0,1-5.416,5.762Zm.092-9.575c-1.746,0-2.864,1.632-2.864,3.915,0,2.238,1.141,3.869,2.84,3.869s2.84-1.746,2.84-3.916c0-2.213-1.118-3.868-2.817-3.868Zm23.435-1.542-3.394,10.871H213.21L211.8,37.365a35.784,35.784,0,0,1-.874-3.51h-.047a23.529,23.529,0,0,1-.871,3.51l-1.5,4.721h-2.238l-3.2-10.871h2.483l1.232,5.172q.436,1.846.737,3.489h.047c.178-.915.469-2.059.894-3.467l1.545-5.188h1.962l1.477,5.078c.357,1.232.646,2.439.874,3.58h.065a31.28,31.28,0,0,1,.737-3.58l1.32-5.078h2.373Zm12.519,10.871h-2.416v-6.25c0-1.922-.737-2.885-2.193-2.885a2.508,2.508,0,0,0-2.416,2.662v6.465H221.9V34.32c0-.962-.023-1.991-.09-3.11h2.124l.113,1.678h.066a3.906,3.906,0,0,1,3.447-1.9c2.282,0,3.78,1.746,3.78,4.585v6.509Zm6.664,0h-2.424V26.219H238Zm8.81.247a5.172,5.172,0,0,1-5.237-5.592,5.295,5.295,0,0,1,5.413-5.749,5.132,5.132,0,0,1,5.237,5.571,5.324,5.324,0,0,1-5.41,5.76Zm.09-9.575c-1.746,0-2.864,1.632-2.864,3.915,0,2.238,1.144,3.869,2.838,3.869s2.84-1.746,2.84-3.916c0-2.213-1.114-3.868-2.815-3.868Zm14.85,9.327-.175-1.251h-.065a3.717,3.717,0,0,1-3.179,1.5,3.161,3.161,0,0,1-3.331-3.2c0-2.683,2.326-4.071,6.353-4.071v-.2c0-1.432-.758-2.148-2.263-2.148a5.088,5.088,0,0,0-2.84.808l-.485-1.589a6.95,6.95,0,0,1,3.732-.941c2.84,0,4.275,1.5,4.275,4.5v4a16.411,16.411,0,0,0,.162,2.6Zm-.331-5.414c-2.683,0-4.029.646-4.029,2.192a1.54,1.54,0,0,0,1.658,1.7,2.313,2.313,0,0,0,2.373-2.213Zm14.087,5.414L275.4,40.34h-.07a3.645,3.645,0,0,1-3.491,1.991c-2.622,0-4.563-2.3-4.563-5.549,0-3.394,2.012-5.794,4.761-5.794a3.266,3.266,0,0,1,3.071,1.477h.048V26.227h2.424v12.93c0,1.051.026,2.035.091,2.93h-2.151Zm-.357-6.4a2.63,2.63,0,0,0-2.546-2.819c-1.791,0-2.887,1.589-2.887,3.824,0,2.192,1.131,3.693,2.838,3.693a2.712,2.712,0,0,0,2.586-2.885V35.68ZM292.9,42.333a5.172,5.172,0,0,1-5.233-5.592,5.295,5.295,0,0,1,5.413-5.749,5.132,5.132,0,0,1,5.237,5.571,5.324,5.324,0,0,1-5.416,5.76ZM293,32.758c-1.742,0-2.861,1.632-2.861,3.915,0,2.238,1.141,3.869,2.838,3.869s2.84-1.746,2.84-3.916c0-2.213-1.114-3.868-2.817-3.868Zm18.32,9.327h-2.424v-6.25c0-1.922-.737-2.885-2.193-2.885a2.507,2.507,0,0,0-2.415,2.662v6.465h-2.424V34.32c0-.962-.023-1.991-.09-3.11h2.125l.113,1.678h.066a3.9,3.9,0,0,1,3.444-1.9c2.282,0,3.784,1.746,3.784,4.585Zm16.256-9.051h-2.659v5.279c0,1.343.465,2.014,1.406,2.014a4.762,4.762,0,0,0,1.072-.113l.068,1.813a5.353,5.353,0,0,1-1.875.27c-1.9,0-3.043-1.051-3.043-3.8V33.019h-1.586V31.207h1.586V29.216l2.373-.718v2.7h2.659Zm12.791,9.051H337.95v-6.2c0-1.939-.735-2.93-2.193-2.93a2.369,2.369,0,0,0-2.424,2.573v6.552h-2.407V26.219h2.415v6.53h.048a3.666,3.666,0,0,1,3.27-1.768c2.3,0,3.708,1.789,3.708,4.631v6.465Zm13.1-4.849h-7.25a3.119,3.119,0,0,0,3.426,3.22,8.167,8.167,0,0,0,2.93-.514l.377,1.678a9.078,9.078,0,0,1-3.648.671,5.048,5.048,0,0,1-5.413-5.479c0-3.333,2.061-5.838,5.141-5.838,2.778,0,4.525,2.059,4.525,5.172a4.658,4.658,0,0,1-.082,1.094Zm-2.216-1.721c0-1.678-.845-2.862-2.39-2.862a2.866,2.866,0,0,0-2.643,2.862Z" transform="translate(-174.806 -26.219)"/></g></svg>